<svg xmlns="http://www.w3.org/2000/svg" width="404.7779" height="2687.3565" viewBox="0 0 404.7779 2687.3565">
  <g id="Layer_2" data-name="Layer 2">
    <g id="finished_guitar" data-name="finished guitar">
      <g id="bare">
        <g id="iddle">
          <path d="M79.2829,1600.4468H221.1971v145.09c0,41.3564,16.7086,66.1727,26.3719,80.0952,16.9772,30.4165,52.9034,45.8406,52.9034,45.8406V2683.05s-40.1374,4.3068-150.475,4.3068S0,2678.5827,0,2678.5827V1745.14s22.2219,1.5668,48.8654-21.3355c12.0684-10.8238,24.6043-29.9574,30.4175-39.9642Z" fill="#f23005"/>
          <g>
            <rect x="1.5001" y="2091.1931" width="274.7974" height="124.5596" fill="#c92d00"/>
            <path d="M274.7973,2092.6932v121.5591H3V2092.6932H274.7973m3-3H0v127.5591H277.7973V2089.6932Z" fill="#aa0015"/>
          </g>
          <g>
            <rect x="1.5001" y="1881.616" width="274.7988" height="124.5586" fill="#c92d00"/>
            <path d="M274.7989,1883.1156v121.5591H3V1883.1156H274.7989m3-3H0v127.5591H277.7989V1880.1156Z" fill="#aa0015"/>
          </g>
          <g id="neck">
            <path d="M388.1271,82.511c8.7791-16.7111,37.0248-41.3261-8.9063-70.9092-27.1006-15.4691-61.8352-15.4691-88.8085,0,0,0-210.3038,254.1424-258.1641,315.6285a18.956,18.956,0,0,0-.8051,22.1134c16.3543,24.7446,35.2489,43.4121,59.5476,73.2732l-.28,23.62.0149,45.3543L70.8682,1880.1157h158.74L209.7807,491.5917l-.0149-45.3543s.617-37.5217.7442-56.6039C215.09,371.9062,379.2208,99.1091,388.1271,82.511Z" fill-rule="evenodd"/>
          </g>
        </g>
      </g>
    </g>
  </g>
</svg>
