<svg xmlns="http://www.w3.org/2000/svg" width="566.8055" height="1233.5433" viewBox="0 0 566.8055 1233.5433">
  <g id="Layer_2" data-name="Layer 2">
    <g id="finished_guitar" data-name="finished guitar">
      <g id="bare">
        <g id="left">
          <rect x="266.3331" y="644.6538" width="277.7973" height="127.5591" fill="#031ca6"/>
          <rect x="266.3331" y="435.0763" width="277.7989" height="127.5591" fill="#031ca6"/>
          <path d="M266.3331,300.101c-67.0556,0-146.7877-72.2551-151.2926-257.94C114.6741,25.1823,116.4059.2418,109.7367,0,78.0519,19.2651,63.4725,44.5754,47.0337,101.2281,9.1893,275.8427,115.09,420.9008,109.8655,514.9567c-.1334,126.66-89.01,249.6762-106.91,379.519-9.5491,90.3487-12.3608,290.0371,263.3775,339.0676Z" fill="#031ca6" fill-rule="evenodd"/>
          <g id="ickups">
            <rect id="plate" x="266.3331" y="426.4332" width="300.4724" height="354.2835" fill="#111"/>
            <g>
              <rect x="290.0139" y="645.6537" width="253.1182" height="125.5596" fill="#031ca6"/>
              <path d="M542.1319,646.6538V770.2129H291.0139V646.6538h251.118m2-2H289.0139V772.2129h255.118V644.6538Z"/>
            </g>
            <g>
              <rect x="290.0139" y="436.0765" width="253.1182" height="125.5586" fill="#031ca6"/>
              <path d="M542.1319,437.0762V560.6353H291.0139V437.0762h251.118m2-2H289.0139V562.6353h255.118V435.0762Z"/>
            </g>
            <rect x="317.3587" y="651.7404" width="198.4252" height="113.3858" fill="#a81b04"/>
            <rect x="317.3603" y="444.1629" width="198.4252" height="113.3858" fill="#a81b04"/>
          </g>
        </g>
      </g>
    </g>
  </g>
</svg>
