  0
SECTION
  2
HEADER
  9
$ACADVER
  1
AC1024
  9
$ACADMAINTVER
 70
     6
  9
$DWGCODEPAGE
  3
UNDEFINED
  9
$INSBASE
 10
0.0
 20
0.0
 30
0.0
  9
$EXTMIN
 10
1.000000000000000E+20
 20
1.000000000000000E+20
 30
1.000000000000000E+20
  9
$EXTMAX
 10
-1.000000000000000E+20
 20
-1.000000000000000E+20
 30
-1.000000000000000E+20
  9
$LIMMIN
 10
0.0
 20
0.0
  9
$LIMMAX
 10
12.0
 20
9.0
  9
$ORTHOMODE
 70
     0
  9
$REGENMODE
 70
     1
  9
$FILLMODE
 70
     1
  9
$QTEXTMODE
 70
     0
  9
$MIRRTEXT
 70
     1
  9
$LTSCALE
 40
1.0
  9
$ATTMODE
 70
     1
  9
$TEXTSIZE
 40
0.2
  9
$TRACEWID
 40
0.05
  9
$TEXTSTYLE
  7
Standard
  9
$CLAYER
  8
0
  9
$CELTYPE
  6
ByLayer
  9
$CECOLOR
 62
   256
  9
$CELTSCALE
 40
1.0
  9
$DISPSILH
 70
     0
  9
$DIMSCALE
 40
1.0
  9
$DIMASZ
 40
0.18
  9
$DIMEXO
 40
0.0625
  9
$DIMDLI
 40
0.38
  9
$DIMRND
 40
0.0
  9
$DIMDLE
 40
0.0
  9
$DIMEXE
 40
0.18
  9
$DIMTP
 40
0.0
  9
$DIMTM
 40
0.0
  9
$DIMTXT
 40
0.18
  9
$DIMCEN
 40
0.09
  9
$DIMTSZ
 40
0.0
  9
$DIMTOL
 70
     0
  9
$DIMLIM
 70
     0
  9
$DIMTIH
 70
     1
  9
$DIMTOH
 70
     1
  9
$DIMSE1
 70
     0
  9
$DIMSE2
 70
     0
  9
$DIMTAD
 70
     0
  9
$DIMZIN
 70
     0
  9
$DIMBLK
  1

  9
$DIMASO
 70
     1
  9
$DIMSHO
 70
     1
  9
$DIMPOST
  1

  9
$DIMAPOST
  1

  9
$DIMALT
 70
     0
  9
$DIMALTD
 70
     2
  9
$DIMALTF
 40
25.4
  9
$DIMLFAC
 40
1.0
  9
$DIMTOFL
 70
     0
  9
$DIMTVP
 40
0.0
  9
$DIMTIX
 70
     0
  9
$DIMSOXD
 70
     0
  9
$DIMSAH
 70
     0
  9
$DIMBLK1
  1

  9
$DIMBLK2
  1

  9
$DIMSTYLE
  2
Standard
  9
$DIMCLRD
 70
     0
  9
$DIMCLRE
 70
     0
  9
$DIMCLRT
 70
     0
  9
$DIMTFAC
 40
1.0
  9
$DIMGAP
 40
0.09
  9
$DIMJUST
 70
     0
  9
$DIMSD1
 70
     0
  9
$DIMSD2
 70
     0
  9
$DIMTOLJ
 70
     1
  9
$DIMTZIN
 70
     0
  9
$DIMALTZ
 70
     0
  9
$DIMALTTZ
 70
     0
  9
$DIMUPT
 70
     0
  9
$DIMDEC
 70
     4
  9
$DIMTDEC
 70
     4
  9
$DIMALTU
 70
     2
  9
$DIMALTTD
 70
     2
  9
$DIMTXSTY
  7
Standard
  9
$DIMAUNIT
 70
     0
  9
$DIMADEC
 70
     0
  9
$DIMALTRND
 40
0.0
  9
$DIMAZIN
 70
     0
  9
$DIMDSEP
 70
    46
  9
$DIMATFIT
 70
     3
  9
$DIMFRAC
 70
     0
  9
$DIMLDRBLK
  1

  9
$DIMLUNIT
 70
     2
  9
$DIMLWD
 70
    -2
  9
$DIMLWE
 70
    -2
  9
$DIMTMOVE
 70
     0
  9
$DIMFXL
 40
1.0
  9
$DIMFXLON
 70
     0
  9
$DIMJOGANG
 40
0.7853981633974483
  9
$DIMTFILL
 70
     0
  9
$DIMTFILLCLR
 70
     0
  9
$DIMARCSYM
 70
     0
  9
$DIMLTYPE
  6

  9
$DIMLTEX1
  6

  9
$DIMLTEX2
  6

  9
$DIMTXTDIRECTION
 70
     0
  9
$LUNITS
 70
     2
  9
$LUPREC
 70
     4
  9
$SKETCHINC
 40
0.1
  9
$FILLETRAD
 40
0.5
  9
$AUNITS
 70
     0
  9
$AUPREC
 70
     0
  9
$MENU
  1
.
  9
$ELEVATION
 40
0.0
  9
$PELEVATION
 40
0.0
  9
$THICKNESS
 40
0.0
  9
$LIMCHECK
 70
     0
  9
$CHAMFERA
 40
0.5
  9
$CHAMFERB
 40
0.5
  9
$CHAMFERC
 40
1.0
  9
$CHAMFERD
 40
0.0
  9
$SKPOLY
 70
     0
  9
$TDCREATE
 40
2459052.642094896
  9
$TDUCREATE
 40
2459052.892094907
  9
$TDUPDATE
 40
2459052.642094896
  9
$TDUUPDATE
 40
2459052.892094907
  9
$TDINDWG
 40
0.0000000116
  9
$TDUSRTIMER
 40
0.0000000116
  9
$USRTIMER
 70
     1
  9
$ANGBASE
 50
0.0
  9
$ANGDIR
 70
     0
  9
$PDMODE
 70
     0
  9
$PDSIZE
 40
0.0
  9
$PLINEWID
 40
0.0
  9
$SPLFRAME
 70
     0
  9
$SPLINETYPE
 70
     6
  9
$SPLINESEGS
 70
     8
  9
$HANDSEED
  5
27E
  9
$SURFTAB1
 70
     6
  9
$SURFTAB2
 70
     6
  9
$SURFTYPE
 70
     6
  9
$SURFU
 70
     6
  9
$SURFV
 70
     6
  9
$UCSBASE
  2

  9
$UCSNAME
  2

  9
$UCSORG
 10
0.0
 20
0.0
 30
0.0
  9
$UCSXDIR
 10
1.0
 20
0.0
 30
0.0
  9
$UCSYDIR
 10
0.0
 20
1.0
 30
0.0
  9
$UCSORTHOREF
  2

  9
$UCSORTHOVIEW
 70
     0
  9
$UCSORGTOP
 10
0.0
 20
0.0
 30
0.0
  9
$UCSORGBOTTOM
 10
0.0
 20
0.0
 30
0.0
  9
$UCSORGLEFT
 10
0.0
 20
0.0
 30
0.0
  9
$UCSORGRIGHT
 10
0.0
 20
0.0
 30
0.0
  9
$UCSORGFRONT
 10
0.0
 20
0.0
 30
0.0
  9
$UCSORGBACK
 10
0.0
 20
0.0
 30
0.0
  9
$PUCSBASE
  2

  9
$PUCSNAME
  2

  9
$PUCSORG
 10
0.0
 20
0.0
 30
0.0
  9
$PUCSXDIR
 10
1.0
 20
0.0
 30
0.0
  9
$PUCSYDIR
 10
0.0
 20
1.0
 30
0.0
  9
$PUCSORTHOREF
  2

  9
$PUCSORTHOVIEW
 70
     0
  9
$PUCSORGTOP
 10
0.0
 20
0.0
 30
0.0
  9
$PUCSORGBOTTOM
 10
0.0
 20
0.0
 30
0.0
  9
$PUCSORGLEFT
 10
0.0
 20
0.0
 30
0.0
  9
$PUCSORGRIGHT
 10
0.0
 20
0.0
 30
0.0
  9
$PUCSORGFRONT
 10
0.0
 20
0.0
 30
0.0
  9
$PUCSORGBACK
 10
0.0
 20
0.0
 30
0.0
  9
$USERI1
 70
     0
  9
$USERI2
 70
     0
  9
$USERI3
 70
     0
  9
$USERI4
 70
     0
  9
$USERI5
 70
     0
  9
$USERR1
 40
0.0
  9
$USERR2
 40
0.0
  9
$USERR3
 40
0.0
  9
$USERR4
 40
0.0
  9
$USERR5
 40
0.0
  9
$WORLDVIEW
 70
     1
  9
$SHADEDGE
 70
     3
  9
$SHADEDIF
 70
    70
  9
$TILEMODE
 70
     1
  9
$MAXACTVP
 70
    64
  9
$PINSBASE
 10
0.0
 20
0.0
 30
0.0
  9
$PLIMCHECK
 70
     0
  9
$PEXTMIN
 10
1.000000000000000E+20
 20
1.000000000000000E+20
 30
1.000000000000000E+20
  9
$PEXTMAX
 10
-1.000000000000000E+20
 20
-1.000000000000000E+20
 30
-1.000000000000000E+20
  9
$PLIMMIN
 10
0.0
 20
0.0
  9
$PLIMMAX
 10
12.0
 20
9.0
  9
$UNITMODE
 70
     0
  9
$VISRETAIN
 70
     1
  9
$PLINEGEN
 70
     0
  9
$PSLTSCALE
 70
     1
  9
$TREEDEPTH
 70
  3020
  9
$CMLSTYLE
  2
Standard
  9
$CMLJUST
 70
     0
  9
$CMLSCALE
 40
1.0
  9
$PROXYGRAPHICS
 70
     1
  9
$MEASUREMENT
 70
     0
  9
$CELWEIGHT
370
    -1
  9
$ENDCAPS
280
     0
  9
$JOINSTYLE
280
     0
  9
$LWDISPLAY
290
     1
  9
$INSUNITS
 70
     4
  9
$HYPERLINKBASE
  1

  9
$STYLESHEET
  1

  9
$XEDIT
290
     1
  9
$CEPSNTYPE
380
     0
  9
$PSTYLEMODE
290
     1
  9
$FINGERPRINTGUID
  2
{6EDD7721-6F88-7343-CC81-74BB887B5768}
  9
$VERSIONGUID
  2
{FAEB1C32-E019-11D5-929B-00C0DF256EC4}
  9
$EXTNAMES
290
     1
  9
$PSVPSCALE
 40
0.0
  9
$OLESTARTUP
290
     0
  9
$SORTENTS
280
   127
  9
$INDEXCTL
280
     0
  9
$HIDETEXT
280
     1
  9
$XCLIPFRAME
280
     2
  9
$HALOGAP
280
     0
  9
$OBSCOLOR
 70
   257
  9
$OBSLTYPE
280
     0
  9
$INTERSECTIONDISPLAY
280
     0
  9
$INTERSECTIONCOLOR
 70
   257
  9
$DIMASSOC
280
     2
  9
$PROJECTNAME
  1

  9
$CAMERADISPLAY
290
     0
  9
$LENSLENGTH
 40
50.0
  9
$CAMERAHEIGHT
 40
0.0
  9
$STEPSPERSEC
 40
2.0
  9
$STEPSIZE
 40
6.0
  9
$3DDWFPREC
 40
2.0
  9
$PSOLWIDTH
 40
0.25
  9
$PSOLHEIGHT
 40
4.0
  9
$LOFTANG1
 40
1.570796326794897
  9
$LOFTANG2
 40
1.570796326794897
  9
$LOFTMAG1
 40
0.0
  9
$LOFTMAG2
 40
0.0
  9
$LOFTPARAM
 70
     7
  9
$LOFTNORMALS
280
     1
  9
$LATITUDE
 40
37.795
  9
$LONGITUDE
 40
-122.394
  9
$NORTHDIRECTION
 40
0.0
  9
$TIMEZONE
 70
 -8000
  9
$LIGHTGLYPHDISPLAY
280
     1
  9
$TILEMODELIGHTSYNCH
280
     1
  9
$CMATERIAL
347
3C
  9
$SOLIDHIST
280
     1
  9
$SHOWHIST
280
     1
  9
$DWFFRAME
280
     2
  9
$DGNFRAME
280
     2
  9
$REALWORLDSCALE
290
     1
  9
$INTERFERECOLOR
 62
   256
  9
$CSHADOW
280
     0
  9
$SHADOWPLANELOCATION
 40
0.0
  0
ENDSEC
  0
SECTION
  2
CLASSES
  0
CLASS
  1
ACDBDICTIONARYWDFLT
  2
AcDbDictionaryWithDefault
  3
ObjectDBX Classes
 90
        0
 91
        4
280
     0
281
     0
  0
CLASS
  1
VISUALSTYLE
  2
AcDbVisualStyle
  3
ObjectDBX Classes
 90
     4095
 91
        4
280
     0
281
     0
  0
CLASS
  1
MATERIAL
  2
AcDbMaterial
  3
ObjectDBX Classes
 90
     1153
 91
        4
280
     0
281
     0
  0
CLASS
  1
SUN
  2
AcDbSun
  3
SCENEOE
 90
     1024
 91
        4
280
     0
281
     0
  0
ENDSEC
  0
SECTION
  2
TABLES
  0
TABLE
  2
VPORT
  5
8
330
0
100
AcDbSymbolTable
 70
     1
  0
VPORT
  5
29
330
8
100
AcDbSymbolTableRecord
100
AcDbViewportTableRecord
  2
*Active
 70
     0
 10
0.0
 20
0.0
 11
1.0
 21
1.0
 12
0.0
 22
0.0
 13
0.0
 23
0.0
 14
0.5
 24
0.5
 15
0.5
 25
0.5
 16
0.0
 26
0.0
 36
1.0
 17
301.1181488379785
 27
-561.2190981846069
 37
0.0
 40
962.2770852981429
 41
0.3303595333558823
 42
50.0
 43
0.0
 44
0.0
 50
0.0
 51
0.0
 71
     0
 72
   100
 73
     1
 74
     3
 75
     0
 76
     0
 77
     0
 78
     0
281
     0
 65
     1
110
0.0
120
0.0
130
0.0
111
1.0
121
0.0
131
0.0
112
0.0
122
1.0
132
0.0
 79
     0
146
0.0
 60
     3
 61
     5
292
     1
282
     1
141
0.0
142
0.0
 63
   250
361
3F
  0
ENDTAB
  0
TABLE
  2
LTYPE
  5
5
330
0
100
AcDbSymbolTable
 70
     1
  0
LTYPE
  5
14
330
5
100
AcDbSymbolTableRecord
100
AcDbLinetypeTableRecord
  2
ByBlock
 70
     0
  3

 72
    65
 73
     0
 40
0.0
  0
LTYPE
  5
15
330
5
100
AcDbSymbolTableRecord
100
AcDbLinetypeTableRecord
  2
ByLayer
 70
     0
  3

 72
    65
 73
     0
 40
0.0
  0
LTYPE
  5
16
330
5
100
AcDbSymbolTableRecord
100
AcDbLinetypeTableRecord
  2
Continuous
 70
     0
  3
Solid line
 72
    65
 73
     0
 40
0.0
  0
ENDTAB
  0
TABLE
  2
LAYER
  5
2
330
0
100
AcDbSymbolTable
 70
     2
  0
LAYER
  5
10
330
2
100
AcDbSymbolTableRecord
100
AcDbLayerTableRecord
  2
0
 70
     0
 62
     7
  6
Continuous
370
    -3
390
F
347
3E
  0
LAYER
  5
40
330
2
100
AcDbSymbolTableRecord
100
AcDbLayerTableRecord
  2
Layer 1
 70
     0
 62
     7
  6
Continuous
370
    -3
390
F
347
3E
  0
ENDTAB
  0
TABLE
  2
STYLE
  5
3
330
0
100
AcDbSymbolTable
 70
     1
  0
STYLE
  5
11
330
3
100
AcDbSymbolTableRecord
100
AcDbTextStyleTableRecord
  2
Standard
 70
     0
 40
0.0
 41
1.0
 50
0.0
 71
     0
 42
0.2
  3
txt
  4

  0
ENDTAB
  0
TABLE
  2
VIEW
  5
6
330
0
100
AcDbSymbolTable
 70
     0
  0
ENDTAB
  0
TABLE
  2
UCS
  5
7
330
0
100
AcDbSymbolTable
 70
     0
  0
ENDTAB
  0
TABLE
  2
APPID
  5
9
330
0
100
AcDbSymbolTable
 70
     1
  0
APPID
  5
12
330
9
100
AcDbSymbolTableRecord
100
AcDbRegAppTableRecord
  2
ACAD
 70
     0
  0
ENDTAB
  0
TABLE
  2
DIMSTYLE
  5
A
330
0
100
AcDbSymbolTable
 70
     1
100
AcDbDimStyleTable
  0
DIMSTYLE
105
27
330
A
100
AcDbSymbolTableRecord
100
AcDbDimStyleTableRecord
  2
Standard
 70
     0
178
     0
340
11
  0
ENDTAB
  0
TABLE
  2
BLOCK_RECORD
  5
1
330
0
100
AcDbSymbolTable
 70
    26
  0
BLOCK_RECORD
  5
1F
330
1
100
AcDbSymbolTableRecord
100
AcDbBlockTableRecord
  2
*Model_Space
340
22
 70
     0
280
     1
281
     0
  0
BLOCK_RECORD
  5
1B
330
1
100
AcDbSymbolTableRecord
100
AcDbBlockTableRecord
  2
*Paper_Space
340
1E
 70
     0
280
     1
281
     0
  0
BLOCK_RECORD
  5
23
330
1
100
AcDbSymbolTableRecord
100
AcDbBlockTableRecord
  2
*Paper_Space0
340
26
 70
     0
280
     1
281
     0
  0
BLOCK_RECORD
  5
41
330
1
100
AcDbSymbolTableRecord
100
AcDbBlockTableRecord
  2
block 2
340
0
102
{BLKREFS
331
42
102
}
 70
     0
280
     1
281
     0
  0
BLOCK_RECORD
  5
46
330
1
100
AcDbSymbolTableRecord
100
AcDbBlockTableRecord
  2
block 3
340
0
102
{BLKREFS
331
47
102
}
 70
     0
280
     1
281
     0
  0
BLOCK_RECORD
  5
4A
330
1
100
AcDbSymbolTableRecord
100
AcDbBlockTableRecord
  2
block 4
340
0
102
{BLKREFS
331
4B
102
}
 70
     0
280
     1
281
     0
  0
BLOCK_RECORD
  5
5E
330
1
100
AcDbSymbolTableRecord
100
AcDbBlockTableRecord
  2
block 5
340
0
102
{BLKREFS
331
5F
102
}
 70
     0
280
     1
281
     0
  0
BLOCK_RECORD
  5
6C
330
1
100
AcDbSymbolTableRecord
100
AcDbBlockTableRecord
  2
block 6
340
0
102
{BLKREFS
331
6D
102
}
 70
     0
280
     1
281
     0
  0
BLOCK_RECORD
  5
80
330
1
100
AcDbSymbolTableRecord
100
AcDbBlockTableRecord
  2
block 7
340
0
102
{BLKREFS
331
81
102
}
 70
     0
280
     1
281
     0
  0
BLOCK_RECORD
  5
84
330
1
100
AcDbSymbolTableRecord
100
AcDbBlockTableRecord
  2
block 8
340
0
102
{BLKREFS
331
85
102
}
 70
     0
280
     1
281
     0
  0
BLOCK_RECORD
  5
98
330
1
100
AcDbSymbolTableRecord
100
AcDbBlockTableRecord
  2
block 9
340
0
102
{BLKREFS
331
99
102
}
 70
     0
280
     1
281
     0
  0
BLOCK_RECORD
  5
9C
330
1
100
AcDbSymbolTableRecord
100
AcDbBlockTableRecord
  2
block 10
340
0
102
{BLKREFS
331
9D
102
}
 70
     0
280
     1
281
     0
  0
BLOCK_RECORD
  5
A0
330
1
100
AcDbSymbolTableRecord
100
AcDbBlockTableRecord
  2
block 11
340
0
102
{BLKREFS
331
A1
102
}
 70
     0
280
     1
281
     0
  0
BLOCK_RECORD
  5
AC
330
1
100
AcDbSymbolTableRecord
100
AcDbBlockTableRecord
  2
block 12
340
0
102
{BLKREFS
331
AD
102
}
 70
     0
280
     1
281
     0
  0
BLOCK_RECORD
  5
170
330
1
100
AcDbSymbolTableRecord
100
AcDbBlockTableRecord
  2
block 13
340
0
102
{BLKREFS
331
171
102
}
 70
     0
280
     1
281
     0
  0
BLOCK_RECORD
  5
174
330
1
100
AcDbSymbolTableRecord
100
AcDbBlockTableRecord
  2
block 14
340
0
102
{BLKREFS
331
175
102
}
 70
     0
280
     1
281
     0
  0
BLOCK_RECORD
  5
178
330
1
100
AcDbSymbolTableRecord
100
AcDbBlockTableRecord
  2
block 15
340
0
102
{BLKREFS
331
179
102
}
 70
     0
280
     1
281
     0
  0
BLOCK_RECORD
  5
184
330
1
100
AcDbSymbolTableRecord
100
AcDbBlockTableRecord
  2
block 16
340
0
102
{BLKREFS
331
185
102
}
 70
     0
280
     1
281
     0
  0
BLOCK_RECORD
  5
1C0
330
1
100
AcDbSymbolTableRecord
100
AcDbBlockTableRecord
  2
block 17
340
0
102
{BLKREFS
331
1C1
102
}
 70
     0
280
     1
281
     0
  0
BLOCK_RECORD
  5
1FE
330
1
100
AcDbSymbolTableRecord
100
AcDbBlockTableRecord
  2
block 18
340
0
102
{BLKREFS
331
1FF
102
}
 70
     0
280
     1
281
     0
  0
BLOCK_RECORD
  5
20C
330
1
100
AcDbSymbolTableRecord
100
AcDbBlockTableRecord
  2
block 19
340
0
102
{BLKREFS
331
20D
102
}
 70
     0
280
     1
281
     0
  0
BLOCK_RECORD
  5
210
330
1
100
AcDbSymbolTableRecord
100
AcDbBlockTableRecord
  2
block 20
340
0
102
{BLKREFS
331
211
102
}
 70
     0
280
     1
281
     0
  0
BLOCK_RECORD
  5
216
330
1
100
AcDbSymbolTableRecord
100
AcDbBlockTableRecord
  2
block 21
340
0
102
{BLKREFS
331
217
102
}
 70
     0
280
     1
281
     0
  0
BLOCK_RECORD
  5
234
330
1
100
AcDbSymbolTableRecord
100
AcDbBlockTableRecord
  2
block 22
340
0
102
{BLKREFS
331
235
102
}
 70
     0
280
     1
281
     0
  0
BLOCK_RECORD
  5
247
330
1
100
AcDbSymbolTableRecord
100
AcDbBlockTableRecord
  2
block 23
340
0
102
{BLKREFS
331
248
102
}
 70
     0
280
     1
281
     0
  0
BLOCK_RECORD
  5
26E
330
1
100
AcDbSymbolTableRecord
100
AcDbBlockTableRecord
  2
block 24
340
0
102
{BLKREFS
331
26F
102
}
 70
     0
280
     1
281
     0
  0
BLOCK_RECORD
  5
272
330
1
100
AcDbSymbolTableRecord
100
AcDbBlockTableRecord
  2
block 25
340
0
102
{BLKREFS
331
273
102
}
 70
     0
280
     1
281
     0
  0
BLOCK_RECORD
  5
276
330
1
100
AcDbSymbolTableRecord
100
AcDbBlockTableRecord
  2
block 26
340
0
102
{BLKREFS
331
277
102
}
 70
     0
280
     1
281
     0
  0
ENDTAB
  0
ENDSEC
  0
SECTION
  2
BLOCKS
  0
BLOCK
  5
20
330
1F
100
AcDbEntity
  8
0
100
AcDbBlockBegin
  2
*Model_Space
 70
     0
 10
0.0
 20
0.0
 30
0.0
  3
*Model_Space
  1

  0
ENDBLK
  5
21
330
1F
100
AcDbEntity
  8
0
100
AcDbBlockEnd
  0
BLOCK
  5
1C
330
1B
100
AcDbEntity
 67
     1
  8
0
100
AcDbBlockBegin
  2
*Paper_Space
 70
     0
 10
0.0
 20
0.0
 30
0.0
  3
*Paper_Space
  1

  0
ENDBLK
  5
1D
330
1B
100
AcDbEntity
 67
     1
  8
0
100
AcDbBlockEnd
  0
BLOCK
  5
24
330
23
100
AcDbEntity
  8
0
100
AcDbBlockBegin
  2
*Paper_Space0
 70
     0
 10
0.0
 20
0.0
 30
0.0
  3
*Paper_Space0
  1

  0
ENDBLK
  5
25
330
23
100
AcDbEntity
  8
0
100
AcDbBlockEnd
  0
BLOCK
  5
43
330
41
100
AcDbEntity
  8
0
100
AcDbBlockBegin
  2
block 2
 70
     0
 10
0.0
 20
0.0
 30
0.0
  3
block 2
  1

  0
SPLINE
  5
45
330
41
100
AcDbEntity
  8
Layer 1
 62
     7
420
 16777215
370
    35
100
AcDbSpline
210
0.0
220
0.0
230
1.0
 70
     8
 71
     3
 72
     8
 73
     4
 74
     0
 42
0.0000000001
 43
0.0000000001
 12
1.0
 22
0.0
 32
0.0
 13
1.0
 23
0.0
 33
0.0
 40
0.0
 40
0.0
 40
0.0
 40
0.0
 40
1.0
 40
1.0
 40
1.0
 40
1.0
 10
215.3312929463433
 20
-688.295214634952
 30
0.0
 10
243.2429513429845
 20
-716.2068730315932
 30
0.0
 10
312.0766728811383
 20
-745.346685983008
 30
0.0
 10
349.2003320058902
 20
-745.346685983008
 30
0.0
  0
INSERT
  5
47
330
41
100
AcDbEntity
  8
Layer 1
100
AcDbBlockReference
  2
block 3
 10
0.0
 20
0.0
 30
0.0
  0
INSERT
  5
99
330
41
100
AcDbEntity
  8
Layer 1
100
AcDbBlockReference
  2
block 9
 10
0.0
 20
0.0
 30
0.0
  0
INSERT
  5
1FF
330
41
100
AcDbEntity
  8
Layer 1
100
AcDbBlockReference
  2
block 18
 10
0.0
 20
0.0
 30
0.0
  0
INSERT
  5
26F
330
41
100
AcDbEntity
  8
Layer 1
100
AcDbBlockReference
  2
block 24
 10
0.0
 20
0.0
 30
0.0
  0
ENDBLK
  5
44
330
41
100
AcDbEntity
  8
0
100
AcDbBlockEnd
  0
BLOCK
  5
48
330
46
100
AcDbEntity
  8
0
100
AcDbBlockBegin
  2
block 3
 70
     0
 10
0.0
 20
0.0
 30
0.0
  3
block 3
  1

  0
INSERT
  5
4B
330
46
100
AcDbEntity
  8
Layer 1
100
AcDbBlockReference
  2
block 4
 10
0.0
 20
0.0
 30
0.0
  0
INSERT
  5
5F
330
46
100
AcDbEntity
  8
Layer 1
100
AcDbBlockReference
  2
block 5
 10
0.0
 20
0.0
 30
0.0
  0
INSERT
  5
6D
330
46
100
AcDbEntity
  8
Layer 1
100
AcDbBlockReference
  2
block 6
 10
0.0
 20
0.0
 30
0.0
  0
ENDBLK
  5
49
330
46
100
AcDbEntity
  8
0
100
AcDbBlockEnd
  0
BLOCK
  5
4C
330
4A
100
AcDbEntity
  8
0
100
AcDbBlockBegin
  2
block 4
 70
     0
 10
0.0
 20
0.0
 30
0.0
  3
block 4
  1

  0
POLYLINE
  5
4E
330
4A
100
AcDbEntity
  8
Layer 1
370
     0
100
AcDb2dPolyline
 66
     1
 10
0.0
 20
0.0
 30
0.0
  0
VERTEX
  5
4F
330
4E
100
AcDbEntity
  8
Layer 1
370
     0
100
AcDbVertex
100
AcDb2dVertex
 10
346.2007988307936
 20
-925.7370828408414
 30
0.0
  0
VERTEX
  5
50
330
4E
100
AcDbEntity
  8
Layer 1
370
     0
100
AcDbVertex
100
AcDb2dVertex
 10
256.2007988532936
 20
-925.7370828408439
 30
0.0
  0
VERTEX
  5
51
330
4E
100
AcDbEntity
  8
Layer 1
370
     0
100
AcDbVertex
100
AcDb2dVertex
 10
256.2007988532936
 20
-797.7370828728448
 30
0.0
  0
VERTEX
  5
52
330
4E
100
AcDbEntity
  8
Layer 1
370
     0
100
AcDbVertex
100
AcDb2dVertex
 10
346.2007988307936
 20
-797.7370828728422
 30
0.0
  0
VERTEX
  5
53
330
4E
100
AcDbEntity
  8
Layer 1
370
     0
100
AcDbVertex
100
AcDb2dVertex
 10
346.2007988307936
 20
-925.7370828408414
 30
0.0
  0
SEQEND
  5
55
330
4E
100
AcDbEntity
  8
Layer 1
370
     0
  0
HATCH
  5
54
330
4A
100
AcDbEntity
  8
Layer 1
 62
   178
420
       51
100
AcDbHatch
 10
0.0
 20
0.0
 30
0.0
210
0.0
220
0.0
230
1.0
  2
SOLID
 70
     1
 71
     0
 91
        1
 92
        1
 93
        4
 72
     1
 10
346.2007988307936
 20
-925.7370828408414
 11
256.2007988532936
 21
-925.7370828408439
 72
     1
 10
256.2007988532936
 20
-925.7370828408439
 11
256.2007988532936
 21
-797.7370828728448
 72
     1
 10
256.2007988532936
 20
-797.7370828728448
 11
346.2007988307936
 21
-797.7370828728422
 72
     1
 10
346.2007988307936
 20
-797.7370828728422
 11
346.2007988307936
 21
-925.7370828408414
 97
        0
 75
     0
 76
     1
 98
        0
  0
POLYLINE
  5
56
330
4A
100
AcDbEntity
  8
Layer 1
370
     0
100
AcDb2dPolyline
 66
     1
 10
0.0
 20
0.0
 30
0.0
  0
VERTEX
  5
57
330
56
100
AcDbEntity
  8
Layer 1
370
     0
100
AcDbVertex
100
AcDb2dVertex
 10
326.2010559192416
 20
-898.7370828475955
 30
0.0
  0
VERTEX
  5
58
330
56
100
AcDbEntity
  8
Layer 1
370
     0
100
AcDbVertex
100
AcDb2dVertex
 10
266.2010559342411
 20
-898.737082847593
 30
0.0
  0
VERTEX
  5
59
330
56
100
AcDbEntity
  8
Layer 1
370
     0
100
AcDbVertex
100
AcDb2dVertex
 10
266.2010559342398
 20
-798.7370828725913
 30
0.0
  0
VERTEX
  5
5A
330
56
100
AcDbEntity
  8
Layer 1
370
     0
100
AcDbVertex
100
AcDb2dVertex
 10
326.2010559192403
 20
-798.7370828725926
 30
0.0
  0
VERTEX
  5
5B
330
56
100
AcDbEntity
  8
Layer 1
370
     0
100
AcDbVertex
100
AcDb2dVertex
 10
326.2010559192416
 20
-898.7370828475955
 30
0.0
  0
SEQEND
  5
5D
330
56
100
AcDbEntity
  8
Layer 1
370
     0
  0
HATCH
  5
5C
330
4A
100
AcDbEntity
  8
Layer 1
 62
   164
420
   203942
100
AcDbHatch
 10
0.0
 20
0.0
 30
0.0
210
0.0
220
0.0
230
1.0
  2
SOLID
 70
     1
 71
     0
 91
        1
 92
        1
 93
        4
 72
     1
 10
326.2010559192416
 20
-898.7370828475955
 11
266.2010559342411
 21
-898.737082847593
 72
     1
 10
266.2010559342411
 20
-898.737082847593
 11
266.2010559342398
 21
-798.7370828725913
 72
     1
 10
266.2010559342398
 20
-798.7370828725913
 11
326.2010559192403
 21
-798.7370828725926
 72
     1
 10
326.2010559192403
 20
-798.7370828725926
 11
326.2010559192416
 21
-898.7370828475955
 97
        0
 75
     0
 76
     1
 98
        0
  0
ENDBLK
  5
4D
330
4A
100
AcDbEntity
  8
0
100
AcDbBlockEnd
  0
BLOCK
  5
60
330
5E
100
AcDbEntity
  8
0
100
AcDbBlockBegin
  2
block 5
 70
     0
 10
0.0
 20
0.0
 30
0.0
  3
block 5
  1

  0
SPLINE
  5
62
330
5E
100
AcDbEntity
  8
Layer 1
370
     0
100
AcDbSpline
210
0.0
220
0.0
230
1.0
 70
    11
 71
     3
 72
    38
 73
    34
 74
     0
 42
0.0000000001
 43
0.0000000001
 12
1.0
 22
0.0
 32
0.0
 13
1.0
 23
0.0
 33
0.0
 40
0.0
 40
0.0
 40
0.0
 40
0.0
 40
1.0
 40
1.0
 40
1.0
 40
2.0
 40
2.0
 40
2.0
 40
3.0
 40
3.0
 40
3.0
 40
4.0
 40
4.0
 40
4.0
 40
5.0
 40
5.0
 40
5.0
 40
6.0
 40
6.0
 40
6.0
 40
7.0
 40
7.0
 40
7.0
 40
8.0
 40
8.0
 40
8.0
 40
9.0
 40
9.0
 40
9.0
 40
10.0
 40
10.0
 40
10.0
 40
11.0
 40
11.0
 40
11.0
 40
11.0
 10
271.1695653031877
 20
-649.7348148030773
 30
0.0
 10
271.1695653031877
 20
-649.7348148030773
 30
0.0
 10
312.4061557489061
 20
-649.7348148030773
 30
0.0
 10
321.2337585115735
 20
-649.7348148030773
 30
0.0
 10
321.2337585115735
 20
-655.6517073589897
 30
0.0
 10
321.2337585115735
 20
-686.3297536630721
 30
0.0
 10
321.2337585115735
 20
-700.9193523672435
 30
0.0
 10
321.2337585115735
 20
-715.5089510714199
 30
0.0
 10
327.1281873480506
 20
-724.2635970373118
 30
0.0
 10
330.5371868040327
 20
-729.1751470855482
 30
0.0
 10
336.5263437989411
 20
-739.9053938692525
 30
0.0
 10
349.2003320058902
 20
-745.346685983008
 30
0.0
 10
349.2003320058902
 20
-745.346685983008
 30
0.0
 10
349.2003320058902
 20
-745.346685983008
 30
0.0
 10
349.2003320058902
 20
-1031.653059922016
 30
0.0
 10
349.2003320058902
 20
-1031.653059922016
 30
0.0
 10
349.2003320058902
 20
-1031.653059922016
 30
0.0
 10
335.0407382400679
 20
-1033.172393580348
 30
0.0
 10
296.1160900143516
 20
-1033.172393580348
 30
0.0
 10
257.1914417886284
 20
-1033.172393580348
 30
0.0
 10
243.2003320323918
 20
-1030.077190693087
 30
0.0
 10
243.2003320323918
 20
-1030.077190693087
 30
0.0
 10
243.2003320323918
 20
-1030.077190693087
 30
0.0
 10
243.2003320323918
 20
-700.7794924785962
 30
0.0
 10
243.2003320323918
 20
-700.7794924785962
 30
0.0
 10
243.2003320323918
 20
-700.7794924785962
 30
0.0
 10
251.0397230628978
 20
-701.3322354553163
 30
0.0
 10
260.4389679483303
 20
-693.2527922311227
 30
0.0
 10
264.696409304032
 20
-689.4344060110519
 30
0.0
 10
269.1187934270185
 20
-682.6844978097187
 30
0.0
 10
271.1695653031877
 20
-679.1543192680239
 30
0.0
 10
271.1695653031877
 20
-673.110070108449
 30
0.0
 10
271.1695653031877
 20
-649.7348148030773
 30
0.0
 10
271.1695653031877
 20
-649.7348148030773
 30
0.0
  0
HATCH
  5
63
330
5E
100
AcDbEntity
  8
Layer 1
 62
    20
420
 15872005
100
AcDbHatch
 10
0.0
 20
0.0
 30
0.0
210
0.0
220
0.0
230
1.0
  2
SOLID
 70
     1
 71
     0
 91
        1
 92
        1
 93
        1
 72
     4
 94
        3
 73
     0
 74
     1
 95
       38
 96
       34
 40
0.0
 40
0.0
 40
0.0
 40
0.0
 40
1.0
 40
1.0
 40
1.0
 40
2.0
 40
2.0
 40
2.0
 40
3.0
 40
3.0
 40
3.0
 40
4.0
 40
4.0
 40
4.0
 40
5.0
 40
5.0
 40
5.0
 40
6.0
 40
6.0
 40
6.0
 40
7.0
 40
7.0
 40
7.0
 40
8.0
 40
8.0
 40
8.0
 40
9.0
 40
9.0
 40
9.0
 40
10.0
 40
10.0
 40
10.0
 40
11.0
 40
11.0
 40
11.0
 40
11.0
 10
271.1695653031877
 20
-649.7348148030773
 10
271.1695653031877
 20
-649.7348148030773
 10
312.4061557489061
 20
-649.7348148030773
 10
321.2337585115735
 20
-649.7348148030773
 10
321.2337585115735
 20
-655.6517073589897
 10
321.2337585115735
 20
-686.3297536630721
 10
321.2337585115735
 20
-700.9193523672435
 10
321.2337585115735
 20
-715.5089510714199
 10
327.1281873480506
 20
-724.2635970373118
 10
330.5371868040327
 20
-729.1751470855482
 10
336.5263437989411
 20
-739.9053938692525
 10
349.2003320058902
 20
-745.346685983008
 10
349.2003320058902
 20
-745.346685983008
 10
349.2003320058902
 20
-745.346685983008
 10
349.2003320058902
 20
-1031.653059922016
 10
349.2003320058902
 20
-1031.653059922016
 10
349.2003320058902
 20
-1031.653059922016
 10
335.0407382400679
 20
-1033.172393580348
 10
296.1160900143516
 20
-1033.172393580348
 10
257.1914417886284
 20
-1033.172393580348
 10
243.2003320323918
 20
-1030.077190693087
 10
243.2003320323918
 20
-1030.077190693087
 10
243.2003320323918
 20
-1030.077190693087
 10
243.2003320323918
 20
-700.7794924785962
 10
243.2003320323918
 20
-700.7794924785962
 10
243.2003320323918
 20
-700.7794924785962
 10
251.0397230628978
 20
-701.3322354553163
 10
260.4389679483303
 20
-693.2527922311227
 10
264.696409304032
 20
-689.4344060110519
 10
269.1187934270185
 20
-682.6844978097187
 10
271.1695653031877
 20
-679.1543192680239
 10
271.1695653031877
 20
-673.110070108449
 10
271.1695653031877
 20
-649.7348148030773
 10
271.1695653031877
 20
-649.7348148030773
 97
        0
 97
        0
 75
     2
 76
     1
 98
        0
  0
POLYLINE
  5
64
330
5E
100
AcDbEntity
  8
Layer 1
370
     0
100
AcDb2dPolyline
 66
     1
 10
0.0
 20
0.0
 30
0.0
  0
VERTEX
  5
65
330
64
100
AcDbEntity
  8
Layer 1
370
     0
100
AcDbVertex
100
AcDb2dVertex
 10
349.2003320058895
 20
-822.3300683668241
 30
0.0
  0
VERTEX
  5
66
330
64
100
AcDbEntity
  8
Layer 1
370
     0
100
AcDbVertex
100
AcDb2dVertex
 10
243.2003320323918
 20
-822.3300683668241
 30
0.0
  0
VERTEX
  5
67
330
64
100
AcDbEntity
  8
Layer 1
370
     0
100
AcDbVertex
100
AcDb2dVertex
 10
243.2003320323918
 20
-793.3957730781648
 30
0.0
  0
VERTEX
  5
68
330
64
100
AcDbEntity
  8
Layer 1
370
     0
100
AcDbVertex
100
AcDb2dVertex
 10
349.2003320058895
 20
-793.3957730781648
 30
0.0
  0
VERTEX
  5
69
330
64
100
AcDbEntity
  8
Layer 1
370
     0
100
AcDbVertex
100
AcDb2dVertex
 10
349.2003320058895
 20
-822.3300683668241
 30
0.0
  0
SEQEND
  5
6B
330
64
100
AcDbEntity
  8
Layer 1
370
     0
  0
HATCH
  5
6A
330
5E
100
AcDbEntity
  8
Layer 1
 62
    20
420
 15872005
100
AcDbHatch
 10
0.0
 20
0.0
 30
0.0
210
0.0
220
0.0
230
1.0
  2
SOLID
 70
     1
 71
     0
 91
        1
 92
        1
 93
        4
 72
     1
 10
349.2003320058895
 20
-822.3300683668241
 11
243.2003320323918
 21
-822.3300683668241
 72
     1
 10
243.2003320323918
 20
-822.3300683668241
 11
243.2003320323918
 21
-793.3957730781648
 72
     1
 10
243.2003320323918
 20
-793.3957730781648
 11
349.2003320058895
 21
-793.3957730781648
 72
     1
 10
349.2003320058895
 20
-793.3957730781648
 11
349.2003320058895
 21
-822.3300683668241
 97
        0
 75
     2
 76
     1
 98
        0
  0
ENDBLK
  5
61
330
5E
100
AcDbEntity
  8
0
100
AcDbBlockEnd
  0
BLOCK
  5
6E
330
6C
100
AcDbEntity
  8
0
100
AcDbBlockBegin
  2
block 6
 70
     0
 10
0.0
 20
0.0
 30
0.0
  3
block 6
  1

  0
POLYLINE
  5
70
330
6C
100
AcDbEntity
  8
Layer 1
370
     0
100
AcDb2dPolyline
 66
     1
 10
0.0
 20
0.0
 30
0.0
  0
VERTEX
  5
71
330
70
100
AcDbEntity
  8
Layer 1
370
     0
100
AcDbVertex
100
AcDb2dVertex
 10
261.2016054214749
 20
-954.6267867107013
 30
0.0
  0
VERTEX
  5
72
330
70
100
AcDbEntity
  8
Layer 1
370
     0
100
AcDbVertex
100
AcDb2dVertex
 10
261.2016054214749
 20
-923.6267867184512
 30
0.0
  0
VERTEX
  5
73
330
70
100
AcDbEntity
  8
Layer 1
370
     0
100
AcDbVertex
100
AcDb2dVertex
 10
331.2010559551525
 20
-923.6267867184512
 30
0.0
  0
VERTEX
  5
74
330
70
100
AcDbEntity
  8
Layer 1
370
     0
100
AcDbVertex
100
AcDb2dVertex
 10
331.2010559551525
 20
-954.6267867107013
 30
0.0
  0
VERTEX
  5
75
330
70
100
AcDbEntity
  8
Layer 1
370
     0
100
AcDbVertex
100
AcDb2dVertex
 10
261.2016054214749
 20
-954.6267867107013
 30
0.0
  0
SEQEND
  5
77
330
70
100
AcDbEntity
  8
Layer 1
370
     0
  0
HATCH
  5
76
330
6C
100
AcDbEntity
  8
Layer 1
 62
   178
420
       51
100
AcDbHatch
 10
0.0
 20
0.0
 30
0.0
210
0.0
220
0.0
230
1.0
  2
SOLID
 70
     1
 71
     0
 91
        1
 92
        1
 93
        4
 72
     1
 10
261.2016054214749
 20
-954.6267867107013
 11
261.2016054214749
 21
-923.6267867184512
 72
     1
 10
261.2016054214749
 20
-923.6267867184512
 11
331.2010559551525
 21
-923.6267867184512
 72
     1
 10
331.2010559551525
 20
-923.6267867184512
 11
331.2010559551525
 21
-954.6267867107013
 72
     1
 10
331.2010559551525
 20
-954.6267867107013
 11
261.2016054214749
 21
-954.6267867107013
 97
        0
 75
     0
 76
     1
 98
        0
  0
POLYLINE
  5
78
330
6C
100
AcDbEntity
  8
Layer 1
370
     0
100
AcDb2dPolyline
 66
     1
 10
0.0
 20
0.0
 30
0.0
  0
VERTEX
  5
79
330
78
100
AcDbEntity
  8
Layer 1
370
     0
100
AcDbVertex
100
AcDb2dVertex
 10
344.7593921073227
 20
-923.6267867184512
 30
0.0
  0
VERTEX
  5
7A
330
78
100
AcDbEntity
  8
Layer 1
370
     0
100
AcDbVertex
100
AcDb2dVertex
 10
249.7593921310725
 20
-923.6267867184512
 30
0.0
  0
VERTEX
  5
7B
330
78
100
AcDbEntity
  8
Layer 1
370
     0
100
AcDbVertex
100
AcDb2dVertex
 10
249.7593921310725
 20
-881.6267867289544
 30
0.0
  0
VERTEX
  5
7C
330
78
100
AcDbEntity
  8
Layer 1
370
     0
100
AcDbVertex
100
AcDb2dVertex
 10
344.7593921073227
 20
-881.6267867289544
 30
0.0
  0
VERTEX
  5
7D
330
78
100
AcDbEntity
  8
Layer 1
370
     0
100
AcDbVertex
100
AcDb2dVertex
 10
344.7593921073227
 20
-923.6267867184512
 30
0.0
  0
SEQEND
  5
7F
330
78
100
AcDbEntity
  8
Layer 1
370
     0
  0
HATCH
  5
7E
330
6C
100
AcDbEntity
  8
Layer 1
 62
   178
420
       51
100
AcDbHatch
 10
0.0
 20
0.0
 30
0.0
210
0.0
220
0.0
230
1.0
  2
SOLID
 70
     1
 71
     0
 91
        1
 92
        1
 93
        4
 72
     1
 10
344.7593921073227
 20
-923.6267867184512
 11
249.7593921310725
 21
-923.6267867184512
 72
     1
 10
249.7593921310725
 20
-923.6267867184512
 11
249.7593921310725
 21
-881.6267867289544
 72
     1
 10
249.7593921310725
 20
-881.6267867289544
 11
344.7593921073227
 21
-881.6267867289544
 72
     1
 10
344.7593921073227
 20
-881.6267867289544
 11
344.7593921073227
 21
-923.6267867184512
 97
        0
 75
     0
 76
     1
 98
        0
  0
INSERT
  5
81
330
6C
100
AcDbEntity
  8
Layer 1
100
AcDbBlockReference
  2
block 7
 10
0.0
 20
0.0
 30
0.0
  0
POLYLINE
  5
90
330
6C
100
AcDbEntity
  8
Layer 1
370
     0
100
AcDb2dPolyline
 66
     1
 10
0.0
 20
0.0
 30
0.0
  0
VERTEX
  5
91
330
90
100
AcDbEntity
  8
Layer 1
370
     0
100
AcDbVertex
100
AcDb2dVertex
 10
264.9809555597574
 20
-898.6267867247024
 30
0.0
  0
VERTEX
  5
92
330
90
100
AcDbEntity
  8
Layer 1
370
     0
100
AcDbVertex
100
AcDb2dVertex
 10
339.9809555410077
 20
-898.6267867247024
 30
0.0
  0
VERTEX
  5
93
330
90
100
AcDbEntity
  8
Layer 1
370
     0
100
AcDbVertex
100
AcDb2dVertex
 10
339.9809555410077
 20
-923.6267867184512
 30
0.0
  0
VERTEX
  5
94
330
90
100
AcDbEntity
  8
Layer 1
370
     0
100
AcDbVertex
100
AcDb2dVertex
 10
264.9809555597574
 20
-923.6267867184512
 30
0.0
  0
VERTEX
  5
95
330
90
100
AcDbEntity
  8
Layer 1
370
     0
100
AcDbVertex
100
AcDb2dVertex
 10
264.9809555597574
 20
-898.6267867247024
 30
0.0
  0
SEQEND
  5
97
330
90
100
AcDbEntity
  8
Layer 1
370
     0
  0
HATCH
  5
96
330
6C
100
AcDbEntity
  8
Layer 1
 62
     7
420
 16777215
100
AcDbHatch
 10
0.0
 20
0.0
 30
0.0
210
0.0
220
0.0
230
1.0
  2
SOLID
 70
     1
 71
     0
 91
        1
 92
        1
 93
        4
 72
     1
 10
264.9809555597574
 20
-898.6267867247024
 11
339.9809555410077
 21
-898.6267867247024
 72
     1
 10
339.9809555410077
 20
-898.6267867247024
 11
339.9809555410077
 21
-923.6267867184512
 72
     1
 10
339.9809555410077
 20
-923.6267867184512
 11
264.9809555597574
 21
-923.6267867184512
 72
     1
 10
264.9809555597574
 20
-923.6267867184512
 11
264.9809555597574
 21
-898.6267867247024
 97
        0
 75
     0
 76
     1
 98
        0
  0
ENDBLK
  5
6F
330
6C
100
AcDbEntity
  8
0
100
AcDbBlockEnd
  0
BLOCK
  5
82
330
80
100
AcDbEntity
  8
0
100
AcDbBlockBegin
  2
block 7
 70
     0
 10
0.0
 20
0.0
 30
0.0
  3
block 7
  1

  0
INSERT
  5
85
330
80
100
AcDbEntity
  8
Layer 1
100
AcDbBlockReference
  2
block 8
 10
0.0
 20
0.0
 30
0.0
  0
ENDBLK
  5
83
330
80
100
AcDbEntity
  8
0
100
AcDbBlockEnd
  0
BLOCK
  5
86
330
84
100
AcDbEntity
  8
0
100
AcDbBlockBegin
  2
block 8
 70
     0
 10
0.0
 20
0.0
 30
0.0
  3
block 8
  1

  0
POLYLINE
  5
88
330
84
100
AcDbEntity
  8
Layer 1
370
     0
100
AcDb2dPolyline
 66
     1
 10
0.0
 20
0.0
 30
0.0
  0
VERTEX
  5
89
330
88
100
AcDbEntity
  8
Layer 1
370
     0
100
AcDbVertex
100
AcDb2dVertex
 10
249.7593888400124
 20
-881.6268064202184
 30
0.0
  0
VERTEX
  5
8A
330
88
100
AcDbEntity
  8
Layer 1
370
     0
100
AcDbVertex
100
AcDb2dVertex
 10
249.7593888400124
 20
-898.6268023469579
 30
0.0
  0
VERTEX
  5
8B
330
88
100
AcDbEntity
  8
Layer 1
370
     0
100
AcDbVertex
100
AcDb2dVertex
 10
344.7593825432047
 20
-898.6268023469579
 30
0.0
  0
VERTEX
  5
8C
330
88
100
AcDbEntity
  8
Layer 1
370
     0
100
AcDbVertex
100
AcDb2dVertex
 10
344.7593825432047
 20
-881.6268064202184
 30
0.0
  0
VERTEX
  5
8D
330
88
100
AcDbEntity
  8
Layer 1
370
     0
100
AcDbVertex
100
AcDb2dVertex
 10
249.7593888400124
 20
-881.6268064202184
 30
0.0
  0
SEQEND
  5
8F
330
88
100
AcDbEntity
  8
Layer 1
370
     0
  0
HATCH
  5
8E
330
84
100
AcDbEntity
  8
Layer 1
 62
     7
420
 16777215
100
AcDbHatch
 10
0.0
 20
0.0
 30
0.0
210
0.0
220
0.0
230
1.0
  2
SOLID
 70
     1
 71
     0
 91
        1
 92
        1
 93
        4
 72
     1
 10
249.7593888400124
 20
-881.6268064202184
 11
249.7593888400124
 21
-898.6268023469579
 72
     1
 10
249.7593888400124
 20
-898.6268023469579
 11
344.7593825432047
 21
-898.6268023469579
 72
     1
 10
344.7593825432047
 20
-898.6268023469579
 11
344.7593825432047
 21
-881.6268064202184
 72
     1
 10
344.7593825432047
 20
-881.6268064202184
 11
249.7593888400124
 21
-881.6268064202184
 97
        0
 75
     0
 76
     1
 98
        0
  0
ENDBLK
  5
87
330
84
100
AcDbEntity
  8
0
100
AcDbBlockEnd
  0
BLOCK
  5
9A
330
98
100
AcDbEntity
  8
0
100
AcDbBlockBegin
  2
block 9
 70
     0
 10
0.0
 20
0.0
 30
0.0
  3
block 9
  1

  0
INSERT
  5
9D
330
98
100
AcDbEntity
  8
Layer 1
100
AcDbBlockReference
  2
block 10
 10
0.0
 20
0.0
 30
0.0
  0
INSERT
  5
AD
330
98
100
AcDbEntity
  8
Layer 1
100
AcDbBlockReference
  2
block 12
 10
0.0
 20
0.0
 30
0.0
  0
INSERT
  5
171
330
98
100
AcDbEntity
  8
Layer 1
100
AcDbBlockReference
  2
block 13
 10
0.0
 20
0.0
 30
0.0
  0
SPLINE
  5
1FC
330
98
100
AcDbEntity
  8
Layer 1
370
     0
100
AcDbSpline
210
0.0
220
0.0
230
1.0
 70
     8
 71
     3
 72
    29
 73
    25
 74
     0
 42
0.0000000001
 43
0.0000000001
 12
1.0
 22
0.0
 32
0.0
 13
1.0
 23
0.0
 33
0.0
 40
0.0
 40
0.0
 40
0.0
 40
0.0
 40
1.0
 40
1.0
 40
1.0
 40
2.0
 40
2.0
 40
2.0
 40
3.0
 40
3.0
 40
3.0
 40
4.0
 40
4.0
 40
4.0
 40
5.0
 40
5.0
 40
5.0
 40
6.0
 40
6.0
 40
6.0
 40
7.0
 40
7.0
 40
7.0
 40
8.0
 40
8.0
 40
8.0
 40
8.0
 10
275.2998389800416
 20
-234.2225824933194
 30
0.0
 10
266.7277626901397
 20
-223.6882844976198
 30
0.0
 10
260.0621915546402
 20
-217.1027735217982
 30
0.0
 10
254.2927374218284
 20
-208.3734442208984
 30
0.0
 10
252.7079805797995
 20
-205.9756672358584
 30
0.0
 10
252.8113699711195
 20
-202.8403846627451
 30
0.0
 10
254.5767990929472
 20
-200.5723351187227
 30
0.0
 10
271.4608349593519
 20
-178.8813879293972
 30
0.0
 10
345.6513262842196
 20
-89.22559233542738
 30
0.0
 10
345.6513262842196
 20
-89.22559233542738
 30
0.0
 10
355.1669304610057
 20
-83.76845824587849
 30
0.0
 10
367.4205250674799
 20
-83.76845824587849
 30
0.0
 10
376.9810100667507
 20
-89.22559233542738
 30
0.0
 10
393.1844731945667
 20
-99.66186381719662
 30
0.0
 10
383.2200128506497
 20
-108.3454784628181
 30
0.0
 10
380.1229552943913
 20
-114.2407779010367
 30
0.0
 10
376.9810100667507
 20
-120.0962418119391
 30
0.0
 10
319.0794480145348
 20
-216.3330044176727
 30
0.0
 10
317.4635877293309
 20
-222.5867932115152
 30
0.0
 10
317.4187000579487
 20
-229.3185840209813
 30
0.0
 10
317.2010559586627
 20
-242.5553647843211
 30
0.0
 10
317.2010559586627
 20
-242.5553647843211
 30
0.0
 10
317.2010559586627
 20
-242.5553647843211
 30
0.0
 10
275.201055969162
 20
-242.5553647843211
 30
0.0
 10
275.201055969162
 20
-242.5553647843211
 30
0.0
  0
HATCH
  5
1FD
330
98
100
AcDbEntity
  8
Layer 1
 62
     7
420
 16777215
100
AcDbHatch
 10
0.0
 20
0.0
 30
0.0
210
0.0
220
0.0
230
1.0
  2
SOLID
 70
     1
 71
     0
 91
        1
 92
        1
 93
        2
 72
     4
 94
        3
 73
     0
 74
     0
 95
       29
 96
       25
 40
0.0
 40
0.0
 40
0.0
 40
0.0
 40
0.3527777776895833
 40
0.3527777776895833
 40
0.3527777776895833
 40
0.7055555553791667
 40
0.7055555553791667
 40
0.7055555553791667
 40
1.05833333306875
 40
1.05833333306875
 40
1.05833333306875
 40
1.411111110758333
 40
1.411111110758333
 40
1.411111110758333
 40
1.763888888447917
 40
1.763888888447917
 40
1.763888888447917
 40
2.1166666661375
 40
2.1166666661375
 40
2.1166666661375
 40
2.469444443827083
 40
2.469444443827083
 40
2.469444443827083
 40
2.822222221516667
 40
2.822222221516667
 40
2.822222221516667
 40
2.822222221516667
 10
275.2998389800416
 20
-234.2225824933194
 10
266.7277626901397
 20
-223.6882844976198
 10
260.0621915546402
 20
-217.1027735217982
 10
254.2927374218284
 20
-208.3734442208984
 10
252.7079805797995
 20
-205.9756672358584
 10
252.8113699711195
 20
-202.8403846627451
 10
254.5767990929472
 20
-200.5723351187227
 10
271.4608349593519
 20
-178.8813879293972
 10
345.6513262842196
 20
-89.22559233542738
 10
345.6513262842196
 20
-89.22559233542738
 10
355.1669304610057
 20
-83.76845824587849
 10
367.4205250674799
 20
-83.76845824587849
 10
376.9810100667507
 20
-89.22559233542738
 10
393.1844731945667
 20
-99.66186381719662
 10
383.2200128506497
 20
-108.3454784628181
 10
380.1229552943913
 20
-114.2407779010367
 10
376.9810100667507
 20
-120.0962418119391
 10
319.0794480145348
 20
-216.3330044176727
 10
317.4635877293309
 20
-222.5867932115152
 10
317.4187000579487
 20
-229.3185840209813
 10
317.2010559586627
 20
-242.5553647843211
 10
317.2010559586627
 20
-242.5553647843211
 10
317.2010559586627
 20
-242.5553647843211
 10
275.201055969162
 20
-242.5553647843211
 10
275.201055969162
 20
-242.5553647843211
 97
        0
 72
     1
 10
275.201055969162
 20
-242.5553647843211
 11
275.2998389800416
 21
-234.2225824933194
 97
        0
 75
     0
 76
     1
 98
        0
  0
ENDBLK
  5
9B
330
98
100
AcDbEntity
  8
0
100
AcDbBlockEnd
  0
BLOCK
  5
9E
330
9C
100
AcDbEntity
  8
0
100
AcDbBlockBegin
  2
block 10
 70
     0
 10
0.0
 20
0.0
 30
0.0
  3
block 10
  1

  0
INSERT
  5
A1
330
9C
100
AcDbEntity
  8
Layer 1
100
AcDbBlockReference
  2
block 11
 10
0.0
 20
0.0
 30
0.0
  0
ENDBLK
  5
9F
330
9C
100
AcDbEntity
  8
0
100
AcDbBlockEnd
  0
BLOCK
  5
A2
330
A0
100
AcDbEntity
  8
0
100
AcDbBlockBegin
  2
block 11
 70
     0
 10
0.0
 20
0.0
 30
0.0
  3
block 11
  1

  0
POLYLINE
  5
A4
330
A0
100
AcDbEntity
  8
Layer 1
370
     0
100
AcDb2dPolyline
 66
     1
 10
0.0
 20
0.0
 30
0.0
  0
VERTEX
  5
A5
330
A4
100
AcDbEntity
  8
Layer 1
370
     0
100
AcDbVertex
100
AcDb2dVertex
 10
317.2063055305074
 20
-258.5553635692588
 30
0.0
  0
VERTEX
  5
A6
330
A4
100
AcDbEntity
  8
Layer 1
370
     0
100
AcDbVertex
100
AcDb2dVertex
 10
275.2063067278021
 20
-258.5553635692588
 30
0.0
  0
VERTEX
  5
A7
330
A4
100
AcDbEntity
  8
Layer 1
370
     0
100
AcDbVertex
100
AcDb2dVertex
 10
268.2010495680951
 20
-748.3957483751841
 30
0.0
  0
VERTEX
  5
A8
330
A4
100
AcDbEntity
  8
Layer 1
370
     0
100
AcDbVertex
100
AcDb2dVertex
 10
324.2010551489845
 20
-748.3957483751841
 30
0.0
  0
VERTEX
  5
A9
330
A4
100
AcDbEntity
  8
Layer 1
370
     0
100
AcDbVertex
100
AcDb2dVertex
 10
317.2063055305074
 20
-258.5553635692588
 30
0.0
  0
SEQEND
  5
AB
330
A4
100
AcDbEntity
  8
Layer 1
370
     0
  0
HATCH
  5
AA
330
A0
100
AcDbEntity
  8
Layer 1
 62
     7
420
 16777215
100
AcDbHatch
 10
0.0
 20
0.0
 30
0.0
210
0.0
220
0.0
230
1.0
  2
SOLID
 70
     1
 71
     0
 91
        1
 92
        1
 93
        4
 72
     1
 10
317.2063055305074
 20
-258.5553635692588
 11
275.2063067278021
 21
-258.5553635692588
 72
     1
 10
275.2063067278021
 20
-258.5553635692588
 11
268.2010495680951
 21
-748.3957483751841
 72
     1
 10
268.2010495680951
 20
-748.3957483751841
 11
324.2010551489845
 21
-748.3957483751841
 72
     1
 10
324.2010551489845
 20
-748.3957483751841
 11
317.2063055305074
 21
-258.5553635692588
 97
        0
 75
     0
 76
     1
 98
        0
  0
ENDBLK
  5
A3
330
A0
100
AcDbEntity
  8
0
100
AcDbBlockEnd
  0
BLOCK
  5
AE
330
AC
100
AcDbEntity
  8
0
100
AcDbBlockBegin
  2
block 12
 70
     0
 10
0.0
 20
0.0
 30
0.0
  3
block 12
  1

  0
POLYLINE
  5
B0
330
AC
100
AcDbEntity
  8
Layer 1
370
     0
100
AcDb2dPolyline
 66
     1
 10
0.0
 20
0.0
 30
0.0
  0
VERTEX
  5
B1
330
B0
100
AcDbEntity
  8
Layer 1
370
     0
100
AcDbVertex
100
AcDb2dVertex
 10
324.1108660949513
 20
-742.0845163821317
 30
0.0
  0
VERTEX
  5
B2
330
B0
100
AcDbEntity
  8
Layer 1
370
     0
100
AcDbVertex
100
AcDb2dVertex
 10
268.2912458328632
 20
-742.0845163821317
 30
0.0
  0
VERTEX
  5
B3
330
B0
100
AcDbEntity
  8
Layer 1
370
     0
100
AcDbVertex
100
AcDb2dVertex
 10
268.2988258434477
 20
-741.5545163822622
 30
0.0
  0
VERTEX
  5
B4
330
B0
100
AcDbEntity
  8
Layer 1
370
     0
100
AcDbVertex
100
AcDb2dVertex
 10
324.1032995968031
 20
-741.5545163822622
 30
0.0
  0
VERTEX
  5
B5
330
B0
100
AcDbEntity
  8
Layer 1
370
     0
100
AcDbVertex
100
AcDb2dVertex
 10
324.1108660949513
 20
-742.0845163821317
 30
0.0
  0
SEQEND
  5
B7
330
B0
100
AcDbEntity
  8
Layer 1
370
     0
  0
HATCH
  5
B6
330
AC
100
AcDbEntity
  8
Layer 1
 62
   178
420
        0
100
AcDbHatch
 10
0.0
 20
0.0
 30
0.0
210
0.0
220
0.0
230
1.0
  2
SOLID
 70
     1
 71
     0
 91
        1
 92
        1
 93
        4
 72
     1
 10
324.1108660949513
 20
-742.0845163821317
 11
268.2912458328632
 21
-742.0845163821317
 72
     1
 10
268.2912458328632
 20
-742.0845163821317
 11
268.2988258434477
 21
-741.5545163822622
 72
     1
 10
268.2988258434477
 20
-741.5545163822622
 11
324.1032995968031
 21
-741.5545163822622
 72
     1
 10
324.1032995968031
 20
-741.5545163822622
 11
324.1108660949513
 21
-742.0845163821317
 97
        0
 75
     0
 76
     1
 98
        0
  0
POLYLINE
  5
B8
330
AC
100
AcDbEntity
  8
Layer 1
370
     0
100
AcDb2dPolyline
 66
     1
 10
0.0
 20
0.0
 30
0.0
  0
VERTEX
  5
B9
330
B8
100
AcDbEntity
  8
Layer 1
370
     0
100
AcDbVertex
100
AcDb2dVertex
 10
324.0161601406582
 20
-735.4523646610974
 30
0.0
  0
VERTEX
  5
BA
330
B8
100
AcDbEntity
  8
Layer 1
370
     0
100
AcDbVertex
100
AcDb2dVertex
 10
268.3860944157024
 20
-735.4523646610974
 30
0.0
  0
VERTEX
  5
BB
330
B8
100
AcDbEntity
  8
Layer 1
370
     0
100
AcDbVertex
100
AcDb2dVertex
 10
268.3936723319821
 20
-734.9223646612318
 30
0.0
  0
VERTEX
  5
BC
330
B8
100
AcDbEntity
  8
Layer 1
370
     0
100
AcDbVertex
100
AcDb2dVertex
 10
324.0085916567242
 20
-734.9223646612318
 30
0.0
  0
VERTEX
  5
BD
330
B8
100
AcDbEntity
  8
Layer 1
370
     0
100
AcDbVertex
100
AcDb2dVertex
 10
324.0161601406582
 20
-735.4523646610974
 30
0.0
  0
SEQEND
  5
BF
330
B8
100
AcDbEntity
  8
Layer 1
370
     0
  0
HATCH
  5
BE
330
AC
100
AcDbEntity
  8
Layer 1
 62
   178
420
        0
100
AcDbHatch
 10
0.0
 20
0.0
 30
0.0
210
0.0
220
0.0
230
1.0
  2
SOLID
 70
     1
 71
     0
 91
        1
 92
        1
 93
        4
 72
     1
 10
324.0161601406582
 20
-735.4523646610974
 11
268.3860944157024
 21
-735.4523646610974
 72
     1
 10
268.3860944157024
 20
-735.4523646610974
 11
268.3936723319821
 21
-734.9223646612318
 72
     1
 10
268.3936723319821
 20
-734.9223646612318
 11
324.0085916567242
 21
-734.9223646612318
 72
     1
 10
324.0085916567242
 20
-734.9223646612318
 11
324.0161601406582
 21
-735.4523646610974
 97
        0
 75
     0
 76
     1
 98
        0
  0
POLYLINE
  5
C0
330
AC
100
AcDbEntity
  8
Layer 1
370
     0
100
AcDb2dPolyline
 66
     1
 10
0.0
 20
0.0
 30
0.0
  0
VERTEX
  5
C1
330
C0
100
AcDbEntity
  8
Layer 1
370
     0
100
AcDbVertex
100
AcDb2dVertex
 10
323.8676894106248
 20
-725.054814784249
 30
0.0
  0
VERTEX
  5
C2
330
C0
100
AcDbEntity
  8
Layer 1
370
     0
100
AcDbVertex
100
AcDb2dVertex
 10
268.5347888664729
 20
-725.054814784249
 30
0.0
  0
VERTEX
  5
C3
330
C0
100
AcDbEntity
  8
Layer 1
370
     0
100
AcDbVertex
100
AcDb2dVertex
 10
268.5423688109817
 20
-724.524814784382
 30
0.0
  0
VERTEX
  5
C4
330
C0
100
AcDbEntity
  8
Layer 1
370
     0
100
AcDbVertex
100
AcDb2dVertex
 10
323.8601166463156
 20
-724.524814784382
 30
0.0
  0
VERTEX
  5
C5
330
C0
100
AcDbEntity
  8
Layer 1
370
     0
100
AcDbVertex
100
AcDb2dVertex
 10
323.8676894106248
 20
-725.054814784249
 30
0.0
  0
SEQEND
  5
C7
330
C0
100
AcDbEntity
  8
Layer 1
370
     0
  0
HATCH
  5
C6
330
AC
100
AcDbEntity
  8
Layer 1
 62
   178
420
        0
100
AcDbHatch
 10
0.0
 20
0.0
 30
0.0
210
0.0
220
0.0
230
1.0
  2
SOLID
 70
     1
 71
     0
 91
        1
 92
        1
 93
        4
 72
     1
 10
323.8676894106248
 20
-725.054814784249
 11
268.5347888664729
 21
-725.054814784249
 72
     1
 10
268.5347888664729
 20
-725.054814784249
 11
268.5423688109817
 21
-724.524814784382
 72
     1
 10
268.5423688109817
 20
-724.524814784382
 11
323.8601166463156
 21
-724.524814784382
 72
     1
 10
323.8601166463156
 20
-724.524814784382
 11
323.8676894106248
 21
-725.054814784249
 97
        0
 75
     0
 76
     1
 98
        0
  0
POLYLINE
  5
C8
330
AC
100
AcDbEntity
  8
Layer 1
370
     0
100
AcDb2dPolyline
 66
     1
 10
0.0
 20
0.0
 30
0.0
  0
VERTEX
  5
C9
330
C8
100
AcDbEntity
  8
Layer 1
370
     0
100
AcDbVertex
100
AcDb2dVertex
 10
323.7132811499726
 20
-714.2418147869503
 30
0.0
  0
VERTEX
  5
CA
330
C8
100
AcDbEntity
  8
Layer 1
370
     0
100
AcDbVertex
100
AcDb2dVertex
 10
268.6894269295962
 20
-714.2418147869503
 30
0.0
  0
VERTEX
  5
CB
330
C8
100
AcDbEntity
  8
Layer 1
370
     0
100
AcDbVertex
100
AcDb2dVertex
 10
268.6970094187792
 20
-713.7118147870846
 30
0.0
  0
VERTEX
  5
CC
330
C8
100
AcDbEntity
  8
Layer 1
370
     0
100
AcDbVertex
100
AcDb2dVertex
 10
323.7057121544627
 20
-713.7118147870846
 30
0.0
  0
VERTEX
  5
CD
330
C8
100
AcDbEntity
  8
Layer 1
370
     0
100
AcDbVertex
100
AcDb2dVertex
 10
323.7132811499726
 20
-714.2418147869503
 30
0.0
  0
SEQEND
  5
CF
330
C8
100
AcDbEntity
  8
Layer 1
370
     0
  0
HATCH
  5
CE
330
AC
100
AcDbEntity
  8
Layer 1
 62
   178
420
        0
100
AcDbHatch
 10
0.0
 20
0.0
 30
0.0
210
0.0
220
0.0
230
1.0
  2
SOLID
 70
     1
 71
     0
 91
        1
 92
        1
 93
        4
 72
     1
 10
323.7132811499726
 20
-714.2418147869503
 11
268.6894269295962
 21
-714.2418147869503
 72
     1
 10
268.6894269295962
 20
-714.2418147869503
 11
268.6970094187792
 21
-713.7118147870846
 72
     1
 10
268.6970094187792
 20
-713.7118147870846
 11
323.7057121544627
 21
-713.7118147870846
 72
     1
 10
323.7057121544627
 20
-713.7118147870846
 11
323.7132811499726
 21
-714.2418147869503
 97
        0
 75
     0
 76
     1
 98
        0
  0
POLYLINE
  5
D0
330
AC
100
AcDbEntity
  8
Layer 1
370
     0
100
AcDb2dPolyline
 66
     1
 10
0.0
 20
0.0
 30
0.0
  0
VERTEX
  5
D1
330
D0
100
AcDbEntity
  8
Layer 1
370
     0
100
AcDbVertex
100
AcDb2dVertex
 10
323.5497084272421
 20
-702.7868147898155
 30
0.0
  0
VERTEX
  5
D2
330
D0
100
AcDbEntity
  8
Layer 1
370
     0
100
AcDbVertex
100
AcDb2dVertex
 10
268.8532463524591
 20
-702.7868147898155
 30
0.0
  0
VERTEX
  5
D3
330
D0
100
AcDbEntity
  8
Layer 1
370
     0
100
AcDbVertex
100
AcDb2dVertex
 10
268.8608225775257
 20
-702.2568147899498
 30
0.0
  0
VERTEX
  5
D4
330
D0
100
AcDbEntity
  8
Layer 1
370
     0
100
AcDbVertex
100
AcDb2dVertex
 10
323.5421404047321
 20
-702.2568147899498
 30
0.0
  0
VERTEX
  5
D5
330
D0
100
AcDbEntity
  8
Layer 1
370
     0
100
AcDbVertex
100
AcDb2dVertex
 10
323.5497084272421
 20
-702.7868147898155
 30
0.0
  0
SEQEND
  5
D7
330
D0
100
AcDbEntity
  8
Layer 1
370
     0
  0
HATCH
  5
D6
330
AC
100
AcDbEntity
  8
Layer 1
 62
   178
420
        0
100
AcDbHatch
 10
0.0
 20
0.0
 30
0.0
210
0.0
220
0.0
230
1.0
  2
SOLID
 70
     1
 71
     0
 91
        1
 92
        1
 93
        4
 72
     1
 10
323.5497084272421
 20
-702.7868147898155
 11
268.8532463524591
 21
-702.7868147898155
 72
     1
 10
268.8532463524591
 20
-702.7868147898155
 11
268.8608225775257
 21
-702.2568147899498
 72
     1
 10
268.8608225775257
 20
-702.2568147899498
 11
323.5421404047321
 21
-702.2568147899498
 72
     1
 10
323.5421404047321
 20
-702.2568147899498
 11
323.5497084272421
 21
-702.7868147898155
 97
        0
 75
     0
 76
     1
 98
        0
  0
POLYLINE
  5
D8
330
AC
100
AcDbEntity
  8
Layer 1
370
     0
100
AcDb2dPolyline
 66
     1
 10
0.0
 20
0.0
 30
0.0
  0
VERTEX
  5
D9
330
D8
100
AcDbEntity
  8
Layer 1
370
     0
100
AcDbVertex
100
AcDb2dVertex
 10
323.3763943720186
 20
-690.6498147928497
 30
0.0
  0
VERTEX
  5
DA
330
D8
100
AcDbEntity
  8
Layer 1
370
     0
100
AcDbVertex
100
AcDb2dVertex
 10
269.0268164534236
 20
-690.6498147928497
 30
0.0
  0
VERTEX
  5
DB
330
D8
100
AcDbEntity
  8
Layer 1
370
     0
100
AcDbVertex
100
AcDb2dVertex
 10
269.034396281029
 20
-690.1198147929828
 30
0.0
  0
VERTEX
  5
DC
330
D8
100
AcDbEntity
  8
Layer 1
370
     0
100
AcDbVertex
100
AcDb2dVertex
 10
323.3688286856703
 20
-690.1198147929828
 30
0.0
  0
VERTEX
  5
DD
330
D8
100
AcDbEntity
  8
Layer 1
370
     0
100
AcDbVertex
100
AcDb2dVertex
 10
323.3763943720186
 20
-690.6498147928497
 30
0.0
  0
SEQEND
  5
DF
330
D8
100
AcDbEntity
  8
Layer 1
370
     0
  0
HATCH
  5
DE
330
AC
100
AcDbEntity
  8
Layer 1
 62
   178
420
        0
100
AcDbHatch
 10
0.0
 20
0.0
 30
0.0
210
0.0
220
0.0
230
1.0
  2
SOLID
 70
     1
 71
     0
 91
        1
 92
        1
 93
        4
 72
     1
 10
323.3763943720186
 20
-690.6498147928497
 11
269.0268164534236
 21
-690.6498147928497
 72
     1
 10
269.0268164534236
 20
-690.6498147928497
 11
269.034396281029
 21
-690.1198147929828
 72
     1
 10
269.034396281029
 20
-690.1198147929828
 11
323.3688286856703
 21
-690.1198147929828
 72
     1
 10
323.3688286856703
 20
-690.1198147929828
 11
323.3763943720186
 21
-690.6498147928497
 97
        0
 75
     0
 76
     1
 98
        0
  0
POLYLINE
  5
E0
330
AC
100
AcDbEntity
  8
Layer 1
370
     0
100
AcDb2dPolyline
 66
     1
 10
0.0
 20
0.0
 30
0.0
  0
VERTEX
  5
E1
330
E0
100
AcDbEntity
  8
Layer 1
370
     0
100
AcDbVertex
100
AcDb2dVertex
 10
323.1927733205135
 20
-677.7908147960669
 30
0.0
  0
VERTEX
  5
E2
330
E0
100
AcDbEntity
  8
Layer 1
370
     0
100
AcDbVertex
100
AcDb2dVertex
 10
269.2107155492107
 20
-677.7908147960669
 30
0.0
  0
VERTEX
  5
E3
330
E0
100
AcDbEntity
  8
Layer 1
370
     0
100
AcDbVertex
100
AcDb2dVertex
 10
269.2182920761992
 20
-677.2608147961975
 30
0.0
  0
VERTEX
  5
E4
330
E0
100
AcDbEntity
  8
Layer 1
370
     0
100
AcDbVertex
100
AcDb2dVertex
 10
323.1852038801925
 20
-677.2608147961975
 30
0.0
  0
VERTEX
  5
E5
330
E0
100
AcDbEntity
  8
Layer 1
370
     0
100
AcDbVertex
100
AcDb2dVertex
 10
323.1927733205135
 20
-677.7908147960669
 30
0.0
  0
SEQEND
  5
E7
330
E0
100
AcDbEntity
  8
Layer 1
370
     0
  0
HATCH
  5
E6
330
AC
100
AcDbEntity
  8
Layer 1
 62
   178
420
        0
100
AcDbHatch
 10
0.0
 20
0.0
 30
0.0
210
0.0
220
0.0
230
1.0
  2
SOLID
 70
     1
 71
     0
 91
        1
 92
        1
 93
        4
 72
     1
 10
323.1927733205135
 20
-677.7908147960669
 11
269.2107155492107
 21
-677.7908147960669
 72
     1
 10
269.2107155492107
 20
-677.7908147960669
 11
269.2182920761992
 21
-677.2608147961975
 72
     1
 10
269.2182920761992
 20
-677.2608147961975
 11
323.1852038801925
 21
-677.2608147961975
 72
     1
 10
323.1852038801925
 20
-677.2608147961975
 11
323.1927733205135
 21
-677.7908147960669
 97
        0
 75
     0
 76
     1
 98
        0
  0
POLYLINE
  5
E8
330
AC
100
AcDbEntity
  8
Layer 1
370
     0
100
AcDb2dPolyline
 66
     1
 10
0.0
 20
0.0
 30
0.0
  0
VERTEX
  5
E9
330
E8
100
AcDbEntity
  8
Layer 1
370
     0
100
AcDbVertex
100
AcDb2dVertex
 10
322.9982425465458
 20
-664.1678147994688
 30
0.0
  0
VERTEX
  5
EA
330
E8
100
AcDbEntity
  8
Layer 1
370
     0
100
AcDbVertex
100
AcDb2dVertex
 10
269.4055377569825
 20
-664.1678147994688
 30
0.0
  0
VERTEX
  5
EB
330
E8
100
AcDbEntity
  8
Layer 1
370
     0
100
AcDbVertex
100
AcDb2dVertex
 10
269.4131188195043
 20
-663.6378147995993
 30
0.0
  0
VERTEX
  5
EC
330
E8
100
AcDbEntity
  8
Layer 1
370
     0
100
AcDbVertex
100
AcDb2dVertex
 10
322.9906727630038
 20
-663.6378147995993
 30
0.0
  0
VERTEX
  5
ED
330
E8
100
AcDbEntity
  8
Layer 1
370
     0
100
AcDbVertex
100
AcDb2dVertex
 10
322.9982425465458
 20
-664.1678147994688
 30
0.0
  0
SEQEND
  5
EF
330
E8
100
AcDbEntity
  8
Layer 1
370
     0
  0
HATCH
  5
EE
330
AC
100
AcDbEntity
  8
Layer 1
 62
   178
420
        0
100
AcDbHatch
 10
0.0
 20
0.0
 30
0.0
210
0.0
220
0.0
230
1.0
  2
SOLID
 70
     1
 71
     0
 91
        1
 92
        1
 93
        4
 72
     1
 10
322.9982425465458
 20
-664.1678147994688
 11
269.4055377569825
 21
-664.1678147994688
 72
     1
 10
269.4055377569825
 20
-664.1678147994688
 11
269.4131188195043
 21
-663.6378147995993
 72
     1
 10
269.4131188195043
 20
-663.6378147995993
 11
322.9906727630038
 21
-663.6378147995993
 72
     1
 10
322.9906727630038
 20
-663.6378147995993
 11
322.9982425465458
 21
-664.1678147994688
 97
        0
 75
     0
 76
     1
 98
        0
  0
POLYLINE
  5
F0
330
AC
100
AcDbEntity
  8
Layer 1
370
     0
100
AcDb2dPolyline
 66
     1
 10
0.0
 20
0.0
 30
0.0
  0
VERTEX
  5
F1
330
F0
100
AcDbEntity
  8
Layer 1
370
     0
100
AcDbVertex
100
AcDb2dVertex
 10
322.7921432969044
 20
-649.7348148030773
 30
0.0
  0
VERTEX
  5
F2
330
F0
100
AcDbEntity
  8
Layer 1
370
     0
100
AcDbVertex
100
AcDb2dVertex
 10
269.6119475930979
 20
-649.7348148030773
 30
0.0
  0
VERTEX
  5
F3
330
F0
100
AcDbEntity
  8
Layer 1
370
     0
100
AcDbVertex
100
AcDb2dVertex
 10
269.6195238948269
 20
-649.2048148032077
 30
0.0
  0
VERTEX
  5
F4
330
F0
100
AcDbEntity
  8
Layer 1
370
     0
100
AcDbVertex
100
AcDb2dVertex
 10
322.7845766229448
 20
-649.2048148032077
 30
0.0
  0
VERTEX
  5
F5
330
F0
100
AcDbEntity
  8
Layer 1
370
     0
100
AcDbVertex
100
AcDb2dVertex
 10
322.7921432969044
 20
-649.7348148030773
 30
0.0
  0
SEQEND
  5
F7
330
F0
100
AcDbEntity
  8
Layer 1
370
     0
  0
HATCH
  5
F6
330
AC
100
AcDbEntity
  8
Layer 1
 62
   178
420
        0
100
AcDbHatch
 10
0.0
 20
0.0
 30
0.0
210
0.0
220
0.0
230
1.0
  2
SOLID
 70
     1
 71
     0
 91
        1
 92
        1
 93
        4
 72
     1
 10
322.7921432969044
 20
-649.7348148030773
 11
269.6119475930979
 21
-649.7348148030773
 72
     1
 10
269.6119475930979
 20
-649.7348148030773
 11
269.6195238948269
 21
-649.2048148032077
 72
     1
 10
269.6195238948269
 20
-649.2048148032077
 11
322.7845766229448
 21
-649.2048148032077
 72
     1
 10
322.7845766229448
 20
-649.2048148032077
 11
322.7921432969044
 21
-649.7348148030773
 97
        0
 75
     0
 76
     1
 98
        0
  0
POLYLINE
  5
F8
330
AC
100
AcDbEntity
  8
Layer 1
370
     0
100
AcDb2dPolyline
 66
     1
 10
0.0
 20
0.0
 30
0.0
  0
VERTEX
  5
F9
330
F8
100
AcDbEntity
  8
Layer 1
370
     0
100
AcDbVertex
100
AcDb2dVertex
 10
322.5737950153849
 20
-634.443814806898
 30
0.0
  0
VERTEX
  5
FA
330
F8
100
AcDbEntity
  8
Layer 1
370
     0
100
AcDbVertex
100
AcDb2dVertex
 10
269.8306241824896
 20
-634.443814806898
 30
0.0
  0
VERTEX
  5
FB
330
F8
100
AcDbEntity
  8
Layer 1
370
     0
100
AcDbVertex
100
AcDb2dVertex
 10
269.8382035417432
 20
-633.9138148070323
 30
0.0
  0
VERTEX
  5
FC
330
F8
100
AcDbEntity
  8
Layer 1
370
     0
100
AcDbVertex
100
AcDb2dVertex
 10
322.5662239250369
 20
-633.9138148070323
 30
0.0
  0
VERTEX
  5
FD
330
F8
100
AcDbEntity
  8
Layer 1
370
     0
100
AcDbVertex
100
AcDb2dVertex
 10
322.5737950153849
 20
-634.443814806898
 30
0.0
  0
SEQEND
  5
FF
330
F8
100
AcDbEntity
  8
Layer 1
370
     0
  0
HATCH
  5
FE
330
AC
100
AcDbEntity
  8
Layer 1
 62
   178
420
        0
100
AcDbHatch
 10
0.0
 20
0.0
 30
0.0
210
0.0
220
0.0
230
1.0
  2
SOLID
 70
     1
 71
     0
 91
        1
 92
        1
 93
        4
 72
     1
 10
322.5737950153849
 20
-634.443814806898
 11
269.8306241824896
 21
-634.443814806898
 72
     1
 10
269.8306241824896
 20
-634.443814806898
 11
269.8382035417432
 21
-633.9138148070323
 72
     1
 10
269.8382035417432
 20
-633.9138148070323
 11
322.5662239250369
 21
-633.9138148070323
 72
     1
 10
322.5662239250369
 20
-633.9138148070323
 11
322.5737950153849
 21
-634.443814806898
 97
        0
 75
     0
 76
     1
 98
        0
  0
POLYLINE
  5
100
330
AC
100
AcDbEntity
  8
Layer 1
370
     0
100
AcDb2dPolyline
 66
     1
 10
0.0
 20
0.0
 30
0.0
  0
VERTEX
  5
101
330
100
100
AcDbEntity
  8
Layer 1
370
     0
100
AcDbVertex
100
AcDb2dVertex
 10
322.3424489790522
 20
-618.2428148109481
 30
0.0
  0
VERTEX
  5
102
330
100
100
AcDbEntity
  8
Layer 1
370
     0
100
AcDbVertex
100
AcDb2dVertex
 10
270.0623167289625
 20
-618.2428148109481
 30
0.0
  0
VERTEX
  5
103
330
100
100
AcDbEntity
  8
Layer 1
370
     0
100
AcDbVertex
100
AcDb2dVertex
 10
270.0698960999746
 20
-617.7128148110824
 30
0.0
  0
VERTEX
  5
104
330
100
100
AcDbEntity
  8
Layer 1
370
     0
100
AcDbVertex
100
AcDb2dVertex
 10
322.3348807635692
 20
-617.7128148110824
 30
0.0
  0
VERTEX
  5
105
330
100
100
AcDbEntity
  8
Layer 1
370
     0
100
AcDbVertex
100
AcDb2dVertex
 10
322.3424489790522
 20
-618.2428148109481
 30
0.0
  0
SEQEND
  5
107
330
100
100
AcDbEntity
  8
Layer 1
370
     0
  0
HATCH
  5
106
330
AC
100
AcDbEntity
  8
Layer 1
 62
   178
420
        0
100
AcDbHatch
 10
0.0
 20
0.0
 30
0.0
210
0.0
220
0.0
230
1.0
  2
SOLID
 70
     1
 71
     0
 91
        1
 92
        1
 93
        4
 72
     1
 10
322.3424489790522
 20
-618.2428148109481
 11
270.0623167289625
 21
-618.2428148109481
 72
     1
 10
270.0623167289625
 20
-618.2428148109481
 11
270.0698960999746
 21
-617.7128148110824
 72
     1
 10
270.0698960999746
 20
-617.7128148110824
 11
322.3348807635692
 21
-617.7128148110824
 72
     1
 10
322.3348807635692
 20
-617.7128148110824
 11
322.3424489790522
 21
-618.2428148109481
 97
        0
 75
     0
 76
     1
 98
        0
  0
POLYLINE
  5
108
330
AC
100
AcDbEntity
  8
Layer 1
370
     0
100
AcDb2dPolyline
 66
     1
 10
0.0
 20
0.0
 30
0.0
  0
VERTEX
  5
109
330
108
100
AcDbEntity
  8
Layer 1
370
     0
100
AcDbVertex
100
AcDb2dVertex
 10
322.0973543823478
 20
-601.0788148152416
 30
0.0
  0
VERTEX
  5
10A
330
108
100
AcDbEntity
  8
Layer 1
370
     0
100
AcDbVertex
100
AcDb2dVertex
 10
270.3077808220181
 20
-601.0788148152416
 30
0.0
  0
VERTEX
  5
10B
330
108
100
AcDbEntity
  8
Layer 1
370
     0
100
AcDbVertex
100
AcDb2dVertex
 10
270.3153591980341
 20
-600.548814815372
 30
0.0
  0
VERTEX
  5
10C
330
108
100
AcDbEntity
  8
Layer 1
370
     0
100
AcDbVertex
100
AcDb2dVertex
 10
322.0897835678585
 20
-600.548814815372
 30
0.0
  0
VERTEX
  5
10D
330
108
100
AcDbEntity
  8
Layer 1
370
     0
100
AcDbVertex
100
AcDb2dVertex
 10
322.0973543823478
 20
-601.0788148152416
 30
0.0
  0
SEQEND
  5
10F
330
108
100
AcDbEntity
  8
Layer 1
370
     0
  0
HATCH
  5
10E
330
AC
100
AcDbEntity
  8
Layer 1
 62
   178
420
        0
100
AcDbHatch
 10
0.0
 20
0.0
 30
0.0
210
0.0
220
0.0
230
1.0
  2
SOLID
 70
     1
 71
     0
 91
        1
 92
        1
 93
        4
 72
     1
 10
322.0973543823478
 20
-601.0788148152416
 11
270.3077808220181
 21
-601.0788148152416
 72
     1
 10
270.3077808220181
 20
-601.0788148152416
 11
270.3153591980341
 21
-600.548814815372
 72
     1
 10
270.3153591980341
 20
-600.548814815372
 11
322.0897835678585
 21
-600.548814815372
 72
     1
 10
322.0897835678585
 20
-600.548814815372
 11
322.0973543823478
 21
-601.0788148152416
 97
        0
 75
     0
 76
     1
 98
        0
  0
POLYLINE
  5
110
330
AC
100
AcDbEntity
  8
Layer 1
370
     0
100
AcDb2dPolyline
 66
     1
 10
0.0
 20
0.0
 30
0.0
  0
VERTEX
  5
111
330
110
100
AcDbEntity
  8
Layer 1
370
     0
100
AcDbVertex
100
AcDb2dVertex
 10
321.8376776728179
 20
-582.8938148197881
 30
0.0
  0
VERTEX
  5
112
330
110
100
AcDbEntity
  8
Layer 1
370
     0
100
AcDbVertex
100
AcDb2dVertex
 10
270.5678454759968
 20
-582.8938148197881
 30
0.0
  0
VERTEX
  5
113
330
110
100
AcDbEntity
  8
Layer 1
370
     0
100
AcDbVertex
100
AcDb2dVertex
 10
270.5754277320743
 20
-582.3638148199185
 30
0.0
  0
VERTEX
  5
114
330
110
100
AcDbEntity
  8
Layer 1
370
     0
100
AcDbVertex
100
AcDb2dVertex
 10
321.8301114149436
 20
-582.3638148199185
 30
0.0
  0
VERTEX
  5
115
330
110
100
AcDbEntity
  8
Layer 1
370
     0
100
AcDbVertex
100
AcDb2dVertex
 10
321.8376776728179
 20
-582.8938148197881
 30
0.0
  0
SEQEND
  5
117
330
110
100
AcDbEntity
  8
Layer 1
370
     0
  0
HATCH
  5
116
330
AC
100
AcDbEntity
  8
Layer 1
 62
   178
420
        0
100
AcDbHatch
 10
0.0
 20
0.0
 30
0.0
210
0.0
220
0.0
230
1.0
  2
SOLID
 70
     1
 71
     0
 91
        1
 92
        1
 93
        4
 72
     1
 10
321.8376776728179
 20
-582.8938148197881
 11
270.5678454759968
 21
-582.8938148197881
 72
     1
 10
270.5678454759968
 20
-582.8938148197881
 11
270.5754277320743
 21
-582.3638148199185
 72
     1
 10
270.5754277320743
 20
-582.3638148199185
 11
321.8301114149436
 21
-582.3638148199185
 72
     1
 10
321.8301114149436
 20
-582.3638148199185
 11
321.8376776728179
 21
-582.8938148197881
 97
        0
 75
     0
 76
     1
 98
        0
  0
POLYLINE
  5
118
330
AC
100
AcDbEntity
  8
Layer 1
370
     0
100
AcDb2dPolyline
 66
     1
 10
0.0
 20
0.0
 30
0.0
  0
VERTEX
  5
119
330
118
100
AcDbEntity
  8
Layer 1
370
     0
100
AcDbVertex
100
AcDb2dVertex
 10
321.5625649939443
 20
-563.627814824604
 30
0.0
  0
VERTEX
  5
11A
330
118
100
AcDbEntity
  8
Layer 1
370
     0
100
AcDbVertex
100
AcDb2dVertex
 10
270.8433716114796
 20
-563.627814824604
 30
0.0
  0
VERTEX
  5
11B
330
118
100
AcDbEntity
  8
Layer 1
370
     0
100
AcDbVertex
100
AcDb2dVertex
 10
270.8509489975382
 20
-563.0978148247344
 30
0.0
  0
VERTEX
  5
11C
330
118
100
AcDbEntity
  8
Layer 1
370
     0
100
AcDbVertex
100
AcDb2dVertex
 10
321.5549986065553
 20
-563.0978148247344
 30
0.0
  0
VERTEX
  5
11D
330
118
100
AcDbEntity
  8
Layer 1
370
     0
100
AcDbVertex
100
AcDb2dVertex
 10
321.5625649939443
 20
-563.627814824604
 30
0.0
  0
SEQEND
  5
11F
330
118
100
AcDbEntity
  8
Layer 1
370
     0
  0
HATCH
  5
11E
330
AC
100
AcDbEntity
  8
Layer 1
 62
   178
420
        0
100
AcDbHatch
 10
0.0
 20
0.0
 30
0.0
210
0.0
220
0.0
230
1.0
  2
SOLID
 70
     1
 71
     0
 91
        1
 92
        1
 93
        4
 72
     1
 10
321.5625649939443
 20
-563.627814824604
 11
270.8433716114796
 21
-563.627814824604
 72
     1
 10
270.8433716114796
 20
-563.627814824604
 11
270.8509489975382
 21
-563.0978148247344
 72
     1
 10
270.8509489975382
 20
-563.0978148247344
 11
321.5549986065553
 21
-563.0978148247344
 72
     1
 10
321.5549986065553
 20
-563.0978148247344
 11
321.5625649939443
 21
-563.627814824604
 97
        0
 75
     0
 76
     1
 98
        0
  0
POLYLINE
  5
120
330
AC
100
AcDbEntity
  8
Layer 1
370
     0
100
AcDb2dPolyline
 66
     1
 10
0.0
 20
0.0
 30
0.0
  0
VERTEX
  5
121
330
120
100
AcDbEntity
  8
Layer 1
370
     0
100
AcDbVertex
100
AcDb2dVertex
 10
321.2710906926437
 20
-543.2158148297052
 30
0.0
  0
VERTEX
  5
122
330
120
100
AcDbEntity
  8
Layer 1
370
     0
100
AcDbVertex
100
AcDb2dVertex
 10
271.1352856502673
 20
-543.2158148297052
 30
0.0
  0
VERTEX
  5
123
330
120
100
AcDbEntity
  8
Layer 1
370
     0
100
AcDbVertex
100
AcDb2dVertex
 10
271.1428628384913
 20
-542.6858148298396
 30
0.0
  0
VERTEX
  5
124
330
120
100
AcDbEntity
  8
Layer 1
370
     0
100
AcDbVertex
100
AcDb2dVertex
 10
321.2635215764404
 20
-542.6858148298396
 30
0.0
  0
VERTEX
  5
125
330
120
100
AcDbEntity
  8
Layer 1
370
     0
100
AcDbVertex
100
AcDb2dVertex
 10
321.2710906926437
 20
-543.2158148297052
 30
0.0
  0
SEQEND
  5
127
330
120
100
AcDbEntity
  8
Layer 1
370
     0
  0
HATCH
  5
126
330
AC
100
AcDbEntity
  8
Layer 1
 62
   178
420
        0
100
AcDbHatch
 10
0.0
 20
0.0
 30
0.0
210
0.0
220
0.0
230
1.0
  2
SOLID
 70
     1
 71
     0
 91
        1
 92
        1
 93
        4
 72
     1
 10
321.2710906926437
 20
-543.2158148297052
 11
271.1352856502673
 21
-543.2158148297052
 72
     1
 10
271.1352856502673
 20
-543.2158148297052
 11
271.1428628384913
 21
-542.6858148298396
 72
     1
 10
271.1428628384913
 20
-542.6858148298396
 11
321.2635215764404
 21
-542.6858148298396
 72
     1
 10
321.2635215764404
 20
-542.6858148298396
 11
321.2710906926437
 21
-543.2158148297052
 97
        0
 75
     0
 76
     1
 98
        0
  0
POLYLINE
  5
128
330
AC
100
AcDbEntity
  8
Layer 1
370
     0
100
AcDb2dPolyline
 66
     1
 10
0.0
 20
0.0
 30
0.0
  0
VERTEX
  5
129
330
128
100
AcDbEntity
  8
Layer 1
370
     0
100
AcDbVertex
100
AcDb2dVertex
 10
320.9622924911314
 20
-521.5908148351133
 30
0.0
  0
VERTEX
  5
12A
330
128
100
AcDbEntity
  8
Layer 1
370
     0
100
AcDbVertex
100
AcDb2dVertex
 10
271.4445449972559
 20
-521.5908148351133
 30
0.0
  0
VERTEX
  5
12B
330
128
100
AcDbEntity
  8
Layer 1
370
     0
100
AcDbVertex
100
AcDb2dVertex
 10
271.4521245725015
 20
-521.0608148352437
 30
0.0
  0
VERTEX
  5
12C
330
128
100
AcDbEntity
  8
Layer 1
370
     0
100
AcDbVertex
100
AcDb2dVertex
 10
320.9547243331086
 20
-521.0608148352437
 30
0.0
  0
VERTEX
  5
12D
330
128
100
AcDbEntity
  8
Layer 1
370
     0
100
AcDbVertex
100
AcDb2dVertex
 10
320.9622924911314
 20
-521.5908148351133
 30
0.0
  0
SEQEND
  5
12F
330
128
100
AcDbEntity
  8
Layer 1
370
     0
  0
HATCH
  5
12E
330
AC
100
AcDbEntity
  8
Layer 1
 62
   178
420
        0
100
AcDbHatch
 10
0.0
 20
0.0
 30
0.0
210
0.0
220
0.0
230
1.0
  2
SOLID
 70
     1
 71
     0
 91
        1
 92
        1
 93
        4
 72
     1
 10
320.9622924911314
 20
-521.5908148351133
 11
271.4445449972559
 21
-521.5908148351133
 72
     1
 10
271.4445449972559
 20
-521.5908148351133
 11
271.4521245725015
 21
-521.0608148352437
 72
     1
 10
271.4521245725015
 20
-521.0608148352437
 11
320.9547243331086
 21
-521.0608148352437
 72
     1
 10
320.9547243331086
 20
-521.0608148352437
 11
320.9622924911314
 21
-521.5908148351133
 97
        0
 75
     0
 76
     1
 98
        0
  0
POLYLINE
  5
130
330
AC
100
AcDbEntity
  8
Layer 1
370
     0
100
AcDb2dPolyline
 66
     1
 10
0.0
 20
0.0
 30
0.0
  0
VERTEX
  5
131
330
130
100
AcDbEntity
  8
Layer 1
370
     0
100
AcDbVertex
100
AcDb2dVertex
 10
320.6351310641346
 20
-498.6798148408389
 30
0.0
  0
VERTEX
  5
132
330
130
100
AcDbEntity
  8
Layer 1
370
     0
100
AcDbVertex
100
AcDb2dVertex
 10
271.7721971642238
 20
-498.6798148408389
 30
0.0
  0
VERTEX
  5
133
330
130
100
AcDbEntity
  8
Layer 1
370
     0
100
AcDbVertex
100
AcDb2dVertex
 10
271.7797767394688
 20
-498.1498148409726
 30
0.0
  0
VERTEX
  5
134
330
130
100
AcDbEntity
  8
Layer 1
370
     0
100
AcDbVertex
100
AcDb2dVertex
 10
320.6275632256748
 20
-498.1498148409726
 30
0.0
  0
VERTEX
  5
135
330
130
100
AcDbEntity
  8
Layer 1
370
     0
100
AcDbVertex
100
AcDb2dVertex
 10
320.6351310641346
 20
-498.6798148408389
 30
0.0
  0
SEQEND
  5
137
330
130
100
AcDbEntity
  8
Layer 1
370
     0
  0
HATCH
  5
136
330
AC
100
AcDbEntity
  8
Layer 1
 62
   178
420
        0
100
AcDbHatch
 10
0.0
 20
0.0
 30
0.0
210
0.0
220
0.0
230
1.0
  2
SOLID
 70
     1
 71
     0
 91
        1
 92
        1
 93
        4
 72
     1
 10
320.6351310641346
 20
-498.6798148408389
 11
271.7721971642238
 21
-498.6798148408389
 72
     1
 10
271.7721971642238
 20
-498.6798148408389
 11
271.7797767394688
 21
-498.1498148409726
 72
     1
 10
271.7797767394688
 20
-498.1498148409726
 11
320.6275632256748
 21
-498.1498148409726
 72
     1
 10
320.6275632256748
 20
-498.1498148409726
 11
320.6351310641346
 21
-498.6798148408389
 97
        0
 75
     0
 76
     1
 98
        0
  0
POLYLINE
  5
138
330
AC
100
AcDbEntity
  8
Layer 1
370
     0
100
AcDb2dPolyline
 66
     1
 10
0.0
 20
0.0
 30
0.0
  0
VERTEX
  5
139
330
138
100
AcDbEntity
  8
Layer 1
370
     0
100
AcDbVertex
100
AcDb2dVertex
 10
320.2885088662216
 20
-474.4058148469068
 30
0.0
  0
VERTEX
  5
13A
330
138
100
AcDbEntity
  8
Layer 1
370
     0
100
AcDbVertex
100
AcDb2dVertex
 10
272.1193417105503
 20
-474.4058148469068
 30
0.0
  0
VERTEX
  5
13B
330
138
100
AcDbEntity
  8
Layer 1
370
     0
100
AcDbVertex
100
AcDb2dVertex
 10
272.1269212857998
 20
-473.8758148470404
 30
0.0
  0
VERTEX
  5
13C
330
138
100
AcDbEntity
  8
Layer 1
370
     0
100
AcDbVertex
100
AcDb2dVertex
 10
320.2809416447637
 20
-473.8758148470404
 30
0.0
  0
VERTEX
  5
13D
330
138
100
AcDbEntity
  8
Layer 1
370
     0
100
AcDbVertex
100
AcDb2dVertex
 10
320.2885088662216
 20
-474.4058148469068
 30
0.0
  0
SEQEND
  5
13F
330
138
100
AcDbEntity
  8
Layer 1
370
     0
  0
HATCH
  5
13E
330
AC
100
AcDbEntity
  8
Layer 1
 62
   178
420
        0
100
AcDbHatch
 10
0.0
 20
0.0
 30
0.0
210
0.0
220
0.0
230
1.0
  2
SOLID
 70
     1
 71
     0
 91
        1
 92
        1
 93
        4
 72
     1
 10
320.2885088662216
 20
-474.4058148469068
 11
272.1193417105503
 21
-474.4058148469068
 72
     1
 10
272.1193417105503
 20
-474.4058148469068
 11
272.1269212857998
 21
-473.8758148470404
 72
     1
 10
272.1269212857998
 20
-473.8758148470404
 11
320.2809416447637
 21
-473.8758148470404
 72
     1
 10
320.2809416447637
 20
-473.8758148470404
 11
320.2885088662216
 21
-474.4058148469068
 97
        0
 75
     0
 76
     1
 98
        0
  0
POLYLINE
  5
140
330
AC
100
AcDbEntity
  8
Layer 1
370
     0
100
AcDb2dPolyline
 66
     1
 10
0.0
 20
0.0
 30
0.0
  0
VERTEX
  5
141
330
140
100
AcDbEntity
  8
Layer 1
370
     0
100
AcDbVertex
100
AcDb2dVertex
 10
319.9212755113661
 20
-448.6888148533377
 30
0.0
  0
VERTEX
  5
142
330
140
100
AcDbEntity
  8
Layer 1
370
     0
100
AcDbVertex
100
AcDb2dVertex
 10
272.4871227230711
 20
-448.6888148533377
 30
0.0
  0
VERTEX
  5
143
330
140
100
AcDbEntity
  8
Layer 1
370
     0
100
AcDbVertex
100
AcDb2dVertex
 10
272.49470229832
 20
-448.1588148534721
 30
0.0
  0
VERTEX
  5
144
330
140
100
AcDbEntity
  8
Layer 1
370
     0
100
AcDbVertex
100
AcDb2dVertex
 10
319.9137098387618
 20
-448.1588148534721
 30
0.0
  0
VERTEX
  5
145
330
140
100
AcDbEntity
  8
Layer 1
370
     0
100
AcDbVertex
100
AcDb2dVertex
 10
319.9212755113661
 20
-448.6888148533377
 30
0.0
  0
SEQEND
  5
147
330
140
100
AcDbEntity
  8
Layer 1
370
     0
  0
HATCH
  5
146
330
AC
100
AcDbEntity
  8
Layer 1
 62
   178
420
        0
100
AcDbHatch
 10
0.0
 20
0.0
 30
0.0
210
0.0
220
0.0
230
1.0
  2
SOLID
 70
     1
 71
     0
 91
        1
 92
        1
 93
        4
 72
     1
 10
319.9212755113661
 20
-448.6888148533377
 11
272.4871227230711
 21
-448.6888148533377
 72
     1
 10
272.4871227230711
 20
-448.6888148533377
 11
272.49470229832
 21
-448.1588148534721
 72
     1
 10
272.49470229832
 20
-448.1588148534721
 11
319.9137098387618
 21
-448.1588148534721
 72
     1
 10
319.9137098387618
 20
-448.1588148534721
 11
319.9212755113661
 21
-448.6888148533377
 97
        0
 75
     0
 76
     1
 98
        0
  0
POLYLINE
  5
148
330
AC
100
AcDbEntity
  8
Layer 1
370
     0
100
AcDb2dPolyline
 66
     1
 10
0.0
 20
0.0
 30
0.0
  0
VERTEX
  5
149
330
148
100
AcDbEntity
  8
Layer 1
370
     0
100
AcDbVertex
100
AcDb2dVertex
 10
319.5322156196521
 20
-421.4428148601498
 30
0.0
  0
VERTEX
  5
14A
330
148
100
AcDbEntity
  8
Layer 1
370
     0
100
AcDbVertex
100
AcDb2dVertex
 10
272.8767700951288
 20
-421.4428148601498
 30
0.0
  0
VERTEX
  5
14B
330
148
100
AcDbEntity
  8
Layer 1
370
     0
100
AcDbVertex
100
AcDb2dVertex
 10
272.8843496703744
 20
-420.9128148602809
 30
0.0
  0
VERTEX
  5
14C
330
148
100
AcDbEntity
  8
Layer 1
370
     0
100
AcDbVertex
100
AcDb2dVertex
 10
319.5246447521611
 20
-420.9128148602809
 30
0.0
  0
VERTEX
  5
14D
330
148
100
AcDbEntity
  8
Layer 1
370
     0
100
AcDbVertex
100
AcDb2dVertex
 10
319.5322156196521
 20
-421.4428148601498
 30
0.0
  0
SEQEND
  5
14F
330
148
100
AcDbEntity
  8
Layer 1
370
     0
  0
HATCH
  5
14E
330
AC
100
AcDbEntity
  8
Layer 1
 62
   178
420
        0
100
AcDbHatch
 10
0.0
 20
0.0
 30
0.0
210
0.0
220
0.0
230
1.0
  2
SOLID
 70
     1
 71
     0
 91
        1
 92
        1
 93
        4
 72
     1
 10
319.5322156196521
 20
-421.4428148601498
 11
272.8767700951288
 21
-421.4428148601498
 72
     1
 10
272.8767700951288
 20
-421.4428148601498
 11
272.8843496703744
 21
-420.9128148602809
 72
     1
 10
272.8843496703744
 20
-420.9128148602809
 11
319.5246447521611
 21
-420.9128148602809
 72
     1
 10
319.5246447521611
 20
-420.9128148602809
 11
319.5322156196521
 21
-421.4428148601498
 97
        0
 75
     0
 76
     1
 98
        0
  0
POLYLINE
  5
150
330
AC
100
AcDbEntity
  8
Layer 1
370
     0
100
AcDb2dPolyline
 66
     1
 10
0.0
 20
0.0
 30
0.0
  0
VERTEX
  5
151
330
150
100
AcDbEntity
  8
Layer 1
370
     0
100
AcDbVertex
100
AcDb2dVertex
 10
319.1200026941267
 20
-392.5758148673643
 30
0.0
  0
VERTEX
  5
152
330
150
100
AcDbEntity
  8
Layer 1
370
     0
100
AcDbVertex
100
AcDb2dVertex
 10
273.2895995265727
 20
-392.5758148673643
 30
0.0
  0
VERTEX
  5
153
330
150
100
AcDbEntity
  8
Layer 1
370
     0
100
AcDbVertex
100
AcDb2dVertex
 10
273.2971791018209
 20
-392.045814867498
 30
0.0
  0
VERTEX
  5
154
330
150
100
AcDbEntity
  8
Layer 1
370
     0
100
AcDbVertex
100
AcDb2dVertex
 10
319.1124332313404
 20
-392.045814867498
 30
0.0
  0
VERTEX
  5
155
330
150
100
AcDbEntity
  8
Layer 1
370
     0
100
AcDbVertex
100
AcDb2dVertex
 10
319.1200026941267
 20
-392.5758148673643
 30
0.0
  0
SEQEND
  5
157
330
150
100
AcDbEntity
  8
Layer 1
370
     0
  0
HATCH
  5
156
330
AC
100
AcDbEntity
  8
Layer 1
 62
   178
420
        0
100
AcDbHatch
 10
0.0
 20
0.0
 30
0.0
210
0.0
220
0.0
230
1.0
  2
SOLID
 70
     1
 71
     0
 91
        1
 92
        1
 93
        4
 72
     1
 10
319.1200026941267
 20
-392.5758148673643
 11
273.2895995265727
 21
-392.5758148673643
 72
     1
 10
273.2895995265727
 20
-392.5758148673643
 11
273.2971791018209
 21
-392.045814867498
 72
     1
 10
273.2971791018209
 20
-392.045814867498
 11
319.1124332313404
 21
-392.045814867498
 72
     1
 10
319.1124332313404
 20
-392.045814867498
 11
319.1200026941267
 21
-392.5758148673643
 97
        0
 75
     0
 76
     1
 98
        0
  0
POLYLINE
  5
158
330
AC
100
AcDbEntity
  8
Layer 1
370
     0
100
AcDb2dPolyline
 66
     1
 10
0.0
 20
0.0
 30
0.0
  0
VERTEX
  5
159
330
158
100
AcDbEntity
  8
Layer 1
370
     0
100
AcDbVertex
100
AcDb2dVertex
 10
318.6832864777004
 20
-361.9928148750125
 30
0.0
  0
VERTEX
  5
15A
330
158
100
AcDbEntity
  8
Layer 1
370
     0
100
AcDbVertex
100
AcDb2dVertex
 10
273.7269696205146
 20
-361.9928148750125
 30
0.0
  0
VERTEX
  5
15B
330
158
100
AcDbEntity
  8
Layer 1
370
     0
100
AcDbVertex
100
AcDb2dVertex
 10
273.7345491957628
 20
-361.462814875143
 30
0.0
  0
VERTEX
  5
15C
330
158
100
AcDbEntity
  8
Layer 1
370
     0
100
AcDbVertex
100
AcDb2dVertex
 10
318.6757218099153
 20
-361.462814875143
 30
0.0
  0
VERTEX
  5
15D
330
158
100
AcDbEntity
  8
Layer 1
370
     0
100
AcDbVertex
100
AcDb2dVertex
 10
318.6832864777004
 20
-361.9928148750125
 30
0.0
  0
SEQEND
  5
15F
330
158
100
AcDbEntity
  8
Layer 1
370
     0
  0
HATCH
  5
15E
330
AC
100
AcDbEntity
  8
Layer 1
 62
   178
420
        0
100
AcDbHatch
 10
0.0
 20
0.0
 30
0.0
210
0.0
220
0.0
230
1.0
  2
SOLID
 70
     1
 71
     0
 91
        1
 92
        1
 93
        4
 72
     1
 10
318.6832864777004
 20
-361.9928148750125
 11
273.7269696205146
 21
-361.9928148750125
 72
     1
 10
273.7269696205146
 20
-361.9928148750125
 11
273.7345491957628
 21
-361.462814875143
 72
     1
 10
273.7345491957628
 20
-361.462814875143
 11
318.6757218099153
 21
-361.462814875143
 72
     1
 10
318.6757218099153
 20
-361.462814875143
 11
318.6832864777004
 21
-361.9928148750125
 97
        0
 75
     0
 76
     1
 98
        0
  0
POLYLINE
  5
160
330
AC
100
AcDbEntity
  8
Layer 1
370
     0
100
AcDb2dPolyline
 66
     1
 10
0.0
 20
0.0
 30
0.0
  0
VERTEX
  5
161
330
160
100
AcDbEntity
  8
Layer 1
370
     0
100
AcDbVertex
100
AcDb2dVertex
 10
318.220611561964
 20
-329.5918148831124
 30
0.0
  0
VERTEX
  5
162
330
160
100
AcDbEntity
  8
Layer 1
370
     0
100
AcDbVertex
100
AcDb2dVertex
 10
274.1903390876652
 20
-329.5918148831124
 30
0.0
  0
VERTEX
  5
163
330
160
100
AcDbEntity
  8
Layer 1
370
     0
100
AcDbVertex
100
AcDb2dVertex
 10
274.1979186629141
 20
-329.0618148832429
 30
0.0
  0
VERTEX
  5
164
330
160
100
AcDbEntity
  8
Layer 1
370
     0
100
AcDbVertex
100
AcDb2dVertex
 10
318.2130433036392
 20
-329.0618148832429
 30
0.0
  0
VERTEX
  5
165
330
160
100
AcDbEntity
  8
Layer 1
370
     0
100
AcDbVertex
100
AcDb2dVertex
 10
318.220611561964
 20
-329.5918148831124
 30
0.0
  0
SEQEND
  5
167
330
160
100
AcDbEntity
  8
Layer 1
370
     0
  0
HATCH
  5
166
330
AC
100
AcDbEntity
  8
Layer 1
 62
   178
420
        0
100
AcDbHatch
 10
0.0
 20
0.0
 30
0.0
210
0.0
220
0.0
230
1.0
  2
SOLID
 70
     1
 71
     0
 91
        1
 92
        1
 93
        4
 72
     1
 10
318.220611561964
 20
-329.5918148831124
 11
274.1903390876652
 21
-329.5918148831124
 72
     1
 10
274.1903390876652
 20
-329.5918148831124
 11
274.1979186629141
 21
-329.0618148832429
 72
     1
 10
274.1979186629141
 20
-329.0618148832429
 11
318.2130433036392
 21
-329.0618148832429
 72
     1
 10
318.2130433036392
 20
-329.0618148832429
 11
318.220611561964
 21
-329.5918148831124
 97
        0
 75
     0
 76
     1
 98
        0
  0
POLYLINE
  5
168
330
AC
100
AcDbEntity
  8
Layer 1
370
     0
100
AcDb2dPolyline
 66
     1
 10
0.0
 20
0.0
 30
0.0
  0
VERTEX
  5
169
330
168
100
AcDbEntity
  8
Layer 1
370
     0
100
AcDbVertex
100
AcDb2dVertex
 10
317.733143675838
 20
-295.4543647710955
 30
0.0
  0
VERTEX
  5
16A
330
168
100
AcDbEntity
  8
Layer 1
370
     0
100
AcDbVertex
100
AcDb2dVertex
 10
274.6785419770793
 20
-295.4543647710955
 30
0.0
  0
VERTEX
  5
16B
330
168
100
AcDbEntity
  8
Layer 1
370
     0
100
AcDbVertex
100
AcDb2dVertex
 10
274.6861206248196
 20
-294.924364771226
 30
0.0
  0
VERTEX
  5
16C
330
168
100
AcDbEntity
  8
Layer 1
370
     0
100
AcDbVertex
100
AcDb2dVertex
 10
317.7255727346985
 20
-294.924364771226
 30
0.0
  0
VERTEX
  5
16D
330
168
100
AcDbEntity
  8
Layer 1
370
     0
100
AcDbVertex
100
AcDb2dVertex
 10
317.733143675838
 20
-295.4543647710955
 30
0.0
  0
SEQEND
  5
16F
330
168
100
AcDbEntity
  8
Layer 1
370
     0
  0
HATCH
  5
16E
330
AC
100
AcDbEntity
  8
Layer 1
 62
   178
420
        0
100
AcDbHatch
 10
0.0
 20
0.0
 30
0.0
210
0.0
220
0.0
230
1.0
  2
SOLID
 70
     1
 71
     0
 91
        1
 92
        1
 93
        4
 72
     1
 10
317.733143675838
 20
-295.4543647710955
 11
274.6785419770793
 21
-295.4543647710955
 72
     1
 10
274.6785419770793
 20
-295.4543647710955
 11
274.6861206248196
 21
-294.924364771226
 72
     1
 10
274.6861206248196
 20
-294.924364771226
 11
317.7255727346985
 21
-294.924364771226
 72
     1
 10
317.7255727346985
 20
-294.924364771226
 11
317.733143675838
 21
-295.4543647710955
 97
        0
 75
     0
 76
     1
 98
        0
  0
ENDBLK
  5
AF
330
AC
100
AcDbEntity
  8
0
100
AcDbBlockEnd
  0
BLOCK
  5
172
330
170
100
AcDbEntity
  8
0
100
AcDbBlockBegin
  2
block 13
 70
     0
 10
0.0
 20
0.0
 30
0.0
  3
block 13
  1

  0
INSERT
  5
175
330
170
100
AcDbEntity
  8
Layer 1
100
AcDbBlockReference
  2
block 14
 10
0.0
 20
0.0
 30
0.0
  0
INSERT
  5
185
330
170
100
AcDbEntity
  8
Layer 1
100
AcDbBlockReference
  2
block 16
 10
0.0
 20
0.0
 30
0.0
  0
INSERT
  5
1C1
330
170
100
AcDbEntity
  8
Layer 1
100
AcDbBlockReference
  2
block 17
 10
0.0
 20
0.0
 30
0.0
  0
ENDBLK
  5
173
330
170
100
AcDbEntity
  8
0
100
AcDbBlockEnd
  0
BLOCK
  5
176
330
174
100
AcDbEntity
  8
0
100
AcDbBlockBegin
  2
block 14
 70
     0
 10
0.0
 20
0.0
 30
0.0
  3
block 14
  1

  0
INSERT
  5
179
330
174
100
AcDbEntity
  8
Layer 1
100
AcDbBlockReference
  2
block 15
 10
0.0
 20
0.0
 30
0.0
  0
ENDBLK
  5
177
330
174
100
AcDbEntity
  8
0
100
AcDbBlockEnd
  0
BLOCK
  5
17A
330
178
100
AcDbEntity
  8
0
100
AcDbBlockBegin
  2
block 15
 70
     0
 10
0.0
 20
0.0
 30
0.0
  3
block 15
  1

  0
POLYLINE
  5
17C
330
178
100
AcDbEntity
  8
Layer 1
370
     0
100
AcDb2dPolyline
 66
     1
 10
0.0
 20
0.0
 30
0.0
  0
VERTEX
  5
17D
330
17C
100
AcDbEntity
  8
Layer 1
370
     0
100
AcDbVertex
100
AcDb2dVertex
 10
275.2010529571872
 20
-242.5553496708065
 30
0.0
  0
VERTEX
  5
17E
330
17C
100
AcDbEntity
  8
Layer 1
370
     0
100
AcDbVertex
100
AcDb2dVertex
 10
275.2010529571872
 20
-258.5553635692588
 30
0.0
  0
VERTEX
  5
17F
330
17C
100
AcDbEntity
  8
Layer 1
370
     0
100
AcDbVertex
100
AcDb2dVertex
 10
317.2010517598924
 20
-258.5553635692588
 30
0.0
  0
VERTEX
  5
180
330
17C
100
AcDbEntity
  8
Layer 1
370
     0
100
AcDbVertex
100
AcDb2dVertex
 10
317.2010517598924
 20
-242.5553496708065
 30
0.0
  0
VERTEX
  5
181
330
17C
100
AcDbEntity
  8
Layer 1
370
     0
100
AcDbVertex
100
AcDb2dVertex
 10
275.2010529571872
 20
-242.5553496708065
 30
0.0
  0
SEQEND
  5
183
330
17C
100
AcDbEntity
  8
Layer 1
370
     0
  0
HATCH
  5
182
330
178
100
AcDbEntity
  8
Layer 1
 62
   162
420
   995537
100
AcDbHatch
 10
0.0
 20
0.0
 30
0.0
210
0.0
220
0.0
230
1.0
  2
SOLID
 70
     1
 71
     0
 91
        1
 92
        1
 93
        4
 72
     1
 10
275.2010529571872
 20
-242.5553496708065
 11
275.2010529571872
 21
-258.5553635692588
 72
     1
 10
275.2010529571872
 20
-258.5553635692588
 11
317.2010517598924
 21
-258.5553635692588
 72
     1
 10
317.2010517598924
 20
-258.5553635692588
 11
317.2010517598924
 21
-242.5553496708065
 72
     1
 10
317.2010517598924
 20
-242.5553496708065
 11
275.2010529571872
 21
-242.5553496708065
 97
        0
 75
     0
 76
     1
 98
        0
  0
ENDBLK
  5
17B
330
178
100
AcDbEntity
  8
0
100
AcDbBlockEnd
  0
BLOCK
  5
186
330
184
100
AcDbEntity
  8
0
100
AcDbBlockBegin
  2
block 16
 70
     0
 10
0.0
 20
0.0
 30
0.0
  3
block 16
  1

  0
POLYLINE
  5
188
330
184
100
AcDbEntity
  8
Layer 1
370
     0
100
AcDb2dPolyline
 66
     1
 10
0.0
 20
0.0
 30
0.0
  0
VERTEX
  5
189
330
188
100
AcDbEntity
  8
Layer 1
370
     0
100
AcDbVertex
100
AcDb2dVertex
 10
317.2060749483944
 20
-258.5553647803206
 30
0.0
  0
VERTEX
  5
18A
330
188
100
AcDbEntity
  8
Layer 1
370
     0
100
AcDbVertex
100
AcDb2dVertex
 10
313.7060749492692
 20
-258.5553647803206
 30
0.0
  0
VERTEX
  5
18B
330
188
100
AcDbEntity
  8
Layer 1
370
     0
100
AcDbVertex
100
AcDb2dVertex
 10
313.7060749492692
 20
-256.5553647808211
 30
0.0
  0
VERTEX
  5
18C
330
188
100
AcDbEntity
  8
Layer 1
370
     0
100
AcDbVertex
100
AcDb2dVertex
 10
317.2060749483944
 20
-256.5553647808211
 30
0.0
  0
VERTEX
  5
18D
330
188
100
AcDbEntity
  8
Layer 1
370
     0
100
AcDbVertex
100
AcDb2dVertex
 10
317.2060749483944
 20
-258.5553647803206
 30
0.0
  0
SEQEND
  5
18F
330
188
100
AcDbEntity
  8
Layer 1
370
     0
  0
HATCH
  5
18E
330
184
100
AcDbEntity
  8
Layer 1
 62
    20
420
 15872005
100
AcDbHatch
 10
0.0
 20
0.0
 30
0.0
210
0.0
220
0.0
230
1.0
  2
SOLID
 70
     1
 71
     0
 91
        1
 92
        1
 93
        4
 72
     1
 10
317.2060749483944
 20
-258.5553647803206
 11
313.7060749492692
 21
-258.5553647803206
 72
     1
 10
313.7060749492692
 20
-258.5553647803206
 11
313.7060749492692
 21
-256.5553647808211
 72
     1
 10
313.7060749492692
 20
-256.5553647808211
 11
317.2060749483944
 21
-256.5553647808211
 72
     1
 10
317.2060749483944
 20
-256.5553647808211
 11
317.2060749483944
 21
-258.5553647803206
 97
        0
 75
     0
 76
     1
 98
        0
  0
POLYLINE
  5
190
330
184
100
AcDbEntity
  8
Layer 1
370
     0
100
AcDb2dPolyline
 66
     1
 10
0.0
 20
0.0
 30
0.0
  0
VERTEX
  5
191
330
190
100
AcDbEntity
  8
Layer 1
370
     0
100
AcDbVertex
100
AcDb2dVertex
 10
313.7060749492692
 20
-258.5553647803206
 30
0.0
  0
VERTEX
  5
192
330
190
100
AcDbEntity
  8
Layer 1
370
     0
100
AcDbVertex
100
AcDb2dVertex
 10
306.7060749510189
 20
-258.5553647803206
 30
0.0
  0
VERTEX
  5
193
330
190
100
AcDbEntity
  8
Layer 1
370
     0
100
AcDbVertex
100
AcDb2dVertex
 10
306.7060749510189
 20
-256.5553647808211
 30
0.0
  0
VERTEX
  5
194
330
190
100
AcDbEntity
  8
Layer 1
370
     0
100
AcDbVertex
100
AcDb2dVertex
 10
313.7060749492692
 20
-256.5553647808211
 30
0.0
  0
VERTEX
  5
195
330
190
100
AcDbEntity
  8
Layer 1
370
     0
100
AcDbVertex
100
AcDb2dVertex
 10
313.7060749492692
 20
-258.5553647803206
 30
0.0
  0
SEQEND
  5
197
330
190
100
AcDbEntity
  8
Layer 1
370
     0
  0
HATCH
  5
196
330
184
100
AcDbEntity
  8
Layer 1
 62
    20
420
 15872005
100
AcDbHatch
 10
0.0
 20
0.0
 30
0.0
210
0.0
220
0.0
230
1.0
  2
SOLID
 70
     1
 71
     0
 91
        1
 92
        1
 93
        4
 72
     1
 10
313.7060749492692
 20
-258.5553647803206
 11
306.7060749510189
 21
-258.5553647803206
 72
     1
 10
306.7060749510189
 20
-258.5553647803206
 11
306.7060749510189
 21
-256.5553647808211
 72
     1
 10
306.7060749510189
 20
-256.5553647808211
 11
313.7060749492692
 21
-256.5553647808211
 72
     1
 10
313.7060749492692
 20
-256.5553647808211
 11
313.7060749492692
 21
-258.5553647803206
 97
        0
 75
     0
 76
     1
 98
        0
  0
POLYLINE
  5
198
330
184
100
AcDbEntity
  8
Layer 1
370
     0
100
AcDb2dPolyline
 66
     1
 10
0.0
 20
0.0
 30
0.0
  0
VERTEX
  5
199
330
198
100
AcDbEntity
  8
Layer 1
370
     0
100
AcDbVertex
100
AcDb2dVertex
 10
299.7060749527686
 20
-258.5553647803206
 30
0.0
  0
VERTEX
  5
19A
330
198
100
AcDbEntity
  8
Layer 1
370
     0
100
AcDbVertex
100
AcDb2dVertex
 10
292.7060749545195
 20
-258.5553647803206
 30
0.0
  0
VERTEX
  5
19B
330
198
100
AcDbEntity
  8
Layer 1
370
     0
100
AcDbVertex
100
AcDb2dVertex
 10
292.7060749545195
 20
-256.5553647808211
 30
0.0
  0
VERTEX
  5
19C
330
198
100
AcDbEntity
  8
Layer 1
370
     0
100
AcDbVertex
100
AcDb2dVertex
 10
299.7060749527686
 20
-256.5553647808211
 30
0.0
  0
VERTEX
  5
19D
330
198
100
AcDbEntity
  8
Layer 1
370
     0
100
AcDbVertex
100
AcDb2dVertex
 10
299.7060749527686
 20
-258.5553647803206
 30
0.0
  0
SEQEND
  5
19F
330
198
100
AcDbEntity
  8
Layer 1
370
     0
  0
HATCH
  5
19E
330
184
100
AcDbEntity
  8
Layer 1
 62
    20
420
 15872005
100
AcDbHatch
 10
0.0
 20
0.0
 30
0.0
210
0.0
220
0.0
230
1.0
  2
SOLID
 70
     1
 71
     0
 91
        1
 92
        1
 93
        4
 72
     1
 10
299.7060749527686
 20
-258.5553647803206
 11
292.7060749545195
 21
-258.5553647803206
 72
     1
 10
292.7060749545195
 20
-258.5553647803206
 11
292.7060749545195
 21
-256.5553647808211
 72
     1
 10
292.7060749545195
 20
-256.5553647808211
 11
299.7060749527686
 21
-256.5553647808211
 72
     1
 10
299.7060749527686
 20
-256.5553647808211
 11
299.7060749527686
 21
-258.5553647803206
 97
        0
 75
     0
 76
     1
 98
        0
  0
POLYLINE
  5
1A0
330
184
100
AcDbEntity
  8
Layer 1
370
     0
100
AcDb2dPolyline
 66
     1
 10
0.0
 20
0.0
 30
0.0
  0
VERTEX
  5
1A1
330
1A0
100
AcDbEntity
  8
Layer 1
370
     0
100
AcDbVertex
100
AcDb2dVertex
 10
306.7060749510189
 20
-258.5553647803206
 30
0.0
  0
VERTEX
  5
1A2
330
1A0
100
AcDbEntity
  8
Layer 1
370
     0
100
AcDbVertex
100
AcDb2dVertex
 10
299.7060749527686
 20
-258.5553647803206
 30
0.0
  0
VERTEX
  5
1A3
330
1A0
100
AcDbEntity
  8
Layer 1
370
     0
100
AcDbVertex
100
AcDb2dVertex
 10
299.7060749527686
 20
-256.5553647808211
 30
0.0
  0
VERTEX
  5
1A4
330
1A0
100
AcDbEntity
  8
Layer 1
370
     0
100
AcDbVertex
100
AcDb2dVertex
 10
306.7060749510189
 20
-256.5553647808211
 30
0.0
  0
VERTEX
  5
1A5
330
1A0
100
AcDbEntity
  8
Layer 1
370
     0
100
AcDbVertex
100
AcDb2dVertex
 10
306.7060749510189
 20
-258.5553647803206
 30
0.0
  0
SEQEND
  5
1A7
330
1A0
100
AcDbEntity
  8
Layer 1
370
     0
  0
HATCH
  5
1A6
330
184
100
AcDbEntity
  8
Layer 1
 62
    20
420
 15872005
100
AcDbHatch
 10
0.0
 20
0.0
 30
0.0
210
0.0
220
0.0
230
1.0
  2
SOLID
 70
     1
 71
     0
 91
        1
 92
        1
 93
        4
 72
     1
 10
306.7060749510189
 20
-258.5553647803206
 11
299.7060749527686
 21
-258.5553647803206
 72
     1
 10
299.7060749527686
 20
-258.5553647803206
 11
299.7060749527686
 21
-256.5553647808211
 72
     1
 10
299.7060749527686
 20
-256.5553647808211
 11
306.7060749510189
 21
-256.5553647808211
 72
     1
 10
306.7060749510189
 20
-256.5553647808211
 11
306.7060749510189
 21
-258.5553647803206
 97
        0
 75
     0
 76
     1
 98
        0
  0
POLYLINE
  5
1A8
330
184
100
AcDbEntity
  8
Layer 1
370
     0
100
AcDb2dPolyline
 66
     1
 10
0.0
 20
0.0
 30
0.0
  0
VERTEX
  5
1A9
330
1A8
100
AcDbEntity
  8
Layer 1
370
     0
100
AcDbVertex
100
AcDb2dVertex
 10
292.7060749545195
 20
-258.5553647803206
 30
0.0
  0
VERTEX
  5
1AA
330
1A8
100
AcDbEntity
  8
Layer 1
370
     0
100
AcDbVertex
100
AcDb2dVertex
 10
285.7060749562685
 20
-258.5553647803206
 30
0.0
  0
VERTEX
  5
1AB
330
1A8
100
AcDbEntity
  8
Layer 1
370
     0
100
AcDbVertex
100
AcDb2dVertex
 10
285.7060749562685
 20
-256.5553647808211
 30
0.0
  0
VERTEX
  5
1AC
330
1A8
100
AcDbEntity
  8
Layer 1
370
     0
100
AcDbVertex
100
AcDb2dVertex
 10
292.7060749545195
 20
-256.5553647808211
 30
0.0
  0
VERTEX
  5
1AD
330
1A8
100
AcDbEntity
  8
Layer 1
370
     0
100
AcDbVertex
100
AcDb2dVertex
 10
292.7060749545195
 20
-258.5553647803206
 30
0.0
  0
SEQEND
  5
1AF
330
1A8
100
AcDbEntity
  8
Layer 1
370
     0
  0
HATCH
  5
1AE
330
184
100
AcDbEntity
  8
Layer 1
 62
    20
420
 15872005
100
AcDbHatch
 10
0.0
 20
0.0
 30
0.0
210
0.0
220
0.0
230
1.0
  2
SOLID
 70
     1
 71
     0
 91
        1
 92
        1
 93
        4
 72
     1
 10
292.7060749545195
 20
-258.5553647803206
 11
285.7060749562685
 21
-258.5553647803206
 72
     1
 10
285.7060749562685
 20
-258.5553647803206
 11
285.7060749562685
 21
-256.5553647808211
 72
     1
 10
285.7060749562685
 20
-256.5553647808211
 11
292.7060749545195
 21
-256.5553647808211
 72
     1
 10
292.7060749545195
 20
-256.5553647808211
 11
292.7060749545195
 21
-258.5553647803206
 97
        0
 75
     0
 76
     1
 98
        0
  0
POLYLINE
  5
1B0
330
184
100
AcDbEntity
  8
Layer 1
370
     0
100
AcDb2dPolyline
 66
     1
 10
0.0
 20
0.0
 30
0.0
  0
VERTEX
  5
1B1
330
1B0
100
AcDbEntity
  8
Layer 1
370
     0
100
AcDbVertex
100
AcDb2dVertex
 10
285.7060749562685
 20
-258.5553647803206
 30
0.0
  0
VERTEX
  5
1B2
330
1B0
100
AcDbEntity
  8
Layer 1
370
     0
100
AcDbVertex
100
AcDb2dVertex
 10
278.7060749580182
 20
-258.5553647803206
 30
0.0
  0
VERTEX
  5
1B3
330
1B0
100
AcDbEntity
  8
Layer 1
370
     0
100
AcDbVertex
100
AcDb2dVertex
 10
278.7060749580182
 20
-256.5553647808211
 30
0.0
  0
VERTEX
  5
1B4
330
1B0
100
AcDbEntity
  8
Layer 1
370
     0
100
AcDbVertex
100
AcDb2dVertex
 10
285.7060749562685
 20
-256.5553647808211
 30
0.0
  0
VERTEX
  5
1B5
330
1B0
100
AcDbEntity
  8
Layer 1
370
     0
100
AcDbVertex
100
AcDb2dVertex
 10
285.7060749562685
 20
-258.5553647803206
 30
0.0
  0
SEQEND
  5
1B7
330
1B0
100
AcDbEntity
  8
Layer 1
370
     0
  0
HATCH
  5
1B6
330
184
100
AcDbEntity
  8
Layer 1
 62
    20
420
 15872005
100
AcDbHatch
 10
0.0
 20
0.0
 30
0.0
210
0.0
220
0.0
230
1.0
  2
SOLID
 70
     1
 71
     0
 91
        1
 92
        1
 93
        4
 72
     1
 10
285.7060749562685
 20
-258.5553647803206
 11
278.7060749580182
 21
-258.5553647803206
 72
     1
 10
278.7060749580182
 20
-258.5553647803206
 11
278.7060749580182
 21
-256.5553647808211
 72
     1
 10
278.7060749580182
 20
-256.5553647808211
 11
285.7060749562685
 21
-256.5553647808211
 72
     1
 10
285.7060749562685
 20
-256.5553647808211
 11
285.7060749562685
 21
-258.5553647803206
 97
        0
 75
     0
 76
     1
 98
        0
  0
POLYLINE
  5
1B8
330
184
100
AcDbEntity
  8
Layer 1
370
     0
100
AcDb2dPolyline
 66
     1
 10
0.0
 20
0.0
 30
0.0
  0
VERTEX
  5
1B9
330
1B8
100
AcDbEntity
  8
Layer 1
370
     0
100
AcDbVertex
100
AcDb2dVertex
 10
278.6960369785517
 20
-258.5553647803206
 30
0.0
  0
VERTEX
  5
1BA
330
1B8
100
AcDbEntity
  8
Layer 1
370
     0
100
AcDbVertex
100
AcDb2dVertex
 10
275.1960369794272
 20
-258.5553647803206
 30
0.0
  0
VERTEX
  5
1BB
330
1B8
100
AcDbEntity
  8
Layer 1
370
     0
100
AcDbVertex
100
AcDb2dVertex
 10
275.1960369794272
 20
-256.5553647808211
 30
0.0
  0
VERTEX
  5
1BC
330
1B8
100
AcDbEntity
  8
Layer 1
370
     0
100
AcDbVertex
100
AcDb2dVertex
 10
278.6960369785517
 20
-256.5553647808211
 30
0.0
  0
VERTEX
  5
1BD
330
1B8
100
AcDbEntity
  8
Layer 1
370
     0
100
AcDbVertex
100
AcDb2dVertex
 10
278.6960369785517
 20
-258.5553647803206
 30
0.0
  0
SEQEND
  5
1BF
330
1B8
100
AcDbEntity
  8
Layer 1
370
     0
  0
HATCH
  5
1BE
330
184
100
AcDbEntity
  8
Layer 1
 62
    20
420
 15872005
100
AcDbHatch
 10
0.0
 20
0.0
 30
0.0
210
0.0
220
0.0
230
1.0
  2
SOLID
 70
     1
 71
     0
 91
        1
 92
        1
 93
        4
 72
     1
 10
278.6960369785517
 20
-258.5553647803206
 11
275.1960369794272
 21
-258.5553647803206
 72
     1
 10
275.1960369794272
 20
-258.5553647803206
 11
275.1960369794272
 21
-256.5553647808211
 72
     1
 10
275.1960369794272
 20
-256.5553647808211
 11
278.6960369785517
 21
-256.5553647808211
 72
     1
 10
278.6960369785517
 20
-256.5553647808211
 11
278.6960369785517
 21
-258.5553647803206
 97
        0
 75
     0
 76
     1
 98
        0
  0
ENDBLK
  5
187
330
184
100
AcDbEntity
  8
0
100
AcDbBlockEnd
  0
BLOCK
  5
1C2
330
1C0
100
AcDbEntity
  8
0
100
AcDbBlockBegin
  2
block 17
 70
     0
 10
0.0
 20
0.0
 30
0.0
  3
block 17
  1

  0
POLYLINE
  5
1C4
330
1C0
100
AcDbEntity
  8
Layer 1
370
     0
100
AcDb2dPolyline
 66
     1
 10
0.0
 20
0.0
 30
0.0
  0
VERTEX
  5
1C5
330
1C4
100
AcDbEntity
  8
Layer 1
370
     0
100
AcDbVertex
100
AcDb2dVertex
 10
317.2010559586627
 20
-244.55536478382
 30
0.0
  0
VERTEX
  5
1C6
330
1C4
100
AcDbEntity
  8
Layer 1
370
     0
100
AcDbVertex
100
AcDb2dVertex
 10
313.7010559595382
 20
-244.55536478382
 30
0.0
  0
VERTEX
  5
1C7
330
1C4
100
AcDbEntity
  8
Layer 1
370
     0
100
AcDbVertex
100
AcDb2dVertex
 10
313.7010559595382
 20
-242.5553647843211
 30
0.0
  0
VERTEX
  5
1C8
330
1C4
100
AcDbEntity
  8
Layer 1
370
     0
100
AcDbVertex
100
AcDb2dVertex
 10
317.2010559586627
 20
-242.5553647843211
 30
0.0
  0
VERTEX
  5
1C9
330
1C4
100
AcDbEntity
  8
Layer 1
370
     0
100
AcDbVertex
100
AcDb2dVertex
 10
317.2010559586627
 20
-244.55536478382
 30
0.0
  0
SEQEND
  5
1CB
330
1C4
100
AcDbEntity
  8
Layer 1
370
     0
  0
HATCH
  5
1CA
330
1C0
100
AcDbEntity
  8
Layer 1
 62
    20
420
 15872005
100
AcDbHatch
 10
0.0
 20
0.0
 30
0.0
210
0.0
220
0.0
230
1.0
  2
SOLID
 70
     1
 71
     0
 91
        1
 92
        1
 93
        4
 72
     1
 10
317.2010559586627
 20
-244.55536478382
 11
313.7010559595382
 21
-244.55536478382
 72
     1
 10
313.7010559595382
 20
-244.55536478382
 11
313.7010559595382
 21
-242.5553647843211
 72
     1
 10
313.7010559595382
 20
-242.5553647843211
 11
317.2010559586627
 21
-242.5553647843211
 72
     1
 10
317.2010559586627
 20
-242.5553647843211
 11
317.2010559586627
 21
-244.55536478382
 97
        0
 75
     0
 76
     1
 98
        0
  0
POLYLINE
  5
1CC
330
1C0
100
AcDbEntity
  8
Layer 1
370
     0
100
AcDb2dPolyline
 66
     1
 10
0.0
 20
0.0
 30
0.0
  0
VERTEX
  5
1CD
330
1CC
100
AcDbEntity
  8
Layer 1
370
     0
100
AcDbVertex
100
AcDb2dVertex
 10
313.7010559595382
 20
-244.55536478382
 30
0.0
  0
VERTEX
  5
1CE
330
1CC
100
AcDbEntity
  8
Layer 1
370
     0
100
AcDbVertex
100
AcDb2dVertex
 10
306.7010559612879
 20
-244.55536478382
 30
0.0
  0
VERTEX
  5
1CF
330
1CC
100
AcDbEntity
  8
Layer 1
370
     0
100
AcDbVertex
100
AcDb2dVertex
 10
306.7010559612879
 20
-242.5553647843211
 30
0.0
  0
VERTEX
  5
1D0
330
1CC
100
AcDbEntity
  8
Layer 1
370
     0
100
AcDbVertex
100
AcDb2dVertex
 10
313.7010559595382
 20
-242.5553647843211
 30
0.0
  0
VERTEX
  5
1D1
330
1CC
100
AcDbEntity
  8
Layer 1
370
     0
100
AcDbVertex
100
AcDb2dVertex
 10
313.7010559595382
 20
-244.55536478382
 30
0.0
  0
SEQEND
  5
1D3
330
1CC
100
AcDbEntity
  8
Layer 1
370
     0
  0
HATCH
  5
1D2
330
1C0
100
AcDbEntity
  8
Layer 1
 62
    20
420
 15872005
100
AcDbHatch
 10
0.0
 20
0.0
 30
0.0
210
0.0
220
0.0
230
1.0
  2
SOLID
 70
     1
 71
     0
 91
        1
 92
        1
 93
        4
 72
     1
 10
313.7010559595382
 20
-244.55536478382
 11
306.7010559612879
 21
-244.55536478382
 72
     1
 10
306.7010559612879
 20
-244.55536478382
 11
306.7010559612879
 21
-242.5553647843211
 72
     1
 10
306.7010559612879
 20
-242.5553647843211
 11
313.7010559595382
 21
-242.5553647843211
 72
     1
 10
313.7010559595382
 20
-242.5553647843211
 11
313.7010559595382
 21
-244.55536478382
 97
        0
 75
     0
 76
     1
 98
        0
  0
POLYLINE
  5
1D4
330
1C0
100
AcDbEntity
  8
Layer 1
370
     0
100
AcDb2dPolyline
 66
     1
 10
0.0
 20
0.0
 30
0.0
  0
VERTEX
  5
1D5
330
1D4
100
AcDbEntity
  8
Layer 1
370
     0
100
AcDbVertex
100
AcDb2dVertex
 10
299.7010559630376
 20
-244.55536478382
 30
0.0
  0
VERTEX
  5
1D6
330
1D4
100
AcDbEntity
  8
Layer 1
370
     0
100
AcDbVertex
100
AcDb2dVertex
 10
292.7010559647872
 20
-244.55536478382
 30
0.0
  0
VERTEX
  5
1D7
330
1D4
100
AcDbEntity
  8
Layer 1
370
     0
100
AcDbVertex
100
AcDb2dVertex
 10
292.7010559647872
 20
-242.5553647843211
 30
0.0
  0
VERTEX
  5
1D8
330
1D4
100
AcDbEntity
  8
Layer 1
370
     0
100
AcDbVertex
100
AcDb2dVertex
 10
299.7010559630376
 20
-242.5553647843211
 30
0.0
  0
VERTEX
  5
1D9
330
1D4
100
AcDbEntity
  8
Layer 1
370
     0
100
AcDbVertex
100
AcDb2dVertex
 10
299.7010559630376
 20
-244.55536478382
 30
0.0
  0
SEQEND
  5
1DB
330
1D4
100
AcDbEntity
  8
Layer 1
370
     0
  0
HATCH
  5
1DA
330
1C0
100
AcDbEntity
  8
Layer 1
 62
    20
420
 15872005
100
AcDbHatch
 10
0.0
 20
0.0
 30
0.0
210
0.0
220
0.0
230
1.0
  2
SOLID
 70
     1
 71
     0
 91
        1
 92
        1
 93
        4
 72
     1
 10
299.7010559630376
 20
-244.55536478382
 11
292.7010559647872
 21
-244.55536478382
 72
     1
 10
292.7010559647872
 20
-244.55536478382
 11
292.7010559647872
 21
-242.5553647843211
 72
     1
 10
292.7010559647872
 20
-242.5553647843211
 11
299.7010559630376
 21
-242.5553647843211
 72
     1
 10
299.7010559630376
 20
-242.5553647843211
 11
299.7010559630376
 21
-244.55536478382
 97
        0
 75
     0
 76
     1
 98
        0
  0
POLYLINE
  5
1DC
330
1C0
100
AcDbEntity
  8
Layer 1
370
     0
100
AcDb2dPolyline
 66
     1
 10
0.0
 20
0.0
 30
0.0
  0
VERTEX
  5
1DD
330
1DC
100
AcDbEntity
  8
Layer 1
370
     0
100
AcDbVertex
100
AcDb2dVertex
 10
306.7010559612879
 20
-244.55536478382
 30
0.0
  0
VERTEX
  5
1DE
330
1DC
100
AcDbEntity
  8
Layer 1
370
     0
100
AcDbVertex
100
AcDb2dVertex
 10
299.7010559630376
 20
-244.55536478382
 30
0.0
  0
VERTEX
  5
1DF
330
1DC
100
AcDbEntity
  8
Layer 1
370
     0
100
AcDbVertex
100
AcDb2dVertex
 10
299.7010559630376
 20
-242.5553647843211
 30
0.0
  0
VERTEX
  5
1E0
330
1DC
100
AcDbEntity
  8
Layer 1
370
     0
100
AcDbVertex
100
AcDb2dVertex
 10
306.7010559612879
 20
-242.5553647843211
 30
0.0
  0
VERTEX
  5
1E1
330
1DC
100
AcDbEntity
  8
Layer 1
370
     0
100
AcDbVertex
100
AcDb2dVertex
 10
306.7010559612879
 20
-244.55536478382
 30
0.0
  0
SEQEND
  5
1E3
330
1DC
100
AcDbEntity
  8
Layer 1
370
     0
  0
HATCH
  5
1E2
330
1C0
100
AcDbEntity
  8
Layer 1
 62
    20
420
 15872005
100
AcDbHatch
 10
0.0
 20
0.0
 30
0.0
210
0.0
220
0.0
230
1.0
  2
SOLID
 70
     1
 71
     0
 91
        1
 92
        1
 93
        4
 72
     1
 10
306.7010559612879
 20
-244.55536478382
 11
299.7010559630376
 21
-244.55536478382
 72
     1
 10
299.7010559630376
 20
-244.55536478382
 11
299.7010559630376
 21
-242.5553647843211
 72
     1
 10
299.7010559630376
 20
-242.5553647843211
 11
306.7010559612879
 21
-242.5553647843211
 72
     1
 10
306.7010559612879
 20
-242.5553647843211
 11
306.7010559612879
 21
-244.55536478382
 97
        0
 75
     0
 76
     1
 98
        0
  0
POLYLINE
  5
1E4
330
1C0
100
AcDbEntity
  8
Layer 1
370
     0
100
AcDb2dPolyline
 66
     1
 10
0.0
 20
0.0
 30
0.0
  0
VERTEX
  5
1E5
330
1E4
100
AcDbEntity
  8
Layer 1
370
     0
100
AcDbVertex
100
AcDb2dVertex
 10
292.7010559647872
 20
-244.55536478382
 30
0.0
  0
VERTEX
  5
1E6
330
1E4
100
AcDbEntity
  8
Layer 1
370
     0
100
AcDbVertex
100
AcDb2dVertex
 10
285.7010559665369
 20
-244.55536478382
 30
0.0
  0
VERTEX
  5
1E7
330
1E4
100
AcDbEntity
  8
Layer 1
370
     0
100
AcDbVertex
100
AcDb2dVertex
 10
285.7010559665369
 20
-242.5553647843211
 30
0.0
  0
VERTEX
  5
1E8
330
1E4
100
AcDbEntity
  8
Layer 1
370
     0
100
AcDbVertex
100
AcDb2dVertex
 10
292.7010559647872
 20
-242.5553647843211
 30
0.0
  0
VERTEX
  5
1E9
330
1E4
100
AcDbEntity
  8
Layer 1
370
     0
100
AcDbVertex
100
AcDb2dVertex
 10
292.7010559647872
 20
-244.55536478382
 30
0.0
  0
SEQEND
  5
1EB
330
1E4
100
AcDbEntity
  8
Layer 1
370
     0
  0
HATCH
  5
1EA
330
1C0
100
AcDbEntity
  8
Layer 1
 62
    20
420
 15872005
100
AcDbHatch
 10
0.0
 20
0.0
 30
0.0
210
0.0
220
0.0
230
1.0
  2
SOLID
 70
     1
 71
     0
 91
        1
 92
        1
 93
        4
 72
     1
 10
292.7010559647872
 20
-244.55536478382
 11
285.7010559665369
 21
-244.55536478382
 72
     1
 10
285.7010559665369
 20
-244.55536478382
 11
285.7010559665369
 21
-242.5553647843211
 72
     1
 10
285.7010559665369
 20
-242.5553647843211
 11
292.7010559647872
 21
-242.5553647843211
 72
     1
 10
292.7010559647872
 20
-242.5553647843211
 11
292.7010559647872
 21
-244.55536478382
 97
        0
 75
     0
 76
     1
 98
        0
  0
POLYLINE
  5
1EC
330
1C0
100
AcDbEntity
  8
Layer 1
370
     0
100
AcDb2dPolyline
 66
     1
 10
0.0
 20
0.0
 30
0.0
  0
VERTEX
  5
1ED
330
1EC
100
AcDbEntity
  8
Layer 1
370
     0
100
AcDbVertex
100
AcDb2dVertex
 10
285.7010559665369
 20
-244.55536478382
 30
0.0
  0
VERTEX
  5
1EE
330
1EC
100
AcDbEntity
  8
Layer 1
370
     0
100
AcDbVertex
100
AcDb2dVertex
 10
278.7010559682865
 20
-244.55536478382
 30
0.0
  0
VERTEX
  5
1EF
330
1EC
100
AcDbEntity
  8
Layer 1
370
     0
100
AcDbVertex
100
AcDb2dVertex
 10
278.7010559682865
 20
-242.5553647843211
 30
0.0
  0
VERTEX
  5
1F0
330
1EC
100
AcDbEntity
  8
Layer 1
370
     0
100
AcDbVertex
100
AcDb2dVertex
 10
285.7010559665369
 20
-242.5553647843211
 30
0.0
  0
VERTEX
  5
1F1
330
1EC
100
AcDbEntity
  8
Layer 1
370
     0
100
AcDbVertex
100
AcDb2dVertex
 10
285.7010559665369
 20
-244.55536478382
 30
0.0
  0
SEQEND
  5
1F3
330
1EC
100
AcDbEntity
  8
Layer 1
370
     0
  0
HATCH
  5
1F2
330
1C0
100
AcDbEntity
  8
Layer 1
 62
    20
420
 15872005
100
AcDbHatch
 10
0.0
 20
0.0
 30
0.0
210
0.0
220
0.0
230
1.0
  2
SOLID
 70
     1
 71
     0
 91
        1
 92
        1
 93
        4
 72
     1
 10
285.7010559665369
 20
-244.55536478382
 11
278.7010559682865
 21
-244.55536478382
 72
     1
 10
278.7010559682865
 20
-244.55536478382
 11
278.7010559682865
 21
-242.5553647843211
 72
     1
 10
278.7010559682865
 20
-242.5553647843211
 11
285.7010559665369
 21
-242.5553647843211
 72
     1
 10
285.7010559665369
 20
-242.5553647843211
 11
285.7010559665369
 21
-244.55536478382
 97
        0
 75
     0
 76
     1
 98
        0
  0
POLYLINE
  5
1F4
330
1C0
100
AcDbEntity
  8
Layer 1
370
     0
100
AcDb2dPolyline
 66
     1
 10
0.0
 20
0.0
 30
0.0
  0
VERTEX
  5
1F5
330
1F4
100
AcDbEntity
  8
Layer 1
370
     0
100
AcDbVertex
100
AcDb2dVertex
 10
278.7010559682865
 20
-244.55536478382
 30
0.0
  0
VERTEX
  5
1F6
330
1F4
100
AcDbEntity
  8
Layer 1
370
     0
100
AcDbVertex
100
AcDb2dVertex
 10
275.201055969162
 20
-244.55536478382
 30
0.0
  0
VERTEX
  5
1F7
330
1F4
100
AcDbEntity
  8
Layer 1
370
     0
100
AcDbVertex
100
AcDb2dVertex
 10
275.201055969162
 20
-242.5553647843211
 30
0.0
  0
VERTEX
  5
1F8
330
1F4
100
AcDbEntity
  8
Layer 1
370
     0
100
AcDbVertex
100
AcDb2dVertex
 10
278.7010559682865
 20
-242.5553647843211
 30
0.0
  0
VERTEX
  5
1F9
330
1F4
100
AcDbEntity
  8
Layer 1
370
     0
100
AcDbVertex
100
AcDb2dVertex
 10
278.7010559682865
 20
-244.55536478382
 30
0.0
  0
SEQEND
  5
1FB
330
1F4
100
AcDbEntity
  8
Layer 1
370
     0
  0
HATCH
  5
1FA
330
1C0
100
AcDbEntity
  8
Layer 1
 62
    20
420
 15872005
100
AcDbHatch
 10
0.0
 20
0.0
 30
0.0
210
0.0
220
0.0
230
1.0
  2
SOLID
 70
     1
 71
     0
 91
        1
 92
        1
 93
        4
 72
     1
 10
278.7010559682865
 20
-244.55536478382
 11
275.201055969162
 21
-244.55536478382
 72
     1
 10
275.201055969162
 20
-244.55536478382
 11
275.201055969162
 21
-242.5553647843211
 72
     1
 10
275.201055969162
 20
-242.5553647843211
 11
278.7010559682865
 21
-242.5553647843211
 72
     1
 10
278.7010559682865
 20
-242.5553647843211
 11
278.7010559682865
 21
-244.55536478382
 97
        0
 75
     0
 76
     1
 98
        0
  0
ENDBLK
  5
1C3
330
1C0
100
AcDbEntity
  8
0
100
AcDbBlockEnd
  0
BLOCK
  5
200
330
1FE
100
AcDbEntity
  8
0
100
AcDbBlockBegin
  2
block 18
 70
     0
 10
0.0
 20
0.0
 30
0.0
  3
block 18
  1

  0
SPLINE
  5
202
330
1FE
100
AcDbEntity
  8
Layer 1
370
     0
100
AcDbSpline
210
0.0
220
0.0
230
1.0
 70
    11
 71
     3
 72
    17
 73
    13
 74
     0
 42
0.0000000001
 43
0.0000000001
 12
1.0
 22
0.0
 32
0.0
 13
1.0
 23
0.0
 33
0.0
 40
0.0
 40
0.0
 40
0.0
 40
0.0
 40
1.0
 40
1.0
 40
1.0
 40
2.0
 40
2.0
 40
2.0
 40
3.0
 40
3.0
 40
3.0
 40
4.0
 40
4.0
 40
4.0
 40
4.0
 10
164.0718751422494
 20
-640.7428148053227
 30
0.0
 10
156.3461600250022
 20
-701.3069702728501
 30
0.0
 10
189.682248122006
 20
-746.3251494863283
 30
0.0
 10
188.0020695396762
 20
-776.5758346133968
 30
0.0
 10
187.9549883243159
 20
-821.2585630853655
 30
0.0
 10
156.6011661150269
 20
-864.6560269265339
 30
0.0
 10
150.2866185945322
 20
-910.4617039594235
 30
0.0
 10
149.2742191967999
 20
-920.0404674669702
 30
0.0
 10
148.6129199050055
 20
-924.1964435704384
 30
0.0
 10
149.5426742056282
 20
-939.1267867145781
 30
0.0
 10
261.2010559726575
 20
-874.5779389140836
 30
0.0
 10
251.2016054239727
 20
-722.1782460409987
 30
0.0
 10
164.0718751422494
 20
-640.7428148053227
 30
0.0
  0
HATCH
  5
203
330
1FE
100
AcDbEntity
  8
Layer 1
 62
    20
420
 15806469
100
AcDbHatch
 10
0.0
 20
0.0
 30
0.0
210
0.0
220
0.0
230
1.0
  2
SOLID
 70
     1
 71
     0
 91
        1
 92
        1
 93
        1
 72
     4
 94
        3
 73
     0
 74
     1
 95
       17
 96
       13
 40
0.0
 40
0.0
 40
0.0
 40
0.0
 40
1.0
 40
1.0
 40
1.0
 40
2.0
 40
2.0
 40
2.0
 40
3.0
 40
3.0
 40
3.0
 40
4.0
 40
4.0
 40
4.0
 40
4.0
 10
164.0718751422494
 20
-640.7428148053227
 10
156.3461600250022
 20
-701.3069702728501
 10
189.682248122006
 20
-746.3251494863283
 10
188.0020695396762
 20
-776.5758346133968
 10
187.9549883243159
 20
-821.2585630853655
 10
156.6011661150269
 20
-864.6560269265339
 10
150.2866185945322
 20
-910.4617039594235
 10
149.2742191967999
 20
-920.0404674669702
 10
148.6129199050055
 20
-924.1964435704384
 10
149.5426742056282
 20
-939.1267867145781
 10
261.2010559726575
 20
-874.5779389140836
 10
251.2016054239727
 20
-722.1782460409987
 10
164.0718751422494
 20
-640.7428148053227
 97
        0
 97
        0
 75
     0
 76
     1
 98
        0
  0
POLYLINE
  5
204
330
1FE
100
AcDbEntity
  8
Layer 1
370
     0
100
AcDb2dPolyline
 66
     1
 10
0.0
 20
0.0
 30
0.0
  0
VERTEX
  5
205
330
204
100
AcDbEntity
  8
Layer 1
370
     0
100
AcDbVertex
100
AcDb2dVertex
 10
251.2016054239727
 20
-867.3300683555735
 30
0.0
  0
VERTEX
  5
206
330
204
100
AcDbEntity
  8
Layer 1
370
     0
100
AcDbVertex
100
AcDb2dVertex
 10
243.2003320323918
 20
-867.3300683555735
 30
0.0
  0
VERTEX
  5
207
330
204
100
AcDbEntity
  8
Layer 1
370
     0
100
AcDbVertex
100
AcDb2dVertex
 10
243.2003320323918
 20
-748.3957730894153
 30
0.0
  0
VERTEX
  5
208
330
204
100
AcDbEntity
  8
Layer 1
370
     0
100
AcDbVertex
100
AcDb2dVertex
 10
251.2016054239727
 20
-748.3957730894153
 30
0.0
  0
VERTEX
  5
209
330
204
100
AcDbEntity
  8
Layer 1
370
     0
100
AcDbVertex
100
AcDb2dVertex
 10
251.2016054239727
 20
-867.3300683555735
 30
0.0
  0
SEQEND
  5
20B
330
204
100
AcDbEntity
  8
Layer 1
370
     0
  0
HATCH
  5
20A
330
1FE
100
AcDbEntity
  8
Layer 1
 62
   164
420
   203942
100
AcDbHatch
 10
0.0
 20
0.0
 30
0.0
210
0.0
220
0.0
230
1.0
  2
SOLID
 70
     1
 71
     0
 91
        1
 92
        1
 93
        4
 72
     1
 10
251.2016054239727
 20
-867.3300683555735
 11
243.2003320323918
 21
-867.3300683555735
 72
     1
 10
243.2003320323918
 20
-867.3300683555735
 11
243.2003320323918
 21
-748.3957730894153
 72
     1
 10
243.2003320323918
 20
-748.3957730894153
 11
251.2016054239727
 21
-748.3957730894153
 72
     1
 10
251.2016054239727
 20
-748.3957730894153
 11
251.2016054239727
 21
-867.3300683555735
 97
        0
 75
     0
 76
     1
 98
        0
  0
INSERT
  5
20D
330
1FE
100
AcDbEntity
  8
Layer 1
100
AcDbBlockReference
  2
block 19
 10
0.0
 20
0.0
 30
0.0
  0
INSERT
  5
217
330
1FE
100
AcDbEntity
  8
Layer 1
100
AcDbBlockReference
  2
block 21
 10
0.0
 20
0.0
 30
0.0
  0
POLYLINE
  5
26A
330
1FE
100
AcDbEntity
  8
Layer 1
 62
     7
420
 16777215
370
    18
100
AcDb2dPolyline
 66
     1
 10
0.0
 20
0.0
 30
0.0
  0
VERTEX
  5
26B
330
26A
100
AcDbEntity
  8
Layer 1
 62
     7
420
 16777215
370
    18
100
AcDbVertex
100
AcDb2dVertex
 10
153.5253012217676
 20
-893.5776960932407
 30
0.0
  0
VERTEX
  5
26C
330
26A
100
AcDbEntity
  8
Layer 1
 62
     7
420
 16777215
370
    18
100
AcDbVertex
100
AcDb2dVertex
 10
237.3682844141779
 20
-1028.952816610042
 30
0.0
  0
SEQEND
  5
26D
330
26A
100
AcDbEntity
  8
Layer 1
 62
     7
420
 16777215
370
    18
  0
ENDBLK
  5
201
330
1FE
100
AcDbEntity
  8
0
100
AcDbBlockEnd
  0
BLOCK
  5
20E
330
20C
100
AcDbEntity
  8
0
100
AcDbBlockBegin
  2
block 19
 70
     0
 10
0.0
 20
0.0
 30
0.0
  3
block 19
  1

  0
INSERT
  5
211
330
20C
100
AcDbEntity
  8
Layer 1
100
AcDbBlockReference
  2
block 20
 10
0.0
 20
0.0
 30
0.0
  0
ENDBLK
  5
20F
330
20C
100
AcDbEntity
  8
0
100
AcDbBlockEnd
  0
BLOCK
  5
212
330
210
100
AcDbEntity
  8
0
100
AcDbBlockBegin
  2
block 20
 70
     0
 10
0.0
 20
0.0
 30
0.0
  3
block 20
  1

  0
SPLINE
  5
214
330
210
100
AcDbEntity
  8
Layer 1
370
     0
100
AcDbSpline
210
0.0
220
0.0
230
1.0
 70
    11
 71
     3
 72
    26
 73
    22
 74
     0
 42
0.0000000001
 43
0.0000000001
 12
1.0
 22
0.0
 32
0.0
 13
1.0
 23
0.0
 33
0.0
 40
0.0
 40
0.0
 40
0.0
 40
0.0
 40
1.0
 40
1.0
 40
1.0
 40
2.0
 40
2.0
 40
2.0
 40
3.0
 40
3.0
 40
3.0
 40
4.0
 40
4.0
 40
4.0
 40
5.0
 40
5.0
 40
5.0
 40
6.0
 40
6.0
 40
6.0
 40
7.0
 40
7.0
 40
7.0
 40
7.0
 10
189.8276680365817
 20
-609.7838818191252
 30
0.0
 10
189.6984123603445
 20
-603.794324935857
 30
0.0
 10
190.3093785128068
 20
-594.9958525123839
 30
0.0
 10
187.9566366785425
 20
-594.9105433354304
 30
0.0
 10
176.7788951855687
 20
-601.706855453957
 30
0.0
 10
171.6356260082521
 20
-610.6357678052404
 30
0.0
 10
165.8363675868504
 20
-630.6215418616589
 30
0.0
 10
152.4857397757892
 20
-692.2217008767493
 30
0.0
 10
189.8450011732419
 20
-743.3949338961826
 30
0.0
 10
188.0020688752543
 20
-776.5758542980436
 30
0.0
 10
187.9549787263402
 20
-821.2585704869597
 30
0.0
 10
156.6011647150815
 20
-864.6560076777163
 30
0.0
 10
150.2866276683203
 20
-910.4617388674367
 30
0.0
 10
146.9179056436091
 20
-942.3347287683226
 30
0.0
 10
145.9259980578653
 20
-1012.780299632873
 30
0.0
 10
243.2003361411856
 20
-1030.077176663054
 30
0.0
 10
243.2003361411856
 20
-1030.077176663054
 30
0.0
 10
243.2003361411856
 20
-700.7794903168841
 30
0.0
 10
243.2003361411856
 20
-700.7794903168841
 30
0.0
 10
219.5446095235644
 20
-700.7794903168841
 30
0.0
 10
191.4169121157743
 20
-675.289487203682
 30
0.0
 10
189.8276680365817
 20
-609.7838818191252
 30
0.0
  0
HATCH
  5
215
330
210
100
AcDbEntity
  8
Layer 1
 62
   164
420
   203942
100
AcDbHatch
 10
0.0
 20
0.0
 30
0.0
210
0.0
220
0.0
230
1.0
  2
SOLID
 70
     1
 71
     0
 91
        1
 92
        1
 93
        1
 72
     4
 94
        3
 73
     0
 74
     1
 95
       26
 96
       22
 40
0.0
 40
0.0
 40
0.0
 40
0.0
 40
1.0
 40
1.0
 40
1.0
 40
2.0
 40
2.0
 40
2.0
 40
3.0
 40
3.0
 40
3.0
 40
4.0
 40
4.0
 40
4.0
 40
5.0
 40
5.0
 40
5.0
 40
6.0
 40
6.0
 40
6.0
 40
7.0
 40
7.0
 40
7.0
 40
7.0
 10
189.8276680365817
 20
-609.7838818191252
 10
189.6984123603445
 20
-603.794324935857
 10
190.3093785128068
 20
-594.9958525123839
 10
187.9566366785425
 20
-594.9105433354304
 10
176.7788951855687
 20
-601.706855453957
 10
171.6356260082521
 20
-610.6357678052404
 10
165.8363675868504
 20
-630.6215418616589
 10
152.4857397757892
 20
-692.2217008767493
 10
189.8450011732419
 20
-743.3949338961826
 10
188.0020688752543
 20
-776.5758542980436
 10
187.9549787263402
 20
-821.2585704869597
 10
156.6011647150815
 20
-864.6560076777163
 10
150.2866276683203
 20
-910.4617388674367
 10
146.9179056436091
 20
-942.3347287683226
 10
145.9259980578653
 20
-1012.780299632873
 10
243.2003361411856
 20
-1030.077176663054
 10
243.2003361411856
 20
-1030.077176663054
 10
243.2003361411856
 20
-700.7794903168841
 10
243.2003361411856
 20
-700.7794903168841
 10
219.5446095235644
 20
-700.7794903168841
 10
191.4169121157743
 20
-675.289487203682
 10
189.8276680365817
 20
-609.7838818191252
 97
        0
 97
        0
 75
     0
 76
     1
 98
        0
  0
ENDBLK
  5
213
330
210
100
AcDbEntity
  8
0
100
AcDbBlockEnd
  0
BLOCK
  5
218
330
216
100
AcDbEntity
  8
0
100
AcDbBlockBegin
  2
block 21
 70
     0
 10
0.0
 20
0.0
 30
0.0
  3
block 21
  1

  0
POLYLINE
  5
21A
330
216
100
AcDbEntity
  8
Layer 1
370
     0
100
AcDb2dPolyline
 66
     1
 10
0.0
 20
0.0
 30
0.0
  0
VERTEX
  5
21B
330
21A
100
AcDbEntity
  8
Layer 1
370
     0
100
AcDbVertex
100
AcDb2dVertex
 10
243.2003320323918
 20
-745.346685983008
 30
0.0
  0
VERTEX
  5
21C
330
21A
100
AcDbEntity
  8
Layer 1
370
     0
100
AcDbVertex
100
AcDb2dVertex
 10
268.2010582470689
 20
-745.346685983008
 30
0.0
  0
VERTEX
  5
21D
330
21A
100
AcDbEntity
  8
Layer 1
370
     0
100
AcDbVertex
100
AcDb2dVertex
 10
268.2010559709117
 20
-748.3957730894153
 30
0.0
  0
VERTEX
  5
21E
330
21A
100
AcDbEntity
  8
Layer 1
370
     0
100
AcDbVertex
100
AcDb2dVertex
 10
324.201055956906
 20
-748.3957730894153
 30
0.0
  0
VERTEX
  5
21F
330
21A
100
AcDbEntity
  8
Layer 1
370
     0
100
AcDbVertex
100
AcDb2dVertex
 10
324.201053368217
 20
-745.346685983008
 30
0.0
  0
VERTEX
  5
220
330
21A
100
AcDbEntity
  8
Layer 1
370
     0
100
AcDbVertex
100
AcDb2dVertex
 10
349.2003320058902
 20
-745.346685983008
 30
0.0
  0
VERTEX
  5
221
330
21A
100
AcDbEntity
  8
Layer 1
370
     0
100
AcDbVertex
100
AcDb2dVertex
 10
349.2003320058902
 20
-870.3300295053459
 30
0.0
  0
VERTEX
  5
222
330
21A
100
AcDbEntity
  8
Layer 1
370
     0
100
AcDbVertex
100
AcDb2dVertex
 10
243.2003320323918
 20
-870.3300295053459
 30
0.0
  0
VERTEX
  5
223
330
21A
100
AcDbEntity
  8
Layer 1
370
     0
100
AcDbVertex
100
AcDb2dVertex
 10
243.2003320323918
 20
-745.346685983008
 30
0.0
  0
SEQEND
  5
224
330
21A
100
AcDbEntity
  8
Layer 1
370
     0
  0
POLYLINE
  5
225
330
216
100
AcDbEntity
  8
Layer 1
370
     0
100
AcDb2dPolyline
 66
     1
 10
0.0
 20
0.0
 30
0.0
  0
VERTEX
  5
226
330
225
100
AcDbEntity
  8
Layer 1
370
     0
100
AcDbVertex
100
AcDb2dVertex
 10
261.2010559726575
 20
-864.8300683561981
 30
0.0
  0
VERTEX
  5
227
330
225
100
AcDbEntity
  8
Layer 1
370
     0
100
AcDbVertex
100
AcDb2dVertex
 10
331.2010559551525
 20
-864.8300683561981
 30
0.0
  0
VERTEX
  5
228
330
225
100
AcDbEntity
  8
Layer 1
370
     0
100
AcDbVertex
100
AcDb2dVertex
 10
331.2010559551525
 20
-824.8300683661995
 30
0.0
  0
VERTEX
  5
229
330
225
100
AcDbEntity
  8
Layer 1
370
     0
100
AcDbVertex
100
AcDb2dVertex
 10
261.2010559726575
 20
-824.8300683661995
 30
0.0
  0
VERTEX
  5
22A
330
225
100
AcDbEntity
  8
Layer 1
370
     0
100
AcDbVertex
100
AcDb2dVertex
 10
261.2010559726575
 20
-864.8300683561981
 30
0.0
  0
SEQEND
  5
22B
330
225
100
AcDbEntity
  8
Layer 1
370
     0
  0
POLYLINE
  5
22C
330
216
100
AcDbEntity
  8
Layer 1
370
     0
100
AcDb2dPolyline
 66
     1
 10
0.0
 20
0.0
 30
0.0
  0
VERTEX
  5
22D
330
22C
100
AcDbEntity
  8
Layer 1
370
     0
100
AcDbVertex
100
AcDb2dVertex
 10
261.2016054214749
 20
-791.6013342786123
 30
0.0
  0
VERTEX
  5
22E
330
22C
100
AcDbEntity
  8
Layer 1
370
     0
100
AcDbVertex
100
AcDb2dVertex
 10
331.2016054039699
 20
-791.6013342786123
 30
0.0
  0
VERTEX
  5
22F
330
22C
100
AcDbEntity
  8
Layer 1
370
     0
100
AcDbVertex
100
AcDb2dVertex
 10
331.2016054039699
 20
-751.6013342886137
 30
0.0
  0
VERTEX
  5
230
330
22C
100
AcDbEntity
  8
Layer 1
370
     0
100
AcDbVertex
100
AcDb2dVertex
 10
261.2016054214749
 20
-751.6013342886137
 30
0.0
  0
VERTEX
  5
231
330
22C
100
AcDbEntity
  8
Layer 1
370
     0
100
AcDbVertex
100
AcDb2dVertex
 10
261.2016054214749
 20
-791.6013342786123
 30
0.0
  0
SEQEND
  5
232
330
22C
100
AcDbEntity
  8
Layer 1
370
     0
  0
HATCH
  5
233
330
216
100
AcDbEntity
  8
Layer 1
 62
    20
420
 15806469
100
AcDbHatch
 10
0.0
 20
0.0
 30
0.0
210
0.0
220
0.0
230
1.0
  2
SOLID
 70
     1
 71
     0
 91
        3
 92
        1
 93
        8
 72
     1
 10
243.2003320323918
 20
-745.346685983008
 11
268.2010582470689
 21
-745.346685983008
 72
     1
 10
268.2010582470689
 20
-745.346685983008
 11
268.2010559709117
 21
-748.3957730894153
 72
     1
 10
268.2010559709117
 20
-748.3957730894153
 11
324.201055956906
 21
-748.3957730894153
 72
     1
 10
324.201055956906
 20
-748.3957730894153
 11
324.201053368217
 21
-745.346685983008
 72
     1
 10
324.201053368217
 20
-745.346685983008
 11
349.2003320058902
 21
-745.346685983008
 72
     1
 10
349.2003320058902
 20
-745.346685983008
 11
349.2003320058902
 21
-870.3300295053459
 72
     1
 10
349.2003320058902
 20
-870.3300295053459
 11
243.2003320323918
 21
-870.3300295053459
 72
     1
 10
243.2003320323918
 20
-870.3300295053459
 11
243.2003320323918
 21
-745.346685983008
 97
        0
 92
        1
 93
        4
 72
     1
 10
261.2010559726575
 20
-864.8300683561981
 11
331.2010559551525
 21
-864.8300683561981
 72
     1
 10
331.2010559551525
 20
-864.8300683561981
 11
331.2010559551525
 21
-824.8300683661995
 72
     1
 10
331.2010559551525
 20
-824.8300683661995
 11
261.2010559726575
 21
-824.8300683661995
 72
     1
 10
261.2010559726575
 20
-824.8300683661995
 11
261.2010559726575
 21
-864.8300683561981
 97
        0
 92
        1
 93
        4
 72
     1
 10
261.2016054214749
 20
-791.6013342786123
 11
331.2016054039699
 21
-791.6013342786123
 72
     1
 10
331.2016054039699
 20
-791.6013342786123
 11
331.2016054039699
 21
-751.6013342886137
 72
     1
 10
331.2016054039699
 20
-751.6013342886137
 11
261.2016054214749
 21
-751.6013342886137
 72
     1
 10
261.2016054214749
 20
-751.6013342886137
 11
261.2016054214749
 21
-791.6013342786123
 97
        0
 75
     2
 76
     1
 98
        0
  0
INSERT
  5
235
330
216
100
AcDbEntity
  8
Layer 1
100
AcDbBlockReference
  2
block 22
 10
0.0
 20
0.0
 30
0.0
  0
INSERT
  5
248
330
216
100
AcDbEntity
  8
Layer 1
100
AcDbBlockReference
  2
block 23
 10
0.0
 20
0.0
 30
0.0
  0
POLYLINE
  5
25A
330
216
100
AcDbEntity
  8
Layer 1
370
     0
100
AcDb2dPolyline
 66
     1
 10
0.0
 20
0.0
 30
0.0
  0
VERTEX
  5
25B
330
25A
100
AcDbEntity
  8
Layer 1
370
     0
100
AcDbVertex
100
AcDb2dVertex
 10
261.2010559726575
 20
-824.8300683661995
 30
0.0
  0
VERTEX
  5
25C
330
25A
100
AcDbEntity
  8
Layer 1
370
     0
100
AcDbVertex
100
AcDb2dVertex
 10
331.2010559551525
 20
-824.8300683661995
 30
0.0
  0
VERTEX
  5
25D
330
25A
100
AcDbEntity
  8
Layer 1
370
     0
100
AcDbVertex
100
AcDb2dVertex
 10
331.2010559551525
 20
-864.8300683561981
 30
0.0
  0
VERTEX
  5
25E
330
25A
100
AcDbEntity
  8
Layer 1
370
     0
100
AcDbVertex
100
AcDb2dVertex
 10
261.2010559726575
 20
-864.8300683561981
 30
0.0
  0
VERTEX
  5
25F
330
25A
100
AcDbEntity
  8
Layer 1
370
     0
100
AcDbVertex
100
AcDb2dVertex
 10
261.2010559726575
 20
-824.8300683661995
 30
0.0
  0
SEQEND
  5
261
330
25A
100
AcDbEntity
  8
Layer 1
370
     0
  0
HATCH
  5
260
330
216
100
AcDbEntity
  8
Layer 1
 62
   164
420
   203942
100
AcDbHatch
 10
0.0
 20
0.0
 30
0.0
210
0.0
220
0.0
230
1.0
  2
SOLID
 70
     1
 71
     0
 91
        1
 92
        1
 93
        4
 72
     1
 10
261.2010559726575
 20
-824.8300683661995
 11
331.2010559551525
 21
-824.8300683661995
 72
     1
 10
331.2010559551525
 20
-824.8300683661995
 11
331.2010559551525
 21
-864.8300683561981
 72
     1
 10
331.2010559551525
 20
-864.8300683561981
 11
261.2010559726575
 21
-864.8300683561981
 72
     1
 10
261.2010559726575
 20
-864.8300683561981
 11
261.2010559726575
 21
-824.8300683661995
 97
        0
 75
     0
 76
     1
 98
        0
  0
POLYLINE
  5
262
330
216
100
AcDbEntity
  8
Layer 1
370
     0
100
AcDb2dPolyline
 66
     1
 10
0.0
 20
0.0
 30
0.0
  0
VERTEX
  5
263
330
262
100
AcDbEntity
  8
Layer 1
370
     0
100
AcDbVertex
100
AcDb2dVertex
 10
261.2016054214749
 20
-751.6013342886137
 30
0.0
  0
VERTEX
  5
264
330
262
100
AcDbEntity
  8
Layer 1
370
     0
100
AcDbVertex
100
AcDb2dVertex
 10
331.2016054039699
 20
-751.6013342886137
 30
0.0
  0
VERTEX
  5
265
330
262
100
AcDbEntity
  8
Layer 1
370
     0
100
AcDbVertex
100
AcDb2dVertex
 10
331.2016054039699
 20
-791.6013342786123
 30
0.0
  0
VERTEX
  5
266
330
262
100
AcDbEntity
  8
Layer 1
370
     0
100
AcDbVertex
100
AcDb2dVertex
 10
261.2016054214749
 20
-791.6013342786123
 30
0.0
  0
VERTEX
  5
267
330
262
100
AcDbEntity
  8
Layer 1
370
     0
100
AcDbVertex
100
AcDb2dVertex
 10
261.2016054214749
 20
-751.6013342886137
 30
0.0
  0
SEQEND
  5
269
330
262
100
AcDbEntity
  8
Layer 1
370
     0
  0
HATCH
  5
268
330
216
100
AcDbEntity
  8
Layer 1
 62
   164
420
   203942
100
AcDbHatch
 10
0.0
 20
0.0
 30
0.0
210
0.0
220
0.0
230
1.0
  2
SOLID
 70
     1
 71
     0
 91
        1
 92
        1
 93
        4
 72
     1
 10
261.2016054214749
 20
-751.6013342886137
 11
331.2016054039699
 21
-751.6013342886137
 72
     1
 10
331.2016054039699
 20
-751.6013342886137
 11
331.2016054039699
 21
-791.6013342786123
 72
     1
 10
331.2016054039699
 20
-791.6013342786123
 11
261.2016054214749
 21
-791.6013342786123
 72
     1
 10
261.2016054214749
 20
-791.6013342786123
 11
261.2016054214749
 21
-751.6013342886137
 97
        0
 75
     0
 76
     1
 98
        0
  0
ENDBLK
  5
219
330
216
100
AcDbEntity
  8
0
100
AcDbBlockEnd
  0
BLOCK
  5
236
330
234
100
AcDbEntity
  8
0
100
AcDbBlockBegin
  2
block 22
 70
     0
 10
0.0
 20
0.0
 30
0.0
  3
block 22
  1

  0
POLYLINE
  5
238
330
234
100
AcDbEntity
  8
Layer 1
370
     0
100
AcDb2dPolyline
 66
     1
 10
0.0
 20
0.0
 30
0.0
  0
VERTEX
  5
239
330
238
100
AcDbEntity
  8
Layer 1
370
     0
100
AcDbVertex
100
AcDb2dVertex
 10
341.2010559526541
 20
-867.3300683555735
 30
0.0
  0
VERTEX
  5
23A
330
238
100
AcDbEntity
  8
Layer 1
370
     0
100
AcDbVertex
100
AcDb2dVertex
 10
251.2010559751591
 20
-867.3300683555735
 30
0.0
  0
VERTEX
  5
23B
330
238
100
AcDbEntity
  8
Layer 1
370
     0
100
AcDbVertex
100
AcDb2dVertex
 10
251.2010559751591
 20
-822.3300683668241
 30
0.0
  0
VERTEX
  5
23C
330
238
100
AcDbEntity
  8
Layer 1
370
     0
100
AcDbVertex
100
AcDb2dVertex
 10
341.2010559526541
 20
-822.3300683668241
 30
0.0
  0
VERTEX
  5
23D
330
238
100
AcDbEntity
  8
Layer 1
370
     0
100
AcDbVertex
100
AcDb2dVertex
 10
341.2010559526541
 20
-867.3300683555735
 30
0.0
  0
SEQEND
  5
23E
330
238
100
AcDbEntity
  8
Layer 1
370
     0
  0
POLYLINE
  5
23F
330
234
100
AcDbEntity
  8
Layer 1
370
     0
100
AcDb2dPolyline
 66
     1
 10
0.0
 20
0.0
 30
0.0
  0
VERTEX
  5
240
330
23F
100
AcDbEntity
  8
Layer 1
370
     0
100
AcDbVertex
100
AcDb2dVertex
 10
261.2010559726575
 20
-864.8300683561981
 30
0.0
  0
VERTEX
  5
241
330
23F
100
AcDbEntity
  8
Layer 1
370
     0
100
AcDbVertex
100
AcDb2dVertex
 10
331.2010559551525
 20
-864.8300683561981
 30
0.0
  0
VERTEX
  5
242
330
23F
100
AcDbEntity
  8
Layer 1
370
     0
100
AcDbVertex
100
AcDb2dVertex
 10
331.2010559551525
 20
-824.8300683661995
 30
0.0
  0
VERTEX
  5
243
330
23F
100
AcDbEntity
  8
Layer 1
370
     0
100
AcDbVertex
100
AcDb2dVertex
 10
261.2010559726575
 20
-824.8300683661995
 30
0.0
  0
VERTEX
  5
244
330
23F
100
AcDbEntity
  8
Layer 1
370
     0
100
AcDbVertex
100
AcDb2dVertex
 10
261.2010559726575
 20
-864.8300683561981
 30
0.0
  0
SEQEND
  5
245
330
23F
100
AcDbEntity
  8
Layer 1
370
     0
  0
HATCH
  5
246
330
234
100
AcDbEntity
  8
Layer 1
 62
   179
420
  1644825
100
AcDbHatch
 10
0.0
 20
0.0
 30
0.0
210
0.0
220
0.0
230
1.0
  2
SOLID
 70
     1
 71
     0
 91
        2
 92
        1
 93
        4
 72
     1
 10
341.2010559526541
 20
-867.3300683555735
 11
251.2010559751591
 21
-867.3300683555735
 72
     1
 10
251.2010559751591
 20
-867.3300683555735
 11
251.2010559751591
 21
-822.3300683668241
 72
     1
 10
251.2010559751591
 20
-822.3300683668241
 11
341.2010559526541
 21
-822.3300683668241
 72
     1
 10
341.2010559526541
 20
-822.3300683668241
 11
341.2010559526541
 21
-867.3300683555735
 97
        0
 92
        1
 93
        4
 72
     1
 10
261.2010559726575
 20
-864.8300683561981
 11
331.2010559551525
 21
-864.8300683561981
 72
     1
 10
331.2010559551525
 20
-864.8300683561981
 11
331.2010559551525
 21
-824.8300683661995
 72
     1
 10
331.2010559551525
 20
-824.8300683661995
 11
261.2010559726575
 21
-824.8300683661995
 72
     1
 10
261.2010559726575
 20
-824.8300683661995
 11
261.2010559726575
 21
-864.8300683561981
 97
        0
 75
     0
 76
     1
 98
        0
  0
ENDBLK
  5
237
330
234
100
AcDbEntity
  8
0
100
AcDbBlockEnd
  0
BLOCK
  5
249
330
247
100
AcDbEntity
  8
0
100
AcDbBlockBegin
  2
block 23
 70
     0
 10
0.0
 20
0.0
 30
0.0
  3
block 23
  1

  0
POLYLINE
  5
24B
330
247
100
AcDbEntity
  8
Layer 1
370
     0
100
AcDb2dPolyline
 66
     1
 10
0.0
 20
0.0
 30
0.0
  0
VERTEX
  5
24C
330
24B
100
AcDbEntity
  8
Layer 1
370
     0
100
AcDbVertex
100
AcDb2dVertex
 10
341.2016054014683
 20
-793.3957730781648
 30
0.0
  0
VERTEX
  5
24D
330
24B
100
AcDbEntity
  8
Layer 1
370
     0
100
AcDbVertex
100
AcDb2dVertex
 10
251.2016054239727
 20
-793.3957730781648
 30
0.0
  0
VERTEX
  5
24E
330
24B
100
AcDbEntity
  8
Layer 1
370
     0
100
AcDbVertex
100
AcDb2dVertex
 10
251.2016054239727
 20
-748.3957730894153
 30
0.0
  0
VERTEX
  5
24F
330
24B
100
AcDbEntity
  8
Layer 1
370
     0
100
AcDbVertex
100
AcDb2dVertex
 10
341.2016054014683
 20
-748.3957730894153
 30
0.0
  0
VERTEX
  5
250
330
24B
100
AcDbEntity
  8
Layer 1
370
     0
100
AcDbVertex
100
AcDb2dVertex
 10
341.2016054014683
 20
-793.3957730781648
 30
0.0
  0
SEQEND
  5
251
330
24B
100
AcDbEntity
  8
Layer 1
370
     0
  0
POLYLINE
  5
252
330
247
100
AcDbEntity
  8
Layer 1
370
     0
100
AcDb2dPolyline
 66
     1
 10
0.0
 20
0.0
 30
0.0
  0
VERTEX
  5
253
330
252
100
AcDbEntity
  8
Layer 1
370
     0
100
AcDbVertex
100
AcDb2dVertex
 10
261.2016054214749
 20
-791.6013342786123
 30
0.0
  0
VERTEX
  5
254
330
252
100
AcDbEntity
  8
Layer 1
370
     0
100
AcDbVertex
100
AcDb2dVertex
 10
331.2016054039699
 20
-791.6013342786123
 30
0.0
  0
VERTEX
  5
255
330
252
100
AcDbEntity
  8
Layer 1
370
     0
100
AcDbVertex
100
AcDb2dVertex
 10
331.2016054039699
 20
-751.6013342886137
 30
0.0
  0
VERTEX
  5
256
330
252
100
AcDbEntity
  8
Layer 1
370
     0
100
AcDbVertex
100
AcDb2dVertex
 10
261.2016054214749
 20
-751.6013342886137
 30
0.0
  0
VERTEX
  5
257
330
252
100
AcDbEntity
  8
Layer 1
370
     0
100
AcDbVertex
100
AcDb2dVertex
 10
261.2016054214749
 20
-791.6013342786123
 30
0.0
  0
SEQEND
  5
258
330
252
100
AcDbEntity
  8
Layer 1
370
     0
  0
HATCH
  5
259
330
247
100
AcDbEntity
  8
Layer 1
 62
   179
420
  1644825
100
AcDbHatch
 10
0.0
 20
0.0
 30
0.0
210
0.0
220
0.0
230
1.0
  2
SOLID
 70
     1
 71
     0
 91
        2
 92
        1
 93
        4
 72
     1
 10
341.2016054014683
 20
-793.3957730781648
 11
251.2016054239727
 21
-793.3957730781648
 72
     1
 10
251.2016054239727
 20
-793.3957730781648
 11
251.2016054239727
 21
-748.3957730894153
 72
     1
 10
251.2016054239727
 20
-748.3957730894153
 11
341.2016054014683
 21
-748.3957730894153
 72
     1
 10
341.2016054014683
 20
-748.3957730894153
 11
341.2016054014683
 21
-793.3957730781648
 97
        0
 92
        1
 93
        4
 72
     1
 10
261.2016054214749
 20
-791.6013342786123
 11
331.2016054039699
 21
-791.6013342786123
 72
     1
 10
331.2016054039699
 20
-791.6013342786123
 11
331.2016054039699
 21
-751.6013342886137
 72
     1
 10
331.2016054039699
 20
-751.6013342886137
 11
261.2016054214749
 21
-751.6013342886137
 72
     1
 10
261.2016054214749
 20
-751.6013342886137
 11
261.2016054214749
 21
-791.6013342786123
 97
        0
 75
     0
 76
     1
 98
        0
  0
ENDBLK
  5
24A
330
247
100
AcDbEntity
  8
0
100
AcDbBlockEnd
  0
BLOCK
  5
270
330
26E
100
AcDbEntity
  8
0
100
AcDbBlockBegin
  2
block 24
 70
     0
 10
0.0
 20
0.0
 30
0.0
  3
block 24
  1

  0
INSERT
  5
273
330
26E
100
AcDbEntity
  8
Layer 1
100
AcDbBlockReference
  2
block 25
 10
0.0
 20
0.0
 30
0.0
  0
ENDBLK
  5
271
330
26E
100
AcDbEntity
  8
0
100
AcDbBlockEnd
  0
BLOCK
  5
274
330
272
100
AcDbEntity
  8
0
100
AcDbBlockBegin
  2
block 25
 70
     0
 10
0.0
 20
0.0
 30
0.0
  3
block 25
  1

  0
INSERT
  5
277
330
272
100
AcDbEntity
  8
Layer 1
100
AcDbBlockReference
  2
block 26
 10
0.0
 20
0.0
 30
0.0
  0
ENDBLK
  5
275
330
272
100
AcDbEntity
  8
0
100
AcDbBlockEnd
  0
BLOCK
  5
278
330
276
100
AcDbEntity
  8
0
100
AcDbBlockBegin
  2
block 26
 70
     0
 10
0.0
 20
0.0
 30
0.0
  3
block 26
  1

  0
SPLINE
  5
27A
330
276
100
AcDbEntity
  8
Layer 1
370
     0
100
AcDbSpline
210
0.0
220
0.0
230
1.0
 70
    11
 71
     3
 72
    44
 73
    40
 74
     0
 42
0.0000000001
 43
0.0000000001
 12
1.0
 22
0.0
 32
0.0
 13
1.0
 23
0.0
 33
0.0
 40
0.0
 40
0.0
 40
0.0
 40
0.0
 40
1.0
 40
1.0
 40
1.0
 40
2.0
 40
2.0
 40
2.0
 40
3.0
 40
3.0
 40
3.0
 40
4.0
 40
4.0
 40
4.0
 40
5.0
 40
5.0
 40
5.0
 40
6.0
 40
6.0
 40
6.0
 40
7.0
 40
7.0
 40
7.0
 40
8.0
 40
8.0
 40
8.0
 40
9.0
 40
9.0
 40
9.0
 40
10.0
 40
10.0
 40
10.0
 40
11.0
 40
11.0
 40
11.0
 40
12.0
 40
12.0
 40
12.0
 40
13.0
 40
13.0
 40
13.0
 40
13.0
 10
428.5244031046745
 20
-870.89068310476
 30
0.0
 10
414.4291825000169
 20
-837.6197595833469
 30
0.0
 10
399.2247272764959
 20
-809.2658485932565
 30
0.0
 10
399.2247272764959
 20
-793.8767793154198
 30
0.0
 10
401.6400837212046
 20
-767.6188644185554
 30
0.0
 10
437.5701041929078
 20
-723.1282984303291
 30
0.0
 10
424.876133113182
 20
-675.3367280755235
 30
0.0
 10
424.876133113182
 20
-675.3366419481364
 30
0.0
 10
424.876133113182
 20
-675.3366419481364
 30
0.0
 10
424.876133113182
 20
-675.3365558207493
 30
0.0
 10
421.352833960417
 20
-664.6387161288708
 30
0.0
 10
415.7340124150552
 20
-660.6028298315941
 30
0.0
 10
413.3025070852594
 20
-660.6027006405134
 30
0.0
 10
413.3023778941788
 20
-660.6027006405134
 30
0.0
 10
413.3022917667917
 20
-660.602743704207
 30
0.0
 10
413.3022487030981
 20
-660.6027867679005
 30
0.0
 10
411.9367851075193
 20
-661.7559032905073
 30
0.0
 10
412.4939431748713
 20
-663.0418282440703
 30
0.0
 10
412.4120790934031
 20
-666.4237923545529
 30
0.0
 10
412.529169276208
 20
-683.2575193604356
 30
0.0
 10
405.1747516890709
 20
-742.1750255848556
 30
0.0
 10
359.8855479718233
 20
-745.4691397604644
 30
0.0
 10
359.8855479718233
 20
-745.4691397604644
 30
0.0
 10
359.8848374208795
 20
-745.4691397604644
 30
0.0
 10
359.8848374208795
 20
-745.4691397604644
 30
0.0
 10
354.7216943489823
 20
-745.4691397604644
 30
0.0
 10
349.2003259421596
 20
-745.3466666159637
 30
0.0
 10
349.2003259421596
 20
-745.3466666159637
 30
0.0
 10
349.2003259421596
 20
-745.3466666159637
 30
0.0
 10
349.1991201587397
 20
-1031.653221720168
 30
0.0
 10
349.2003259421596
 20
-1031.653049465394
 30
0.0
 10
443.6144380943916
 20
-1020.391893597984
 30
0.0
 10
446.6297579178565
 20
-976.5158465169388
 30
0.0
 10
447.1332586230257
 20
-924.8672333842346
 30
0.0
 10
447.1332586230257
 20
-924.8671472568475
 30
0.0
 10
447.1332586230257
 20
-924.8670611294604
 30
0.0
 10
447.1332586230257
 20
-924.8670611294604
 30
0.0
 10
444.9642265055124
 20
-901.0842750839738
 30
0.0
 10
435.7522564964222
 20
-887.9515710942014
 30
0.0
 10
428.5244031046745
 20
-870.89068310476
 30
0.0
  0
HATCH
  5
27B
330
276
100
AcDbEntity
  8
Layer 1
 62
   164
420
   203942
100
AcDbHatch
 10
0.0
 20
0.0
 30
0.0
210
0.0
220
0.0
230
1.0
  2
SOLID
 70
     1
 71
     0
 91
        1
 92
        1
 93
        1
 72
     4
 94
        3
 73
     0
 74
     1
 95
       44
 96
       40
 40
0.0
 40
0.0
 40
0.0
 40
0.0
 40
1.0
 40
1.0
 40
1.0
 40
2.0
 40
2.0
 40
2.0
 40
3.0
 40
3.0
 40
3.0
 40
4.0
 40
4.0
 40
4.0
 40
5.0
 40
5.0
 40
5.0
 40
6.0
 40
6.0
 40
6.0
 40
7.0
 40
7.0
 40
7.0
 40
8.0
 40
8.0
 40
8.0
 40
9.0
 40
9.0
 40
9.0
 40
10.0
 40
10.0
 40
10.0
 40
11.0
 40
11.0
 40
11.0
 40
12.0
 40
12.0
 40
12.0
 40
13.0
 40
13.0
 40
13.0
 40
13.0
 10
428.5244031046745
 20
-870.89068310476
 10
414.4291825000169
 20
-837.6197595833469
 10
399.2247272764959
 20
-809.2658485932565
 10
399.2247272764959
 20
-793.8767793154198
 10
401.6400837212046
 20
-767.6188644185554
 10
437.5701041929078
 20
-723.1282984303291
 10
424.876133113182
 20
-675.3367280755235
 10
424.876133113182
 20
-675.3366419481364
 10
424.876133113182
 20
-675.3366419481364
 10
424.876133113182
 20
-675.3365558207493
 10
421.352833960417
 20
-664.6387161288708
 10
415.7340124150552
 20
-660.6028298315941
 10
413.3025070852594
 20
-660.6027006405134
 10
413.3023778941788
 20
-660.6027006405134
 10
413.3022917667917
 20
-660.602743704207
 10
413.3022487030981
 20
-660.6027867679005
 10
411.9367851075193
 20
-661.7559032905073
 10
412.4939431748713
 20
-663.0418282440703
 10
412.4120790934031
 20
-666.4237923545529
 10
412.529169276208
 20
-683.2575193604356
 10
405.1747516890709
 20
-742.1750255848556
 10
359.8855479718233
 20
-745.4691397604644
 10
359.8855479718233
 20
-745.4691397604644
 10
359.8848374208795
 20
-745.4691397604644
 10
359.8848374208795
 20
-745.4691397604644
 10
354.7216943489823
 20
-745.4691397604644
 10
349.2003259421596
 20
-745.3466666159637
 10
349.2003259421596
 20
-745.3466666159637
 10
349.2003259421596
 20
-745.3466666159637
 10
349.1991201587397
 20
-1031.653221720168
 10
349.2003259421596
 20
-1031.653049465394
 10
443.6144380943916
 20
-1020.391893597984
 10
446.6297579178565
 20
-976.5158465169388
 10
447.1332586230257
 20
-924.8672333842346
 10
447.1332586230257
 20
-924.8671472568475
 10
447.1332586230257
 20
-924.8670611294604
 10
447.1332586230257
 20
-924.8670611294604
 10
444.9642265055124
 20
-901.0842750839738
 10
435.7522564964222
 20
-887.9515710942014
 10
428.5244031046745
 20
-870.89068310476
 97
        0
 97
        0
 75
     0
 76
     1
 98
        0
  0
ENDBLK
  5
279
330
276
100
AcDbEntity
  8
0
100
AcDbBlockEnd
  0
ENDSEC
  0
SECTION
  2
ENTITIES
  0
INSERT
  5
42
330
1F
100
AcDbEntity
  8
Layer 1
100
AcDbBlockReference
  2
block 2
 10
0.0
 20
0.0
 30
0.0
  0
ENDSEC
  0
SECTION
  2
OBJECTS
  0
DICTIONARY
  5
C
330
0
100
AcDbDictionary
281
     1
  3
ACAD_GROUP
350
D
  3
ACAD_LAYOUT
350
1A
  3
ACAD_MATERIAL
350
3B
  3
ACAD_MLEADERSTYLE
350
27D
  3
ACAD_MLINESTYLE
350
17
  3
ACAD_PLOTSETTINGS
350
19
  3
ACAD_PLOTSTYLENAME
350
E
  3
ACAD_TABLESTYLE
350
27C
  3
ACAD_VISUALSTYLE
350
2A
  0
SUN
  5
3F
330
29
100
AcDbSun
 90
        1
290
     0
 63
     7
421
 16777215
 40
1.0
291
     1
 91
  2455826
 92
 54000000
292
     0
 70
     2
 71
   256
280
     1
  0
DICTIONARY
  5
D
102
{ACAD_REACTORS
330
C
102
}
330
C
100
AcDbDictionary
281
     1
  0
DICTIONARY
  5
1A
102
{ACAD_REACTORS
330
C
102
}
330
C
100
AcDbDictionary
281
     1
  3
Layout1
350
1E
  3
Layout2
350
26
  3
Model
350
22
  0
DICTIONARY
  5
3B
102
{ACAD_REACTORS
330
C
102
}
330
C
100
AcDbDictionary
281
     1
  3
ByBlock
350
3D
  3
ByLayer
350
3C
  3
Global
350
3E
  0
DICTIONARY
  5
27D
102
{ACAD_REACTORS
330
C
102
}
330
C
100
AcDbDictionary
281
     1
  0
DICTIONARY
  5
17
102
{ACAD_REACTORS
330
C
102
}
330
C
100
AcDbDictionary
281
     1
  3
Standard
350
18
  0
DICTIONARY
  5
19
102
{ACAD_REACTORS
330
C
102
}
330
C
100
AcDbDictionary
281
     1
  0
ACDBDICTIONARYWDFLT
  5
E
102
{ACAD_REACTORS
330
C
102
}
330
C
100
AcDbDictionary
281
     1
  3
Normal
350
F
100
AcDbDictionaryWithDefault
340
F
  0
DICTIONARY
  5
27C
102
{ACAD_REACTORS
330
C
102
}
330
C
100
AcDbDictionary
281
     1
  0
DICTIONARY
  5
2A
102
{ACAD_REACTORS
330
C
102
}
330
C
100
AcDbDictionary
281
     1
  3
2dWireframe
350
2F
  3
3D Hidden
350
31
  3
3dWireframe
350
30
  3
Basic
350
32
  3
Brighten
350
36
  3
ColorChange
350
3A
  3
Conceptual
350
34
  3
Dim
350
35
  3
Facepattern
350
39
  3
Flat
350
2B
  3
FlatWithEdges
350
2C
  3
Gouraud
350
2D
  3
GouraudWithEdges
350
2E
  3
Linepattern
350
38
  3
Realistic
350
33
  3
Thicken
350
37
  0
LAYOUT
  5
1E
102
{ACAD_REACTORS
330
1A
102
}
330
1A
100
AcDbPlotSettings
  1

  2
none_device
  4

  6

 40
0.0
 41
0.0
 42
0.0
 43
0.0
 44
0.0
 45
0.0
 46
0.0
 47
0.0
 48
0.0
 49
0.0
140
0.0
141
0.0
142
1.0
143
1.0
 70
   688
 72
     0
 73
     0
 74
     5
  7

 75
    16
 76
     0
 77
     2
 78
   300
147
1.0
148
0.0
149
0.0
100
AcDbLayout
  1
Layout1
 70
     1
 71
     1
 10
0.0
 20
0.0
 11
12.0
 21
9.0
 12
0.0
 22
0.0
 32
0.0
 14
1.000000000000000E+20
 24
1.000000000000000E+20
 34
1.000000000000000E+20
 15
-1.000000000000000E+20
 25
-1.000000000000000E+20
 35
-1.000000000000000E+20
146
0.0
 13
0.0
 23
0.0
 33
0.0
 16
1.0
 26
0.0
 36
0.0
 17
0.0
 27
1.0
 37
0.0
 76
     0
330
1B
  0
LAYOUT
  5
26
102
{ACAD_REACTORS
330
1A
102
}
330
1A
100
AcDbPlotSettings
  1

  2
none_device
  4

  6

 40
0.0
 41
0.0
 42
0.0
 43
0.0
 44
0.0
 45
0.0
 46
0.0
 47
0.0
 48
0.0
 49
0.0
140
0.0
141
0.0
142
1.0
143
1.0
 70
   688
 72
     0
 73
     0
 74
     5
  7

 75
    16
 76
     0
 77
     2
 78
   300
147
1.0
148
0.0
149
0.0
100
AcDbLayout
  1
Layout2
 70
     1
 71
     2
 10
0.0
 20
0.0
 11
0.0
 21
0.0
 12
0.0
 22
0.0
 32
0.0
 14
0.0
 24
0.0
 34
0.0
 15
0.0
 25
0.0
 35
0.0
146
0.0
 13
0.0
 23
0.0
 33
0.0
 16
1.0
 26
0.0
 36
0.0
 17
0.0
 27
1.0
 37
0.0
 76
     0
330
23
  0
LAYOUT
  5
22
102
{ACAD_REACTORS
330
1A
102
}
330
1A
100
AcDbPlotSettings
  1

  2
none_device
  4

  6

 40
0.0
 41
0.0
 42
0.0
 43
0.0
 44
0.0
 45
0.0
 46
0.0
 47
0.0
 48
0.0
 49
0.0
140
0.0
141
0.0
142
1.0
143
1.0
 70
  1712
 72
     0
 73
     0
 74
     0
  7

 75
     0
 76
     0
 77
     2
 78
   300
147
1.0
148
0.0
149
0.0
100
AcDbLayout
  1
Model
 70
     1
 71
     0
 10
0.0
 20
0.0
 11
12.0
 21
9.0
 12
0.0
 22
0.0
 32
0.0
 14
1.000000000000000E+20
 24
1.000000000000000E+20
 34
1.000000000000000E+20
 15
-1.000000000000000E+20
 25
-1.000000000000000E+20
 35
-1.000000000000000E+20
146
0.0
 13
0.0
 23
0.0
 33
0.0
 16
1.0
 26
0.0
 36
0.0
 17
0.0
 27
1.0
 37
0.0
 76
     0
330
1F
331
29
  0
MATERIAL
  5
3D
102
{ACAD_REACTORS
330
3B
102
}
330
3B
100
AcDbMaterial
  1
ByBlock
 72
     1
 94
      127
  0
MATERIAL
  5
3C
102
{ACAD_REACTORS
330
3B
102
}
330
3B
100
AcDbMaterial
  1
ByLayer
 72
     1
 94
      127
  0
MATERIAL
  5
3E
102
{ACAD_REACTORS
330
3B
102
}
330
3B
100
AcDbMaterial
  1
Global
 72
     1
 94
      127
  0
MLINESTYLE
  5
18
102
{ACAD_REACTORS
330
17
102
}
330
17
100
AcDbMlineStyle
  2
Standard
 70
     0
  3

 62
   256
 51
90.0
 52
90.0
 71
     2
 49
0.5
 62
   256
  6
BYLAYER
 49
-0.5
 62
   256
  6
BYLAYER
  0
ACDBPLACEHOLDER
  5
F
102
{ACAD_REACTORS
330
E
102
}
330
E
  0
VISUALSTYLE
  5
2F
102
{ACAD_REACTORS
330
2A
102
}
330
2A
100
AcDbVisualStyle
  2
2dWireframe
 70
     4
177
     2
291
     0
 71
     0
176
     1
 72
     2
176
     1
 73
     0
176
     1
 90
        0
176
     1
 40
-0.6
176
     1
 41
-30.0
176
     1
 62
     5
 63
     7
421
 16777215
176
     1
 74
     1
176
     1
 91
        4
176
     1
 64
     7
176
     1
 65
   257
176
     1
 75
     1
176
     1
175
     1
176
     1
 42
1.0
176
     1
 92
        0
176
     1
 66
   257
176
     1
 43
1.0
176
     1
 76
     1
176
     1
 77
     6
176
     1
 78
     2
176
     1
 67
     7
176
     1
 79
     5
176
     1
170
     0
176
     1
171
     0
176
     1
290
     0
176
     1
 93
        1
176
     1
 44
0.0
176
     1
173
     0
176
     1
  0
VISUALSTYLE
  5
31
102
{ACAD_REACTORS
330
2A
102
}
330
2A
100
AcDbVisualStyle
  2
3D Hidden
 70
     6
177
     2
291
     0
 71
     1
176
     1
 72
     2
176
     1
 73
     2
176
     1
 90
        0
176
     1
 40
-0.6
176
     1
 41
-30.0
176
     1
 62
     5
 63
     7
421
 16777215
176
     1
 74
     2
176
     1
 91
        2
176
     1
 64
     7
176
     1
 65
   257
176
     1
 75
     2
176
     1
175
     1
176
     1
 42
40.0
176
     1
 92
        0
176
     1
 66
   257
176
     1
 43
1.0
176
     1
 76
     1
176
     1
 77
     6
176
     1
 78
     2
176
     1
 67
     7
176
     1
 79
     3
176
     1
170
     0
176
     1
171
     0
176
     1
290
     0
176
     1
 93
        1
176
     1
 44
0.0
176
     1
173
     0
176
     1
  0
VISUALSTYLE
  5
30
102
{ACAD_REACTORS
330
2A
102
}
330
2A
100
AcDbVisualStyle
  2
3dWireframe
 70
     5
177
     2
291
     0
 71
     0
176
     1
 72
     2
176
     1
 73
     0
176
     1
 90
        0
176
     1
 40
-0.6
176
     1
 41
-30.0
176
     1
 62
     5
 63
     7
421
 16777215
176
     1
 74
     1
176
     1
 91
        4
176
     1
 64
     7
176
     1
 65
   257
176
     1
 75
     1
176
     1
175
     1
176
     1
 42
1.0
176
     1
 92
        0
176
     1
 66
   257
176
     1
 43
1.0
176
     1
 76
     1
176
     1
 77
     6
176
     1
 78
     2
176
     1
 67
     7
176
     1
 79
     5
176
     1
170
     0
176
     1
171
     0
176
     1
290
     0
176
     1
 93
        1
176
     1
 44
0.0
176
     1
173
     0
176
     1
  0
VISUALSTYLE
  5
32
102
{ACAD_REACTORS
330
2A
102
}
330
2A
100
AcDbVisualStyle
  2
Basic
 70
     7
177
     2
291
     1
 71
     1
176
     1
 72
     0
176
     1
 73
     1
176
     1
 90
        0
176
     1
 40
-0.6
176
     1
 41
-30.0
176
     1
 62
     5
 63
     7
421
 16777215
176
     1
 74
     0
176
     1
 91
        4
176
     1
 64
     7
176
     1
 65
   257
176
     1
 75
     1
176
     1
175
     1
176
     1
 42
1.0
176
     1
 92
        8
176
     1
 66
     7
176
     1
 43
1.0
176
     1
 76
     1
176
     1
 77
     6
176
     1
 78
     2
176
     1
 67
     7
176
     1
 79
     5
176
     1
170
     0
176
     1
171
     0
176
     1
290
     0
176
     1
 93
        1
176
     1
 44
0.0
176
     1
173
     0
176
     1
  0
VISUALSTYLE
  5
36
102
{ACAD_REACTORS
330
2A
102
}
330
2A
100
AcDbVisualStyle
  2
Brighten
 70
    12
177
     2
291
     1
 71
     2
176
     1
 72
     2
176
     1
 73
     0
176
     1
 90
        0
176
     1
 40
-0.6
176
     1
 41
-30.0
176
     1
 62
     5
 63
     7
421
 16777215
176
     1
 74
     1
176
     1
 91
        4
176
     1
 64
     7
176
     1
 65
   257
176
     1
 75
     1
176
     1
175
     1
176
     1
 42
1.0
176
     1
 92
        8
176
     1
 66
     7
176
     1
 43
1.0
176
     1
 76
     1
176
     1
 77
     6
176
     1
 78
     2
176
     1
 67
     7
176
     1
 79
     5
176
     1
170
     0
176
     1
171
     0
176
     1
290
     0
176
     1
 93
        1
176
     1
 44
50.0
176
     1
173
     0
176
     1
  0
VISUALSTYLE
  5
3A
102
{ACAD_REACTORS
330
2A
102
}
330
2A
100
AcDbVisualStyle
  2
ColorChange
 70
    16
177
     2
291
     1
 71
     2
176
     1
 72
     2
176
     1
 73
     3
176
     1
 90
        0
176
     1
 40
-0.6
176
     1
 41
-30.0
176
     1
 62
     5
 63
     8
421
  8421504
176
     1
 74
     1
176
     1
 91
        4
176
     1
 64
     7
176
     1
 65
   257
176
     1
 75
     1
176
     1
175
     1
176
     1
 42
1.0
176
     1
 92
        8
176
     1
 66
     8
424
  8421504
176
     1
 43
1.0
176
     1
 76
     1
176
     1
 77
     6
176
     1
 78
     2
176
     1
 67
     7
176
     1
 79
     5
176
     1
170
     0
176
     1
171
     0
176
     1
290
     0
176
     1
 93
        1
176
     1
 44
0.0
176
     1
173
     0
176
     1
  0
VISUALSTYLE
  5
34
102
{ACAD_REACTORS
330
2A
102
}
330
2A
100
AcDbVisualStyle
  2
Conceptual
 70
     9
177
     2
291
     0
 71
     3
176
     1
 72
     2
176
     1
 73
     0
176
     1
 90
        0
176
     1
 40
-0.6
176
     1
 41
-30.0
176
     1
 62
     5
 63
     7
421
 16777215
176
     1
 74
     2
176
     1
 91
        2
176
     1
 64
     7
176
     1
 65
   257
176
     1
 75
     1
176
     1
175
     1
176
     1
 42
40.0
176
     1
 92
        8
176
     1
 66
     7
176
     1
 43
1.0
176
     1
 76
     1
176
     1
 77
     6
176
     1
 78
     2
176
     1
 67
     7
176
     1
 79
     3
176
     1
170
     0
176
     1
171
     0
176
     1
290
     0
176
     1
 93
        1
176
     1
 44
0.0
176
     1
173
     0
176
     1
  0
VISUALSTYLE
  5
35
102
{ACAD_REACTORS
330
2A
102
}
330
2A
100
AcDbVisualStyle
  2
Dim
 70
    11
177
     2
291
     1
 71
     2
176
     1
 72
     2
176
     1
 73
     0
176
     1
 90
        0
176
     1
 40
-0.6
176
     1
 41
-30.0
176
     1
 62
     5
 63
     7
421
 16777215
176
     1
 74
     1
176
     1
 91
        4
176
     1
 64
     7
176
     1
 65
   257
176
     1
 75
     1
176
     1
175
     1
176
     1
 42
1.0
176
     1
 92
        8
176
     1
 66
     7
176
     1
 43
1.0
176
     1
 76
     1
176
     1
 77
     6
176
     1
 78
     2
176
     1
 67
     7
176
     1
 79
     5
176
     1
170
     0
176
     1
171
     0
176
     1
290
     0
176
     1
 93
        1
176
     1
 44
-50.0
176
     1
173
     0
176
     1
  0
VISUALSTYLE
  5
39
102
{ACAD_REACTORS
330
2A
102
}
330
2A
100
AcDbVisualStyle
  2
Facepattern
 70
    15
177
     2
291
     1
 71
     2
176
     1
 72
     2
176
     1
 73
     0
176
     1
 90
        0
176
     1
 40
-0.6
176
     1
 41
-30.0
176
     1
 62
     5
 63
     7
421
 16777215
176
     1
 74
     1
176
     1
 91
        4
176
     1
 64
     7
176
     1
 65
   257
176
     1
 75
     1
176
     1
175
     1
176
     1
 42
1.0
176
     1
 92
        8
176
     1
 66
     7
176
     1
 43
1.0
176
     1
 76
     1
176
     1
 77
     6
176
     1
 78
     2
176
     1
 67
     7
176
     1
 79
     5
176
     1
170
     0
176
     1
171
     0
176
     1
290
     0
176
     1
 93
        1
176
     1
 44
0.0
176
     1
173
     0
176
     1
  0
VISUALSTYLE
  5
2B
102
{ACAD_REACTORS
330
2A
102
}
330
2A
100
AcDbVisualStyle
  2
Flat
 70
     0
177
     2
291
     1
 71
     2
176
     1
 72
     1
176
     1
 73
     1
176
     1
 90
        2
176
     1
 40
-0.6
176
     1
 41
30.0
176
     1
 62
     5
 63
     7
421
 16777215
176
     1
 74
     0
176
     1
 91
        4
176
     1
 64
     7
176
     1
 65
   257
176
     1
 75
     1
176
     1
175
     1
176
     1
 42
1.0
176
     1
 92
        8
176
     1
 66
     7
176
     1
 43
1.0
176
     1
 76
     1
176
     1
 77
     6
176
     1
 78
     2
176
     1
 67
     7
176
     1
 79
     5
176
     1
170
     0
176
     1
171
     0
176
     1
290
     0
176
     1
 93
       13
176
     1
 44
0.0
176
     1
173
     0
176
     1
  0
VISUALSTYLE
  5
2C
102
{ACAD_REACTORS
330
2A
102
}
330
2A
100
AcDbVisualStyle
  2
FlatWithEdges
 70
     1
177
     2
291
     1
 71
     2
176
     1
 72
     1
176
     1
 73
     1
176
     1
 90
        2
176
     1
 40
-0.6
176
     1
 41
30.0
176
     1
 62
     5
 63
     7
421
 16777215
176
     1
 74
     1
176
     1
 91
        4
176
     1
 64
     7
176
     1
 65
   257
176
     1
 75
     1
176
     1
175
     1
176
     1
 42
1.0
176
     1
 92
        0
176
     1
 66
   257
176
     1
 43
1.0
176
     1
 76
     1
176
     1
 77
     6
176
     1
 78
     2
176
     1
 67
     7
176
     1
 79
     5
176
     1
170
     0
176
     1
171
     0
176
     1
290
     0
176
     1
 93
       13
176
     1
 44
0.0
176
     1
173
     0
176
     1
  0
VISUALSTYLE
  5
2D
102
{ACAD_REACTORS
330
2A
102
}
330
2A
100
AcDbVisualStyle
  2
Gouraud
 70
     2
177
     2
291
     1
 71
     2
176
     1
 72
     2
176
     1
 73
     1
176
     1
 90
        2
176
     1
 40
-0.6
176
     1
 41
30.0
176
     1
 62
     5
 63
     7
421
 16777215
176
     1
 74
     0
176
     1
 91
        4
176
     1
 64
     7
176
     1
 65
   257
176
     1
 75
     1
176
     1
175
     1
176
     1
 42
1.0
176
     1
 92
        0
176
     1
 66
     7
176
     1
 43
1.0
176
     1
 76
     1
176
     1
 77
     6
176
     1
 78
     2
176
     1
 67
     7
176
     1
 79
     5
176
     1
170
     0
176
     1
171
     0
176
     1
290
     0
176
     1
 93
       13
176
     1
 44
0.0
176
     1
173
     0
176
     1
  0
VISUALSTYLE
  5
2E
102
{ACAD_REACTORS
330
2A
102
}
330
2A
100
AcDbVisualStyle
  2
GouraudWithEdges
 70
     3
177
     2
291
     1
 71
     2
176
     1
 72
     2
176
     1
 73
     1
176
     1
 90
        2
176
     1
 40
-0.6
176
     1
 41
30.0
176
     1
 62
     5
 63
     7
421
 16777215
176
     1
 74
     1
176
     1
 91
        4
176
     1
 64
     7
176
     1
 65
   257
176
     1
 75
     1
176
     1
175
     1
176
     1
 42
1.0
176
     1
 92
        0
176
     1
 66
   257
176
     1
 43
1.0
176
     1
 76
     1
176
     1
 77
     6
176
     1
 78
     2
176
     1
 67
     7
176
     1
 79
     5
176
     1
170
     0
176
     1
171
     0
176
     1
290
     0
176
     1
 93
       13
176
     1
 44
0.0
176
     1
173
     0
176
     1
  0
VISUALSTYLE
  5
38
102
{ACAD_REACTORS
330
2A
102
}
330
2A
100
AcDbVisualStyle
  2
Linepattern
 70
    14
177
     2
291
     1
 71
     2
176
     1
 72
     2
176
     1
 73
     0
176
     1
 90
        0
176
     1
 40
-0.6
176
     1
 41
-30.0
176
     1
 62
     5
 63
     7
421
 16777215
176
     1
 74
     1
176
     1
 91
        4
176
     1
 64
     7
176
     1
 65
   257
176
     1
 75
     7
176
     1
175
     7
176
     1
 42
1.0
176
     1
 92
        8
176
     1
 66
     7
176
     1
 43
1.0
176
     1
 76
     1
176
     1
 77
     6
176
     1
 78
     2
176
     1
 67
     7
176
     1
 79
     5
176
     1
170
     0
176
     1
171
     0
176
     1
290
     0
176
     1
 93
        1
176
     1
 44
0.0
176
     1
173
     0
176
     1
  0
VISUALSTYLE
  5
33
102
{ACAD_REACTORS
330
2A
102
}
330
2A
100
AcDbVisualStyle
  2
Realistic
 70
     8
177
     2
291
     0
 71
     2
176
     1
 72
     2
176
     1
 73
     0
176
     1
 90
        0
176
     1
 40
-0.6
176
     1
 41
-30.0
176
     1
 62
     5
 63
     7
421
 16777215
176
     1
 74
     1
176
     1
 91
        0
176
     1
 64
     7
176
     1
 65
   257
176
     1
 75
     1
176
     1
175
     1
176
     1
 42
1.0
176
     1
 92
        8
176
     1
 66
     8
424
  7895160
176
     1
 43
1.0
176
     1
 76
     1
176
     1
 77
     6
176
     1
 78
     2
176
     1
 67
     7
176
     1
 79
     5
176
     1
170
     0
176
     1
171
     0
176
     1
290
     0
176
     1
 93
       13
176
     1
 44
0.0
176
     1
173
     0
176
     1
  0
VISUALSTYLE
  5
37
102
{ACAD_REACTORS
330
2A
102
}
330
2A
100
AcDbVisualStyle
  2
Thicken
 70
    13
177
     2
291
     1
 71
     2
176
     1
 72
     2
176
     1
 73
     0
176
     1
 90
        0
176
     1
 40
-0.6
176
     1
 41
-30.0
176
     1
 62
     5
 63
     7
421
 16777215
176
     1
 74
     1
176
     1
 91
        4
176
     1
 64
     7
176
     1
 65
   257
176
     1
 75
     1
176
     1
175
     1
176
     1
 42
1.0
176
     1
 92
       12
176
     1
 66
     7
176
     1
 43
1.0
176
     1
 76
     1
176
     1
 77
     6
176
     1
 78
     2
176
     1
 67
     7
176
     1
 79
     5
176
     1
170
     0
176
     1
171
     0
176
     1
290
     0
176
     1
 93
        1
176
     1
 44
0.0
176
     1
173
     0
176
     1
  0
ENDSEC
  0
EOF
