  0
SECTION
  2
HEADER
  9
$ACADVER
  1
AC1024
  9
$ACADMAINTVER
 70
     6
  9
$DWGCODEPAGE
  3
UNDEFINED
  9
$INSBASE
 10
0.0
 20
0.0
 30
0.0
  9
$EXTMIN
 10
1.000000000000000E+20
 20
1.000000000000000E+20
 30
1.000000000000000E+20
  9
$EXTMAX
 10
-1.000000000000000E+20
 20
-1.000000000000000E+20
 30
-1.000000000000000E+20
  9
$LIMMIN
 10
0.0
 20
0.0
  9
$LIMMAX
 10
12.0
 20
9.0
  9
$ORTHOMODE
 70
     0
  9
$REGENMODE
 70
     1
  9
$FILLMODE
 70
     1
  9
$QTEXTMODE
 70
     0
  9
$MIRRTEXT
 70
     1
  9
$LTSCALE
 40
1.0
  9
$ATTMODE
 70
     1
  9
$TEXTSIZE
 40
0.2
  9
$TRACEWID
 40
0.05
  9
$TEXTSTYLE
  7
Standard
  9
$CLAYER
  8
0
  9
$CELTYPE
  6
ByLayer
  9
$CECOLOR
 62
   256
  9
$CELTSCALE
 40
1.0
  9
$DISPSILH
 70
     0
  9
$DIMSCALE
 40
1.0
  9
$DIMASZ
 40
0.18
  9
$DIMEXO
 40
0.0625
  9
$DIMDLI
 40
0.38
  9
$DIMRND
 40
0.0
  9
$DIMDLE
 40
0.0
  9
$DIMEXE
 40
0.18
  9
$DIMTP
 40
0.0
  9
$DIMTM
 40
0.0
  9
$DIMTXT
 40
0.18
  9
$DIMCEN
 40
0.09
  9
$DIMTSZ
 40
0.0
  9
$DIMTOL
 70
     0
  9
$DIMLIM
 70
     0
  9
$DIMTIH
 70
     1
  9
$DIMTOH
 70
     1
  9
$DIMSE1
 70
     0
  9
$DIMSE2
 70
     0
  9
$DIMTAD
 70
     0
  9
$DIMZIN
 70
     0
  9
$DIMBLK
  1

  9
$DIMASO
 70
     1
  9
$DIMSHO
 70
     1
  9
$DIMPOST
  1

  9
$DIMAPOST
  1

  9
$DIMALT
 70
     0
  9
$DIMALTD
 70
     2
  9
$DIMALTF
 40
25.4
  9
$DIMLFAC
 40
1.0
  9
$DIMTOFL
 70
     0
  9
$DIMTVP
 40
0.0
  9
$DIMTIX
 70
     0
  9
$DIMSOXD
 70
     0
  9
$DIMSAH
 70
     0
  9
$DIMBLK1
  1

  9
$DIMBLK2
  1

  9
$DIMSTYLE
  2
Standard
  9
$DIMCLRD
 70
     0
  9
$DIMCLRE
 70
     0
  9
$DIMCLRT
 70
     0
  9
$DIMTFAC
 40
1.0
  9
$DIMGAP
 40
0.09
  9
$DIMJUST
 70
     0
  9
$DIMSD1
 70
     0
  9
$DIMSD2
 70
     0
  9
$DIMTOLJ
 70
     1
  9
$DIMTZIN
 70
     0
  9
$DIMALTZ
 70
     0
  9
$DIMALTTZ
 70
     0
  9
$DIMUPT
 70
     0
  9
$DIMDEC
 70
     4
  9
$DIMTDEC
 70
     4
  9
$DIMALTU
 70
     2
  9
$DIMALTTD
 70
     2
  9
$DIMTXSTY
  7
Standard
  9
$DIMAUNIT
 70
     0
  9
$DIMADEC
 70
     0
  9
$DIMALTRND
 40
0.0
  9
$DIMAZIN
 70
     0
  9
$DIMDSEP
 70
    46
  9
$DIMATFIT
 70
     3
  9
$DIMFRAC
 70
     0
  9
$DIMLDRBLK
  1

  9
$DIMLUNIT
 70
     2
  9
$DIMLWD
 70
    -2
  9
$DIMLWE
 70
    -2
  9
$DIMTMOVE
 70
     0
  9
$DIMFXL
 40
1.0
  9
$DIMFXLON
 70
     0
  9
$DIMJOGANG
 40
0.7853981633974483
  9
$DIMTFILL
 70
     0
  9
$DIMTFILLCLR
 70
     0
  9
$DIMARCSYM
 70
     0
  9
$DIMLTYPE
  6

  9
$DIMLTEX1
  6

  9
$DIMLTEX2
  6

  9
$DIMTXTDIRECTION
 70
     0
  9
$LUNITS
 70
     2
  9
$LUPREC
 70
     4
  9
$SKETCHINC
 40
0.1
  9
$FILLETRAD
 40
0.5
  9
$AUNITS
 70
     0
  9
$AUPREC
 70
     0
  9
$MENU
  1
.
  9
$ELEVATION
 40
0.0
  9
$PELEVATION
 40
0.0
  9
$THICKNESS
 40
0.0
  9
$LIMCHECK
 70
     0
  9
$CHAMFERA
 40
0.5
  9
$CHAMFERB
 40
0.5
  9
$CHAMFERC
 40
1.0
  9
$CHAMFERD
 40
0.0
  9
$SKPOLY
 70
     0
  9
$TDCREATE
 40
2459052.879537037
  9
$TDUCREATE
 40
2459053.129537037
  9
$TDUPDATE
 40
2459052.879537037
  9
$TDUUPDATE
 40
2459053.129537037
  9
$TDINDWG
 40
0.0000000116
  9
$TDUSRTIMER
 40
0.0000000116
  9
$USRTIMER
 70
     1
  9
$ANGBASE
 50
0.0
  9
$ANGDIR
 70
     0
  9
$PDMODE
 70
     0
  9
$PDSIZE
 40
0.0
  9
$PLINEWID
 40
0.0
  9
$SPLFRAME
 70
     0
  9
$SPLINETYPE
 70
     6
  9
$SPLINESEGS
 70
     8
  9
$HANDSEED
  5
25F
  9
$SURFTAB1
 70
     6
  9
$SURFTAB2
 70
     6
  9
$SURFTYPE
 70
     6
  9
$SURFU
 70
     6
  9
$SURFV
 70
     6
  9
$UCSBASE
  2

  9
$UCSNAME
  2

  9
$UCSORG
 10
0.0
 20
0.0
 30
0.0
  9
$UCSXDIR
 10
1.0
 20
0.0
 30
0.0
  9
$UCSYDIR
 10
0.0
 20
1.0
 30
0.0
  9
$UCSORTHOREF
  2

  9
$UCSORTHOVIEW
 70
     0
  9
$UCSORGTOP
 10
0.0
 20
0.0
 30
0.0
  9
$UCSORGBOTTOM
 10
0.0
 20
0.0
 30
0.0
  9
$UCSORGLEFT
 10
0.0
 20
0.0
 30
0.0
  9
$UCSORGRIGHT
 10
0.0
 20
0.0
 30
0.0
  9
$UCSORGFRONT
 10
0.0
 20
0.0
 30
0.0
  9
$UCSORGBACK
 10
0.0
 20
0.0
 30
0.0
  9
$PUCSBASE
  2

  9
$PUCSNAME
  2

  9
$PUCSORG
 10
0.0
 20
0.0
 30
0.0
  9
$PUCSXDIR
 10
1.0
 20
0.0
 30
0.0
  9
$PUCSYDIR
 10
0.0
 20
1.0
 30
0.0
  9
$PUCSORTHOREF
  2

  9
$PUCSORTHOVIEW
 70
     0
  9
$PUCSORGTOP
 10
0.0
 20
0.0
 30
0.0
  9
$PUCSORGBOTTOM
 10
0.0
 20
0.0
 30
0.0
  9
$PUCSORGLEFT
 10
0.0
 20
0.0
 30
0.0
  9
$PUCSORGRIGHT
 10
0.0
 20
0.0
 30
0.0
  9
$PUCSORGFRONT
 10
0.0
 20
0.0
 30
0.0
  9
$PUCSORGBACK
 10
0.0
 20
0.0
 30
0.0
  9
$USERI1
 70
     0
  9
$USERI2
 70
     0
  9
$USERI3
 70
     0
  9
$USERI4
 70
     0
  9
$USERI5
 70
     0
  9
$USERR1
 40
0.0
  9
$USERR2
 40
0.0
  9
$USERR3
 40
0.0
  9
$USERR4
 40
0.0
  9
$USERR5
 40
0.0
  9
$WORLDVIEW
 70
     1
  9
$SHADEDGE
 70
     3
  9
$SHADEDIF
 70
    70
  9
$TILEMODE
 70
     1
  9
$MAXACTVP
 70
    64
  9
$PINSBASE
 10
0.0
 20
0.0
 30
0.0
  9
$PLIMCHECK
 70
     0
  9
$PEXTMIN
 10
1.000000000000000E+20
 20
1.000000000000000E+20
 30
1.000000000000000E+20
  9
$PEXTMAX
 10
-1.000000000000000E+20
 20
-1.000000000000000E+20
 30
-1.000000000000000E+20
  9
$PLIMMIN
 10
0.0
 20
0.0
  9
$PLIMMAX
 10
12.0
 20
9.0
  9
$UNITMODE
 70
     0
  9
$VISRETAIN
 70
     1
  9
$PLINEGEN
 70
     0
  9
$PSLTSCALE
 70
     1
  9
$TREEDEPTH
 70
  3020
  9
$CMLSTYLE
  2
Standard
  9
$CMLJUST
 70
     0
  9
$CMLSCALE
 40
1.0
  9
$PROXYGRAPHICS
 70
     1
  9
$MEASUREMENT
 70
     0
  9
$CELWEIGHT
370
    -1
  9
$ENDCAPS
280
     0
  9
$JOINSTYLE
280
     0
  9
$LWDISPLAY
290
     1
  9
$INSUNITS
 70
     4
  9
$HYPERLINKBASE
  1

  9
$STYLESHEET
  1

  9
$XEDIT
290
     1
  9
$CEPSNTYPE
380
     0
  9
$PSTYLEMODE
290
     1
  9
$FINGERPRINTGUID
  2
{AEF70BEB-5789-8790-7EAC-2F450DE89EED}
  9
$VERSIONGUID
  2
{FAEB1C32-E019-11D5-929B-00C0DF256EC4}
  9
$EXTNAMES
290
     1
  9
$PSVPSCALE
 40
0.0
  9
$OLESTARTUP
290
     0
  9
$SORTENTS
280
   127
  9
$INDEXCTL
280
     0
  9
$HIDETEXT
280
     1
  9
$XCLIPFRAME
280
     2
  9
$HALOGAP
280
     0
  9
$OBSCOLOR
 70
   257
  9
$OBSLTYPE
280
     0
  9
$INTERSECTIONDISPLAY
280
     0
  9
$INTERSECTIONCOLOR
 70
   257
  9
$DIMASSOC
280
     2
  9
$PROJECTNAME
  1

  9
$CAMERADISPLAY
290
     0
  9
$LENSLENGTH
 40
50.0
  9
$CAMERAHEIGHT
 40
0.0
  9
$STEPSPERSEC
 40
2.0
  9
$STEPSIZE
 40
6.0
  9
$3DDWFPREC
 40
2.0
  9
$PSOLWIDTH
 40
0.25
  9
$PSOLHEIGHT
 40
4.0
  9
$LOFTANG1
 40
1.570796326794897
  9
$LOFTANG2
 40
1.570796326794897
  9
$LOFTMAG1
 40
0.0
  9
$LOFTMAG2
 40
0.0
  9
$LOFTPARAM
 70
     7
  9
$LOFTNORMALS
280
     1
  9
$LATITUDE
 40
37.795
  9
$LONGITUDE
 40
-122.394
  9
$NORTHDIRECTION
 40
0.0
  9
$TIMEZONE
 70
 -8000
  9
$LIGHTGLYPHDISPLAY
280
     1
  9
$TILEMODELIGHTSYNCH
280
     1
  9
$CMATERIAL
347
3C
  9
$SOLIDHIST
280
     1
  9
$SHOWHIST
280
     1
  9
$DWFFRAME
280
     2
  9
$DGNFRAME
280
     2
  9
$REALWORLDSCALE
290
     1
  9
$INTERFERECOLOR
 62
   256
  9
$CSHADOW
280
     0
  9
$SHADOWPLANELOCATION
 40
0.0
  0
ENDSEC
  0
SECTION
  2
CLASSES
  0
CLASS
  1
ACDBDICTIONARYWDFLT
  2
AcDbDictionaryWithDefault
  3
ObjectDBX Classes
 90
        0
 91
        4
280
     0
281
     0
  0
CLASS
  1
VISUALSTYLE
  2
AcDbVisualStyle
  3
ObjectDBX Classes
 90
     4095
 91
        4
280
     0
281
     0
  0
CLASS
  1
MATERIAL
  2
AcDbMaterial
  3
ObjectDBX Classes
 90
     1153
 91
        4
280
     0
281
     0
  0
CLASS
  1
SUN
  2
AcDbSun
  3
SCENEOE
 90
     1024
 91
        4
280
     0
281
     0
  0
ENDSEC
  0
SECTION
  2
TABLES
  0
TABLE
  2
VPORT
  5
8
330
0
100
AcDbSymbolTable
 70
     1
  0
VPORT
  5
29
330
8
100
AcDbSymbolTableRecord
100
AcDbViewportTableRecord
  2
*Active
 70
     0
 10
0.0
 20
0.0
 11
1.0
 21
1.0
 12
0.0
 22
0.0
 13
0.0
 23
0.0
 14
0.5
 24
0.5
 15
0.5
 25
0.5
 16
0.0
 26
0.0
 36
1.0
 17
-192.0651843720594
 27
-651.1774314954506
 37
0.0
 40
962.2770852981428
 41
0.3303595333558812
 42
50.0
 43
0.0
 44
0.0
 50
0.0
 51
0.0
 71
     0
 72
   100
 73
     1
 74
     3
 75
     0
 76
     0
 77
     0
 78
     0
281
     0
 65
     1
110
0.0
120
0.0
130
0.0
111
1.0
121
0.0
131
0.0
112
0.0
122
1.0
132
0.0
 79
     0
146
0.0
 60
     3
 61
     5
292
     1
282
     1
141
0.0
142
0.0
 63
   250
361
3F
  0
ENDTAB
  0
TABLE
  2
LTYPE
  5
5
330
0
100
AcDbSymbolTable
 70
     1
  0
LTYPE
  5
14
330
5
100
AcDbSymbolTableRecord
100
AcDbLinetypeTableRecord
  2
ByBlock
 70
     0
  3

 72
    65
 73
     0
 40
0.0
  0
LTYPE
  5
15
330
5
100
AcDbSymbolTableRecord
100
AcDbLinetypeTableRecord
  2
ByLayer
 70
     0
  3

 72
    65
 73
     0
 40
0.0
  0
LTYPE
  5
16
330
5
100
AcDbSymbolTableRecord
100
AcDbLinetypeTableRecord
  2
Continuous
 70
     0
  3
Solid line
 72
    65
 73
     0
 40
0.0
  0
ENDTAB
  0
TABLE
  2
LAYER
  5
2
330
0
100
AcDbSymbolTable
 70
     2
  0
LAYER
  5
10
330
2
100
AcDbSymbolTableRecord
100
AcDbLayerTableRecord
  2
0
 70
     0
 62
     7
  6
Continuous
370
    -3
390
F
347
3E
  0
LAYER
  5
40
330
2
100
AcDbSymbolTableRecord
100
AcDbLayerTableRecord
  2
Layer 1
 70
     0
 62
     7
  6
Continuous
370
    -3
390
F
347
3E
  0
ENDTAB
  0
TABLE
  2
STYLE
  5
3
330
0
100
AcDbSymbolTable
 70
     1
  0
STYLE
  5
11
330
3
100
AcDbSymbolTableRecord
100
AcDbTextStyleTableRecord
  2
Standard
 70
     0
 40
0.0
 41
1.0
 50
0.0
 71
     0
 42
0.2
  3
txt
  4

  0
ENDTAB
  0
TABLE
  2
VIEW
  5
6
330
0
100
AcDbSymbolTable
 70
     0
  0
ENDTAB
  0
TABLE
  2
UCS
  5
7
330
0
100
AcDbSymbolTable
 70
     0
  0
ENDTAB
  0
TABLE
  2
APPID
  5
9
330
0
100
AcDbSymbolTable
 70
     1
  0
APPID
  5
12
330
9
100
AcDbSymbolTableRecord
100
AcDbRegAppTableRecord
  2
ACAD
 70
     0
  0
ENDTAB
  0
TABLE
  2
DIMSTYLE
  5
A
330
0
100
AcDbSymbolTable
 70
     1
100
AcDbDimStyleTable
  0
DIMSTYLE
105
27
330
A
100
AcDbSymbolTableRecord
100
AcDbDimStyleTableRecord
  2
Standard
 70
     0
178
     0
340
11
  0
ENDTAB
  0
TABLE
  2
BLOCK_RECORD
  5
1
330
0
100
AcDbSymbolTable
 70
    25
  0
BLOCK_RECORD
  5
1F
330
1
100
AcDbSymbolTableRecord
100
AcDbBlockTableRecord
  2
*Model_Space
340
22
 70
     0
280
     1
281
     0
  0
BLOCK_RECORD
  5
1B
330
1
100
AcDbSymbolTableRecord
100
AcDbBlockTableRecord
  2
*Paper_Space
340
1E
 70
     0
280
     1
281
     0
  0
BLOCK_RECORD
  5
23
330
1
100
AcDbSymbolTableRecord
100
AcDbBlockTableRecord
  2
*Paper_Space0
340
26
 70
     0
280
     1
281
     0
  0
BLOCK_RECORD
  5
41
330
1
100
AcDbSymbolTableRecord
100
AcDbBlockTableRecord
  2
block 2
340
0
102
{BLKREFS
331
42
102
}
 70
     0
280
     1
281
     0
  0
BLOCK_RECORD
  5
45
330
1
100
AcDbSymbolTableRecord
100
AcDbBlockTableRecord
  2
block 3
340
0
102
{BLKREFS
331
46
102
}
 70
     0
280
     1
281
     0
  0
BLOCK_RECORD
  5
49
330
1
100
AcDbSymbolTableRecord
100
AcDbBlockTableRecord
  2
block 4
340
0
102
{BLKREFS
331
4A
102
}
 70
     0
280
     1
281
     0
  0
BLOCK_RECORD
  5
4F
330
1
100
AcDbSymbolTableRecord
100
AcDbBlockTableRecord
  2
block 5
340
0
102
{BLKREFS
331
50
102
}
 70
     0
280
     1
281
     0
  0
BLOCK_RECORD
  5
63
330
1
100
AcDbSymbolTableRecord
100
AcDbBlockTableRecord
  2
block 6
340
0
102
{BLKREFS
331
64
102
}
 70
     0
280
     1
281
     0
  0
BLOCK_RECORD
  5
67
330
1
100
AcDbSymbolTableRecord
100
AcDbBlockTableRecord
  2
block 7
340
0
102
{BLKREFS
331
68
102
}
 70
     0
280
     1
281
     0
  0
BLOCK_RECORD
  5
83
330
1
100
AcDbSymbolTableRecord
100
AcDbBlockTableRecord
  2
block 8
340
0
102
{BLKREFS
331
84
102
}
 70
     0
280
     1
281
     0
  0
BLOCK_RECORD
  5
87
330
1
100
AcDbSymbolTableRecord
100
AcDbBlockTableRecord
  2
block 9
340
0
102
{BLKREFS
331
88
102
}
 70
     0
280
     1
281
     0
  0
BLOCK_RECORD
  5
8B
330
1
100
AcDbSymbolTableRecord
100
AcDbBlockTableRecord
  2
block 10
340
0
102
{BLKREFS
331
8C
102
}
 70
     0
280
     1
281
     0
  0
BLOCK_RECORD
  5
97
330
1
100
AcDbSymbolTableRecord
100
AcDbBlockTableRecord
  2
block 11
340
0
102
{BLKREFS
331
98
102
}
 70
     0
280
     1
281
     0
  0
BLOCK_RECORD
  5
15B
330
1
100
AcDbSymbolTableRecord
100
AcDbBlockTableRecord
  2
block 12
340
0
102
{BLKREFS
331
15C
102
}
 70
     0
280
     1
281
     0
  0
BLOCK_RECORD
  5
15F
330
1
100
AcDbSymbolTableRecord
100
AcDbBlockTableRecord
  2
block 13
340
0
102
{BLKREFS
331
160
102
}
 70
     0
280
     1
281
     0
  0
BLOCK_RECORD
  5
163
330
1
100
AcDbSymbolTableRecord
100
AcDbBlockTableRecord
  2
block 14
340
0
102
{BLKREFS
331
164
102
}
 70
     0
280
     1
281
     0
  0
BLOCK_RECORD
  5
16F
330
1
100
AcDbSymbolTableRecord
100
AcDbBlockTableRecord
  2
block 15
340
0
102
{BLKREFS
331
170
102
}
 70
     0
280
     1
281
     0
  0
BLOCK_RECORD
  5
1AB
330
1
100
AcDbSymbolTableRecord
100
AcDbBlockTableRecord
  2
block 16
340
0
102
{BLKREFS
331
1AC
102
}
 70
     0
280
     1
281
     0
  0
BLOCK_RECORD
  5
1E9
330
1
100
AcDbSymbolTableRecord
100
AcDbBlockTableRecord
  2
block 17
340
0
102
{BLKREFS
331
1EA
102
}
 70
     0
280
     1
281
     0
  0
BLOCK_RECORD
  5
1ED
330
1
100
AcDbSymbolTableRecord
100
AcDbBlockTableRecord
  2
block 18
340
0
102
{BLKREFS
331
1EE
102
}
 70
     0
280
     1
281
     0
  0
BLOCK_RECORD
  5
1F1
330
1
100
AcDbSymbolTableRecord
100
AcDbBlockTableRecord
  2
block 19
340
0
102
{BLKREFS
331
1F2
102
}
 70
     0
280
     1
281
     0
  0
BLOCK_RECORD
  5
1F7
330
1
100
AcDbSymbolTableRecord
100
AcDbBlockTableRecord
  2
block 20
340
0
102
{BLKREFS
331
1F8
102
}
 70
     0
280
     1
281
     0
  0
BLOCK_RECORD
  5
219
330
1
100
AcDbSymbolTableRecord
100
AcDbBlockTableRecord
  2
block 21
340
0
102
{BLKREFS
331
21A
102
}
 70
     0
280
     1
281
     0
  0
BLOCK_RECORD
  5
22C
330
1
100
AcDbSymbolTableRecord
100
AcDbBlockTableRecord
  2
block 22
340
0
102
{BLKREFS
331
22D
102
}
 70
     0
280
     1
281
     0
  0
BLOCK_RECORD
  5
24F
330
1
100
AcDbSymbolTableRecord
100
AcDbBlockTableRecord
  2
block 23
340
0
102
{BLKREFS
331
250
102
}
 70
     0
280
     1
281
     0
  0
BLOCK_RECORD
  5
253
330
1
100
AcDbSymbolTableRecord
100
AcDbBlockTableRecord
  2
block 24
340
0
102
{BLKREFS
331
254
102
}
 70
     0
280
     1
281
     0
  0
BLOCK_RECORD
  5
257
330
1
100
AcDbSymbolTableRecord
100
AcDbBlockTableRecord
  2
block 25
340
0
102
{BLKREFS
331
258
102
}
 70
     0
280
     1
281
     0
  0
ENDTAB
  0
ENDSEC
  0
SECTION
  2
BLOCKS
  0
BLOCK
  5
20
330
1F
100
AcDbEntity
  8
0
100
AcDbBlockBegin
  2
*Model_Space
 70
     0
 10
0.0
 20
0.0
 30
0.0
  3
*Model_Space
  1

  0
ENDBLK
  5
21
330
1F
100
AcDbEntity
  8
0
100
AcDbBlockEnd
  0
BLOCK
  5
1C
330
1B
100
AcDbEntity
 67
     1
  8
0
100
AcDbBlockBegin
  2
*Paper_Space
 70
     0
 10
0.0
 20
0.0
 30
0.0
  3
*Paper_Space
  1

  0
ENDBLK
  5
1D
330
1B
100
AcDbEntity
 67
     1
  8
0
100
AcDbBlockEnd
  0
BLOCK
  5
24
330
23
100
AcDbEntity
  8
0
100
AcDbBlockBegin
  2
*Paper_Space0
 70
     0
 10
0.0
 20
0.0
 30
0.0
  3
*Paper_Space0
  1

  0
ENDBLK
  5
25
330
23
100
AcDbEntity
  8
0
100
AcDbBlockEnd
  0
BLOCK
  5
43
330
41
100
AcDbEntity
  8
0
100
AcDbBlockBegin
  2
block 2
 70
     0
 10
0.0
 20
0.0
 30
0.0
  3
block 2
  1

  0
INSERT
  5
46
330
41
100
AcDbEntity
  8
Layer 1
100
AcDbBlockReference
  2
block 3
 10
0.0
 20
0.0
 30
0.0
  0
POLYLINE
  5
7B
330
41
100
AcDbEntity
  8
Layer 1
370
     0
100
AcDb2dPolyline
 66
     1
 10
0.0
 20
0.0
 30
0.0
  0
VERTEX
  5
7C
330
7B
100
AcDbEntity
  8
Layer 1
370
     0
100
AcDbVertex
100
AcDb2dVertex
 10
-246.9801446260268
 20
-340.9334003038838
 30
0.0
  0
VERTEX
  5
7D
330
7B
100
AcDbEntity
  8
Layer 1
370
     0
100
AcDbVertex
100
AcDb2dVertex
 10
-238.9788712344463
 20
-340.9334003038838
 30
0.0
  0
VERTEX
  5
7E
330
7B
100
AcDbEntity
  8
Layer 1
370
     0
100
AcDbVertex
100
AcDb2dVertex
 10
-238.9788712344463
 20
-459.8676955700433
 30
0.0
  0
VERTEX
  5
7F
330
7B
100
AcDbEntity
  8
Layer 1
370
     0
100
AcDbVertex
100
AcDb2dVertex
 10
-246.9801446260268
 20
-459.8676955700433
 30
0.0
  0
VERTEX
  5
80
330
7B
100
AcDbEntity
  8
Layer 1
370
     0
100
AcDbVertex
100
AcDb2dVertex
 10
-246.9801446260268
 20
-340.9334003038838
 30
0.0
  0
SEQEND
  5
82
330
7B
100
AcDbEntity
  8
Layer 1
370
     0
  0
HATCH
  5
81
330
41
100
AcDbEntity
  8
Layer 1
 62
    22
420
 12656902
100
AcDbHatch
 10
0.0
 20
0.0
 30
0.0
210
0.0
220
0.0
230
1.0
  2
SOLID
 70
     1
 71
     0
 91
        1
 92
        1
 93
        4
 72
     1
 10
-246.9801446260268
 20
-340.9334003038838
 11
-238.9788712344463
 21
-340.9334003038838
 72
     1
 10
-238.9788712344463
 20
-340.9334003038838
 11
-238.9788712344463
 21
-459.8676955700433
 72
     1
 10
-238.9788712344463
 20
-459.8676955700433
 11
-246.9801446260268
 21
-459.8676955700433
 72
     1
 10
-246.9801446260268
 20
-459.8676955700433
 11
-246.9801446260268
 21
-340.9334003038838
 97
        0
 75
     2
 76
     1
 98
        0
  0
INSERT
  5
84
330
41
100
AcDbEntity
  8
Layer 1
100
AcDbBlockReference
  2
block 8
 10
0.0
 20
0.0
 30
0.0
  0
INSERT
  5
1EA
330
41
100
AcDbEntity
  8
Layer 1
100
AcDbBlockReference
  2
block 17
 10
0.0
 20
0.0
 30
0.0
  0
INSERT
  5
250
330
41
100
AcDbEntity
  8
Layer 1
100
AcDbBlockReference
  2
block 23
 10
0.0
 20
0.0
 30
0.0
  0
ENDBLK
  5
44
330
41
100
AcDbEntity
  8
0
100
AcDbBlockEnd
  0
BLOCK
  5
47
330
45
100
AcDbEntity
  8
0
100
AcDbBlockBegin
  2
block 3
 70
     0
 10
0.0
 20
0.0
 30
0.0
  3
block 3
  1

  0
INSERT
  5
4A
330
45
100
AcDbEntity
  8
Layer 1
100
AcDbBlockReference
  2
block 4
 10
0.0
 20
0.0
 30
0.0
  0
INSERT
  5
50
330
45
100
AcDbEntity
  8
Layer 1
100
AcDbBlockReference
  2
block 5
 10
0.0
 20
0.0
 30
0.0
  0
ENDBLK
  5
48
330
45
100
AcDbEntity
  8
0
100
AcDbBlockEnd
  0
BLOCK
  5
4B
330
49
100
AcDbEntity
  8
0
100
AcDbBlockBegin
  2
block 4
 70
     0
 10
0.0
 20
0.0
 30
0.0
  3
block 4
  1

  0
SPLINE
  5
4D
330
49
100
AcDbEntity
  8
Layer 1
370
     0
100
AcDbSpline
210
0.0
220
0.0
230
1.0
 70
    11
 71
     3
 72
    32
 73
    28
 74
     0
 42
0.0000000001
 43
0.0000000001
 12
1.0
 22
0.0
 32
0.0
 13
1.0
 23
0.0
 33
0.0
 40
0.0
 40
0.0
 40
0.0
 40
0.0
 40
1.0
 40
1.0
 40
1.0
 40
2.0
 40
2.0
 40
2.0
 40
3.0
 40
3.0
 40
3.0
 40
4.0
 40
4.0
 40
4.0
 40
5.0
 40
5.0
 40
5.0
 40
6.0
 40
6.0
 40
6.0
 40
7.0
 40
7.0
 40
7.0
 40
8.0
 40
8.0
 40
8.0
 40
9.0
 40
9.0
 40
9.0
 40
9.0
 10
-220.5685290653204
 20
-558.5286538563802
 30
0.0
 10
-220.5685290653204
 20
-558.5286538563802
 30
0.0
 10
-176.2159361241825
 20
-558.5286538563802
 30
0.0
 10
-167.3883333615167
 20
-558.5286538563802
 30
0.0
 10
-167.2995212622288
 20
-552.3139662381456
 30
0.0
 10
-166.4977159481807
 20
-496.1637657977447
 30
0.0
 10
-166.4302981782973
 20
-491.4425183504786
 30
0.0
 10
-164.3044257242071
 20
-468.8073504613373
 30
0.0
 10
-140.9801446525304
 20
-462.9167826764506
 30
0.0
 10
-140.9801446525304
 20
-462.9167826764506
 30
0.0
 10
-140.9801446525304
 20
-462.9167826764506
 30
0.0
 10
-140.9801446525304
 20
-176.6104087374427
 30
0.0
 10
-140.9801446525304
 20
-176.6104087374427
 30
0.0
 10
-140.9801446525304
 20
-176.6104087374427
 30
0.0
 10
-155.1397384183504
 20
-175.0910750791089
 30
0.0
 10
-194.064386644067
 20
-175.0910750791089
 30
0.0
 10
-232.9890348697905
 20
-175.0910750791089
 30
0.0
 10
-246.9801446260265
 20
-178.1862779663716
 30
0.0
 10
-246.9801446260265
 20
-178.1862779663716
 30
0.0
 10
-246.9801446260265
 20
-178.1862779663716
 30
0.0
 10
-246.9801446260265
 20
-507.4839761808611
 30
0.0
 10
-246.9801446260265
 20
-507.4839761808611
 30
0.0
 10
-246.9801446260265
 20
-507.4839761808611
 30
0.0
 10
-223.1771752966288
 20
-505.4766538696431
 30
0.0
 10
-220.9895354347941
 20
-529.1091493914334
 30
0.0
 10
-220.9047956109096
 20
-535.0105989475013
 30
0.0
 10
-220.5685290653204
 20
-558.5286538563802
 30
0.0
 10
-220.5685290653204
 20
-558.5286538563802
 30
0.0
  0
HATCH
  5
4E
330
49
100
AcDbEntity
  8
Layer 1
 62
    20
420
 15872005
100
AcDbHatch
 10
0.0
 20
0.0
 30
0.0
210
0.0
220
0.0
230
1.0
  2
SOLID
 70
     1
 71
     0
 91
        1
 92
        1
 93
        1
 72
     4
 94
        3
 73
     0
 74
     1
 95
       32
 96
       28
 40
0.0
 40
0.0
 40
0.0
 40
0.0
 40
1.0
 40
1.0
 40
1.0
 40
2.0
 40
2.0
 40
2.0
 40
3.0
 40
3.0
 40
3.0
 40
4.0
 40
4.0
 40
4.0
 40
5.0
 40
5.0
 40
5.0
 40
6.0
 40
6.0
 40
6.0
 40
7.0
 40
7.0
 40
7.0
 40
8.0
 40
8.0
 40
8.0
 40
9.0
 40
9.0
 40
9.0
 40
9.0
 10
-220.5685290653204
 20
-558.5286538563802
 10
-220.5685290653204
 20
-558.5286538563802
 10
-176.2159361241825
 20
-558.5286538563802
 10
-167.3883333615167
 20
-558.5286538563802
 10
-167.2995212622288
 20
-552.3139662381456
 10
-166.4977159481807
 20
-496.1637657977447
 10
-166.4302981782973
 20
-491.4425183504786
 10
-164.3044257242071
 20
-468.8073504613373
 10
-140.9801446525304
 20
-462.9167826764506
 10
-140.9801446525304
 20
-462.9167826764506
 10
-140.9801446525304
 20
-462.9167826764506
 10
-140.9801446525304
 20
-176.6104087374427
 10
-140.9801446525304
 20
-176.6104087374427
 10
-140.9801446525304
 20
-176.6104087374427
 10
-155.1397384183504
 20
-175.0910750791089
 10
-194.064386644067
 20
-175.0910750791089
 10
-232.9890348697905
 20
-175.0910750791089
 10
-246.9801446260265
 20
-178.1862779663716
 10
-246.9801446260265
 20
-178.1862779663716
 10
-246.9801446260265
 20
-178.1862779663716
 10
-246.9801446260265
 20
-507.4839761808611
 10
-246.9801446260265
 20
-507.4839761808611
 10
-246.9801446260265
 20
-507.4839761808611
 10
-223.1771752966288
 20
-505.4766538696431
 10
-220.9895354347941
 20
-529.1091493914334
 10
-220.9047956109096
 20
-535.0105989475013
 10
-220.5685290653204
 20
-558.5286538563802
 10
-220.5685290653204
 20
-558.5286538563802
 97
        0
 97
        0
 75
     2
 76
     1
 98
        0
  0
ENDBLK
  5
4C
330
49
100
AcDbEntity
  8
0
100
AcDbBlockEnd
  0
BLOCK
  5
51
330
4F
100
AcDbEntity
  8
0
100
AcDbBlockBegin
  2
block 5
 70
     0
 10
0.0
 20
0.0
 30
0.0
  3
block 5
  1

  0
POLYLINE
  5
53
330
4F
100
AcDbEntity
  8
Layer 1
370
     0
100
AcDb2dPolyline
 66
     1
 10
0.0
 20
0.0
 30
0.0
  0
VERTEX
  5
54
330
53
100
AcDbEntity
  8
Layer 1
370
     0
100
AcDbVertex
100
AcDb2dVertex
 10
-228.9788712369437
 20
-253.6366819487574
 30
0.0
  0
VERTEX
  5
55
330
53
100
AcDbEntity
  8
Layer 1
370
     0
100
AcDbVertex
100
AcDb2dVertex
 10
-228.9788712369437
 20
-284.6366819410061
 30
0.0
  0
VERTEX
  5
56
330
53
100
AcDbEntity
  8
Layer 1
370
     0
100
AcDbVertex
100
AcDb2dVertex
 10
-158.9794207032658
 20
-284.6366819410061
 30
0.0
  0
VERTEX
  5
57
330
53
100
AcDbEntity
  8
Layer 1
370
     0
100
AcDbVertex
100
AcDb2dVertex
 10
-158.9794207032658
 20
-253.6366819487574
 30
0.0
  0
VERTEX
  5
58
330
53
100
AcDbEntity
  8
Layer 1
370
     0
100
AcDbVertex
100
AcDb2dVertex
 10
-228.9788712369437
 20
-253.6366819487574
 30
0.0
  0
SEQEND
  5
5A
330
53
100
AcDbEntity
  8
Layer 1
370
     0
  0
HATCH
  5
59
330
4F
100
AcDbEntity
  8
Layer 1
 62
   178
420
       51
100
AcDbHatch
 10
0.0
 20
0.0
 30
0.0
210
0.0
220
0.0
230
1.0
  2
SOLID
 70
     1
 71
     0
 91
        1
 92
        1
 93
        4
 72
     1
 10
-228.9788712369437
 20
-253.6366819487574
 11
-228.9788712369437
 21
-284.6366819410061
 72
     1
 10
-228.9788712369437
 20
-284.6366819410061
 11
-158.9794207032658
 21
-284.6366819410061
 72
     1
 10
-158.9794207032658
 20
-284.6366819410061
 11
-158.9794207032658
 21
-253.6366819487574
 72
     1
 10
-158.9794207032658
 20
-253.6366819487574
 11
-228.9788712369437
 21
-253.6366819487574
 97
        0
 75
     0
 76
     1
 98
        0
  0
POLYLINE
  5
5B
330
4F
100
AcDbEntity
  8
Layer 1
370
     0
100
AcDb2dPolyline
 66
     1
 10
0.0
 20
0.0
 30
0.0
  0
VERTEX
  5
5C
330
5B
100
AcDbEntity
  8
Layer 1
370
     0
100
AcDbVertex
100
AcDb2dVertex
 10
-145.4210845510966
 20
-284.6366819410061
 30
0.0
  0
VERTEX
  5
5D
330
5B
100
AcDbEntity
  8
Layer 1
370
     0
100
AcDbVertex
100
AcDb2dVertex
 10
-240.4210845273477
 20
-284.6366819410061
 30
0.0
  0
VERTEX
  5
5E
330
5B
100
AcDbEntity
  8
Layer 1
370
     0
100
AcDbVertex
100
AcDb2dVertex
 10
-240.4210845273477
 20
-326.6366819305043
 30
0.0
  0
VERTEX
  5
5F
330
5B
100
AcDbEntity
  8
Layer 1
370
     0
100
AcDbVertex
100
AcDb2dVertex
 10
-145.4210845510966
 20
-326.6366819305043
 30
0.0
  0
VERTEX
  5
60
330
5B
100
AcDbEntity
  8
Layer 1
370
     0
100
AcDbVertex
100
AcDb2dVertex
 10
-145.4210845510966
 20
-284.6366819410061
 30
0.0
  0
SEQEND
  5
62
330
5B
100
AcDbEntity
  8
Layer 1
370
     0
  0
HATCH
  5
61
330
4F
100
AcDbEntity
  8
Layer 1
 62
   178
420
       51
100
AcDbHatch
 10
0.0
 20
0.0
 30
0.0
210
0.0
220
0.0
230
1.0
  2
SOLID
 70
     1
 71
     0
 91
        1
 92
        1
 93
        4
 72
     1
 10
-145.4210845510966
 20
-284.6366819410061
 11
-240.4210845273477
 21
-284.6366819410061
 72
     1
 10
-240.4210845273477
 20
-284.6366819410061
 11
-240.4210845273477
 21
-326.6366819305043
 72
     1
 10
-240.4210845273477
 20
-326.6366819305043
 11
-145.4210845510966
 21
-326.6366819305043
 72
     1
 10
-145.4210845510966
 20
-326.6366819305043
 11
-145.4210845510966
 21
-284.6366819410061
 97
        0
 75
     0
 76
     1
 98
        0
  0
INSERT
  5
64
330
4F
100
AcDbEntity
  8
Layer 1
100
AcDbBlockReference
  2
block 6
 10
0.0
 20
0.0
 30
0.0
  0
POLYLINE
  5
73
330
4F
100
AcDbEntity
  8
Layer 1
370
     0
100
AcDb2dPolyline
 66
     1
 10
0.0
 20
0.0
 30
0.0
  0
VERTEX
  5
74
330
73
100
AcDbEntity
  8
Layer 1
370
     0
100
AcDbVertex
100
AcDb2dVertex
 10
-225.1995210986634
 20
-309.636681934755
 30
0.0
  0
VERTEX
  5
75
330
73
100
AcDbEntity
  8
Layer 1
370
     0
100
AcDbVertex
100
AcDb2dVertex
 10
-150.1995211174099
 20
-309.636681934755
 30
0.0
  0
VERTEX
  5
76
330
73
100
AcDbEntity
  8
Layer 1
370
     0
100
AcDbVertex
100
AcDb2dVertex
 10
-150.1995211174099
 20
-284.6366819410061
 30
0.0
  0
VERTEX
  5
77
330
73
100
AcDbEntity
  8
Layer 1
370
     0
100
AcDbVertex
100
AcDb2dVertex
 10
-225.1995210986634
 20
-284.6366819410061
 30
0.0
  0
VERTEX
  5
78
330
73
100
AcDbEntity
  8
Layer 1
370
     0
100
AcDbVertex
100
AcDb2dVertex
 10
-225.1995210986634
 20
-309.636681934755
 30
0.0
  0
SEQEND
  5
7A
330
73
100
AcDbEntity
  8
Layer 1
370
     0
  0
HATCH
  5
79
330
4F
100
AcDbEntity
  8
Layer 1
 62
   178
420
        0
100
AcDbHatch
 10
0.0
 20
0.0
 30
0.0
210
0.0
220
0.0
230
1.0
  2
SOLID
 70
     1
 71
     0
 91
        1
 92
        1
 93
        4
 72
     1
 10
-225.1995210986634
 20
-309.636681934755
 11
-150.1995211174099
 21
-309.636681934755
 72
     1
 10
-150.1995211174099
 20
-309.636681934755
 11
-150.1995211174099
 21
-284.6366819410061
 72
     1
 10
-150.1995211174099
 20
-284.6366819410061
 11
-225.1995210986634
 21
-284.6366819410061
 72
     1
 10
-225.1995210986634
 20
-284.6366819410061
 11
-225.1995210986634
 21
-309.636681934755
 97
        0
 75
     0
 76
     1
 98
        0
  0
ENDBLK
  5
52
330
4F
100
AcDbEntity
  8
0
100
AcDbBlockEnd
  0
BLOCK
  5
65
330
63
100
AcDbEntity
  8
0
100
AcDbBlockBegin
  2
block 6
 70
     0
 10
0.0
 20
0.0
 30
0.0
  3
block 6
  1

  0
INSERT
  5
68
330
63
100
AcDbEntity
  8
Layer 1
100
AcDbBlockReference
  2
block 7
 10
0.0
 20
0.0
 30
0.0
  0
ENDBLK
  5
66
330
63
100
AcDbEntity
  8
0
100
AcDbBlockEnd
  0
BLOCK
  5
69
330
67
100
AcDbEntity
  8
0
100
AcDbBlockBegin
  2
block 7
 70
     0
 10
0.0
 20
0.0
 30
0.0
  3
block 7
  1

  0
POLYLINE
  5
6B
330
67
100
AcDbEntity
  8
Layer 1
370
     0
100
AcDb2dPolyline
 66
     1
 10
0.0
 20
0.0
 30
0.0
  0
VERTEX
  5
6C
330
6B
100
AcDbEntity
  8
Layer 1
370
     0
100
AcDbVertex
100
AcDb2dVertex
 10
-240.4210699540006
 20
-309.6366771347762
 30
0.0
  0
VERTEX
  5
6D
330
6B
100
AcDbEntity
  8
Layer 1
370
     0
100
AcDbVertex
100
AcDb2dVertex
 10
-240.4210699540006
 20
-326.6366730615158
 30
0.0
  0
VERTEX
  5
6E
330
6B
100
AcDbEntity
  8
Layer 1
370
     0
100
AcDbVertex
100
AcDb2dVertex
 10
-145.4210762508084
 20
-326.6366730615158
 30
0.0
  0
VERTEX
  5
6F
330
6B
100
AcDbEntity
  8
Layer 1
370
     0
100
AcDbVertex
100
AcDb2dVertex
 10
-145.4210762508084
 20
-309.6366771347762
 30
0.0
  0
VERTEX
  5
70
330
6B
100
AcDbEntity
  8
Layer 1
370
     0
100
AcDbVertex
100
AcDb2dVertex
 10
-240.4210699540006
 20
-309.6366771347762
 30
0.0
  0
SEQEND
  5
72
330
6B
100
AcDbEntity
  8
Layer 1
370
     0
  0
HATCH
  5
71
330
67
100
AcDbEntity
  8
Layer 1
 62
     7
420
 16777215
100
AcDbHatch
 10
0.0
 20
0.0
 30
0.0
210
0.0
220
0.0
230
1.0
  2
SOLID
 70
     1
 71
     0
 91
        1
 92
        1
 93
        4
 72
     1
 10
-240.4210699540006
 20
-309.6366771347762
 11
-240.4210699540006
 21
-326.6366730615158
 72
     1
 10
-240.4210699540006
 20
-326.6366730615158
 11
-145.4210762508084
 21
-326.6366730615158
 72
     1
 10
-145.4210762508084
 20
-326.6366730615158
 11
-145.4210762508084
 21
-309.6366771347762
 72
     1
 10
-145.4210762508084
 20
-309.6366771347762
 11
-240.4210699540006
 21
-309.6366771347762
 97
        0
 75
     0
 76
     1
 98
        0
  0
ENDBLK
  5
6A
330
67
100
AcDbEntity
  8
0
100
AcDbBlockEnd
  0
BLOCK
  5
85
330
83
100
AcDbEntity
  8
0
100
AcDbBlockBegin
  2
block 8
 70
     0
 10
0.0
 20
0.0
 30
0.0
  3
block 8
  1

  0
INSERT
  5
88
330
83
100
AcDbEntity
  8
Layer 1
100
AcDbBlockReference
  2
block 9
 10
0.0
 20
0.0
 30
0.0
  0
INSERT
  5
98
330
83
100
AcDbEntity
  8
Layer 1
100
AcDbBlockReference
  2
block 11
 10
0.0
 20
0.0
 30
0.0
  0
INSERT
  5
15C
330
83
100
AcDbEntity
  8
Layer 1
100
AcDbBlockReference
  2
block 12
 10
0.0
 20
0.0
 30
0.0
  0
SPLINE
  5
1E7
330
83
100
AcDbEntity
  8
Layer 1
370
     0
100
AcDbSpline
210
0.0
220
0.0
230
1.0
 70
    11
 71
     3
 72
    32
 73
    28
 74
     0
 42
0.0000000001
 43
0.0000000001
 12
1.0
 22
0.0
 32
0.0
 13
1.0
 23
0.0
 33
0.0
 40
0.0
 40
0.0
 40
0.0
 40
0.0
 40
1.0
 40
1.0
 40
1.0
 40
2.0
 40
2.0
 40
2.0
 40
3.0
 40
3.0
 40
3.0
 40
4.0
 40
4.0
 40
4.0
 40
5.0
 40
5.0
 40
5.0
 40
6.0
 40
6.0
 40
6.0
 40
7.0
 40
7.0
 40
7.0
 40
8.0
 40
8.0
 40
8.0
 40
9.0
 40
9.0
 40
9.0
 40
9.0
 10
-214.9794206892569
 20
-965.7081038751381
 30
0.0
 10
-214.9794206892569
 20
-965.7081038751381
 30
0.0
 10
-172.9794206997555
 20
-965.7081038751381
 30
0.0
 10
-172.9794206997555
 20
-965.7081038751381
 30
0.0
 10
-172.9794206997555
 20
-965.7081038751381
 30
0.0
 10
-172.7617766004702
 20
-978.9448846384779
 30
0.0
 10
-172.716888929088
 20
-985.676675447944
 30
0.0
 10
-171.1010286438836
 20
-991.9304642417866
 30
0.0
 10
-113.1994665916672
 20
-1088.16722684752
 30
0.0
 10
-110.0575213640299
 20
-1094.022690758423
 30
0.0
 10
-106.9604638077709
 20
-1099.917990196641
 30
0.0
 10
-96.99600346385446
 20
-1108.601604842262
 30
0.0
 10
-113.1994665916672
 20
-1119.037876324032
 30
0.0
 10
-122.7599515909406
 20
-1124.495010413581
 30
0.0
 10
-135.0135461974123
 20
-1124.495010413581
 30
0.0
 10
-144.5291503741977
 20
-1119.037876324032
 30
0.0
 10
-144.5291503741977
 20
-1119.037876324032
 30
0.0
 10
-218.7196416990664
 20
-1029.382080730062
 30
0.0
 10
-235.6036775654717
 20
-1007.691133540737
 30
0.0
 10
-237.3691066872988
 20
-1005.423083996714
 30
0.0
 10
-237.4724960786195
 20
-1002.287801423601
 30
0.0
 10
-235.8877392365905
 20
-999.8900244385609
 30
0.0
 10
-230.1182851037781
 20
-991.160695137661
 30
0.0
 10
-223.4527139682789
 20
-984.5751841618394
 30
0.0
 10
-214.880637678377
 20
-974.0408861661399
 30
0.0
 10
-214.880637678377
 20
-974.0408861661399
 30
0.0
 10
-214.9794206892569
 20
-965.7081038751381
 30
0.0
 10
-214.9794206892569
 20
-965.7081038751381
 30
0.0
  0
HATCH
  5
1E8
330
83
100
AcDbEntity
  8
Layer 1
 62
     7
420
 16777215
100
AcDbHatch
 10
0.0
 20
0.0
 30
0.0
210
0.0
220
0.0
230
1.0
  2
SOLID
 70
     1
 71
     0
 91
        1
 92
        1
 93
        1
 72
     4
 94
        3
 73
     0
 74
     1
 95
       32
 96
       28
 40
0.0
 40
0.0
 40
0.0
 40
0.0
 40
1.0
 40
1.0
 40
1.0
 40
2.0
 40
2.0
 40
2.0
 40
3.0
 40
3.0
 40
3.0
 40
4.0
 40
4.0
 40
4.0
 40
5.0
 40
5.0
 40
5.0
 40
6.0
 40
6.0
 40
6.0
 40
7.0
 40
7.0
 40
7.0
 40
8.0
 40
8.0
 40
8.0
 40
9.0
 40
9.0
 40
9.0
 40
9.0
 10
-214.9794206892569
 20
-965.7081038751381
 10
-214.9794206892569
 20
-965.7081038751381
 10
-172.9794206997555
 20
-965.7081038751381
 10
-172.9794206997555
 20
-965.7081038751381
 10
-172.9794206997555
 20
-965.7081038751381
 10
-172.7617766004702
 20
-978.9448846384779
 10
-172.716888929088
 20
-985.676675447944
 10
-171.1010286438836
 20
-991.9304642417866
 10
-113.1994665916672
 20
-1088.16722684752
 10
-110.0575213640299
 20
-1094.022690758423
 10
-106.9604638077709
 20
-1099.917990196641
 10
-96.99600346385446
 20
-1108.601604842262
 10
-113.1994665916672
 20
-1119.037876324032
 10
-122.7599515909406
 20
-1124.495010413581
 10
-135.0135461974123
 20
-1124.495010413581
 10
-144.5291503741977
 20
-1119.037876324032
 10
-144.5291503741977
 20
-1119.037876324032
 10
-218.7196416990664
 20
-1029.382080730062
 10
-235.6036775654717
 20
-1007.691133540737
 10
-237.3691066872988
 20
-1005.423083996714
 10
-237.4724960786195
 20
-1002.287801423601
 10
-235.8877392365905
 20
-999.8900244385609
 10
-230.1182851037781
 20
-991.160695137661
 10
-223.4527139682789
 20
-984.5751841618394
 10
-214.880637678377
 20
-974.0408861661399
 10
-214.880637678377
 20
-974.0408861661399
 10
-214.9794206892569
 20
-965.7081038751381
 10
-214.9794206892569
 20
-965.7081038751381
 97
        0
 97
        0
 75
     0
 76
     1
 98
        0
  0
ENDBLK
  5
86
330
83
100
AcDbEntity
  8
0
100
AcDbBlockEnd
  0
BLOCK
  5
89
330
87
100
AcDbEntity
  8
0
100
AcDbBlockBegin
  2
block 9
 70
     0
 10
0.0
 20
0.0
 30
0.0
  3
block 9
  1

  0
INSERT
  5
8C
330
87
100
AcDbEntity
  8
Layer 1
100
AcDbBlockReference
  2
block 10
 10
0.0
 20
0.0
 30
0.0
  0
ENDBLK
  5
8A
330
87
100
AcDbEntity
  8
0
100
AcDbBlockEnd
  0
BLOCK
  5
8D
330
8B
100
AcDbEntity
  8
0
100
AcDbBlockBegin
  2
block 10
 70
     0
 10
0.0
 20
0.0
 30
0.0
  3
block 10
  1

  0
POLYLINE
  5
8F
330
8B
100
AcDbEntity
  8
Layer 1
370
     0
100
AcDb2dPolyline
 66
     1
 10
0.0
 20
0.0
 30
0.0
  0
VERTEX
  5
90
330
8F
100
AcDbEntity
  8
Layer 1
370
     0
100
AcDbVertex
100
AcDb2dVertex
 10
-221.9794092259179
 20
-459.8677095747032
 30
0.0
  0
VERTEX
  5
91
330
8F
100
AcDbEntity
  8
Layer 1
370
     0
100
AcDbVertex
100
AcDb2dVertex
 10
-214.9741735980577
 20
-949.7080943806286
 30
0.0
  0
VERTEX
  5
92
330
8F
100
AcDbEntity
  8
Layer 1
370
     0
100
AcDbVertex
100
AcDb2dVertex
 10
-172.9741747953524
 20
-949.7080943806286
 30
0.0
  0
VERTEX
  5
93
330
8F
100
AcDbEntity
  8
Layer 1
370
     0
100
AcDbVertex
100
AcDb2dVertex
 10
-165.9794251768754
 20
-459.8677095747032
 30
0.0
  0
VERTEX
  5
94
330
8F
100
AcDbEntity
  8
Layer 1
370
     0
100
AcDbVertex
100
AcDb2dVertex
 10
-221.9794092259179
 20
-459.8677095747032
 30
0.0
  0
SEQEND
  5
96
330
8F
100
AcDbEntity
  8
Layer 1
370
     0
  0
HATCH
  5
95
330
8B
100
AcDbEntity
  8
Layer 1
 62
     7
420
 16777215
100
AcDbHatch
 10
0.0
 20
0.0
 30
0.0
210
0.0
220
0.0
230
1.0
  2
SOLID
 70
     1
 71
     0
 91
        1
 92
        1
 93
        4
 72
     1
 10
-221.9794092259179
 20
-459.8677095747032
 11
-214.9741735980577
 21
-949.7080943806286
 72
     1
 10
-214.9741735980577
 20
-949.7080943806286
 11
-172.9741747953524
 21
-949.7080943806286
 72
     1
 10
-172.9741747953524
 20
-949.7080943806286
 11
-165.9794251768754
 21
-459.8677095747032
 72
     1
 10
-165.9794251768754
 20
-459.8677095747032
 11
-221.9794092259179
 21
-459.8677095747032
 97
        0
 75
     0
 76
     1
 98
        0
  0
ENDBLK
  5
8E
330
8B
100
AcDbEntity
  8
0
100
AcDbBlockEnd
  0
BLOCK
  5
99
330
97
100
AcDbEntity
  8
0
100
AcDbBlockBegin
  2
block 11
 70
     0
 10
0.0
 20
0.0
 30
0.0
  3
block 11
  1

  0
POLYLINE
  5
9B
330
97
100
AcDbEntity
  8
Layer 1
370
     0
100
AcDb2dPolyline
 66
     1
 10
0.0
 20
0.0
 30
0.0
  0
VERTEX
  5
9C
330
9B
100
AcDbEntity
  8
Layer 1
370
     0
100
AcDbVertex
100
AcDb2dVertex
 10
-166.0696105634676
 20
-466.1789522773269
 30
0.0
  0
VERTEX
  5
9D
330
9B
100
AcDbEntity
  8
Layer 1
370
     0
100
AcDbVertex
100
AcDb2dVertex
 10
-221.8892308255551
 20
-466.1789522773269
 30
0.0
  0
VERTEX
  5
9E
330
9B
100
AcDbEntity
  8
Layer 1
370
     0
100
AcDbVertex
100
AcDb2dVertex
 10
-221.8816508149712
 20
-466.7089522771964
 30
0.0
  0
VERTEX
  5
9F
330
9B
100
AcDbEntity
  8
Layer 1
370
     0
100
AcDbVertex
100
AcDb2dVertex
 10
-166.0771770616152
 20
-466.7089522771964
 30
0.0
  0
VERTEX
  5
A0
330
9B
100
AcDbEntity
  8
Layer 1
370
     0
100
AcDbVertex
100
AcDb2dVertex
 10
-166.0696105634676
 20
-466.1789522773269
 30
0.0
  0
SEQEND
  5
A2
330
9B
100
AcDbEntity
  8
Layer 1
370
     0
  0
HATCH
  5
A1
330
97
100
AcDbEntity
  8
Layer 1
 62
   178
420
        0
100
AcDbHatch
 10
0.0
 20
0.0
 30
0.0
210
0.0
220
0.0
230
1.0
  2
SOLID
 70
     1
 71
     0
 91
        1
 92
        1
 93
        4
 72
     1
 10
-166.0696105634676
 20
-466.1789522773269
 11
-221.8892308255551
 21
-466.1789522773269
 72
     1
 10
-221.8892308255551
 20
-466.1789522773269
 11
-221.8816508149712
 21
-466.7089522771964
 72
     1
 10
-221.8816508149712
 20
-466.7089522771964
 11
-166.0771770616152
 21
-466.7089522771964
 72
     1
 10
-166.0771770616152
 20
-466.7089522771964
 11
-166.0696105634676
 21
-466.1789522773269
 97
        0
 75
     0
 76
     1
 98
        0
  0
POLYLINE
  5
A3
330
97
100
AcDbEntity
  8
Layer 1
370
     0
100
AcDb2dPolyline
 66
     1
 10
0.0
 20
0.0
 30
0.0
  0
VERTEX
  5
A4
330
A3
100
AcDbEntity
  8
Layer 1
370
     0
100
AcDbVertex
100
AcDb2dVertex
 10
-166.1643165177607
 20
-472.81110399836
 30
0.0
  0
VERTEX
  5
A5
330
A3
100
AcDbEntity
  8
Layer 1
370
     0
100
AcDbVertex
100
AcDb2dVertex
 10
-221.7943822427159
 20
-472.81110399836
 30
0.0
  0
VERTEX
  5
A6
330
A3
100
AcDbEntity
  8
Layer 1
370
     0
100
AcDbVertex
100
AcDb2dVertex
 10
-221.7868043264362
 20
-473.3411039982256
 30
0.0
  0
VERTEX
  5
A7
330
A3
100
AcDbEntity
  8
Layer 1
370
     0
100
AcDbVertex
100
AcDb2dVertex
 10
-166.1718850016941
 20
-473.3411039982256
 30
0.0
  0
VERTEX
  5
A8
330
A3
100
AcDbEntity
  8
Layer 1
370
     0
100
AcDbVertex
100
AcDb2dVertex
 10
-166.1643165177607
 20
-472.81110399836
 30
0.0
  0
SEQEND
  5
AA
330
A3
100
AcDbEntity
  8
Layer 1
370
     0
  0
HATCH
  5
A9
330
97
100
AcDbEntity
  8
Layer 1
 62
   178
420
        0
100
AcDbHatch
 10
0.0
 20
0.0
 30
0.0
210
0.0
220
0.0
230
1.0
  2
SOLID
 70
     1
 71
     0
 91
        1
 92
        1
 93
        4
 72
     1
 10
-166.1643165177607
 20
-472.81110399836
 11
-221.7943822427159
 21
-472.81110399836
 72
     1
 10
-221.7943822427159
 20
-472.81110399836
 11
-221.7868043264362
 21
-473.3411039982256
 72
     1
 10
-221.7868043264362
 20
-473.3411039982256
 11
-166.1718850016941
 21
-473.3411039982256
 72
     1
 10
-166.1718850016941
 20
-473.3411039982256
 11
-166.1643165177607
 21
-472.81110399836
 97
        0
 75
     0
 76
     1
 98
        0
  0
POLYLINE
  5
AB
330
97
100
AcDbEntity
  8
Layer 1
370
     0
100
AcDb2dPolyline
 66
     1
 10
0.0
 20
0.0
 30
0.0
  0
VERTEX
  5
AC
330
AB
100
AcDbEntity
  8
Layer 1
370
     0
100
AcDbVertex
100
AcDb2dVertex
 10
-166.3127872477938
 20
-483.2086538752097
 30
0.0
  0
VERTEX
  5
AD
330
AB
100
AcDbEntity
  8
Layer 1
370
     0
100
AcDbVertex
100
AcDb2dVertex
 10
-221.6456877919454
 20
-483.2086538752097
 30
0.0
  0
VERTEX
  5
AE
330
AB
100
AcDbEntity
  8
Layer 1
370
     0
100
AcDbVertex
100
AcDb2dVertex
 10
-221.638107847437
 20
-483.7386538750753
 30
0.0
  0
VERTEX
  5
AF
330
AB
100
AcDbEntity
  8
Layer 1
370
     0
100
AcDbVertex
100
AcDb2dVertex
 10
-166.3203600121033
 20
-483.7386538750753
 30
0.0
  0
VERTEX
  5
B0
330
AB
100
AcDbEntity
  8
Layer 1
370
     0
100
AcDbVertex
100
AcDb2dVertex
 10
-166.3127872477938
 20
-483.2086538752097
 30
0.0
  0
SEQEND
  5
B2
330
AB
100
AcDbEntity
  8
Layer 1
370
     0
  0
HATCH
  5
B1
330
97
100
AcDbEntity
  8
Layer 1
 62
   178
420
        0
100
AcDbHatch
 10
0.0
 20
0.0
 30
0.0
210
0.0
220
0.0
230
1.0
  2
SOLID
 70
     1
 71
     0
 91
        1
 92
        1
 93
        4
 72
     1
 10
-166.3127872477938
 20
-483.2086538752097
 11
-221.6456877919454
 21
-483.2086538752097
 72
     1
 10
-221.6456877919454
 20
-483.2086538752097
 11
-221.638107847437
 21
-483.7386538750753
 72
     1
 10
-221.638107847437
 20
-483.7386538750753
 11
-166.3203600121033
 21
-483.7386538750753
 72
     1
 10
-166.3203600121033
 20
-483.7386538750753
 11
-166.3127872477938
 21
-483.2086538752097
 97
        0
 75
     0
 76
     1
 98
        0
  0
POLYLINE
  5
B3
330
97
100
AcDbEntity
  8
Layer 1
370
     0
100
AcDb2dPolyline
 66
     1
 10
0.0
 20
0.0
 30
0.0
  0
VERTEX
  5
B4
330
B3
100
AcDbEntity
  8
Layer 1
370
     0
100
AcDbVertex
100
AcDb2dVertex
 10
-166.467195508446
 20
-494.0216538725071
 30
0.0
  0
VERTEX
  5
B5
330
B3
100
AcDbEntity
  8
Layer 1
370
     0
100
AcDbVertex
100
AcDb2dVertex
 10
-221.4910497288221
 20
-494.0216538725071
 30
0.0
  0
VERTEX
  5
B6
330
B3
100
AcDbEntity
  8
Layer 1
370
     0
100
AcDbVertex
100
AcDb2dVertex
 10
-221.4834672396391
 20
-494.5516538723728
 30
0.0
  0
VERTEX
  5
B7
330
B3
100
AcDbEntity
  8
Layer 1
370
     0
100
AcDbVertex
100
AcDb2dVertex
 10
-166.4747645039566
 20
-494.5516538723728
 30
0.0
  0
VERTEX
  5
B8
330
B3
100
AcDbEntity
  8
Layer 1
370
     0
100
AcDbVertex
100
AcDb2dVertex
 10
-166.467195508446
 20
-494.0216538725071
 30
0.0
  0
SEQEND
  5
BA
330
B3
100
AcDbEntity
  8
Layer 1
370
     0
  0
HATCH
  5
B9
330
97
100
AcDbEntity
  8
Layer 1
 62
   178
420
        0
100
AcDbHatch
 10
0.0
 20
0.0
 30
0.0
210
0.0
220
0.0
230
1.0
  2
SOLID
 70
     1
 71
     0
 91
        1
 92
        1
 93
        4
 72
     1
 10
-166.467195508446
 20
-494.0216538725071
 11
-221.4910497288221
 21
-494.0216538725071
 72
     1
 10
-221.4910497288221
 20
-494.0216538725071
 11
-221.4834672396391
 21
-494.5516538723728
 72
     1
 10
-221.4834672396391
 20
-494.5516538723728
 11
-166.4747645039566
 21
-494.5516538723728
 72
     1
 10
-166.4747645039566
 20
-494.5516538723728
 11
-166.467195508446
 21
-494.0216538725071
 97
        0
 75
     0
 76
     1
 98
        0
  0
POLYLINE
  5
BB
330
97
100
AcDbEntity
  8
Layer 1
370
     0
100
AcDb2dPolyline
 66
     1
 10
0.0
 20
0.0
 30
0.0
  0
VERTEX
  5
BC
330
BB
100
AcDbEntity
  8
Layer 1
370
     0
100
AcDbVertex
100
AcDb2dVertex
 10
-166.6307682311771
 20
-505.4766538696431
 30
0.0
  0
VERTEX
  5
BD
330
BB
100
AcDbEntity
  8
Layer 1
370
     0
100
AcDbVertex
100
AcDb2dVertex
 10
-221.3272303059591
 20
-505.4766538696431
 30
0.0
  0
VERTEX
  5
BE
330
BB
100
AcDbEntity
  8
Layer 1
370
     0
100
AcDbVertex
100
AcDb2dVertex
 10
-221.3196540808927
 20
-506.0066538695089
 30
0.0
  0
VERTEX
  5
BF
330
BB
100
AcDbEntity
  8
Layer 1
370
     0
100
AcDbVertex
100
AcDb2dVertex
 10
-166.6383362536878
 20
-506.0066538695089
 30
0.0
  0
VERTEX
  5
C0
330
BB
100
AcDbEntity
  8
Layer 1
370
     0
100
AcDbVertex
100
AcDb2dVertex
 10
-166.6307682311771
 20
-505.4766538696431
 30
0.0
  0
SEQEND
  5
C2
330
BB
100
AcDbEntity
  8
Layer 1
370
     0
  0
HATCH
  5
C1
330
97
100
AcDbEntity
  8
Layer 1
 62
   178
420
        0
100
AcDbHatch
 10
0.0
 20
0.0
 30
0.0
210
0.0
220
0.0
230
1.0
  2
SOLID
 70
     1
 71
     0
 91
        1
 92
        1
 93
        4
 72
     1
 10
-166.6307682311771
 20
-505.4766538696431
 11
-221.3272303059591
 21
-505.4766538696431
 72
     1
 10
-221.3272303059591
 20
-505.4766538696431
 11
-221.3196540808927
 21
-506.0066538695089
 72
     1
 10
-221.3196540808927
 20
-506.0066538695089
 11
-166.6383362536878
 21
-506.0066538695089
 72
     1
 10
-166.6383362536878
 20
-506.0066538695089
 11
-166.6307682311771
 21
-505.4766538696431
 97
        0
 75
     0
 76
     1
 98
        0
  0
POLYLINE
  5
C3
330
97
100
AcDbEntity
  8
Layer 1
370
     0
100
AcDb2dPolyline
 66
     1
 10
0.0
 20
0.0
 30
0.0
  0
VERTEX
  5
C4
330
C3
100
AcDbEntity
  8
Layer 1
370
     0
100
AcDbVertex
100
AcDb2dVertex
 10
-166.804082286401
 20
-517.613653866609
 30
0.0
  0
VERTEX
  5
C5
330
C3
100
AcDbEntity
  8
Layer 1
370
     0
100
AcDbVertex
100
AcDb2dVertex
 10
-221.153660204995
 20
-517.613653866609
 30
0.0
  0
VERTEX
  5
C6
330
C3
100
AcDbEntity
  8
Layer 1
370
     0
100
AcDbVertex
100
AcDb2dVertex
 10
-221.1460803773899
 20
-518.1436538664746
 30
0.0
  0
VERTEX
  5
C7
330
C3
100
AcDbEntity
  8
Layer 1
370
     0
100
AcDbVertex
100
AcDb2dVertex
 10
-166.8116479727499
 20
-518.1436538664746
 30
0.0
  0
VERTEX
  5
C8
330
C3
100
AcDbEntity
  8
Layer 1
370
     0
100
AcDbVertex
100
AcDb2dVertex
 10
-166.804082286401
 20
-517.613653866609
 30
0.0
  0
SEQEND
  5
CA
330
C3
100
AcDbEntity
  8
Layer 1
370
     0
  0
HATCH
  5
C9
330
97
100
AcDbEntity
  8
Layer 1
 62
   178
420
        0
100
AcDbHatch
 10
0.0
 20
0.0
 30
0.0
210
0.0
220
0.0
230
1.0
  2
SOLID
 70
     1
 71
     0
 91
        1
 92
        1
 93
        4
 72
     1
 10
-166.804082286401
 20
-517.613653866609
 11
-221.153660204995
 21
-517.613653866609
 72
     1
 10
-221.153660204995
 20
-517.613653866609
 11
-221.1460803773899
 21
-518.1436538664746
 72
     1
 10
-221.1460803773899
 20
-518.1436538664746
 11
-166.8116479727499
 21
-518.1436538664746
 72
     1
 10
-166.8116479727499
 20
-518.1436538664746
 11
-166.804082286401
 21
-517.613653866609
 97
        0
 75
     0
 76
     1
 98
        0
  0
POLYLINE
  5
CB
330
97
100
AcDbEntity
  8
Layer 1
370
     0
100
AcDb2dPolyline
 66
     1
 10
0.0
 20
0.0
 30
0.0
  0
VERTEX
  5
CC
330
CB
100
AcDbEntity
  8
Layer 1
370
     0
100
AcDbVertex
100
AcDb2dVertex
 10
-166.9877033379061
 20
-530.4726538633917
 30
0.0
  0
VERTEX
  5
CD
330
CB
100
AcDbEntity
  8
Layer 1
370
     0
100
AcDbVertex
100
AcDb2dVertex
 10
-220.9697611092076
 20
-530.4726538633917
 30
0.0
  0
VERTEX
  5
CE
330
CB
100
AcDbEntity
  8
Layer 1
370
     0
100
AcDbVertex
100
AcDb2dVertex
 10
-220.9621845822197
 20
-531.0026538632612
 30
0.0
  0
VERTEX
  5
CF
330
CB
100
AcDbEntity
  8
Layer 1
370
     0
100
AcDbVertex
100
AcDb2dVertex
 10
-166.995272778227
 20
-531.0026538632612
 30
0.0
  0
VERTEX
  5
D0
330
CB
100
AcDbEntity
  8
Layer 1
370
     0
100
AcDbVertex
100
AcDb2dVertex
 10
-166.9877033379061
 20
-530.4726538633917
 30
0.0
  0
SEQEND
  5
D2
330
CB
100
AcDbEntity
  8
Layer 1
370
     0
  0
HATCH
  5
D1
330
97
100
AcDbEntity
  8
Layer 1
 62
   178
420
        0
100
AcDbHatch
 10
0.0
 20
0.0
 30
0.0
210
0.0
220
0.0
230
1.0
  2
SOLID
 70
     1
 71
     0
 91
        1
 92
        1
 93
        4
 72
     1
 10
-166.9877033379061
 20
-530.4726538633917
 11
-220.9697611092076
 21
-530.4726538633917
 72
     1
 10
-220.9697611092076
 20
-530.4726538633917
 11
-220.9621845822197
 21
-531.0026538632612
 72
     1
 10
-220.9621845822197
 20
-531.0026538632612
 11
-166.995272778227
 21
-531.0026538632612
 72
     1
 10
-166.995272778227
 20
-531.0026538632612
 11
-166.9877033379061
 21
-530.4726538633917
 97
        0
 75
     0
 76
     1
 98
        0
  0
POLYLINE
  5
D3
330
97
100
AcDbEntity
  8
Layer 1
370
     0
100
AcDb2dPolyline
 66
     1
 10
0.0
 20
0.0
 30
0.0
  0
VERTEX
  5
D4
330
D3
100
AcDbEntity
  8
Layer 1
370
     0
100
AcDbVertex
100
AcDb2dVertex
 10
-167.1822341118741
 20
-544.0956538599886
 30
0.0
  0
VERTEX
  5
D5
330
D3
100
AcDbEntity
  8
Layer 1
370
     0
100
AcDbVertex
100
AcDb2dVertex
 10
-220.7749389014358
 20
-544.0956538599886
 30
0.0
  0
VERTEX
  5
D6
330
D3
100
AcDbEntity
  8
Layer 1
370
     0
100
AcDbVertex
100
AcDb2dVertex
 10
-220.7673578389147
 20
-544.6256538598581
 30
0.0
  0
VERTEX
  5
D7
330
D3
100
AcDbEntity
  8
Layer 1
370
     0
100
AcDbVertex
100
AcDb2dVertex
 10
-167.1898038954158
 20
-544.6256538598581
 30
0.0
  0
VERTEX
  5
D8
330
D3
100
AcDbEntity
  8
Layer 1
370
     0
100
AcDbVertex
100
AcDb2dVertex
 10
-167.1822341118741
 20
-544.0956538599886
 30
0.0
  0
SEQEND
  5
DA
330
D3
100
AcDbEntity
  8
Layer 1
370
     0
  0
HATCH
  5
D9
330
97
100
AcDbEntity
  8
Layer 1
 62
   178
420
        0
100
AcDbHatch
 10
0.0
 20
0.0
 30
0.0
210
0.0
220
0.0
230
1.0
  2
SOLID
 70
     1
 71
     0
 91
        1
 92
        1
 93
        4
 72
     1
 10
-167.1822341118741
 20
-544.0956538599886
 11
-220.7749389014358
 21
-544.0956538599886
 72
     1
 10
-220.7749389014358
 20
-544.0956538599886
 11
-220.7673578389147
 21
-544.6256538598581
 72
     1
 10
-220.7673578389147
 20
-544.6256538598581
 11
-167.1898038954158
 21
-544.6256538598581
 72
     1
 10
-167.1898038954158
 20
-544.6256538598581
 11
-167.1822341118741
 21
-544.0956538599886
 97
        0
 75
     0
 76
     1
 98
        0
  0
POLYLINE
  5
DB
330
97
100
AcDbEntity
  8
Layer 1
370
     0
100
AcDb2dPolyline
 66
     1
 10
0.0
 20
0.0
 30
0.0
  0
VERTEX
  5
DC
330
DB
100
AcDbEntity
  8
Layer 1
370
     0
100
AcDbVertex
100
AcDb2dVertex
 10
-167.3883333615167
 20
-558.5286538563802
 30
0.0
  0
VERTEX
  5
DD
330
DB
100
AcDbEntity
  8
Layer 1
370
     0
100
AcDbVertex
100
AcDb2dVertex
 10
-220.5685290653204
 20
-558.5286538563802
 30
0.0
  0
VERTEX
  5
DE
330
DB
100
AcDbEntity
  8
Layer 1
370
     0
100
AcDbVertex
100
AcDb2dVertex
 10
-220.560952763592
 20
-559.0586538562496
 30
0.0
  0
VERTEX
  5
DF
330
DB
100
AcDbEntity
  8
Layer 1
370
     0
100
AcDbVertex
100
AcDb2dVertex
 10
-167.3959000354741
 20
-559.0586538562496
 30
0.0
  0
VERTEX
  5
E0
330
DB
100
AcDbEntity
  8
Layer 1
370
     0
100
AcDbVertex
100
AcDb2dVertex
 10
-167.3883333615167
 20
-558.5286538563802
 30
0.0
  0
SEQEND
  5
E2
330
DB
100
AcDbEntity
  8
Layer 1
370
     0
  0
HATCH
  5
E1
330
97
100
AcDbEntity
  8
Layer 1
 62
   178
420
        0
100
AcDbHatch
 10
0.0
 20
0.0
 30
0.0
210
0.0
220
0.0
230
1.0
  2
SOLID
 70
     1
 71
     0
 91
        1
 92
        1
 93
        4
 72
     1
 10
-167.3883333615167
 20
-558.5286538563802
 11
-220.5685290653204
 21
-558.5286538563802
 72
     1
 10
-220.5685290653204
 20
-558.5286538563802
 11
-220.560952763592
 21
-559.0586538562496
 72
     1
 10
-220.560952763592
 20
-559.0586538562496
 11
-167.3959000354741
 21
-559.0586538562496
 72
     1
 10
-167.3959000354741
 20
-559.0586538562496
 11
-167.3883333615167
 21
-558.5286538563802
 97
        0
 75
     0
 76
     1
 98
        0
  0
POLYLINE
  5
E3
330
97
100
AcDbEntity
  8
Layer 1
370
     0
100
AcDb2dPolyline
 66
     1
 10
0.0
 20
0.0
 30
0.0
  0
VERTEX
  5
E4
330
E3
100
AcDbEntity
  8
Layer 1
370
     0
100
AcDbVertex
100
AcDb2dVertex
 10
-167.606681643036
 20
-573.8196538525593
 30
0.0
  0
VERTEX
  5
E5
330
E3
100
AcDbEntity
  8
Layer 1
370
     0
100
AcDbVertex
100
AcDb2dVertex
 10
-220.3498524759287
 20
-573.8196538525593
 30
0.0
  0
VERTEX
  5
E6
330
E3
100
AcDbEntity
  8
Layer 1
370
     0
100
AcDbVertex
100
AcDb2dVertex
 10
-220.3422731166751
 20
-574.349653852425
 30
0.0
  0
VERTEX
  5
E7
330
E3
100
AcDbEntity
  8
Layer 1
370
     0
100
AcDbVertex
100
AcDb2dVertex
 10
-167.614252733383
 20
-574.349653852425
 30
0.0
  0
VERTEX
  5
E8
330
E3
100
AcDbEntity
  8
Layer 1
370
     0
100
AcDbVertex
100
AcDb2dVertex
 10
-167.606681643036
 20
-573.8196538525593
 30
0.0
  0
SEQEND
  5
EA
330
E3
100
AcDbEntity
  8
Layer 1
370
     0
  0
HATCH
  5
E9
330
97
100
AcDbEntity
  8
Layer 1
 62
   178
420
        0
100
AcDbHatch
 10
0.0
 20
0.0
 30
0.0
210
0.0
220
0.0
230
1.0
  2
SOLID
 70
     1
 71
     0
 91
        1
 92
        1
 93
        4
 72
     1
 10
-167.606681643036
 20
-573.8196538525593
 11
-220.3498524759287
 21
-573.8196538525593
 72
     1
 10
-220.3498524759287
 20
-573.8196538525593
 11
-220.3422731166751
 21
-574.349653852425
 72
     1
 10
-220.3422731166751
 20
-574.349653852425
 11
-167.614252733383
 21
-574.349653852425
 72
     1
 10
-167.614252733383
 20
-574.349653852425
 11
-167.606681643036
 21
-573.8196538525593
 97
        0
 75
     0
 76
     1
 98
        0
  0
POLYLINE
  5
EB
330
97
100
AcDbEntity
  8
Layer 1
370
     0
100
AcDb2dPolyline
 66
     1
 10
0.0
 20
0.0
 30
0.0
  0
VERTEX
  5
EC
330
EB
100
AcDbEntity
  8
Layer 1
370
     0
100
AcDbVertex
100
AcDb2dVertex
 10
-167.838027679368
 20
-590.0206538485093
 30
0.0
  0
VERTEX
  5
ED
330
EB
100
AcDbEntity
  8
Layer 1
370
     0
100
AcDbVertex
100
AcDb2dVertex
 10
-220.1181599294561
 20
-590.0206538485093
 30
0.0
  0
VERTEX
  5
EE
330
EB
100
AcDbEntity
  8
Layer 1
370
     0
100
AcDbVertex
100
AcDb2dVertex
 10
-220.1105805584444
 20
-590.550653848375
 30
0.0
  0
VERTEX
  5
EF
330
EB
100
AcDbEntity
  8
Layer 1
370
     0
100
AcDbVertex
100
AcDb2dVertex
 10
-167.8455958948514
 20
-590.550653848375
 30
0.0
  0
VERTEX
  5
F0
330
EB
100
AcDbEntity
  8
Layer 1
370
     0
100
AcDbVertex
100
AcDb2dVertex
 10
-167.838027679368
 20
-590.0206538485093
 30
0.0
  0
SEQEND
  5
F2
330
EB
100
AcDbEntity
  8
Layer 1
370
     0
  0
HATCH
  5
F1
330
97
100
AcDbEntity
  8
Layer 1
 62
   178
420
        0
100
AcDbHatch
 10
0.0
 20
0.0
 30
0.0
210
0.0
220
0.0
230
1.0
  2
SOLID
 70
     1
 71
     0
 91
        1
 92
        1
 93
        4
 72
     1
 10
-167.838027679368
 20
-590.0206538485093
 11
-220.1181599294561
 21
-590.0206538485093
 72
     1
 10
-220.1181599294561
 20
-590.0206538485093
 11
-220.1105805584444
 21
-590.550653848375
 72
     1
 10
-220.1105805584444
 20
-590.550653848375
 11
-167.8455958948514
 21
-590.550653848375
 72
     1
 10
-167.8455958948514
 20
-590.550653848375
 11
-167.838027679368
 21
-590.0206538485093
 97
        0
 75
     0
 76
     1
 98
        0
  0
POLYLINE
  5
F3
330
97
100
AcDbEntity
  8
Layer 1
370
     0
100
AcDb2dPolyline
 66
     1
 10
0.0
 20
0.0
 30
0.0
  0
VERTEX
  5
F4
330
F3
100
AcDbEntity
  8
Layer 1
370
     0
100
AcDbVertex
100
AcDb2dVertex
 10
-168.0831222760728
 20
-607.1846538442157
 30
0.0
  0
VERTEX
  5
F5
330
F3
100
AcDbEntity
  8
Layer 1
370
     0
100
AcDbVertex
100
AcDb2dVertex
 10
-219.8726958364006
 20
-607.1846538442157
 30
0.0
  0
VERTEX
  5
F6
330
F3
100
AcDbEntity
  8
Layer 1
370
     0
100
AcDbVertex
100
AcDb2dVertex
 10
-219.8651174603843
 20
-607.7146538440853
 30
0.0
  0
VERTEX
  5
F7
330
F3
100
AcDbEntity
  8
Layer 1
370
     0
100
AcDbVertex
100
AcDb2dVertex
 10
-168.0906930905618
 20
-607.7146538440853
 30
0.0
  0
VERTEX
  5
F8
330
F3
100
AcDbEntity
  8
Layer 1
370
     0
100
AcDbVertex
100
AcDb2dVertex
 10
-168.0831222760728
 20
-607.1846538442157
 30
0.0
  0
SEQEND
  5
FA
330
F3
100
AcDbEntity
  8
Layer 1
370
     0
  0
HATCH
  5
F9
330
97
100
AcDbEntity
  8
Layer 1
 62
   178
420
        0
100
AcDbHatch
 10
0.0
 20
0.0
 30
0.0
210
0.0
220
0.0
230
1.0
  2
SOLID
 70
     1
 71
     0
 91
        1
 92
        1
 93
        4
 72
     1
 10
-168.0831222760728
 20
-607.1846538442157
 11
-219.8726958364006
 21
-607.1846538442157
 72
     1
 10
-219.8726958364006
 20
-607.1846538442157
 11
-219.8651174603843
 21
-607.7146538440853
 72
     1
 10
-219.8651174603843
 20
-607.7146538440853
 11
-168.0906930905618
 21
-607.7146538440853
 72
     1
 10
-168.0906930905618
 20
-607.7146538440853
 11
-168.0831222760728
 21
-607.1846538442157
 97
        0
 75
     0
 76
     1
 98
        0
  0
POLYLINE
  5
FB
330
97
100
AcDbEntity
  8
Layer 1
370
     0
100
AcDb2dPolyline
 66
     1
 10
0.0
 20
0.0
 30
0.0
  0
VERTEX
  5
FC
330
FB
100
AcDbEntity
  8
Layer 1
370
     0
100
AcDbVertex
100
AcDb2dVertex
 10
-168.342798985603
 20
-625.3696538396694
 30
0.0
  0
VERTEX
  5
FD
330
FB
100
AcDbEntity
  8
Layer 1
370
     0
100
AcDbVertex
100
AcDb2dVertex
 10
-219.6126311824221
 20
-625.3696538396694
 30
0.0
  0
VERTEX
  5
FE
330
FB
100
AcDbEntity
  8
Layer 1
370
     0
100
AcDbVertex
100
AcDb2dVertex
 10
-219.6050489263443
 20
-625.8996538395388
 30
0.0
  0
VERTEX
  5
FF
330
FB
100
AcDbEntity
  8
Layer 1
370
     0
100
AcDbVertex
100
AcDb2dVertex
 10
-168.3503652434769
 20
-625.8996538395388
 30
0.0
  0
VERTEX
  5
100
330
FB
100
AcDbEntity
  8
Layer 1
370
     0
100
AcDbVertex
100
AcDb2dVertex
 10
-168.342798985603
 20
-625.3696538396694
 30
0.0
  0
SEQEND
  5
102
330
FB
100
AcDbEntity
  8
Layer 1
370
     0
  0
HATCH
  5
101
330
97
100
AcDbEntity
  8
Layer 1
 62
   178
420
        0
100
AcDbHatch
 10
0.0
 20
0.0
 30
0.0
210
0.0
220
0.0
230
1.0
  2
SOLID
 70
     1
 71
     0
 91
        1
 92
        1
 93
        4
 72
     1
 10
-168.342798985603
 20
-625.3696538396694
 11
-219.6126311824221
 21
-625.3696538396694
 72
     1
 10
-219.6126311824221
 20
-625.3696538396694
 11
-219.6050489263443
 21
-625.8996538395388
 72
     1
 10
-219.6050489263443
 20
-625.8996538395388
 11
-168.3503652434769
 21
-625.8996538395388
 72
     1
 10
-168.3503652434769
 20
-625.8996538395388
 11
-168.342798985603
 21
-625.3696538396694
 97
        0
 75
     0
 76
     1
 98
        0
  0
POLYLINE
  5
103
330
97
100
AcDbEntity
  8
Layer 1
370
     0
100
AcDb2dPolyline
 66
     1
 10
0.0
 20
0.0
 30
0.0
  0
VERTEX
  5
104
330
103
100
AcDbEntity
  8
Layer 1
370
     0
100
AcDbVertex
100
AcDb2dVertex
 10
-168.6179116644762
 20
-644.6356538348533
 30
0.0
  0
VERTEX
  5
105
330
103
100
AcDbEntity
  8
Layer 1
370
     0
100
AcDbVertex
100
AcDb2dVertex
 10
-219.3371050469387
 20
-644.6356538348533
 30
0.0
  0
VERTEX
  5
106
330
103
100
AcDbEntity
  8
Layer 1
370
     0
100
AcDbVertex
100
AcDb2dVertex
 10
-219.3295276608804
 20
-645.1656538347229
 30
0.0
  0
VERTEX
  5
107
330
103
100
AcDbEntity
  8
Layer 1
370
     0
100
AcDbVertex
100
AcDb2dVertex
 10
-168.6254780518655
 20
-645.1656538347229
 30
0.0
  0
VERTEX
  5
108
330
103
100
AcDbEntity
  8
Layer 1
370
     0
100
AcDbVertex
100
AcDb2dVertex
 10
-168.6179116644762
 20
-644.6356538348533
 30
0.0
  0
SEQEND
  5
10A
330
103
100
AcDbEntity
  8
Layer 1
370
     0
  0
HATCH
  5
109
330
97
100
AcDbEntity
  8
Layer 1
 62
   178
420
        0
100
AcDbHatch
 10
0.0
 20
0.0
 30
0.0
210
0.0
220
0.0
230
1.0
  2
SOLID
 70
     1
 71
     0
 91
        1
 92
        1
 93
        4
 72
     1
 10
-168.6179116644762
 20
-644.6356538348533
 11
-219.3371050469387
 21
-644.6356538348533
 72
     1
 10
-219.3371050469387
 20
-644.6356538348533
 11
-219.3295276608804
 21
-645.1656538347229
 72
     1
 10
-219.3295276608804
 20
-645.1656538347229
 11
-168.6254780518655
 21
-645.1656538347229
 72
     1
 10
-168.6254780518655
 20
-645.1656538347229
 11
-168.6179116644762
 21
-644.6356538348533
 97
        0
 75
     0
 76
     1
 98
        0
  0
POLYLINE
  5
10B
330
97
100
AcDbEntity
  8
Layer 1
370
     0
100
AcDb2dPolyline
 66
     1
 10
0.0
 20
0.0
 30
0.0
  0
VERTEX
  5
10C
330
10B
100
AcDbEntity
  8
Layer 1
370
     0
100
AcDbVertex
100
AcDb2dVertex
 10
-168.909385965774
 20
-665.047653829754
 30
0.0
  0
VERTEX
  5
10D
330
10B
100
AcDbEntity
  8
Layer 1
370
     0
100
AcDbVertex
100
AcDb2dVertex
 10
-219.0451910081516
 20
-665.047653829754
 30
0.0
  0
VERTEX
  5
10E
330
10B
100
AcDbEntity
  8
Layer 1
370
     0
100
AcDbVertex
100
AcDb2dVertex
 10
-219.0376138199276
 20
-665.5776538296196
 30
0.0
  0
VERTEX
  5
10F
330
10B
100
AcDbEntity
  8
Layer 1
370
     0
100
AcDbVertex
100
AcDb2dVertex
 10
-168.9169550819804
 20
-665.5776538296196
 30
0.0
  0
VERTEX
  5
110
330
10B
100
AcDbEntity
  8
Layer 1
370
     0
100
AcDbVertex
100
AcDb2dVertex
 10
-168.909385965774
 20
-665.047653829754
 30
0.0
  0
SEQEND
  5
112
330
10B
100
AcDbEntity
  8
Layer 1
370
     0
  0
HATCH
  5
111
330
97
100
AcDbEntity
  8
Layer 1
 62
   178
420
        0
100
AcDbHatch
 10
0.0
 20
0.0
 30
0.0
210
0.0
220
0.0
230
1.0
  2
SOLID
 70
     1
 71
     0
 91
        1
 92
        1
 93
        4
 72
     1
 10
-168.909385965774
 20
-665.047653829754
 11
-219.0451910081516
 21
-665.047653829754
 72
     1
 10
-219.0451910081516
 20
-665.047653829754
 11
-219.0376138199276
 21
-665.5776538296196
 72
     1
 10
-219.0376138199276
 20
-665.5776538296196
 11
-168.9169550819804
 21
-665.5776538296196
 72
     1
 10
-168.9169550819804
 20
-665.5776538296196
 11
-168.909385965774
 21
-665.047653829754
 97
        0
 75
     0
 76
     1
 98
        0
  0
POLYLINE
  5
113
330
97
100
AcDbEntity
  8
Layer 1
370
     0
100
AcDb2dPolyline
 66
     1
 10
0.0
 20
0.0
 30
0.0
  0
VERTEX
  5
114
330
113
100
AcDbEntity
  8
Layer 1
370
     0
100
AcDbVertex
100
AcDb2dVertex
 10
-169.2181841672895
 20
-686.672653824346
 30
0.0
  0
VERTEX
  5
115
330
113
100
AcDbEntity
  8
Layer 1
370
     0
100
AcDbVertex
100
AcDb2dVertex
 10
-218.7359316611624
 20
-686.672653824346
 30
0.0
  0
VERTEX
  5
116
330
113
100
AcDbEntity
  8
Layer 1
370
     0
100
AcDbVertex
100
AcDb2dVertex
 10
-218.7283520859168
 20
-687.2026538242155
 30
0.0
  0
VERTEX
  5
117
330
113
100
AcDbEntity
  8
Layer 1
370
     0
100
AcDbVertex
100
AcDb2dVertex
 10
-169.225752325309
 20
-687.2026538242155
 30
0.0
  0
VERTEX
  5
118
330
113
100
AcDbEntity
  8
Layer 1
370
     0
100
AcDbVertex
100
AcDb2dVertex
 10
-169.2181841672895
 20
-686.672653824346
 30
0.0
  0
SEQEND
  5
11A
330
113
100
AcDbEntity
  8
Layer 1
370
     0
  0
HATCH
  5
119
330
97
100
AcDbEntity
  8
Layer 1
 62
   178
420
        0
100
AcDbHatch
 10
0.0
 20
0.0
 30
0.0
210
0.0
220
0.0
230
1.0
  2
SOLID
 70
     1
 71
     0
 91
        1
 92
        1
 93
        4
 72
     1
 10
-169.2181841672895
 20
-686.672653824346
 11
-218.7359316611624
 21
-686.672653824346
 72
     1
 10
-218.7359316611624
 20
-686.672653824346
 11
-218.7283520859168
 21
-687.2026538242155
 72
     1
 10
-218.7283520859168
 20
-687.2026538242155
 11
-169.225752325309
 21
-687.2026538242155
 72
     1
 10
-169.225752325309
 20
-687.2026538242155
 11
-169.2181841672895
 21
-686.672653824346
 97
        0
 75
     0
 76
     1
 98
        0
  0
POLYLINE
  5
11B
330
97
100
AcDbEntity
  8
Layer 1
370
     0
100
AcDb2dPolyline
 66
     1
 10
0.0
 20
0.0
 30
0.0
  0
VERTEX
  5
11C
330
11B
100
AcDbEntity
  8
Layer 1
370
     0
100
AcDbVertex
100
AcDb2dVertex
 10
-169.5453455942837
 20
-709.5836538186204
 30
0.0
  0
VERTEX
  5
11D
330
11B
100
AcDbEntity
  8
Layer 1
370
     0
100
AcDbVertex
100
AcDb2dVertex
 10
-218.4082794941951
 20
-709.5836538186204
 30
0.0
  0
VERTEX
  5
11E
330
11B
100
AcDbEntity
  8
Layer 1
370
     0
100
AcDbVertex
100
AcDb2dVertex
 10
-218.4006999189495
 20
-710.1136538184867
 30
0.0
  0
VERTEX
  5
11F
330
11B
100
AcDbEntity
  8
Layer 1
370
     0
100
AcDbVertex
100
AcDb2dVertex
 10
-169.5529134327429
 20
-710.1136538184867
 30
0.0
  0
VERTEX
  5
120
330
11B
100
AcDbEntity
  8
Layer 1
370
     0
100
AcDbVertex
100
AcDb2dVertex
 10
-169.5453455942837
 20
-709.5836538186204
 30
0.0
  0
SEQEND
  5
122
330
11B
100
AcDbEntity
  8
Layer 1
370
     0
  0
HATCH
  5
121
330
97
100
AcDbEntity
  8
Layer 1
 62
   178
420
        0
100
AcDbHatch
 10
0.0
 20
0.0
 30
0.0
210
0.0
220
0.0
230
1.0
  2
SOLID
 70
     1
 71
     0
 91
        1
 92
        1
 93
        4
 72
     1
 10
-169.5453455942837
 20
-709.5836538186204
 11
-218.4082794941951
 21
-709.5836538186204
 72
     1
 10
-218.4082794941951
 20
-709.5836538186204
 11
-218.4006999189495
 21
-710.1136538184867
 72
     1
 10
-218.4006999189495
 20
-710.1136538184867
 11
-169.5529134327429
 21
-710.1136538184867
 72
     1
 10
-169.5529134327429
 20
-710.1136538184867
 11
-169.5453455942837
 21
-709.5836538186204
 97
        0
 75
     0
 76
     1
 98
        0
  0
POLYLINE
  5
123
330
97
100
AcDbEntity
  8
Layer 1
370
     0
100
AcDb2dPolyline
 66
     1
 10
0.0
 20
0.0
 30
0.0
  0
VERTEX
  5
124
330
123
100
AcDbEntity
  8
Layer 1
370
     0
100
AcDbVertex
100
AcDb2dVertex
 10
-169.8919677921967
 20
-733.8576538125525
 30
0.0
  0
VERTEX
  5
125
330
123
100
AcDbEntity
  8
Layer 1
370
     0
100
AcDbVertex
100
AcDb2dVertex
 10
-218.0611349478679
 20
-733.8576538125525
 30
0.0
  0
VERTEX
  5
126
330
123
100
AcDbEntity
  8
Layer 1
370
     0
100
AcDbVertex
100
AcDb2dVertex
 10
-218.0535553726191
 20
-734.3876538124189
 30
0.0
  0
VERTEX
  5
127
330
123
100
AcDbEntity
  8
Layer 1
370
     0
100
AcDbVertex
100
AcDb2dVertex
 10
-169.8995350136549
 20
-734.3876538124189
 30
0.0
  0
VERTEX
  5
128
330
123
100
AcDbEntity
  8
Layer 1
370
     0
100
AcDbVertex
100
AcDb2dVertex
 10
-169.8919677921967
 20
-733.8576538125525
 30
0.0
  0
SEQEND
  5
12A
330
123
100
AcDbEntity
  8
Layer 1
370
     0
  0
HATCH
  5
129
330
97
100
AcDbEntity
  8
Layer 1
 62
   178
420
        0
100
AcDbHatch
 10
0.0
 20
0.0
 30
0.0
210
0.0
220
0.0
230
1.0
  2
SOLID
 70
     1
 71
     0
 91
        1
 92
        1
 93
        4
 72
     1
 10
-169.8919677921967
 20
-733.8576538125525
 11
-218.0611349478679
 21
-733.8576538125525
 72
     1
 10
-218.0611349478679
 20
-733.8576538125525
 11
-218.0535553726191
 21
-734.3876538124189
 72
     1
 10
-218.0535553726191
 20
-734.3876538124189
 11
-169.8995350136549
 21
-734.3876538124189
 72
     1
 10
-169.8995350136549
 20
-734.3876538124189
 11
-169.8919677921967
 21
-733.8576538125525
 97
        0
 75
     0
 76
     1
 98
        0
  0
POLYLINE
  5
12B
330
97
100
AcDbEntity
  8
Layer 1
370
     0
100
AcDb2dPolyline
 66
     1
 10
0.0
 20
0.0
 30
0.0
  0
VERTEX
  5
12C
330
12B
100
AcDbEntity
  8
Layer 1
370
     0
100
AcDbVertex
100
AcDb2dVertex
 10
-170.2592011470522
 20
-759.5746538061215
 30
0.0
  0
VERTEX
  5
12D
330
12B
100
AcDbEntity
  8
Layer 1
370
     0
100
AcDbVertex
100
AcDb2dVertex
 10
-217.6933539353475
 20
-759.5746538061215
 30
0.0
  0
VERTEX
  5
12E
330
12B
100
AcDbEntity
  8
Layer 1
370
     0
100
AcDbVertex
100
AcDb2dVertex
 10
-217.6857743600983
 20
-760.1046538059873
 30
0.0
  0
VERTEX
  5
12F
330
12B
100
AcDbEntity
  8
Layer 1
370
     0
100
AcDbVertex
100
AcDb2dVertex
 10
-170.2667668196571
 20
-760.1046538059873
 30
0.0
  0
VERTEX
  5
130
330
12B
100
AcDbEntity
  8
Layer 1
370
     0
100
AcDbVertex
100
AcDb2dVertex
 10
-170.2592011470522
 20
-759.5746538061215
 30
0.0
  0
SEQEND
  5
132
330
12B
100
AcDbEntity
  8
Layer 1
370
     0
  0
HATCH
  5
131
330
97
100
AcDbEntity
  8
Layer 1
 62
   178
420
        0
100
AcDbHatch
 10
0.0
 20
0.0
 30
0.0
210
0.0
220
0.0
230
1.0
  2
SOLID
 70
     1
 71
     0
 91
        1
 92
        1
 93
        4
 72
     1
 10
-170.2592011470522
 20
-759.5746538061215
 11
-217.6933539353475
 21
-759.5746538061215
 72
     1
 10
-217.6933539353475
 20
-759.5746538061215
 11
-217.6857743600983
 21
-760.1046538059873
 72
     1
 10
-217.6857743600983
 20
-760.1046538059873
 11
-170.2667668196571
 21
-760.1046538059873
 72
     1
 10
-170.2667668196571
 20
-760.1046538059873
 11
-170.2592011470522
 21
-759.5746538061215
 97
        0
 75
     0
 76
     1
 98
        0
  0
POLYLINE
  5
133
330
97
100
AcDbEntity
  8
Layer 1
370
     0
100
AcDb2dPolyline
 66
     1
 10
0.0
 20
0.0
 30
0.0
  0
VERTEX
  5
134
330
133
100
AcDbEntity
  8
Layer 1
370
     0
100
AcDbVertex
100
AcDb2dVertex
 10
-170.6482610387668
 20
-786.8206537993095
 30
0.0
  0
VERTEX
  5
135
330
133
100
AcDbEntity
  8
Layer 1
370
     0
100
AcDbVertex
100
AcDb2dVertex
 10
-217.3037065632898
 20
-786.8206537993095
 30
0.0
  0
VERTEX
  5
136
330
133
100
AcDbEntity
  8
Layer 1
370
     0
100
AcDbVertex
100
AcDb2dVertex
 10
-217.2961269880445
 20
-787.3506537991784
 30
0.0
  0
VERTEX
  5
137
330
133
100
AcDbEntity
  8
Layer 1
370
     0
100
AcDbVertex
100
AcDb2dVertex
 10
-170.6558319062572
 20
-787.3506537991784
 30
0.0
  0
VERTEX
  5
138
330
133
100
AcDbEntity
  8
Layer 1
370
     0
100
AcDbVertex
100
AcDb2dVertex
 10
-170.6482610387668
 20
-786.8206537993095
 30
0.0
  0
SEQEND
  5
13A
330
133
100
AcDbEntity
  8
Layer 1
370
     0
  0
HATCH
  5
139
330
97
100
AcDbEntity
  8
Layer 1
 62
   178
420
        0
100
AcDbHatch
 10
0.0
 20
0.0
 30
0.0
210
0.0
220
0.0
230
1.0
  2
SOLID
 70
     1
 71
     0
 91
        1
 92
        1
 93
        4
 72
     1
 10
-170.6482610387668
 20
-786.8206537993095
 11
-217.3037065632898
 21
-786.8206537993095
 72
     1
 10
-217.3037065632898
 20
-786.8206537993095
 11
-217.2961269880445
 21
-787.3506537991784
 72
     1
 10
-217.2961269880445
 20
-787.3506537991784
 11
-170.6558319062572
 21
-787.3506537991784
 72
     1
 10
-170.6558319062572
 20
-787.3506537991784
 11
-170.6482610387668
 21
-786.8206537993095
 97
        0
 75
     0
 76
     1
 98
        0
  0
POLYLINE
  5
13B
330
97
100
AcDbEntity
  8
Layer 1
370
     0
100
AcDb2dPolyline
 66
     1
 10
0.0
 20
0.0
 30
0.0
  0
VERTEX
  5
13C
330
13B
100
AcDbEntity
  8
Layer 1
370
     0
100
AcDbVertex
100
AcDb2dVertex
 10
-171.0604739642929
 20
-815.6876537920949
 30
0.0
  0
VERTEX
  5
13D
330
13B
100
AcDbEntity
  8
Layer 1
370
     0
100
AcDbVertex
100
AcDb2dVertex
 10
-216.8908771318462
 20
-815.6876537920949
 30
0.0
  0
VERTEX
  5
13E
330
13B
100
AcDbEntity
  8
Layer 1
370
     0
100
AcDbVertex
100
AcDb2dVertex
 10
-216.8832975565974
 20
-816.2176537919612
 30
0.0
  0
VERTEX
  5
13F
330
13B
100
AcDbEntity
  8
Layer 1
370
     0
100
AcDbVertex
100
AcDb2dVertex
 10
-171.0680434270785
 20
-816.2176537919612
 30
0.0
  0
VERTEX
  5
140
330
13B
100
AcDbEntity
  8
Layer 1
370
     0
100
AcDbVertex
100
AcDb2dVertex
 10
-171.0604739642929
 20
-815.6876537920949
 30
0.0
  0
SEQEND
  5
142
330
13B
100
AcDbEntity
  8
Layer 1
370
     0
  0
HATCH
  5
141
330
97
100
AcDbEntity
  8
Layer 1
 62
   178
420
        0
100
AcDbHatch
 10
0.0
 20
0.0
 30
0.0
210
0.0
220
0.0
230
1.0
  2
SOLID
 70
     1
 71
     0
 91
        1
 92
        1
 93
        4
 72
     1
 10
-171.0604739642929
 20
-815.6876537920949
 11
-216.8908771318462
 21
-815.6876537920949
 72
     1
 10
-216.8908771318462
 20
-815.6876537920949
 11
-216.8832975565974
 21
-816.2176537919612
 72
     1
 10
-216.8832975565974
 20
-816.2176537919612
 11
-171.0680434270785
 21
-816.2176537919612
 72
     1
 10
-171.0680434270785
 20
-816.2176537919612
 11
-171.0604739642929
 21
-815.6876537920949
 97
        0
 75
     0
 76
     1
 98
        0
  0
POLYLINE
  5
143
330
97
100
AcDbEntity
  8
Layer 1
370
     0
100
AcDb2dPolyline
 66
     1
 10
0.0
 20
0.0
 30
0.0
  0
VERTEX
  5
144
330
143
100
AcDbEntity
  8
Layer 1
370
     0
100
AcDbVertex
100
AcDb2dVertex
 10
-171.4971901807185
 20
-846.2706537844467
 30
0.0
  0
VERTEX
  5
145
330
143
100
AcDbEntity
  8
Layer 1
370
     0
100
AcDbVertex
100
AcDb2dVertex
 10
-216.4535070379043
 20
-846.2706537844467
 30
0.0
  0
VERTEX
  5
146
330
143
100
AcDbEntity
  8
Layer 1
370
     0
100
AcDbVertex
100
AcDb2dVertex
 10
-216.4459274626555
 20
-846.8006537843163
 30
0.0
  0
VERTEX
  5
147
330
143
100
AcDbEntity
  8
Layer 1
370
     0
100
AcDbVertex
100
AcDb2dVertex
 10
-171.504754848503
 20
-846.8006537843163
 30
0.0
  0
VERTEX
  5
148
330
143
100
AcDbEntity
  8
Layer 1
370
     0
100
AcDbVertex
100
AcDb2dVertex
 10
-171.4971901807185
 20
-846.2706537844467
 30
0.0
  0
SEQEND
  5
14A
330
143
100
AcDbEntity
  8
Layer 1
370
     0
  0
HATCH
  5
149
330
97
100
AcDbEntity
  8
Layer 1
 62
   178
420
        0
100
AcDbHatch
 10
0.0
 20
0.0
 30
0.0
210
0.0
220
0.0
230
1.0
  2
SOLID
 70
     1
 71
     0
 91
        1
 92
        1
 93
        4
 72
     1
 10
-171.4971901807185
 20
-846.2706537844467
 11
-216.4535070379043
 21
-846.2706537844467
 72
     1
 10
-216.4535070379043
 20
-846.2706537844467
 11
-216.4459274626555
 21
-846.8006537843163
 72
     1
 10
-216.4459274626555
 20
-846.8006537843163
 11
-171.504754848503
 21
-846.8006537843163
 72
     1
 10
-171.504754848503
 20
-846.8006537843163
 11
-171.4971901807185
 21
-846.2706537844467
 97
        0
 75
     0
 76
     1
 98
        0
  0
POLYLINE
  5
14B
330
97
100
AcDbEntity
  8
Layer 1
370
     0
100
AcDb2dPolyline
 66
     1
 10
0.0
 20
0.0
 30
0.0
  0
VERTEX
  5
14C
330
14B
100
AcDbEntity
  8
Layer 1
370
     0
100
AcDbVertex
100
AcDb2dVertex
 10
-171.9598650964549
 20
-878.6716537763468
 30
0.0
  0
VERTEX
  5
14D
330
14B
100
AcDbEntity
  8
Layer 1
370
     0
100
AcDbVertex
100
AcDb2dVertex
 10
-215.9901375707531
 20
-878.6716537763468
 30
0.0
  0
VERTEX
  5
14E
330
14B
100
AcDbEntity
  8
Layer 1
370
     0
100
AcDbVertex
100
AcDb2dVertex
 10
-215.9825579955042
 20
-879.2016537762164
 30
0.0
  0
VERTEX
  5
14F
330
14B
100
AcDbEntity
  8
Layer 1
370
     0
100
AcDbVertex
100
AcDb2dVertex
 10
-171.9674333547797
 20
-879.2016537762164
 30
0.0
  0
VERTEX
  5
150
330
14B
100
AcDbEntity
  8
Layer 1
370
     0
100
AcDbVertex
100
AcDb2dVertex
 10
-171.9598650964549
 20
-878.6716537763468
 30
0.0
  0
SEQEND
  5
152
330
14B
100
AcDbEntity
  8
Layer 1
370
     0
  0
HATCH
  5
151
330
97
100
AcDbEntity
  8
Layer 1
 62
   178
420
        0
100
AcDbHatch
 10
0.0
 20
0.0
 30
0.0
210
0.0
220
0.0
230
1.0
  2
SOLID
 70
     1
 71
     0
 91
        1
 92
        1
 93
        4
 72
     1
 10
-171.9598650964549
 20
-878.6716537763468
 11
-215.9901375707531
 21
-878.6716537763468
 72
     1
 10
-215.9901375707531
 20
-878.6716537763468
 11
-215.9825579955042
 21
-879.2016537762164
 72
     1
 10
-215.9825579955042
 20
-879.2016537762164
 11
-171.9674333547797
 21
-879.2016537762164
 72
     1
 10
-171.9674333547797
 20
-879.2016537762164
 11
-171.9598650964549
 21
-878.6716537763468
 97
        0
 75
     0
 76
     1
 98
        0
  0
POLYLINE
  5
153
330
97
100
AcDbEntity
  8
Layer 1
370
     0
100
AcDb2dPolyline
 66
     1
 10
0.0
 20
0.0
 30
0.0
  0
VERTEX
  5
154
330
153
100
AcDbEntity
  8
Layer 1
370
     0
100
AcDbVertex
100
AcDb2dVertex
 10
-172.4473329825803
 20
-912.8091038883638
 30
0.0
  0
VERTEX
  5
155
330
153
100
AcDbEntity
  8
Layer 1
370
     0
100
AcDbVertex
100
AcDb2dVertex
 10
-215.501934681339
 20
-912.8091038883638
 30
0.0
  0
VERTEX
  5
156
330
153
100
AcDbEntity
  8
Layer 1
370
     0
100
AcDbVertex
100
AcDb2dVertex
 10
-215.494356033599
 20
-913.3391038882332
 30
0.0
  0
VERTEX
  5
157
330
153
100
AcDbEntity
  8
Layer 1
370
     0
100
AcDbVertex
100
AcDb2dVertex
 10
-172.4549039237204
 20
-913.3391038882332
 30
0.0
  0
VERTEX
  5
158
330
153
100
AcDbEntity
  8
Layer 1
370
     0
100
AcDbVertex
100
AcDb2dVertex
 10
-172.4473329825803
 20
-912.8091038883638
 30
0.0
  0
SEQEND
  5
15A
330
153
100
AcDbEntity
  8
Layer 1
370
     0
  0
HATCH
  5
159
330
97
100
AcDbEntity
  8
Layer 1
 62
   178
420
        0
100
AcDbHatch
 10
0.0
 20
0.0
 30
0.0
210
0.0
220
0.0
230
1.0
  2
SOLID
 70
     1
 71
     0
 91
        1
 92
        1
 93
        4
 72
     1
 10
-172.4473329825803
 20
-912.8091038883638
 11
-215.501934681339
 21
-912.8091038883638
 72
     1
 10
-215.501934681339
 20
-912.8091038883638
 11
-215.494356033599
 21
-913.3391038882332
 72
     1
 10
-215.494356033599
 20
-913.3391038882332
 11
-172.4549039237204
 21
-913.3391038882332
 72
     1
 10
-172.4549039237204
 20
-913.3391038882332
 11
-172.4473329825803
 21
-912.8091038883638
 97
        0
 75
     0
 76
     1
 98
        0
  0
ENDBLK
  5
9A
330
97
100
AcDbEntity
  8
0
100
AcDbBlockEnd
  0
BLOCK
  5
15D
330
15B
100
AcDbEntity
  8
0
100
AcDbBlockBegin
  2
block 12
 70
     0
 10
0.0
 20
0.0
 30
0.0
  3
block 12
  1

  0
INSERT
  5
160
330
15B
100
AcDbEntity
  8
Layer 1
100
AcDbBlockReference
  2
block 13
 10
0.0
 20
0.0
 30
0.0
  0
INSERT
  5
170
330
15B
100
AcDbEntity
  8
Layer 1
100
AcDbBlockReference
  2
block 15
 10
0.0
 20
0.0
 30
0.0
  0
INSERT
  5
1AC
330
15B
100
AcDbEntity
  8
Layer 1
100
AcDbBlockReference
  2
block 16
 10
0.0
 20
0.0
 30
0.0
  0
ENDBLK
  5
15E
330
15B
100
AcDbEntity
  8
0
100
AcDbBlockEnd
  0
BLOCK
  5
161
330
15F
100
AcDbEntity
  8
0
100
AcDbBlockBegin
  2
block 13
 70
     0
 10
0.0
 20
0.0
 30
0.0
  3
block 13
  1

  0
INSERT
  5
164
330
15F
100
AcDbEntity
  8
Layer 1
100
AcDbBlockReference
  2
block 14
 10
0.0
 20
0.0
 30
0.0
  0
ENDBLK
  5
162
330
15F
100
AcDbEntity
  8
0
100
AcDbBlockEnd
  0
BLOCK
  5
165
330
163
100
AcDbEntity
  8
0
100
AcDbBlockBegin
  2
block 14
 70
     0
 10
0.0
 20
0.0
 30
0.0
  3
block 14
  1

  0
POLYLINE
  5
167
330
163
100
AcDbEntity
  8
Layer 1
370
     0
100
AcDb2dPolyline
 66
     1
 10
0.0
 20
0.0
 30
0.0
  0
VERTEX
  5
168
330
167
100
AcDbEntity
  8
Layer 1
370
     0
100
AcDbVertex
100
AcDb2dVertex
 10
-214.9794058368259
 20
-949.7080943806286
 30
0.0
  0
VERTEX
  5
169
330
167
100
AcDbEntity
  8
Layer 1
370
     0
100
AcDbVertex
100
AcDb2dVertex
 10
-214.9794058368259
 20
-965.7081513427744
 30
0.0
  0
VERTEX
  5
16A
330
167
100
AcDbEntity
  8
Layer 1
370
     0
100
AcDbVertex
100
AcDb2dVertex
 10
-172.9794070341206
 20
-965.7081513427744
 30
0.0
  0
VERTEX
  5
16B
330
167
100
AcDbEntity
  8
Layer 1
370
     0
100
AcDbVertex
100
AcDb2dVertex
 10
-172.9794070341206
 20
-949.7080943806286
 30
0.0
  0
VERTEX
  5
16C
330
167
100
AcDbEntity
  8
Layer 1
370
     0
100
AcDbVertex
100
AcDb2dVertex
 10
-214.9794058368259
 20
-949.7080943806286
 30
0.0
  0
SEQEND
  5
16E
330
167
100
AcDbEntity
  8
Layer 1
370
     0
  0
HATCH
  5
16D
330
163
100
AcDbEntity
  8
Layer 1
 62
   162
420
   995537
100
AcDbHatch
 10
0.0
 20
0.0
 30
0.0
210
0.0
220
0.0
230
1.0
  2
SOLID
 70
     1
 71
     0
 91
        1
 92
        1
 93
        4
 72
     1
 10
-214.9794058368259
 20
-949.7080943806286
 11
-214.9794058368259
 21
-965.7081513427744
 72
     1
 10
-214.9794058368259
 20
-965.7081513427744
 11
-172.9794070341206
 21
-965.7081513427744
 72
     1
 10
-172.9794070341206
 20
-965.7081513427744
 11
-172.9794070341206
 21
-949.7080943806286
 72
     1
 10
-172.9794070341206
 20
-949.7080943806286
 11
-214.9794058368259
 21
-949.7080943806286
 97
        0
 75
     0
 76
     1
 98
        0
  0
ENDBLK
  5
166
330
163
100
AcDbEntity
  8
0
100
AcDbBlockEnd
  0
BLOCK
  5
171
330
16F
100
AcDbEntity
  8
0
100
AcDbBlockBegin
  2
block 15
 70
     0
 10
0.0
 20
0.0
 30
0.0
  3
block 15
  1

  0
POLYLINE
  5
173
330
16F
100
AcDbEntity
  8
Layer 1
370
     0
100
AcDb2dPolyline
 66
     1
 10
0.0
 20
0.0
 30
0.0
  0
VERTEX
  5
174
330
173
100
AcDbEntity
  8
Layer 1
370
     0
100
AcDbVertex
100
AcDb2dVertex
 10
-172.9744017100239
 20
-949.7081038791387
 30
0.0
  0
VERTEX
  5
175
330
173
100
AcDbEntity
  8
Layer 1
370
     0
100
AcDbVertex
100
AcDb2dVertex
 10
-176.474401709149
 20
-949.7081038791387
 30
0.0
  0
VERTEX
  5
176
330
173
100
AcDbEntity
  8
Layer 1
370
     0
100
AcDbVertex
100
AcDb2dVertex
 10
-176.474401709149
 20
-951.7081038786382
 30
0.0
  0
VERTEX
  5
177
330
173
100
AcDbEntity
  8
Layer 1
370
     0
100
AcDbVertex
100
AcDb2dVertex
 10
-172.9744017100239
 20
-951.7081038786382
 30
0.0
  0
VERTEX
  5
178
330
173
100
AcDbEntity
  8
Layer 1
370
     0
100
AcDbVertex
100
AcDb2dVertex
 10
-172.9744017100239
 20
-949.7081038791387
 30
0.0
  0
SEQEND
  5
17A
330
173
100
AcDbEntity
  8
Layer 1
370
     0
  0
HATCH
  5
179
330
16F
100
AcDbEntity
  8
Layer 1
 62
    20
420
 15872005
100
AcDbHatch
 10
0.0
 20
0.0
 30
0.0
210
0.0
220
0.0
230
1.0
  2
SOLID
 70
     1
 71
     0
 91
        1
 92
        1
 93
        4
 72
     1
 10
-172.9744017100239
 20
-949.7081038791387
 11
-176.474401709149
 21
-949.7081038791387
 72
     1
 10
-176.474401709149
 20
-949.7081038791387
 11
-176.474401709149
 21
-951.7081038786382
 72
     1
 10
-176.474401709149
 20
-951.7081038786382
 11
-172.9744017100239
 21
-951.7081038786382
 72
     1
 10
-172.9744017100239
 20
-951.7081038786382
 11
-172.9744017100239
 21
-949.7081038791387
 97
        0
 75
     0
 76
     1
 98
        0
  0
POLYLINE
  5
17B
330
16F
100
AcDbEntity
  8
Layer 1
370
     0
100
AcDb2dPolyline
 66
     1
 10
0.0
 20
0.0
 30
0.0
  0
VERTEX
  5
17C
330
17B
100
AcDbEntity
  8
Layer 1
370
     0
100
AcDbVertex
100
AcDb2dVertex
 10
-176.474401709149
 20
-949.7081038791387
 30
0.0
  0
VERTEX
  5
17D
330
17B
100
AcDbEntity
  8
Layer 1
370
     0
100
AcDbVertex
100
AcDb2dVertex
 10
-183.4744017073994
 20
-949.7081038791387
 30
0.0
  0
VERTEX
  5
17E
330
17B
100
AcDbEntity
  8
Layer 1
370
     0
100
AcDbVertex
100
AcDb2dVertex
 10
-183.4744017073994
 20
-951.7081038786382
 30
0.0
  0
VERTEX
  5
17F
330
17B
100
AcDbEntity
  8
Layer 1
370
     0
100
AcDbVertex
100
AcDb2dVertex
 10
-176.474401709149
 20
-951.7081038786382
 30
0.0
  0
VERTEX
  5
180
330
17B
100
AcDbEntity
  8
Layer 1
370
     0
100
AcDbVertex
100
AcDb2dVertex
 10
-176.474401709149
 20
-949.7081038791387
 30
0.0
  0
SEQEND
  5
182
330
17B
100
AcDbEntity
  8
Layer 1
370
     0
  0
HATCH
  5
181
330
16F
100
AcDbEntity
  8
Layer 1
 62
    20
420
 15872005
100
AcDbHatch
 10
0.0
 20
0.0
 30
0.0
210
0.0
220
0.0
230
1.0
  2
SOLID
 70
     1
 71
     0
 91
        1
 92
        1
 93
        4
 72
     1
 10
-176.474401709149
 20
-949.7081038791387
 11
-183.4744017073994
 21
-949.7081038791387
 72
     1
 10
-183.4744017073994
 20
-949.7081038791387
 11
-183.4744017073994
 21
-951.7081038786382
 72
     1
 10
-183.4744017073994
 20
-951.7081038786382
 11
-176.474401709149
 21
-951.7081038786382
 72
     1
 10
-176.474401709149
 20
-951.7081038786382
 11
-176.474401709149
 21
-949.7081038791387
 97
        0
 75
     0
 76
     1
 98
        0
  0
POLYLINE
  5
183
330
16F
100
AcDbEntity
  8
Layer 1
370
     0
100
AcDb2dPolyline
 66
     1
 10
0.0
 20
0.0
 30
0.0
  0
VERTEX
  5
184
330
183
100
AcDbEntity
  8
Layer 1
370
     0
100
AcDbVertex
100
AcDb2dVertex
 10
-190.4744017056497
 20
-949.7081038791387
 30
0.0
  0
VERTEX
  5
185
330
183
100
AcDbEntity
  8
Layer 1
370
     0
100
AcDbVertex
100
AcDb2dVertex
 10
-197.4744017038997
 20
-949.7081038791387
 30
0.0
  0
VERTEX
  5
186
330
183
100
AcDbEntity
  8
Layer 1
370
     0
100
AcDbVertex
100
AcDb2dVertex
 10
-197.4744017038997
 20
-951.7081038786382
 30
0.0
  0
VERTEX
  5
187
330
183
100
AcDbEntity
  8
Layer 1
370
     0
100
AcDbVertex
100
AcDb2dVertex
 10
-190.4744017056497
 20
-951.7081038786382
 30
0.0
  0
VERTEX
  5
188
330
183
100
AcDbEntity
  8
Layer 1
370
     0
100
AcDbVertex
100
AcDb2dVertex
 10
-190.4744017056497
 20
-949.7081038791387
 30
0.0
  0
SEQEND
  5
18A
330
183
100
AcDbEntity
  8
Layer 1
370
     0
  0
HATCH
  5
189
330
16F
100
AcDbEntity
  8
Layer 1
 62
    20
420
 15872005
100
AcDbHatch
 10
0.0
 20
0.0
 30
0.0
210
0.0
220
0.0
230
1.0
  2
SOLID
 70
     1
 71
     0
 91
        1
 92
        1
 93
        4
 72
     1
 10
-190.4744017056497
 20
-949.7081038791387
 11
-197.4744017038997
 21
-949.7081038791387
 72
     1
 10
-197.4744017038997
 20
-949.7081038791387
 11
-197.4744017038997
 21
-951.7081038786382
 72
     1
 10
-197.4744017038997
 20
-951.7081038786382
 11
-190.4744017056497
 21
-951.7081038786382
 72
     1
 10
-190.4744017056497
 20
-951.7081038786382
 11
-190.4744017056497
 21
-949.7081038791387
 97
        0
 75
     0
 76
     1
 98
        0
  0
POLYLINE
  5
18B
330
16F
100
AcDbEntity
  8
Layer 1
370
     0
100
AcDb2dPolyline
 66
     1
 10
0.0
 20
0.0
 30
0.0
  0
VERTEX
  5
18C
330
18B
100
AcDbEntity
  8
Layer 1
370
     0
100
AcDbVertex
100
AcDb2dVertex
 10
-183.4744017073994
 20
-949.7081038791387
 30
0.0
  0
VERTEX
  5
18D
330
18B
100
AcDbEntity
  8
Layer 1
370
     0
100
AcDbVertex
100
AcDb2dVertex
 10
-190.4744017056497
 20
-949.7081038791387
 30
0.0
  0
VERTEX
  5
18E
330
18B
100
AcDbEntity
  8
Layer 1
370
     0
100
AcDbVertex
100
AcDb2dVertex
 10
-190.4744017056497
 20
-951.7081038786382
 30
0.0
  0
VERTEX
  5
18F
330
18B
100
AcDbEntity
  8
Layer 1
370
     0
100
AcDbVertex
100
AcDb2dVertex
 10
-183.4744017073994
 20
-951.7081038786382
 30
0.0
  0
VERTEX
  5
190
330
18B
100
AcDbEntity
  8
Layer 1
370
     0
100
AcDbVertex
100
AcDb2dVertex
 10
-183.4744017073994
 20
-949.7081038791387
 30
0.0
  0
SEQEND
  5
192
330
18B
100
AcDbEntity
  8
Layer 1
370
     0
  0
HATCH
  5
191
330
16F
100
AcDbEntity
  8
Layer 1
 62
    20
420
 15872005
100
AcDbHatch
 10
0.0
 20
0.0
 30
0.0
210
0.0
220
0.0
230
1.0
  2
SOLID
 70
     1
 71
     0
 91
        1
 92
        1
 93
        4
 72
     1
 10
-183.4744017073994
 20
-949.7081038791387
 11
-190.4744017056497
 21
-949.7081038791387
 72
     1
 10
-190.4744017056497
 20
-949.7081038791387
 11
-190.4744017056497
 21
-951.7081038786382
 72
     1
 10
-190.4744017056497
 20
-951.7081038786382
 11
-183.4744017073994
 21
-951.7081038786382
 72
     1
 10
-183.4744017073994
 20
-951.7081038786382
 11
-183.4744017073994
 21
-949.7081038791387
 97
        0
 75
     0
 76
     1
 98
        0
  0
POLYLINE
  5
193
330
16F
100
AcDbEntity
  8
Layer 1
370
     0
100
AcDb2dPolyline
 66
     1
 10
0.0
 20
0.0
 30
0.0
  0
VERTEX
  5
194
330
193
100
AcDbEntity
  8
Layer 1
370
     0
100
AcDbVertex
100
AcDb2dVertex
 10
-197.4744017038997
 20
-949.7081038791387
 30
0.0
  0
VERTEX
  5
195
330
193
100
AcDbEntity
  8
Layer 1
370
     0
100
AcDbVertex
100
AcDb2dVertex
 10
-204.4744017021497
 20
-949.7081038791387
 30
0.0
  0
VERTEX
  5
196
330
193
100
AcDbEntity
  8
Layer 1
370
     0
100
AcDbVertex
100
AcDb2dVertex
 10
-204.4744017021497
 20
-951.7081038786382
 30
0.0
  0
VERTEX
  5
197
330
193
100
AcDbEntity
  8
Layer 1
370
     0
100
AcDbVertex
100
AcDb2dVertex
 10
-197.4744017038997
 20
-951.7081038786382
 30
0.0
  0
VERTEX
  5
198
330
193
100
AcDbEntity
  8
Layer 1
370
     0
100
AcDbVertex
100
AcDb2dVertex
 10
-197.4744017038997
 20
-949.7081038791387
 30
0.0
  0
SEQEND
  5
19A
330
193
100
AcDbEntity
  8
Layer 1
370
     0
  0
HATCH
  5
199
330
16F
100
AcDbEntity
  8
Layer 1
 62
    20
420
 15872005
100
AcDbHatch
 10
0.0
 20
0.0
 30
0.0
210
0.0
220
0.0
230
1.0
  2
SOLID
 70
     1
 71
     0
 91
        1
 92
        1
 93
        4
 72
     1
 10
-197.4744017038997
 20
-949.7081038791387
 11
-204.4744017021497
 21
-949.7081038791387
 72
     1
 10
-204.4744017021497
 20
-949.7081038791387
 11
-204.4744017021497
 21
-951.7081038786382
 72
     1
 10
-204.4744017021497
 20
-951.7081038786382
 11
-197.4744017038997
 21
-951.7081038786382
 72
     1
 10
-197.4744017038997
 20
-951.7081038786382
 11
-197.4744017038997
 21
-949.7081038791387
 97
        0
 75
     0
 76
     1
 98
        0
  0
POLYLINE
  5
19B
330
16F
100
AcDbEntity
  8
Layer 1
370
     0
100
AcDb2dPolyline
 66
     1
 10
0.0
 20
0.0
 30
0.0
  0
VERTEX
  5
19C
330
19B
100
AcDbEntity
  8
Layer 1
370
     0
100
AcDbVertex
100
AcDb2dVertex
 10
-204.4744017021497
 20
-949.7081038791387
 30
0.0
  0
VERTEX
  5
19D
330
19B
100
AcDbEntity
  8
Layer 1
370
     0
100
AcDbVertex
100
AcDb2dVertex
 10
-211.4744017004001
 20
-949.7081038791387
 30
0.0
  0
VERTEX
  5
19E
330
19B
100
AcDbEntity
  8
Layer 1
370
     0
100
AcDbVertex
100
AcDb2dVertex
 10
-211.4744017004001
 20
-951.7081038786382
 30
0.0
  0
VERTEX
  5
19F
330
19B
100
AcDbEntity
  8
Layer 1
370
     0
100
AcDbVertex
100
AcDb2dVertex
 10
-204.4744017021497
 20
-951.7081038786382
 30
0.0
  0
VERTEX
  5
1A0
330
19B
100
AcDbEntity
  8
Layer 1
370
     0
100
AcDbVertex
100
AcDb2dVertex
 10
-204.4744017021497
 20
-949.7081038791387
 30
0.0
  0
SEQEND
  5
1A2
330
19B
100
AcDbEntity
  8
Layer 1
370
     0
  0
HATCH
  5
1A1
330
16F
100
AcDbEntity
  8
Layer 1
 62
    20
420
 15872005
100
AcDbHatch
 10
0.0
 20
0.0
 30
0.0
210
0.0
220
0.0
230
1.0
  2
SOLID
 70
     1
 71
     0
 91
        1
 92
        1
 93
        4
 72
     1
 10
-204.4744017021497
 20
-949.7081038791387
 11
-211.4744017004001
 21
-949.7081038791387
 72
     1
 10
-211.4744017004001
 20
-949.7081038791387
 11
-211.4744017004001
 21
-951.7081038786382
 72
     1
 10
-211.4744017004001
 20
-951.7081038786382
 11
-204.4744017021497
 21
-951.7081038786382
 72
     1
 10
-204.4744017021497
 20
-951.7081038786382
 11
-204.4744017021497
 21
-949.7081038791387
 97
        0
 75
     0
 76
     1
 98
        0
  0
POLYLINE
  5
1A3
330
16F
100
AcDbEntity
  8
Layer 1
370
     0
100
AcDb2dPolyline
 66
     1
 10
0.0
 20
0.0
 30
0.0
  0
VERTEX
  5
1A4
330
1A3
100
AcDbEntity
  8
Layer 1
370
     0
100
AcDbVertex
100
AcDb2dVertex
 10
-211.4844396798666
 20
-949.7081038791387
 30
0.0
  0
VERTEX
  5
1A5
330
1A3
100
AcDbEntity
  8
Layer 1
370
     0
100
AcDbVertex
100
AcDb2dVertex
 10
-214.9844396789918
 20
-949.7081038791387
 30
0.0
  0
VERTEX
  5
1A6
330
1A3
100
AcDbEntity
  8
Layer 1
370
     0
100
AcDbVertex
100
AcDb2dVertex
 10
-214.9844396789918
 20
-951.7081038786382
 30
0.0
  0
VERTEX
  5
1A7
330
1A3
100
AcDbEntity
  8
Layer 1
370
     0
100
AcDbVertex
100
AcDb2dVertex
 10
-211.4844396798666
 20
-951.7081038786382
 30
0.0
  0
VERTEX
  5
1A8
330
1A3
100
AcDbEntity
  8
Layer 1
370
     0
100
AcDbVertex
100
AcDb2dVertex
 10
-211.4844396798666
 20
-949.7081038791387
 30
0.0
  0
SEQEND
  5
1AA
330
1A3
100
AcDbEntity
  8
Layer 1
370
     0
  0
HATCH
  5
1A9
330
16F
100
AcDbEntity
  8
Layer 1
 62
    20
420
 15872005
100
AcDbHatch
 10
0.0
 20
0.0
 30
0.0
210
0.0
220
0.0
230
1.0
  2
SOLID
 70
     1
 71
     0
 91
        1
 92
        1
 93
        4
 72
     1
 10
-211.4844396798666
 20
-949.7081038791387
 11
-214.9844396789918
 21
-949.7081038791387
 72
     1
 10
-214.9844396789918
 20
-949.7081038791387
 11
-214.9844396789918
 21
-951.7081038786382
 72
     1
 10
-214.9844396789918
 20
-951.7081038786382
 11
-211.4844396798666
 21
-951.7081038786382
 72
     1
 10
-211.4844396798666
 20
-951.7081038786382
 11
-211.4844396798666
 21
-949.7081038791387
 97
        0
 75
     0
 76
     1
 98
        0
  0
ENDBLK
  5
172
330
16F
100
AcDbEntity
  8
0
100
AcDbBlockEnd
  0
BLOCK
  5
1AD
330
1AB
100
AcDbEntity
  8
0
100
AcDbBlockBegin
  2
block 16
 70
     0
 10
0.0
 20
0.0
 30
0.0
  3
block 16
  1

  0
POLYLINE
  5
1AF
330
1AB
100
AcDbEntity
  8
Layer 1
370
     0
100
AcDb2dPolyline
 66
     1
 10
0.0
 20
0.0
 30
0.0
  0
VERTEX
  5
1B0
330
1AF
100
AcDbEntity
  8
Layer 1
370
     0
100
AcDbVertex
100
AcDb2dVertex
 10
-172.9794206997555
 20
-963.7081038756393
 30
0.0
  0
VERTEX
  5
1B1
330
1AF
100
AcDbEntity
  8
Layer 1
370
     0
100
AcDbVertex
100
AcDb2dVertex
 10
-176.4794206988807
 20
-963.7081038756393
 30
0.0
  0
VERTEX
  5
1B2
330
1AF
100
AcDbEntity
  8
Layer 1
370
     0
100
AcDbVertex
100
AcDb2dVertex
 10
-176.4794206988807
 20
-965.7081038751381
 30
0.0
  0
VERTEX
  5
1B3
330
1AF
100
AcDbEntity
  8
Layer 1
370
     0
100
AcDbVertex
100
AcDb2dVertex
 10
-172.9794206997555
 20
-965.7081038751381
 30
0.0
  0
VERTEX
  5
1B4
330
1AF
100
AcDbEntity
  8
Layer 1
370
     0
100
AcDbVertex
100
AcDb2dVertex
 10
-172.9794206997555
 20
-963.7081038756393
 30
0.0
  0
SEQEND
  5
1B6
330
1AF
100
AcDbEntity
  8
Layer 1
370
     0
  0
HATCH
  5
1B5
330
1AB
100
AcDbEntity
  8
Layer 1
 62
    20
420
 15872005
100
AcDbHatch
 10
0.0
 20
0.0
 30
0.0
210
0.0
220
0.0
230
1.0
  2
SOLID
 70
     1
 71
     0
 91
        1
 92
        1
 93
        4
 72
     1
 10
-172.9794206997555
 20
-963.7081038756393
 11
-176.4794206988807
 21
-963.7081038756393
 72
     1
 10
-176.4794206988807
 20
-963.7081038756393
 11
-176.4794206988807
 21
-965.7081038751381
 72
     1
 10
-176.4794206988807
 20
-965.7081038751381
 11
-172.9794206997555
 21
-965.7081038751381
 72
     1
 10
-172.9794206997555
 20
-965.7081038751381
 11
-172.9794206997555
 21
-963.7081038756393
 97
        0
 75
     0
 76
     1
 98
        0
  0
POLYLINE
  5
1B7
330
1AB
100
AcDbEntity
  8
Layer 1
370
     0
100
AcDb2dPolyline
 66
     1
 10
0.0
 20
0.0
 30
0.0
  0
VERTEX
  5
1B8
330
1B7
100
AcDbEntity
  8
Layer 1
370
     0
100
AcDbVertex
100
AcDb2dVertex
 10
-176.4794206988807
 20
-963.7081038756393
 30
0.0
  0
VERTEX
  5
1B9
330
1B7
100
AcDbEntity
  8
Layer 1
370
     0
100
AcDbVertex
100
AcDb2dVertex
 10
-183.4794206971307
 20
-963.7081038756393
 30
0.0
  0
VERTEX
  5
1BA
330
1B7
100
AcDbEntity
  8
Layer 1
370
     0
100
AcDbVertex
100
AcDb2dVertex
 10
-183.4794206971307
 20
-965.7081038751381
 30
0.0
  0
VERTEX
  5
1BB
330
1B7
100
AcDbEntity
  8
Layer 1
370
     0
100
AcDbVertex
100
AcDb2dVertex
 10
-176.4794206988807
 20
-965.7081038751381
 30
0.0
  0
VERTEX
  5
1BC
330
1B7
100
AcDbEntity
  8
Layer 1
370
     0
100
AcDbVertex
100
AcDb2dVertex
 10
-176.4794206988807
 20
-963.7081038756393
 30
0.0
  0
SEQEND
  5
1BE
330
1B7
100
AcDbEntity
  8
Layer 1
370
     0
  0
HATCH
  5
1BD
330
1AB
100
AcDbEntity
  8
Layer 1
 62
    20
420
 15872005
100
AcDbHatch
 10
0.0
 20
0.0
 30
0.0
210
0.0
220
0.0
230
1.0
  2
SOLID
 70
     1
 71
     0
 91
        1
 92
        1
 93
        4
 72
     1
 10
-176.4794206988807
 20
-963.7081038756393
 11
-183.4794206971307
 21
-963.7081038756393
 72
     1
 10
-183.4794206971307
 20
-963.7081038756393
 11
-183.4794206971307
 21
-965.7081038751381
 72
     1
 10
-183.4794206971307
 20
-965.7081038751381
 11
-176.4794206988807
 21
-965.7081038751381
 72
     1
 10
-176.4794206988807
 20
-965.7081038751381
 11
-176.4794206988807
 21
-963.7081038756393
 97
        0
 75
     0
 76
     1
 98
        0
  0
POLYLINE
  5
1BF
330
1AB
100
AcDbEntity
  8
Layer 1
370
     0
100
AcDb2dPolyline
 66
     1
 10
0.0
 20
0.0
 30
0.0
  0
VERTEX
  5
1C0
330
1BF
100
AcDbEntity
  8
Layer 1
370
     0
100
AcDbVertex
100
AcDb2dVertex
 10
-190.4794206953807
 20
-963.7081038756393
 30
0.0
  0
VERTEX
  5
1C1
330
1BF
100
AcDbEntity
  8
Layer 1
370
     0
100
AcDbVertex
100
AcDb2dVertex
 10
-197.4794206936311
 20
-963.7081038756393
 30
0.0
  0
VERTEX
  5
1C2
330
1BF
100
AcDbEntity
  8
Layer 1
370
     0
100
AcDbVertex
100
AcDb2dVertex
 10
-197.4794206936311
 20
-965.7081038751381
 30
0.0
  0
VERTEX
  5
1C3
330
1BF
100
AcDbEntity
  8
Layer 1
370
     0
100
AcDbVertex
100
AcDb2dVertex
 10
-190.4794206953807
 20
-965.7081038751381
 30
0.0
  0
VERTEX
  5
1C4
330
1BF
100
AcDbEntity
  8
Layer 1
370
     0
100
AcDbVertex
100
AcDb2dVertex
 10
-190.4794206953807
 20
-963.7081038756393
 30
0.0
  0
SEQEND
  5
1C6
330
1BF
100
AcDbEntity
  8
Layer 1
370
     0
  0
HATCH
  5
1C5
330
1AB
100
AcDbEntity
  8
Layer 1
 62
    20
420
 15872005
100
AcDbHatch
 10
0.0
 20
0.0
 30
0.0
210
0.0
220
0.0
230
1.0
  2
SOLID
 70
     1
 71
     0
 91
        1
 92
        1
 93
        4
 72
     1
 10
-190.4794206953807
 20
-963.7081038756393
 11
-197.4794206936311
 21
-963.7081038756393
 72
     1
 10
-197.4794206936311
 20
-963.7081038756393
 11
-197.4794206936311
 21
-965.7081038751381
 72
     1
 10
-197.4794206936311
 20
-965.7081038751381
 11
-190.4794206953807
 21
-965.7081038751381
 72
     1
 10
-190.4794206953807
 20
-965.7081038751381
 11
-190.4794206953807
 21
-963.7081038756393
 97
        0
 75
     0
 76
     1
 98
        0
  0
POLYLINE
  5
1C7
330
1AB
100
AcDbEntity
  8
Layer 1
370
     0
100
AcDb2dPolyline
 66
     1
 10
0.0
 20
0.0
 30
0.0
  0
VERTEX
  5
1C8
330
1C7
100
AcDbEntity
  8
Layer 1
370
     0
100
AcDbVertex
100
AcDb2dVertex
 10
-183.4794206971307
 20
-963.7081038756393
 30
0.0
  0
VERTEX
  5
1C9
330
1C7
100
AcDbEntity
  8
Layer 1
370
     0
100
AcDbVertex
100
AcDb2dVertex
 10
-190.4794206953807
 20
-963.7081038756393
 30
0.0
  0
VERTEX
  5
1CA
330
1C7
100
AcDbEntity
  8
Layer 1
370
     0
100
AcDbVertex
100
AcDb2dVertex
 10
-190.4794206953807
 20
-965.7081038751381
 30
0.0
  0
VERTEX
  5
1CB
330
1C7
100
AcDbEntity
  8
Layer 1
370
     0
100
AcDbVertex
100
AcDb2dVertex
 10
-183.4794206971307
 20
-965.7081038751381
 30
0.0
  0
VERTEX
  5
1CC
330
1C7
100
AcDbEntity
  8
Layer 1
370
     0
100
AcDbVertex
100
AcDb2dVertex
 10
-183.4794206971307
 20
-963.7081038756393
 30
0.0
  0
SEQEND
  5
1CE
330
1C7
100
AcDbEntity
  8
Layer 1
370
     0
  0
HATCH
  5
1CD
330
1AB
100
AcDbEntity
  8
Layer 1
 62
    20
420
 15872005
100
AcDbHatch
 10
0.0
 20
0.0
 30
0.0
210
0.0
220
0.0
230
1.0
  2
SOLID
 70
     1
 71
     0
 91
        1
 92
        1
 93
        4
 72
     1
 10
-183.4794206971307
 20
-963.7081038756393
 11
-190.4794206953807
 21
-963.7081038756393
 72
     1
 10
-190.4794206953807
 20
-963.7081038756393
 11
-190.4794206953807
 21
-965.7081038751381
 72
     1
 10
-190.4794206953807
 20
-965.7081038751381
 11
-183.4794206971307
 21
-965.7081038751381
 72
     1
 10
-183.4794206971307
 20
-965.7081038751381
 11
-183.4794206971307
 21
-963.7081038756393
 97
        0
 75
     0
 76
     1
 98
        0
  0
POLYLINE
  5
1CF
330
1AB
100
AcDbEntity
  8
Layer 1
370
     0
100
AcDb2dPolyline
 66
     1
 10
0.0
 20
0.0
 30
0.0
  0
VERTEX
  5
1D0
330
1CF
100
AcDbEntity
  8
Layer 1
370
     0
100
AcDbVertex
100
AcDb2dVertex
 10
-197.4794206936311
 20
-963.7081038756393
 30
0.0
  0
VERTEX
  5
1D1
330
1CF
100
AcDbEntity
  8
Layer 1
370
     0
100
AcDbVertex
100
AcDb2dVertex
 10
-204.4794206918814
 20
-963.7081038756393
 30
0.0
  0
VERTEX
  5
1D2
330
1CF
100
AcDbEntity
  8
Layer 1
370
     0
100
AcDbVertex
100
AcDb2dVertex
 10
-204.4794206918814
 20
-965.7081038751381
 30
0.0
  0
VERTEX
  5
1D3
330
1CF
100
AcDbEntity
  8
Layer 1
370
     0
100
AcDbVertex
100
AcDb2dVertex
 10
-197.4794206936311
 20
-965.7081038751381
 30
0.0
  0
VERTEX
  5
1D4
330
1CF
100
AcDbEntity
  8
Layer 1
370
     0
100
AcDbVertex
100
AcDb2dVertex
 10
-197.4794206936311
 20
-963.7081038756393
 30
0.0
  0
SEQEND
  5
1D6
330
1CF
100
AcDbEntity
  8
Layer 1
370
     0
  0
HATCH
  5
1D5
330
1AB
100
AcDbEntity
  8
Layer 1
 62
    20
420
 15872005
100
AcDbHatch
 10
0.0
 20
0.0
 30
0.0
210
0.0
220
0.0
230
1.0
  2
SOLID
 70
     1
 71
     0
 91
        1
 92
        1
 93
        4
 72
     1
 10
-197.4794206936311
 20
-963.7081038756393
 11
-204.4794206918814
 21
-963.7081038756393
 72
     1
 10
-204.4794206918814
 20
-963.7081038756393
 11
-204.4794206918814
 21
-965.7081038751381
 72
     1
 10
-204.4794206918814
 20
-965.7081038751381
 11
-197.4794206936311
 21
-965.7081038751381
 72
     1
 10
-197.4794206936311
 20
-965.7081038751381
 11
-197.4794206936311
 21
-963.7081038756393
 97
        0
 75
     0
 76
     1
 98
        0
  0
POLYLINE
  5
1D7
330
1AB
100
AcDbEntity
  8
Layer 1
370
     0
100
AcDb2dPolyline
 66
     1
 10
0.0
 20
0.0
 30
0.0
  0
VERTEX
  5
1D8
330
1D7
100
AcDbEntity
  8
Layer 1
370
     0
100
AcDbVertex
100
AcDb2dVertex
 10
-204.4794206918814
 20
-963.7081038756393
 30
0.0
  0
VERTEX
  5
1D9
330
1D7
100
AcDbEntity
  8
Layer 1
370
     0
100
AcDbVertex
100
AcDb2dVertex
 10
-211.4794206901317
 20
-963.7081038756393
 30
0.0
  0
VERTEX
  5
1DA
330
1D7
100
AcDbEntity
  8
Layer 1
370
     0
100
AcDbVertex
100
AcDb2dVertex
 10
-211.4794206901317
 20
-965.7081038751381
 30
0.0
  0
VERTEX
  5
1DB
330
1D7
100
AcDbEntity
  8
Layer 1
370
     0
100
AcDbVertex
100
AcDb2dVertex
 10
-204.4794206918814
 20
-965.7081038751381
 30
0.0
  0
VERTEX
  5
1DC
330
1D7
100
AcDbEntity
  8
Layer 1
370
     0
100
AcDbVertex
100
AcDb2dVertex
 10
-204.4794206918814
 20
-963.7081038756393
 30
0.0
  0
SEQEND
  5
1DE
330
1D7
100
AcDbEntity
  8
Layer 1
370
     0
  0
HATCH
  5
1DD
330
1AB
100
AcDbEntity
  8
Layer 1
 62
    20
420
 15872005
100
AcDbHatch
 10
0.0
 20
0.0
 30
0.0
210
0.0
220
0.0
230
1.0
  2
SOLID
 70
     1
 71
     0
 91
        1
 92
        1
 93
        4
 72
     1
 10
-204.4794206918814
 20
-963.7081038756393
 11
-211.4794206901317
 21
-963.7081038756393
 72
     1
 10
-211.4794206901317
 20
-963.7081038756393
 11
-211.4794206901317
 21
-965.7081038751381
 72
     1
 10
-211.4794206901317
 20
-965.7081038751381
 11
-204.4794206918814
 21
-965.7081038751381
 72
     1
 10
-204.4794206918814
 20
-965.7081038751381
 11
-204.4794206918814
 21
-963.7081038756393
 97
        0
 75
     0
 76
     1
 98
        0
  0
POLYLINE
  5
1DF
330
1AB
100
AcDbEntity
  8
Layer 1
370
     0
100
AcDb2dPolyline
 66
     1
 10
0.0
 20
0.0
 30
0.0
  0
VERTEX
  5
1E0
330
1DF
100
AcDbEntity
  8
Layer 1
370
     0
100
AcDbVertex
100
AcDb2dVertex
 10
-211.4794206901317
 20
-963.7081038756393
 30
0.0
  0
VERTEX
  5
1E1
330
1DF
100
AcDbEntity
  8
Layer 1
370
     0
100
AcDbVertex
100
AcDb2dVertex
 10
-214.9794206892569
 20
-963.7081038756393
 30
0.0
  0
VERTEX
  5
1E2
330
1DF
100
AcDbEntity
  8
Layer 1
370
     0
100
AcDbVertex
100
AcDb2dVertex
 10
-214.9794206892569
 20
-965.7081038751381
 30
0.0
  0
VERTEX
  5
1E3
330
1DF
100
AcDbEntity
  8
Layer 1
370
     0
100
AcDbVertex
100
AcDb2dVertex
 10
-211.4794206901317
 20
-965.7081038751381
 30
0.0
  0
VERTEX
  5
1E4
330
1DF
100
AcDbEntity
  8
Layer 1
370
     0
100
AcDbVertex
100
AcDb2dVertex
 10
-211.4794206901317
 20
-963.7081038756393
 30
0.0
  0
SEQEND
  5
1E6
330
1DF
100
AcDbEntity
  8
Layer 1
370
     0
  0
HATCH
  5
1E5
330
1AB
100
AcDbEntity
  8
Layer 1
 62
    20
420
 15872005
100
AcDbHatch
 10
0.0
 20
0.0
 30
0.0
210
0.0
220
0.0
230
1.0
  2
SOLID
 70
     1
 71
     0
 91
        1
 92
        1
 93
        4
 72
     1
 10
-211.4794206901317
 20
-963.7081038756393
 11
-214.9794206892569
 21
-963.7081038756393
 72
     1
 10
-214.9794206892569
 20
-963.7081038756393
 11
-214.9794206892569
 21
-965.7081038751381
 72
     1
 10
-214.9794206892569
 20
-965.7081038751381
 11
-211.4794206901317
 21
-965.7081038751381
 72
     1
 10
-211.4794206901317
 20
-965.7081038751381
 11
-211.4794206901317
 21
-963.7081038756393
 97
        0
 75
     0
 76
     1
 98
        0
  0
ENDBLK
  5
1AE
330
1AB
100
AcDbEntity
  8
0
100
AcDbBlockEnd
  0
BLOCK
  5
1EB
330
1E9
100
AcDbEntity
  8
0
100
AcDbBlockBegin
  2
block 17
 70
     0
 10
0.0
 20
0.0
 30
0.0
  3
block 17
  1

  0
INSERT
  5
1EE
330
1E9
100
AcDbEntity
  8
Layer 1
100
AcDbBlockReference
  2
block 18
 10
0.0
 20
0.0
 30
0.0
  0
INSERT
  5
1F8
330
1E9
100
AcDbEntity
  8
Layer 1
100
AcDbBlockReference
  2
block 20
 10
0.0
 20
0.0
 30
0.0
  0
ENDBLK
  5
1EC
330
1E9
100
AcDbEntity
  8
0
100
AcDbBlockEnd
  0
BLOCK
  5
1EF
330
1ED
100
AcDbEntity
  8
0
100
AcDbBlockBegin
  2
block 18
 70
     0
 10
0.0
 20
0.0
 30
0.0
  3
block 18
  1

  0
INSERT
  5
1F2
330
1ED
100
AcDbEntity
  8
Layer 1
100
AcDbBlockReference
  2
block 19
 10
0.0
 20
0.0
 30
0.0
  0
ENDBLK
  5
1F0
330
1ED
100
AcDbEntity
  8
0
100
AcDbBlockEnd
  0
BLOCK
  5
1F3
330
1F1
100
AcDbEntity
  8
0
100
AcDbBlockBegin
  2
block 19
 70
     0
 10
0.0
 20
0.0
 30
0.0
  3
block 19
  1

  0
SPLINE
  5
1F5
330
1F1
100
AcDbEntity
  8
Layer 1
370
     0
100
AcDbSpline
210
0.0
220
0.0
230
1.0
 70
    11
 71
     3
 72
    50
 73
    46
 74
     0
 42
0.0000000001
 43
0.0000000001
 12
1.0
 22
0.0
 32
0.0
 13
1.0
 23
0.0
 33
0.0
 40
0.0
 40
0.0
 40
0.0
 40
0.0
 40
1.0
 40
1.0
 40
1.0
 40
2.0
 40
2.0
 40
2.0
 40
3.0
 40
3.0
 40
3.0
 40
4.0
 40
4.0
 40
4.0
 40
5.0
 40
5.0
 40
5.0
 40
6.0
 40
6.0
 40
6.0
 40
7.0
 40
7.0
 40
7.0
 40
8.0
 40
8.0
 40
8.0
 40
9.0
 40
9.0
 40
9.0
 40
10.0
 40
10.0
 40
10.0
 40
11.0
 40
11.0
 40
11.0
 40
12.0
 40
12.0
 40
12.0
 40
13.0
 40
13.0
 40
13.0
 40
14.0
 40
14.0
 40
14.0
 40
15.0
 40
15.0
 40
15.0
 40
15.0
 10
-238.9788668564879
 20
-414.8677000915956
 30
0.0
 10
-238.9788668564879
 20
-414.8677000915956
 30
0.0
 10
-238.9794051526575
 20
-385.9333766396278
 30
0.0
 10
-238.9794051526575
 20
-385.9333766396278
 30
0.0
 10
-238.9794051526575
 20
-385.9333766396278
 30
0.0
 10
-148.979407718289
 20
-385.9333766396278
 30
0.0
 10
-148.979407718289
 20
-385.9333766396278
 30
0.0
 10
-148.979407718289
 20
-385.9333766396278
 30
0.0
 10
-148.979407718289
 20
-340.9333886883669
 30
0.0
 10
-148.979407718289
 20
-340.9333886883669
 30
0.0
 10
-148.979407718289
 20
-340.9333886883669
 30
0.0
 10
-246.9801441846743
 20
-340.9333886883669
 30
0.0
 10
-246.9801441846743
 20
-340.9333886883669
 30
0.0
 10
-246.9801441846743
 20
-340.9333886883669
 30
0.0
 10
-246.9801441846743
 20
-178.1862812868336
 30
0.0
 10
-246.9801441846743
 20
-178.1862812868336
 30
0.0
 10
-344.2544607361478
 20
-195.4831367851679
 30
0.0
 10
-343.2625746822508
 20
-265.9287722452582
 30
0.0
 10
-339.8938526575396
 20
-297.8017621461442
 30
0.0
 10
-333.5793156107783
 20
-343.6074287403243
 30
0.0
 10
-302.2254800676728
 20
-387.0048874629276
 30
0.0
 10
-302.1784114506056
 20
-431.6876036518437
 30
0.0
 10
-300.3354791526179
 20
-464.8684809900112
 30
0.0
 10
-337.6947405500707
 20
-516.041757073138
 30
0.0
 10
-324.3440912071627
 20
-577.6419160882284
 30
0.0
 10
-318.5448543176077
 20
-597.627690144647
 30
0.0
 10
-313.4015636084443
 20
-606.5566024959303
 30
0.0
 10
-302.2238436473173
 20
-613.352914614457
 30
0.0
 10
-299.8711018130531
 20
-613.2676054375034
 30
0.0
 10
-300.4820679655153
 20
-604.4691330140303
 30
0.0
 10
-300.3528122892781
 20
-598.4795761307621
 30
0.0
 10
-298.7635682100856
 20
-532.9739707462053
 30
0.0
 10
-270.6358492704487
 20
-507.4839676330031
 30
0.0
 10
-246.9801441846743
 20
-507.4839676330031
 30
0.0
 10
-246.9801441846743
 20
-507.4839676330031
 30
0.0
 10
-246.9801441846743
 20
-459.8677095747032
 30
0.0
 10
-246.9801441846743
 20
-459.8677095747032
 30
0.0
 10
-246.9801441846743
 20
-459.8677095747032
 30
0.0
 10
-148.9788694221194
 20
-459.8677095747032
 30
0.0
 10
-148.9788694221194
 20
-459.8677095747032
 30
0.0
 10
-148.9788694221194
 20
-459.8677095747032
 30
0.0
 10
-148.9788694221194
 20
-414.8677000915956
 30
0.0
 10
-148.9788694221194
 20
-414.8677000915956
 30
0.0
 10
-148.9788694221194
 20
-414.8677000915956
 30
0.0
 10
-238.9788668564879
 20
-414.8677000915956
 30
0.0
 10
-238.9788668564879
 20
-414.8677000915956
 30
0.0
  0
HATCH
  5
1F6
330
1F1
100
AcDbEntity
  8
Layer 1
 62
   164
420
   203942
100
AcDbHatch
 10
0.0
 20
0.0
 30
0.0
210
0.0
220
0.0
230
1.0
  2
SOLID
 70
     1
 71
     0
 91
        1
 92
        1
 93
        1
 72
     4
 94
        3
 73
     0
 74
     1
 95
       50
 96
       46
 40
0.0
 40
0.0
 40
0.0
 40
0.0
 40
1.0
 40
1.0
 40
1.0
 40
2.0
 40
2.0
 40
2.0
 40
3.0
 40
3.0
 40
3.0
 40
4.0
 40
4.0
 40
4.0
 40
5.0
 40
5.0
 40
5.0
 40
6.0
 40
6.0
 40
6.0
 40
7.0
 40
7.0
 40
7.0
 40
8.0
 40
8.0
 40
8.0
 40
9.0
 40
9.0
 40
9.0
 40
10.0
 40
10.0
 40
10.0
 40
11.0
 40
11.0
 40
11.0
 40
12.0
 40
12.0
 40
12.0
 40
13.0
 40
13.0
 40
13.0
 40
14.0
 40
14.0
 40
14.0
 40
15.0
 40
15.0
 40
15.0
 40
15.0
 10
-238.9788668564879
 20
-414.8677000915956
 10
-238.9788668564879
 20
-414.8677000915956
 10
-238.9794051526575
 20
-385.9333766396278
 10
-238.9794051526575
 20
-385.9333766396278
 10
-238.9794051526575
 20
-385.9333766396278
 10
-148.979407718289
 20
-385.9333766396278
 10
-148.979407718289
 20
-385.9333766396278
 10
-148.979407718289
 20
-385.9333766396278
 10
-148.979407718289
 20
-340.9333886883669
 10
-148.979407718289
 20
-340.9333886883669
 10
-148.979407718289
 20
-340.9333886883669
 10
-246.9801441846743
 20
-340.9333886883669
 10
-246.9801441846743
 20
-340.9333886883669
 10
-246.9801441846743
 20
-340.9333886883669
 10
-246.9801441846743
 20
-178.1862812868336
 10
-246.9801441846743
 20
-178.1862812868336
 10
-344.2544607361478
 20
-195.4831367851679
 10
-343.2625746822508
 20
-265.9287722452582
 10
-339.8938526575396
 20
-297.8017621461442
 10
-333.5793156107783
 20
-343.6074287403243
 10
-302.2254800676728
 20
-387.0048874629276
 10
-302.1784114506056
 20
-431.6876036518437
 10
-300.3354791526179
 20
-464.8684809900112
 10
-337.6947405500707
 20
-516.041757073138
 10
-324.3440912071627
 20
-577.6419160882284
 10
-318.5448543176077
 20
-597.627690144647
 10
-313.4015636084443
 20
-606.5566024959303
 10
-302.2238436473173
 20
-613.352914614457
 10
-299.8711018130531
 20
-613.2676054375034
 10
-300.4820679655153
 20
-604.4691330140303
 10
-300.3528122892781
 20
-598.4795761307621
 10
-298.7635682100856
 20
-532.9739707462053
 10
-270.6358492704487
 20
-507.4839676330031
 10
-246.9801441846743
 20
-507.4839676330031
 10
-246.9801441846743
 20
-507.4839676330031
 10
-246.9801441846743
 20
-459.8677095747032
 10
-246.9801441846743
 20
-459.8677095747032
 10
-246.9801441846743
 20
-459.8677095747032
 10
-148.9788694221194
 20
-459.8677095747032
 10
-148.9788694221194
 20
-459.8677095747032
 10
-148.9788694221194
 20
-459.8677095747032
 10
-148.9788694221194
 20
-414.8677000915956
 10
-148.9788694221194
 20
-414.8677000915956
 10
-148.9788694221194
 20
-414.8677000915956
 10
-238.9788668564879
 20
-414.8677000915956
 10
-238.9788668564879
 20
-414.8677000915956
 97
        0
 97
        0
 75
     0
 76
     1
 98
        0
  0
ENDBLK
  5
1F4
330
1F1
100
AcDbEntity
  8
0
100
AcDbBlockEnd
  0
BLOCK
  5
1F9
330
1F7
100
AcDbEntity
  8
0
100
AcDbBlockBegin
  2
block 20
 70
     0
 10
0.0
 20
0.0
 30
0.0
  3
block 20
  1

  0
POLYLINE
  5
1FB
330
1F7
100
AcDbEntity
  8
Layer 1
 62
     7
420
 16777215
370
    18
100
AcDb2dPolyline
 66
     1
 10
0.0
 20
0.0
 30
0.0
  0
VERTEX
  5
1FC
330
1FB
100
AcDbEntity
  8
Layer 1
 62
     7
420
 16777215
370
    18
100
AcDbVertex
100
AcDb2dVertex
 10
-336.6551754366536
 20
-314.6857725662167
 30
0.0
  0
VERTEX
  5
1FD
330
1FB
100
AcDbEntity
  8
Layer 1
 62
     7
420
 16777215
370
    18
100
AcDbVertex
100
AcDb2dVertex
 10
-252.8121922442427
 20
-179.3106520494148
 30
0.0
  0
SEQEND
  5
1FE
330
1FB
100
AcDbEntity
  8
Layer 1
 62
     7
420
 16777215
370
    18
  0
POLYLINE
  5
1FF
330
1F7
100
AcDbEntity
  8
Layer 1
370
     0
100
AcDb2dPolyline
 66
     1
 10
0.0
 20
0.0
 30
0.0
  0
VERTEX
  5
200
330
1FF
100
AcDbEntity
  8
Layer 1
370
     0
100
AcDbVertex
100
AcDb2dVertex
 10
-246.9801446260265
 20
-337.9334391541115
 30
0.0
  0
VERTEX
  5
201
330
1FF
100
AcDbEntity
  8
Layer 1
370
     0
100
AcDbVertex
100
AcDb2dVertex
 10
-140.9801446525304
 20
-337.9334391541115
 30
0.0
  0
VERTEX
  5
202
330
1FF
100
AcDbEntity
  8
Layer 1
370
     0
100
AcDbVertex
100
AcDb2dVertex
 10
-140.9801446525304
 20
-462.9167826764506
 30
0.0
  0
VERTEX
  5
203
330
1FF
100
AcDbEntity
  8
Layer 1
370
     0
100
AcDbVertex
100
AcDb2dVertex
 10
-165.9794232902026
 20
-462.9167826764506
 30
0.0
  0
VERTEX
  5
204
330
1FF
100
AcDbEntity
  8
Layer 1
370
     0
100
AcDbVertex
100
AcDb2dVertex
 10
-165.9794207015123
 20
-459.8676955700433
 30
0.0
  0
VERTEX
  5
205
330
1FF
100
AcDbEntity
  8
Layer 1
370
     0
100
AcDbVertex
100
AcDb2dVertex
 10
-221.9794206875069
 20
-459.8676955700433
 30
0.0
  0
VERTEX
  5
206
330
1FF
100
AcDbEntity
  8
Layer 1
370
     0
100
AcDbVertex
100
AcDb2dVertex
 10
-221.9794184113494
 20
-462.9167826764506
 30
0.0
  0
VERTEX
  5
207
330
1FF
100
AcDbEntity
  8
Layer 1
370
     0
100
AcDbVertex
100
AcDb2dVertex
 10
-246.9801446260265
 20
-462.9167826764506
 30
0.0
  0
VERTEX
  5
208
330
1FF
100
AcDbEntity
  8
Layer 1
370
     0
100
AcDbVertex
100
AcDb2dVertex
 10
-246.9801446260265
 20
-337.9334391541115
 30
0.0
  0
SEQEND
  5
209
330
1FF
100
AcDbEntity
  8
Layer 1
370
     0
  0
POLYLINE
  5
20A
330
1F7
100
AcDbEntity
  8
Layer 1
370
     0
100
AcDb2dPolyline
 66
     1
 10
0.0
 20
0.0
 30
0.0
  0
VERTEX
  5
20B
330
20A
100
AcDbEntity
  8
Layer 1
370
     0
100
AcDbVertex
100
AcDb2dVertex
 10
-228.9794206857608
 20
-383.4334002932578
 30
0.0
  0
VERTEX
  5
20C
330
20A
100
AcDbEntity
  8
Layer 1
370
     0
100
AcDbVertex
100
AcDb2dVertex
 10
-158.9794207032658
 20
-383.4334002932578
 30
0.0
  0
VERTEX
  5
20D
330
20A
100
AcDbEntity
  8
Layer 1
370
     0
100
AcDbVertex
100
AcDb2dVertex
 10
-158.9794207032658
 20
-343.4334003032592
 30
0.0
  0
VERTEX
  5
20E
330
20A
100
AcDbEntity
  8
Layer 1
370
     0
100
AcDbVertex
100
AcDb2dVertex
 10
-228.9794206857608
 20
-343.4334003032592
 30
0.0
  0
VERTEX
  5
20F
330
20A
100
AcDbEntity
  8
Layer 1
370
     0
100
AcDbVertex
100
AcDb2dVertex
 10
-228.9794206857608
 20
-383.4334002932578
 30
0.0
  0
SEQEND
  5
210
330
20A
100
AcDbEntity
  8
Layer 1
370
     0
  0
POLYLINE
  5
211
330
1F7
100
AcDbEntity
  8
Layer 1
370
     0
100
AcDb2dPolyline
 66
     1
 10
0.0
 20
0.0
 30
0.0
  0
VERTEX
  5
212
330
211
100
AcDbEntity
  8
Layer 1
370
     0
100
AcDbVertex
100
AcDb2dVertex
 10
-228.9788712369437
 20
-456.6621343708437
 30
0.0
  0
VERTEX
  5
213
330
211
100
AcDbEntity
  8
Layer 1
370
     0
100
AcDbVertex
100
AcDb2dVertex
 10
-158.9788712544484
 20
-456.6621343708437
 30
0.0
  0
VERTEX
  5
214
330
211
100
AcDbEntity
  8
Layer 1
370
     0
100
AcDbVertex
100
AcDb2dVertex
 10
-158.9788712544484
 20
-416.662134380845
 30
0.0
  0
VERTEX
  5
215
330
211
100
AcDbEntity
  8
Layer 1
370
     0
100
AcDbVertex
100
AcDb2dVertex
 10
-228.9788712369437
 20
-416.662134380845
 30
0.0
  0
VERTEX
  5
216
330
211
100
AcDbEntity
  8
Layer 1
370
     0
100
AcDbVertex
100
AcDb2dVertex
 10
-228.9788712369437
 20
-456.6621343708437
 30
0.0
  0
SEQEND
  5
217
330
211
100
AcDbEntity
  8
Layer 1
370
     0
  0
HATCH
  5
218
330
1F7
100
AcDbEntity
  8
Layer 1
 62
    40
420
 15705863
100
AcDbHatch
 10
0.0
 20
0.0
 30
0.0
210
0.0
220
0.0
230
1.0
  2
SOLID
 70
     1
 71
     0
 91
        3
 92
        1
 93
        8
 72
     1
 10
-246.9801446260265
 20
-337.9334391541115
 11
-140.9801446525304
 21
-337.9334391541115
 72
     1
 10
-140.9801446525304
 20
-337.9334391541115
 11
-140.9801446525304
 21
-462.9167826764506
 72
     1
 10
-140.9801446525304
 20
-462.9167826764506
 11
-165.9794232902026
 21
-462.9167826764506
 72
     1
 10
-165.9794232902026
 20
-462.9167826764506
 11
-165.9794207015123
 21
-459.8676955700433
 72
     1
 10
-165.9794207015123
 20
-459.8676955700433
 11
-221.9794206875069
 21
-459.8676955700433
 72
     1
 10
-221.9794206875069
 20
-459.8676955700433
 11
-221.9794184113494
 21
-462.9167826764506
 72
     1
 10
-221.9794184113494
 20
-462.9167826764506
 11
-246.9801446260265
 21
-462.9167826764506
 72
     1
 10
-246.9801446260265
 20
-462.9167826764506
 11
-246.9801446260265
 21
-337.9334391541115
 97
        0
 92
        1
 93
        4
 72
     1
 10
-228.9794206857608
 20
-383.4334002932578
 11
-158.9794207032658
 21
-383.4334002932578
 72
     1
 10
-158.9794207032658
 20
-383.4334002932578
 11
-158.9794207032658
 21
-343.4334003032592
 72
     1
 10
-158.9794207032658
 20
-343.4334003032592
 11
-228.9794206857608
 21
-343.4334003032592
 72
     1
 10
-228.9794206857608
 20
-343.4334003032592
 11
-228.9794206857608
 21
-383.4334002932578
 97
        0
 92
        1
 93
        4
 72
     1
 10
-228.9788712369437
 20
-456.6621343708437
 11
-158.9788712544484
 21
-456.6621343708437
 72
     1
 10
-158.9788712544484
 20
-456.6621343708437
 11
-158.9788712544484
 21
-416.662134380845
 72
     1
 10
-158.9788712544484
 20
-416.662134380845
 11
-228.9788712369437
 21
-416.662134380845
 72
     1
 10
-228.9788712369437
 20
-416.662134380845
 11
-228.9788712369437
 21
-456.6621343708437
 97
        0
 75
     2
 76
     1
 98
        0
  0
INSERT
  5
21A
330
1F7
100
AcDbEntity
  8
Layer 1
100
AcDbBlockReference
  2
block 21
 10
0.0
 20
0.0
 30
0.0
  0
INSERT
  5
22D
330
1F7
100
AcDbEntity
  8
Layer 1
100
AcDbBlockReference
  2
block 22
 10
0.0
 20
0.0
 30
0.0
  0
POLYLINE
  5
23F
330
1F7
100
AcDbEntity
  8
Layer 1
370
     0
100
AcDb2dPolyline
 66
     1
 10
0.0
 20
0.0
 30
0.0
  0
VERTEX
  5
240
330
23F
100
AcDbEntity
  8
Layer 1
370
     0
100
AcDbVertex
100
AcDb2dVertex
 10
-228.9794206857608
 20
-383.4334002932578
 30
0.0
  0
VERTEX
  5
241
330
23F
100
AcDbEntity
  8
Layer 1
370
     0
100
AcDbVertex
100
AcDb2dVertex
 10
-158.9794207032658
 20
-383.4334002932578
 30
0.0
  0
VERTEX
  5
242
330
23F
100
AcDbEntity
  8
Layer 1
370
     0
100
AcDbVertex
100
AcDb2dVertex
 10
-158.9794207032658
 20
-343.4334003032592
 30
0.0
  0
VERTEX
  5
243
330
23F
100
AcDbEntity
  8
Layer 1
370
     0
100
AcDbVertex
100
AcDb2dVertex
 10
-228.9794206857608
 20
-343.4334003032592
 30
0.0
  0
VERTEX
  5
244
330
23F
100
AcDbEntity
  8
Layer 1
370
     0
100
AcDbVertex
100
AcDb2dVertex
 10
-228.9794206857608
 20
-383.4334002932578
 30
0.0
  0
SEQEND
  5
246
330
23F
100
AcDbEntity
  8
Layer 1
370
     0
  0
HATCH
  5
245
330
1F7
100
AcDbEntity
  8
Layer 1
 62
    96
420
   558850
100
AcDbHatch
 10
0.0
 20
0.0
 30
0.0
210
0.0
220
0.0
230
1.0
  2
SOLID
 70
     1
 71
     0
 91
        1
 92
        1
 93
        4
 72
     1
 10
-228.9794206857608
 20
-383.4334002932578
 11
-158.9794207032658
 21
-383.4334002932578
 72
     1
 10
-158.9794207032658
 20
-383.4334002932578
 11
-158.9794207032658
 21
-343.4334003032592
 72
     1
 10
-158.9794207032658
 20
-343.4334003032592
 11
-228.9794206857608
 21
-343.4334003032592
 72
     1
 10
-228.9794206857608
 20
-343.4334003032592
 11
-228.9794206857608
 21
-383.4334002932578
 97
        0
 75
     0
 76
     1
 98
        0
  0
POLYLINE
  5
247
330
1F7
100
AcDbEntity
  8
Layer 1
370
     0
100
AcDb2dPolyline
 66
     1
 10
0.0
 20
0.0
 30
0.0
  0
VERTEX
  5
248
330
247
100
AcDbEntity
  8
Layer 1
370
     0
100
AcDbVertex
100
AcDb2dVertex
 10
-228.9788712369437
 20
-456.6621343708437
 30
0.0
  0
VERTEX
  5
249
330
247
100
AcDbEntity
  8
Layer 1
370
     0
100
AcDbVertex
100
AcDb2dVertex
 10
-158.9788712544484
 20
-456.6621343708437
 30
0.0
  0
VERTEX
  5
24A
330
247
100
AcDbEntity
  8
Layer 1
370
     0
100
AcDbVertex
100
AcDb2dVertex
 10
-158.9788712544484
 20
-416.662134380845
 30
0.0
  0
VERTEX
  5
24B
330
247
100
AcDbEntity
  8
Layer 1
370
     0
100
AcDbVertex
100
AcDb2dVertex
 10
-228.9788712369437
 20
-416.662134380845
 30
0.0
  0
VERTEX
  5
24C
330
247
100
AcDbEntity
  8
Layer 1
370
     0
100
AcDbVertex
100
AcDb2dVertex
 10
-228.9788712369437
 20
-456.6621343708437
 30
0.0
  0
SEQEND
  5
24E
330
247
100
AcDbEntity
  8
Layer 1
370
     0
  0
HATCH
  5
24D
330
1F7
100
AcDbEntity
  8
Layer 1
 62
    96
420
   558850
100
AcDbHatch
 10
0.0
 20
0.0
 30
0.0
210
0.0
220
0.0
230
1.0
  2
SOLID
 70
     1
 71
     0
 91
        1
 92
        1
 93
        4
 72
     1
 10
-228.9788712369437
 20
-456.6621343708437
 11
-158.9788712544484
 21
-456.6621343708437
 72
     1
 10
-158.9788712544484
 20
-456.6621343708437
 11
-158.9788712544484
 21
-416.662134380845
 72
     1
 10
-158.9788712544484
 20
-416.662134380845
 11
-228.9788712369437
 21
-416.662134380845
 72
     1
 10
-228.9788712369437
 20
-416.662134380845
 11
-228.9788712369437
 21
-456.6621343708437
 97
        0
 75
     0
 76
     1
 98
        0
  0
ENDBLK
  5
1FA
330
1F7
100
AcDbEntity
  8
0
100
AcDbBlockEnd
  0
BLOCK
  5
21B
330
219
100
AcDbEntity
  8
0
100
AcDbBlockBegin
  2
block 21
 70
     0
 10
0.0
 20
0.0
 30
0.0
  3
block 21
  1

  0
POLYLINE
  5
21D
330
219
100
AcDbEntity
  8
Layer 1
370
     0
100
AcDb2dPolyline
 66
     1
 10
0.0
 20
0.0
 30
0.0
  0
VERTEX
  5
21E
330
21D
100
AcDbEntity
  8
Layer 1
370
     0
100
AcDbVertex
100
AcDb2dVertex
 10
-148.9794207057668
 20
-385.9334002926332
 30
0.0
  0
VERTEX
  5
21F
330
21D
100
AcDbEntity
  8
Layer 1
370
     0
100
AcDbVertex
100
AcDb2dVertex
 10
-238.9794206832595
 20
-385.9334002926332
 30
0.0
  0
VERTEX
  5
220
330
21D
100
AcDbEntity
  8
Layer 1
370
     0
100
AcDbVertex
100
AcDb2dVertex
 10
-238.9794206832595
 20
-340.9334003038838
 30
0.0
  0
VERTEX
  5
221
330
21D
100
AcDbEntity
  8
Layer 1
370
     0
100
AcDbVertex
100
AcDb2dVertex
 10
-148.9794207057668
 20
-340.9334003038838
 30
0.0
  0
VERTEX
  5
222
330
21D
100
AcDbEntity
  8
Layer 1
370
     0
100
AcDbVertex
100
AcDb2dVertex
 10
-148.9794207057668
 20
-385.9334002926332
 30
0.0
  0
SEQEND
  5
223
330
21D
100
AcDbEntity
  8
Layer 1
370
     0
  0
POLYLINE
  5
224
330
219
100
AcDbEntity
  8
Layer 1
370
     0
100
AcDb2dPolyline
 66
     1
 10
0.0
 20
0.0
 30
0.0
  0
VERTEX
  5
225
330
224
100
AcDbEntity
  8
Layer 1
370
     0
100
AcDbVertex
100
AcDb2dVertex
 10
-228.9794206857608
 20
-383.4334002932578
 30
0.0
  0
VERTEX
  5
226
330
224
100
AcDbEntity
  8
Layer 1
370
     0
100
AcDbVertex
100
AcDb2dVertex
 10
-158.9794207032658
 20
-383.4334002932578
 30
0.0
  0
VERTEX
  5
227
330
224
100
AcDbEntity
  8
Layer 1
370
     0
100
AcDbVertex
100
AcDb2dVertex
 10
-158.9794207032658
 20
-343.4334003032592
 30
0.0
  0
VERTEX
  5
228
330
224
100
AcDbEntity
  8
Layer 1
370
     0
100
AcDbVertex
100
AcDb2dVertex
 10
-228.9794206857608
 20
-343.4334003032592
 30
0.0
  0
VERTEX
  5
229
330
224
100
AcDbEntity
  8
Layer 1
370
     0
100
AcDbVertex
100
AcDb2dVertex
 10
-228.9794206857608
 20
-383.4334002932578
 30
0.0
  0
SEQEND
  5
22A
330
224
100
AcDbEntity
  8
Layer 1
370
     0
  0
HATCH
  5
22B
330
219
100
AcDbEntity
  8
Layer 1
 62
   179
420
  1644825
100
AcDbHatch
 10
0.0
 20
0.0
 30
0.0
210
0.0
220
0.0
230
1.0
  2
SOLID
 70
     1
 71
     0
 91
        2
 92
        1
 93
        4
 72
     1
 10
-148.9794207057668
 20
-385.9334002926332
 11
-238.9794206832595
 21
-385.9334002926332
 72
     1
 10
-238.9794206832595
 20
-385.9334002926332
 11
-238.9794206832595
 21
-340.9334003038838
 72
     1
 10
-238.9794206832595
 20
-340.9334003038838
 11
-148.9794207057668
 21
-340.9334003038838
 72
     1
 10
-148.9794207057668
 20
-340.9334003038838
 11
-148.9794207057668
 21
-385.9334002926332
 97
        0
 92
        1
 93
        4
 72
     1
 10
-228.9794206857608
 20
-383.4334002932578
 11
-158.9794207032658
 21
-383.4334002932578
 72
     1
 10
-158.9794207032658
 20
-383.4334002932578
 11
-158.9794207032658
 21
-343.4334003032592
 72
     1
 10
-158.9794207032658
 20
-343.4334003032592
 11
-228.9794206857608
 21
-343.4334003032592
 72
     1
 10
-228.9794206857608
 20
-343.4334003032592
 11
-228.9794206857608
 21
-383.4334002932578
 97
        0
 75
     0
 76
     1
 98
        0
  0
ENDBLK
  5
21C
330
219
100
AcDbEntity
  8
0
100
AcDbBlockEnd
  0
BLOCK
  5
22E
330
22C
100
AcDbEntity
  8
0
100
AcDbBlockBegin
  2
block 22
 70
     0
 10
0.0
 20
0.0
 30
0.0
  3
block 22
  1

  0
POLYLINE
  5
230
330
22C
100
AcDbEntity
  8
Layer 1
370
     0
100
AcDb2dPolyline
 66
     1
 10
0.0
 20
0.0
 30
0.0
  0
VERTEX
  5
231
330
230
100
AcDbEntity
  8
Layer 1
370
     0
100
AcDbVertex
100
AcDb2dVertex
 10
-148.97887125695
 20
-459.8676955700433
 30
0.0
  0
VERTEX
  5
232
330
230
100
AcDbEntity
  8
Layer 1
370
     0
100
AcDbVertex
100
AcDb2dVertex
 10
-238.9788712344463
 20
-459.8676955700433
 30
0.0
  0
VERTEX
  5
233
330
230
100
AcDbEntity
  8
Layer 1
370
     0
100
AcDbVertex
100
AcDb2dVertex
 10
-238.9788712344463
 20
-414.8676955812926
 30
0.0
  0
VERTEX
  5
234
330
230
100
AcDbEntity
  8
Layer 1
370
     0
100
AcDbVertex
100
AcDb2dVertex
 10
-148.97887125695
 20
-414.8676955812926
 30
0.0
  0
VERTEX
  5
235
330
230
100
AcDbEntity
  8
Layer 1
370
     0
100
AcDbVertex
100
AcDb2dVertex
 10
-148.97887125695
 20
-459.8676955700433
 30
0.0
  0
SEQEND
  5
236
330
230
100
AcDbEntity
  8
Layer 1
370
     0
  0
POLYLINE
  5
237
330
22C
100
AcDbEntity
  8
Layer 1
370
     0
100
AcDb2dPolyline
 66
     1
 10
0.0
 20
0.0
 30
0.0
  0
VERTEX
  5
238
330
237
100
AcDbEntity
  8
Layer 1
370
     0
100
AcDbVertex
100
AcDb2dVertex
 10
-228.9788712369437
 20
-456.6621343708437
 30
0.0
  0
VERTEX
  5
239
330
237
100
AcDbEntity
  8
Layer 1
370
     0
100
AcDbVertex
100
AcDb2dVertex
 10
-158.9788712544484
 20
-456.6621343708437
 30
0.0
  0
VERTEX
  5
23A
330
237
100
AcDbEntity
  8
Layer 1
370
     0
100
AcDbVertex
100
AcDb2dVertex
 10
-158.9788712544484
 20
-416.662134380845
 30
0.0
  0
VERTEX
  5
23B
330
237
100
AcDbEntity
  8
Layer 1
370
     0
100
AcDbVertex
100
AcDb2dVertex
 10
-228.9788712369437
 20
-416.662134380845
 30
0.0
  0
VERTEX
  5
23C
330
237
100
AcDbEntity
  8
Layer 1
370
     0
100
AcDbVertex
100
AcDb2dVertex
 10
-228.9788712369437
 20
-456.6621343708437
 30
0.0
  0
SEQEND
  5
23D
330
237
100
AcDbEntity
  8
Layer 1
370
     0
  0
HATCH
  5
23E
330
22C
100
AcDbEntity
  8
Layer 1
 62
   179
420
  1644825
100
AcDbHatch
 10
0.0
 20
0.0
 30
0.0
210
0.0
220
0.0
230
1.0
  2
SOLID
 70
     1
 71
     0
 91
        2
 92
        1
 93
        4
 72
     1
 10
-148.97887125695
 20
-459.8676955700433
 11
-238.9788712344463
 21
-459.8676955700433
 72
     1
 10
-238.9788712344463
 20
-459.8676955700433
 11
-238.9788712344463
 21
-414.8676955812926
 72
     1
 10
-238.9788712344463
 20
-414.8676955812926
 11
-148.97887125695
 21
-414.8676955812926
 72
     1
 10
-148.97887125695
 20
-414.8676955812926
 11
-148.97887125695
 21
-459.8676955700433
 97
        0
 92
        1
 93
        4
 72
     1
 10
-228.9788712369437
 20
-456.6621343708437
 11
-158.9788712544484
 21
-456.6621343708437
 72
     1
 10
-158.9788712544484
 20
-456.6621343708437
 11
-158.9788712544484
 21
-416.662134380845
 72
     1
 10
-158.9788712544484
 20
-416.662134380845
 11
-228.9788712369437
 21
-416.662134380845
 72
     1
 10
-228.9788712369437
 20
-416.662134380845
 11
-228.9788712369437
 21
-456.6621343708437
 97
        0
 75
     0
 76
     1
 98
        0
  0
ENDBLK
  5
22F
330
22C
100
AcDbEntity
  8
0
100
AcDbBlockEnd
  0
BLOCK
  5
251
330
24F
100
AcDbEntity
  8
0
100
AcDbBlockBegin
  2
block 23
 70
     0
 10
0.0
 20
0.0
 30
0.0
  3
block 23
  1

  0
INSERT
  5
254
330
24F
100
AcDbEntity
  8
Layer 1
100
AcDbBlockReference
  2
block 24
 10
0.0
 20
0.0
 30
0.0
  0
ENDBLK
  5
252
330
24F
100
AcDbEntity
  8
0
100
AcDbBlockEnd
  0
BLOCK
  5
255
330
253
100
AcDbEntity
  8
0
100
AcDbBlockBegin
  2
block 24
 70
     0
 10
0.0
 20
0.0
 30
0.0
  3
block 24
  1

  0
INSERT
  5
258
330
253
100
AcDbEntity
  8
Layer 1
100
AcDbBlockReference
  2
block 25
 10
0.0
 20
0.0
 30
0.0
  0
ENDBLK
  5
256
330
253
100
AcDbEntity
  8
0
100
AcDbBlockEnd
  0
BLOCK
  5
259
330
257
100
AcDbEntity
  8
0
100
AcDbBlockBegin
  2
block 25
 70
     0
 10
0.0
 20
0.0
 30
0.0
  3
block 25
  1

  0
SPLINE
  5
25B
330
257
100
AcDbEntity
  8
Layer 1
370
     0
100
AcDbSpline
210
0.0
220
0.0
230
1.0
 70
    11
 71
     3
 72
    41
 73
    37
 74
     0
 42
0.0000000001
 43
0.0000000001
 12
1.0
 22
0.0
 32
0.0
 13
1.0
 23
0.0
 33
0.0
 40
0.0
 40
0.0
 40
0.0
 40
0.0
 40
1.0
 40
1.0
 40
1.0
 40
2.0
 40
2.0
 40
2.0
 40
3.0
 40
3.0
 40
3.0
 40
4.0
 40
4.0
 40
4.0
 40
5.0
 40
5.0
 40
5.0
 40
6.0
 40
6.0
 40
6.0
 40
7.0
 40
7.0
 40
7.0
 40
8.0
 40
8.0
 40
8.0
 40
9.0
 40
9.0
 40
9.0
 40
10.0
 40
10.0
 40
10.0
 40
11.0
 40
11.0
 40
11.0
 40
12.0
 40
12.0
 40
12.0
 40
12.0
 10
-43.04720017098733
 20
-283.3962460974995
 30
0.0
 10
-43.55074393985016
 20
-231.7476329647953
 30
0.0
 10
-46.56599916777473
 20
-187.8715858837504
 30
0.0
 10
-140.9801328518535
 20
-176.6104084844932
 30
0.0
 10
-140.9813386352733
 20
-176.6102577615657
 30
0.0
 10
-140.9801328518535
 20
-462.9167913339236
 30
0.0
 10
-140.9801328518535
 20
-462.9167913339236
 30
0.0
 10
-140.9801328518535
 20
-462.9167913339236
 30
0.0
 10
-135.4587859768775
 20
-462.794318189423
 30
0.0
 10
-130.2956429049804
 20
-462.794318189423
 30
0.0
 10
-130.2956429049804
 20
-462.794318189423
 30
0.0
 10
-130.2949108221897
 20
-462.794318189423
 30
0.0
 10
-130.2949108221897
 20
-462.794318189423
 30
0.0
 10
-85.00572863678893
 20
-466.0884754287253
 30
0.0
 10
-77.65128951780507
 20
-525.0059385894517
 30
0.0
 10
-77.76840123245678
 20
-541.8396655953344
 30
0.0
 10
-77.68651561914174
 20
-545.221629705817
 30
0.0
 10
-78.24369521834056
 20
-546.50755465938
 30
0.0
 10
-76.87825315460857
 20
-547.6606711819868
 30
0.0
 10
-76.87818855906822
 20
-547.6607142456803
 30
0.0
 10
-76.8780808998343
 20
-547.6607573093739
 30
0.0
 10
-76.87799477244717
 20
-547.6607573093739
 30
0.0
 10
-74.44646791080461
 20
-547.6606281182932
 30
0.0
 10
-68.82764636544283
 20
-543.6247418210165
 30
0.0
 10
-65.30436874452461
 20
-532.926902129138
 30
0.0
 10
-65.30434721267783
 20
-532.9268160017509
 30
0.0
 10
-65.30434721267783
 20
-532.9268160017509
 30
0.0
 10
-65.30432568083104
 20
-532.9267298743638
 30
0.0
 10
-52.61033306925844
 20
-485.1351595195583
 30
0.0
 10
-88.54037507280849
 20
-440.6445935313319
 30
0.0
 10
-90.95573151751715
 20
-414.386635570774
 30
0.0
 10
-92.01393565950521
 20
-372.2777071551945
 30
0.0
 10
-45.96823203739032
 20
-323.2498858173538
 30
0.0
 10
-43.04720017098733
 20
-283.396396820427
 30
0.0
 10
-43.04720017098733
 20
-283.396396820427
 30
0.0
 10
-43.04720017098733
 20
-283.3962460974995
 30
0.0
 10
-43.04720017098733
 20
-283.3962460974995
 30
0.0
  0
HATCH
  5
25C
330
257
100
AcDbEntity
  8
Layer 1
 62
   164
420
   203942
100
AcDbHatch
 10
0.0
 20
0.0
 30
0.0
210
0.0
220
0.0
230
1.0
  2
SOLID
 70
     1
 71
     0
 91
        1
 92
        1
 93
        1
 72
     4
 94
        3
 73
     0
 74
     1
 95
       41
 96
       37
 40
0.0
 40
0.0
 40
0.0
 40
0.0
 40
1.0
 40
1.0
 40
1.0
 40
2.0
 40
2.0
 40
2.0
 40
3.0
 40
3.0
 40
3.0
 40
4.0
 40
4.0
 40
4.0
 40
5.0
 40
5.0
 40
5.0
 40
6.0
 40
6.0
 40
6.0
 40
7.0
 40
7.0
 40
7.0
 40
8.0
 40
8.0
 40
8.0
 40
9.0
 40
9.0
 40
9.0
 40
10.0
 40
10.0
 40
10.0
 40
11.0
 40
11.0
 40
11.0
 40
12.0
 40
12.0
 40
12.0
 40
12.0
 10
-43.04720017098733
 20
-283.3962460974995
 10
-43.55074393985016
 20
-231.7476329647953
 10
-46.56599916777473
 20
-187.8715858837504
 10
-140.9801328518535
 20
-176.6104084844932
 10
-140.9813386352733
 20
-176.6102577615657
 10
-140.9801328518535
 20
-462.9167913339236
 10
-140.9801328518535
 20
-462.9167913339236
 10
-140.9801328518535
 20
-462.9167913339236
 10
-135.4587859768775
 20
-462.794318189423
 10
-130.2956429049804
 20
-462.794318189423
 10
-130.2956429049804
 20
-462.794318189423
 10
-130.2949108221897
 20
-462.794318189423
 10
-130.2949108221897
 20
-462.794318189423
 10
-85.00572863678893
 20
-466.0884754287253
 10
-77.65128951780507
 20
-525.0059385894517
 10
-77.76840123245678
 20
-541.8396655953344
 10
-77.68651561914174
 20
-545.221629705817
 10
-78.24369521834056
 20
-546.50755465938
 10
-76.87825315460857
 20
-547.6606711819868
 10
-76.87818855906822
 20
-547.6607142456803
 10
-76.8780808998343
 20
-547.6607573093739
 10
-76.87799477244717
 20
-547.6607573093739
 10
-74.44646791080461
 20
-547.6606281182932
 10
-68.82764636544283
 20
-543.6247418210165
 10
-65.30436874452461
 20
-532.926902129138
 10
-65.30434721267783
 20
-532.9268160017509
 10
-65.30434721267783
 20
-532.9268160017509
 10
-65.30432568083104
 20
-532.9267298743638
 10
-52.61033306925844
 20
-485.1351595195583
 10
-88.54037507280849
 20
-440.6445935313319
 10
-90.95573151751715
 20
-414.386635570774
 10
-92.01393565950521
 20
-372.2777071551945
 10
-45.96823203739032
 20
-323.2498858173538
 10
-43.04720017098733
 20
-283.396396820427
 10
-43.04720017098733
 20
-283.396396820427
 10
-43.04720017098733
 20
-283.3962460974995
 10
-43.04720017098733
 20
-283.3962460974995
 97
        0
 97
        0
 75
     0
 76
     1
 98
        0
  0
ENDBLK
  5
25A
330
257
100
AcDbEntity
  8
0
100
AcDbBlockEnd
  0
ENDSEC
  0
SECTION
  2
ENTITIES
  0
INSERT
  5
42
330
1F
100
AcDbEntity
  8
Layer 1
100
AcDbBlockReference
  2
block 2
 10
0.0
 20
0.0
 30
0.0
  0
ENDSEC
  0
SECTION
  2
OBJECTS
  0
DICTIONARY
  5
C
330
0
100
AcDbDictionary
281
     1
  3
ACAD_GROUP
350
D
  3
ACAD_LAYOUT
350
1A
  3
ACAD_MATERIAL
350
3B
  3
ACAD_MLEADERSTYLE
350
25E
  3
ACAD_MLINESTYLE
350
17
  3
ACAD_PLOTSETTINGS
350
19
  3
ACAD_PLOTSTYLENAME
350
E
  3
ACAD_TABLESTYLE
350
25D
  3
ACAD_VISUALSTYLE
350
2A
  0
SUN
  5
3F
330
29
100
AcDbSun
 90
        1
290
     0
 63
     7
421
 16777215
 40
1.0
291
     1
 91
  2455826
 92
 54000000
292
     0
 70
     2
 71
   256
280
     1
  0
DICTIONARY
  5
D
102
{ACAD_REACTORS
330
C
102
}
330
C
100
AcDbDictionary
281
     1
  0
DICTIONARY
  5
1A
102
{ACAD_REACTORS
330
C
102
}
330
C
100
AcDbDictionary
281
     1
  3
Layout1
350
1E
  3
Layout2
350
26
  3
Model
350
22
  0
DICTIONARY
  5
3B
102
{ACAD_REACTORS
330
C
102
}
330
C
100
AcDbDictionary
281
     1
  3
ByBlock
350
3D
  3
ByLayer
350
3C
  3
Global
350
3E
  0
DICTIONARY
  5
25E
102
{ACAD_REACTORS
330
C
102
}
330
C
100
AcDbDictionary
281
     1
  0
DICTIONARY
  5
17
102
{ACAD_REACTORS
330
C
102
}
330
C
100
AcDbDictionary
281
     1
  3
Standard
350
18
  0
DICTIONARY
  5
19
102
{ACAD_REACTORS
330
C
102
}
330
C
100
AcDbDictionary
281
     1
  0
ACDBDICTIONARYWDFLT
  5
E
102
{ACAD_REACTORS
330
C
102
}
330
C
100
AcDbDictionary
281
     1
  3
Normal
350
F
100
AcDbDictionaryWithDefault
340
F
  0
DICTIONARY
  5
25D
102
{ACAD_REACTORS
330
C
102
}
330
C
100
AcDbDictionary
281
     1
  0
DICTIONARY
  5
2A
102
{ACAD_REACTORS
330
C
102
}
330
C
100
AcDbDictionary
281
     1
  3
2dWireframe
350
2F
  3
3D Hidden
350
31
  3
3dWireframe
350
30
  3
Basic
350
32
  3
Brighten
350
36
  3
ColorChange
350
3A
  3
Conceptual
350
34
  3
Dim
350
35
  3
Facepattern
350
39
  3
Flat
350
2B
  3
FlatWithEdges
350
2C
  3
Gouraud
350
2D
  3
GouraudWithEdges
350
2E
  3
Linepattern
350
38
  3
Realistic
350
33
  3
Thicken
350
37
  0
LAYOUT
  5
1E
102
{ACAD_REACTORS
330
1A
102
}
330
1A
100
AcDbPlotSettings
  1

  2
none_device
  4

  6

 40
0.0
 41
0.0
 42
0.0
 43
0.0
 44
0.0
 45
0.0
 46
0.0
 47
0.0
 48
0.0
 49
0.0
140
0.0
141
0.0
142
1.0
143
1.0
 70
   688
 72
     0
 73
     0
 74
     5
  7

 75
    16
 76
     0
 77
     2
 78
   300
147
1.0
148
0.0
149
0.0
100
AcDbLayout
  1
Layout1
 70
     1
 71
     1
 10
0.0
 20
0.0
 11
12.0
 21
9.0
 12
0.0
 22
0.0
 32
0.0
 14
1.000000000000000E+20
 24
1.000000000000000E+20
 34
1.000000000000000E+20
 15
-1.000000000000000E+20
 25
-1.000000000000000E+20
 35
-1.000000000000000E+20
146
0.0
 13
0.0
 23
0.0
 33
0.0
 16
1.0
 26
0.0
 36
0.0
 17
0.0
 27
1.0
 37
0.0
 76
     0
330
1B
  0
LAYOUT
  5
26
102
{ACAD_REACTORS
330
1A
102
}
330
1A
100
AcDbPlotSettings
  1

  2
none_device
  4

  6

 40
0.0
 41
0.0
 42
0.0
 43
0.0
 44
0.0
 45
0.0
 46
0.0
 47
0.0
 48
0.0
 49
0.0
140
0.0
141
0.0
142
1.0
143
1.0
 70
   688
 72
     0
 73
     0
 74
     5
  7

 75
    16
 76
     0
 77
     2
 78
   300
147
1.0
148
0.0
149
0.0
100
AcDbLayout
  1
Layout2
 70
     1
 71
     2
 10
0.0
 20
0.0
 11
0.0
 21
0.0
 12
0.0
 22
0.0
 32
0.0
 14
0.0
 24
0.0
 34
0.0
 15
0.0
 25
0.0
 35
0.0
146
0.0
 13
0.0
 23
0.0
 33
0.0
 16
1.0
 26
0.0
 36
0.0
 17
0.0
 27
1.0
 37
0.0
 76
     0
330
23
  0
LAYOUT
  5
22
102
{ACAD_REACTORS
330
1A
102
}
330
1A
100
AcDbPlotSettings
  1

  2
none_device
  4

  6

 40
0.0
 41
0.0
 42
0.0
 43
0.0
 44
0.0
 45
0.0
 46
0.0
 47
0.0
 48
0.0
 49
0.0
140
0.0
141
0.0
142
1.0
143
1.0
 70
  1712
 72
     0
 73
     0
 74
     0
  7

 75
     0
 76
     0
 77
     2
 78
   300
147
1.0
148
0.0
149
0.0
100
AcDbLayout
  1
Model
 70
     1
 71
     0
 10
0.0
 20
0.0
 11
12.0
 21
9.0
 12
0.0
 22
0.0
 32
0.0
 14
1.000000000000000E+20
 24
1.000000000000000E+20
 34
1.000000000000000E+20
 15
-1.000000000000000E+20
 25
-1.000000000000000E+20
 35
-1.000000000000000E+20
146
0.0
 13
0.0
 23
0.0
 33
0.0
 16
1.0
 26
0.0
 36
0.0
 17
0.0
 27
1.0
 37
0.0
 76
     0
330
1F
331
29
  0
MATERIAL
  5
3D
102
{ACAD_REACTORS
330
3B
102
}
330
3B
100
AcDbMaterial
  1
ByBlock
 72
     1
 94
      127
  0
MATERIAL
  5
3C
102
{ACAD_REACTORS
330
3B
102
}
330
3B
100
AcDbMaterial
  1
ByLayer
 72
     1
 94
      127
  0
MATERIAL
  5
3E
102
{ACAD_REACTORS
330
3B
102
}
330
3B
100
AcDbMaterial
  1
Global
 72
     1
 94
      127
  0
MLINESTYLE
  5
18
102
{ACAD_REACTORS
330
17
102
}
330
17
100
AcDbMlineStyle
  2
Standard
 70
     0
  3

 62
   256
 51
90.0
 52
90.0
 71
     2
 49
0.5
 62
   256
  6
BYLAYER
 49
-0.5
 62
   256
  6
BYLAYER
  0
ACDBPLACEHOLDER
  5
F
102
{ACAD_REACTORS
330
E
102
}
330
E
  0
VISUALSTYLE
  5
2F
102
{ACAD_REACTORS
330
2A
102
}
330
2A
100
AcDbVisualStyle
  2
2dWireframe
 70
     4
177
     2
291
     0
 71
     0
176
     1
 72
     2
176
     1
 73
     0
176
     1
 90
        0
176
     1
 40
-0.6
176
     1
 41
-30.0
176
     1
 62
     5
 63
     7
421
 16777215
176
     1
 74
     1
176
     1
 91
        4
176
     1
 64
     7
176
     1
 65
   257
176
     1
 75
     1
176
     1
175
     1
176
     1
 42
1.0
176
     1
 92
        0
176
     1
 66
   257
176
     1
 43
1.0
176
     1
 76
     1
176
     1
 77
     6
176
     1
 78
     2
176
     1
 67
     7
176
     1
 79
     5
176
     1
170
     0
176
     1
171
     0
176
     1
290
     0
176
     1
 93
        1
176
     1
 44
0.0
176
     1
173
     0
176
     1
  0
VISUALSTYLE
  5
31
102
{ACAD_REACTORS
330
2A
102
}
330
2A
100
AcDbVisualStyle
  2
3D Hidden
 70
     6
177
     2
291
     0
 71
     1
176
     1
 72
     2
176
     1
 73
     2
176
     1
 90
        0
176
     1
 40
-0.6
176
     1
 41
-30.0
176
     1
 62
     5
 63
     7
421
 16777215
176
     1
 74
     2
176
     1
 91
        2
176
     1
 64
     7
176
     1
 65
   257
176
     1
 75
     2
176
     1
175
     1
176
     1
 42
40.0
176
     1
 92
        0
176
     1
 66
   257
176
     1
 43
1.0
176
     1
 76
     1
176
     1
 77
     6
176
     1
 78
     2
176
     1
 67
     7
176
     1
 79
     3
176
     1
170
     0
176
     1
171
     0
176
     1
290
     0
176
     1
 93
        1
176
     1
 44
0.0
176
     1
173
     0
176
     1
  0
VISUALSTYLE
  5
30
102
{ACAD_REACTORS
330
2A
102
}
330
2A
100
AcDbVisualStyle
  2
3dWireframe
 70
     5
177
     2
291
     0
 71
     0
176
     1
 72
     2
176
     1
 73
     0
176
     1
 90
        0
176
     1
 40
-0.6
176
     1
 41
-30.0
176
     1
 62
     5
 63
     7
421
 16777215
176
     1
 74
     1
176
     1
 91
        4
176
     1
 64
     7
176
     1
 65
   257
176
     1
 75
     1
176
     1
175
     1
176
     1
 42
1.0
176
     1
 92
        0
176
     1
 66
   257
176
     1
 43
1.0
176
     1
 76
     1
176
     1
 77
     6
176
     1
 78
     2
176
     1
 67
     7
176
     1
 79
     5
176
     1
170
     0
176
     1
171
     0
176
     1
290
     0
176
     1
 93
        1
176
     1
 44
0.0
176
     1
173
     0
176
     1
  0
VISUALSTYLE
  5
32
102
{ACAD_REACTORS
330
2A
102
}
330
2A
100
AcDbVisualStyle
  2
Basic
 70
     7
177
     2
291
     1
 71
     1
176
     1
 72
     0
176
     1
 73
     1
176
     1
 90
        0
176
     1
 40
-0.6
176
     1
 41
-30.0
176
     1
 62
     5
 63
     7
421
 16777215
176
     1
 74
     0
176
     1
 91
        4
176
     1
 64
     7
176
     1
 65
   257
176
     1
 75
     1
176
     1
175
     1
176
     1
 42
1.0
176
     1
 92
        8
176
     1
 66
     7
176
     1
 43
1.0
176
     1
 76
     1
176
     1
 77
     6
176
     1
 78
     2
176
     1
 67
     7
176
     1
 79
     5
176
     1
170
     0
176
     1
171
     0
176
     1
290
     0
176
     1
 93
        1
176
     1
 44
0.0
176
     1
173
     0
176
     1
  0
VISUALSTYLE
  5
36
102
{ACAD_REACTORS
330
2A
102
}
330
2A
100
AcDbVisualStyle
  2
Brighten
 70
    12
177
     2
291
     1
 71
     2
176
     1
 72
     2
176
     1
 73
     0
176
     1
 90
        0
176
     1
 40
-0.6
176
     1
 41
-30.0
176
     1
 62
     5
 63
     7
421
 16777215
176
     1
 74
     1
176
     1
 91
        4
176
     1
 64
     7
176
     1
 65
   257
176
     1
 75
     1
176
     1
175
     1
176
     1
 42
1.0
176
     1
 92
        8
176
     1
 66
     7
176
     1
 43
1.0
176
     1
 76
     1
176
     1
 77
     6
176
     1
 78
     2
176
     1
 67
     7
176
     1
 79
     5
176
     1
170
     0
176
     1
171
     0
176
     1
290
     0
176
     1
 93
        1
176
     1
 44
50.0
176
     1
173
     0
176
     1
  0
VISUALSTYLE
  5
3A
102
{ACAD_REACTORS
330
2A
102
}
330
2A
100
AcDbVisualStyle
  2
ColorChange
 70
    16
177
     2
291
     1
 71
     2
176
     1
 72
     2
176
     1
 73
     3
176
     1
 90
        0
176
     1
 40
-0.6
176
     1
 41
-30.0
176
     1
 62
     5
 63
     8
421
  8421504
176
     1
 74
     1
176
     1
 91
        4
176
     1
 64
     7
176
     1
 65
   257
176
     1
 75
     1
176
     1
175
     1
176
     1
 42
1.0
176
     1
 92
        8
176
     1
 66
     8
424
  8421504
176
     1
 43
1.0
176
     1
 76
     1
176
     1
 77
     6
176
     1
 78
     2
176
     1
 67
     7
176
     1
 79
     5
176
     1
170
     0
176
     1
171
     0
176
     1
290
     0
176
     1
 93
        1
176
     1
 44
0.0
176
     1
173
     0
176
     1
  0
VISUALSTYLE
  5
34
102
{ACAD_REACTORS
330
2A
102
}
330
2A
100
AcDbVisualStyle
  2
Conceptual
 70
     9
177
     2
291
     0
 71
     3
176
     1
 72
     2
176
     1
 73
     0
176
     1
 90
        0
176
     1
 40
-0.6
176
     1
 41
-30.0
176
     1
 62
     5
 63
     7
421
 16777215
176
     1
 74
     2
176
     1
 91
        2
176
     1
 64
     7
176
     1
 65
   257
176
     1
 75
     1
176
     1
175
     1
176
     1
 42
40.0
176
     1
 92
        8
176
     1
 66
     7
176
     1
 43
1.0
176
     1
 76
     1
176
     1
 77
     6
176
     1
 78
     2
176
     1
 67
     7
176
     1
 79
     3
176
     1
170
     0
176
     1
171
     0
176
     1
290
     0
176
     1
 93
        1
176
     1
 44
0.0
176
     1
173
     0
176
     1
  0
VISUALSTYLE
  5
35
102
{ACAD_REACTORS
330
2A
102
}
330
2A
100
AcDbVisualStyle
  2
Dim
 70
    11
177
     2
291
     1
 71
     2
176
     1
 72
     2
176
     1
 73
     0
176
     1
 90
        0
176
     1
 40
-0.6
176
     1
 41
-30.0
176
     1
 62
     5
 63
     7
421
 16777215
176
     1
 74
     1
176
     1
 91
        4
176
     1
 64
     7
176
     1
 65
   257
176
     1
 75
     1
176
     1
175
     1
176
     1
 42
1.0
176
     1
 92
        8
176
     1
 66
     7
176
     1
 43
1.0
176
     1
 76
     1
176
     1
 77
     6
176
     1
 78
     2
176
     1
 67
     7
176
     1
 79
     5
176
     1
170
     0
176
     1
171
     0
176
     1
290
     0
176
     1
 93
        1
176
     1
 44
-50.0
176
     1
173
     0
176
     1
  0
VISUALSTYLE
  5
39
102
{ACAD_REACTORS
330
2A
102
}
330
2A
100
AcDbVisualStyle
  2
Facepattern
 70
    15
177
     2
291
     1
 71
     2
176
     1
 72
     2
176
     1
 73
     0
176
     1
 90
        0
176
     1
 40
-0.6
176
     1
 41
-30.0
176
     1
 62
     5
 63
     7
421
 16777215
176
     1
 74
     1
176
     1
 91
        4
176
     1
 64
     7
176
     1
 65
   257
176
     1
 75
     1
176
     1
175
     1
176
     1
 42
1.0
176
     1
 92
        8
176
     1
 66
     7
176
     1
 43
1.0
176
     1
 76
     1
176
     1
 77
     6
176
     1
 78
     2
176
     1
 67
     7
176
     1
 79
     5
176
     1
170
     0
176
     1
171
     0
176
     1
290
     0
176
     1
 93
        1
176
     1
 44
0.0
176
     1
173
     0
176
     1
  0
VISUALSTYLE
  5
2B
102
{ACAD_REACTORS
330
2A
102
}
330
2A
100
AcDbVisualStyle
  2
Flat
 70
     0
177
     2
291
     1
 71
     2
176
     1
 72
     1
176
     1
 73
     1
176
     1
 90
        2
176
     1
 40
-0.6
176
     1
 41
30.0
176
     1
 62
     5
 63
     7
421
 16777215
176
     1
 74
     0
176
     1
 91
        4
176
     1
 64
     7
176
     1
 65
   257
176
     1
 75
     1
176
     1
175
     1
176
     1
 42
1.0
176
     1
 92
        8
176
     1
 66
     7
176
     1
 43
1.0
176
     1
 76
     1
176
     1
 77
     6
176
     1
 78
     2
176
     1
 67
     7
176
     1
 79
     5
176
     1
170
     0
176
     1
171
     0
176
     1
290
     0
176
     1
 93
       13
176
     1
 44
0.0
176
     1
173
     0
176
     1
  0
VISUALSTYLE
  5
2C
102
{ACAD_REACTORS
330
2A
102
}
330
2A
100
AcDbVisualStyle
  2
FlatWithEdges
 70
     1
177
     2
291
     1
 71
     2
176
     1
 72
     1
176
     1
 73
     1
176
     1
 90
        2
176
     1
 40
-0.6
176
     1
 41
30.0
176
     1
 62
     5
 63
     7
421
 16777215
176
     1
 74
     1
176
     1
 91
        4
176
     1
 64
     7
176
     1
 65
   257
176
     1
 75
     1
176
     1
175
     1
176
     1
 42
1.0
176
     1
 92
        0
176
     1
 66
   257
176
     1
 43
1.0
176
     1
 76
     1
176
     1
 77
     6
176
     1
 78
     2
176
     1
 67
     7
176
     1
 79
     5
176
     1
170
     0
176
     1
171
     0
176
     1
290
     0
176
     1
 93
       13
176
     1
 44
0.0
176
     1
173
     0
176
     1
  0
VISUALSTYLE
  5
2D
102
{ACAD_REACTORS
330
2A
102
}
330
2A
100
AcDbVisualStyle
  2
Gouraud
 70
     2
177
     2
291
     1
 71
     2
176
     1
 72
     2
176
     1
 73
     1
176
     1
 90
        2
176
     1
 40
-0.6
176
     1
 41
30.0
176
     1
 62
     5
 63
     7
421
 16777215
176
     1
 74
     0
176
     1
 91
        4
176
     1
 64
     7
176
     1
 65
   257
176
     1
 75
     1
176
     1
175
     1
176
     1
 42
1.0
176
     1
 92
        0
176
     1
 66
     7
176
     1
 43
1.0
176
     1
 76
     1
176
     1
 77
     6
176
     1
 78
     2
176
     1
 67
     7
176
     1
 79
     5
176
     1
170
     0
176
     1
171
     0
176
     1
290
     0
176
     1
 93
       13
176
     1
 44
0.0
176
     1
173
     0
176
     1
  0
VISUALSTYLE
  5
2E
102
{ACAD_REACTORS
330
2A
102
}
330
2A
100
AcDbVisualStyle
  2
GouraudWithEdges
 70
     3
177
     2
291
     1
 71
     2
176
     1
 72
     2
176
     1
 73
     1
176
     1
 90
        2
176
     1
 40
-0.6
176
     1
 41
30.0
176
     1
 62
     5
 63
     7
421
 16777215
176
     1
 74
     1
176
     1
 91
        4
176
     1
 64
     7
176
     1
 65
   257
176
     1
 75
     1
176
     1
175
     1
176
     1
 42
1.0
176
     1
 92
        0
176
     1
 66
   257
176
     1
 43
1.0
176
     1
 76
     1
176
     1
 77
     6
176
     1
 78
     2
176
     1
 67
     7
176
     1
 79
     5
176
     1
170
     0
176
     1
171
     0
176
     1
290
     0
176
     1
 93
       13
176
     1
 44
0.0
176
     1
173
     0
176
     1
  0
VISUALSTYLE
  5
38
102
{ACAD_REACTORS
330
2A
102
}
330
2A
100
AcDbVisualStyle
  2
Linepattern
 70
    14
177
     2
291
     1
 71
     2
176
     1
 72
     2
176
     1
 73
     0
176
     1
 90
        0
176
     1
 40
-0.6
176
     1
 41
-30.0
176
     1
 62
     5
 63
     7
421
 16777215
176
     1
 74
     1
176
     1
 91
        4
176
     1
 64
     7
176
     1
 65
   257
176
     1
 75
     7
176
     1
175
     7
176
     1
 42
1.0
176
     1
 92
        8
176
     1
 66
     7
176
     1
 43
1.0
176
     1
 76
     1
176
     1
 77
     6
176
     1
 78
     2
176
     1
 67
     7
176
     1
 79
     5
176
     1
170
     0
176
     1
171
     0
176
     1
290
     0
176
     1
 93
        1
176
     1
 44
0.0
176
     1
173
     0
176
     1
  0
VISUALSTYLE
  5
33
102
{ACAD_REACTORS
330
2A
102
}
330
2A
100
AcDbVisualStyle
  2
Realistic
 70
     8
177
     2
291
     0
 71
     2
176
     1
 72
     2
176
     1
 73
     0
176
     1
 90
        0
176
     1
 40
-0.6
176
     1
 41
-30.0
176
     1
 62
     5
 63
     7
421
 16777215
176
     1
 74
     1
176
     1
 91
        0
176
     1
 64
     7
176
     1
 65
   257
176
     1
 75
     1
176
     1
175
     1
176
     1
 42
1.0
176
     1
 92
        8
176
     1
 66
     8
424
  7895160
176
     1
 43
1.0
176
     1
 76
     1
176
     1
 77
     6
176
     1
 78
     2
176
     1
 67
     7
176
     1
 79
     5
176
     1
170
     0
176
     1
171
     0
176
     1
290
     0
176
     1
 93
       13
176
     1
 44
0.0
176
     1
173
     0
176
     1
  0
VISUALSTYLE
  5
37
102
{ACAD_REACTORS
330
2A
102
}
330
2A
100
AcDbVisualStyle
  2
Thicken
 70
    13
177
     2
291
     1
 71
     2
176
     1
 72
     2
176
     1
 73
     0
176
     1
 90
        0
176
     1
 40
-0.6
176
     1
 41
-30.0
176
     1
 62
     5
 63
     7
421
 16777215
176
     1
 74
     1
176
     1
 91
        4
176
     1
 64
     7
176
     1
 65
   257
176
     1
 75
     1
176
     1
175
     1
176
     1
 42
1.0
176
     1
 92
       12
176
     1
 66
     7
176
     1
 43
1.0
176
     1
 76
     1
176
     1
 77
     6
176
     1
 78
     2
176
     1
 67
     7
176
     1
 79
     5
176
     1
170
     0
176
     1
171
     0
176
     1
290
     0
176
     1
 93
        1
176
     1
 44
0.0
176
     1
173
     0
176
     1
  0
ENDSEC
  0
EOF
